<svg width="20" height="18" viewBox="0 0 20 18" fill="none" xmlns="http://www.w3.org/2000/svg">
<path d="M5.66335 3.86618V2.20331C5.66335 1.54149 6.20484 1 6.86666 1H13.1239C13.7858 1 14.3273 1.54149 14.3273 2.20331V3.86618M18.2484 9.24378V15.6203C18.2484 16.2364 17.7442 16.7407 17.1281 16.7407H2.86252C2.24645 16.7407 1.74219 16.2365 1.74219 15.6203V9.28112" stroke="#0957D0" stroke-width="1.22682" stroke-miterlimit="22.9256" stroke-linecap="round" stroke-linejoin="round"/>
<path d="M8.50622 11.1295C4.5556 10.9036 1 9.77394 1 7.74042V5.08908C1 4.47204 1.50325 3.96875 2.12033 3.96875H17.8797C18.4967 3.96875 19 4.47208 19 5.08908V7.74042C19 9.78667 15.3995 10.9178 11.4191 11.1337" stroke="#0957D0" stroke-width="1.22682" stroke-miterlimit="22.9256" stroke-linecap="round" stroke-linejoin="round"/>
<path fill-rule="evenodd" clip-rule="evenodd" d="M8.61719 10.0156H11.3807V11.304C11.3807 12.0126 10.8009 12.5924 10.0923 12.5924H9.90557C9.19696 12.5924 8.61719 12.0126 8.61719 11.304V10.0156Z" stroke="#0957D0" stroke-width="1.22682" stroke-miterlimit="22.9256" stroke-linecap="round" stroke-linejoin="round"/>
</svg>
