<svg width="47" height="47" viewBox="0 0 47 47" fill="none" xmlns="http://www.w3.org/2000/svg">
<rect x="0.652778" y="0.652778" width="45.6944" height="45.6944" rx="9.79167" fill="#5635B3"/>
<rect x="0.652778" y="0.652778" width="45.6944" height="45.6944" rx="9.79167" stroke="#5635B3" stroke-width="1.30556"/>
<path fill-rule="evenodd" clip-rule="evenodd" d="M14.3047 20.1841V16.9194C14.3046 16.6622 14.3552 16.4075 14.4536 16.1698C14.552 15.9322 14.6962 15.7162 14.8781 15.5344C15.06 15.3525 15.2759 15.2082 15.5136 15.1098C15.7512 15.0114 16.0059 14.9609 16.2631 14.9609H30.625C30.8822 14.9609 31.1369 15.0114 31.3746 15.1098C31.6122 15.2082 31.8281 15.3525 32.01 15.5344C32.1919 15.7162 32.3361 15.9322 32.4345 16.1698C32.5329 16.4075 32.5835 16.6622 32.5834 16.9194V20.1834L14.3047 20.1841ZM24.0969 16.9194C23.9237 16.9195 23.7576 16.9884 23.6351 17.1109C23.5127 17.2335 23.444 17.3996 23.4441 17.5728C23.4441 17.7461 23.513 17.9122 23.6356 18.0346C23.7581 18.157 23.9243 18.2257 24.0975 18.2257C24.2708 18.2256 24.4368 18.1567 24.5593 18.0341C24.6817 17.9116 24.7504 17.7454 24.7503 17.5722C24.7503 17.399 24.6814 17.2329 24.5588 17.1104C24.4363 16.988 24.2701 16.9193 24.0969 16.9194ZM29.3194 16.9194C29.1462 16.9195 28.9801 16.9884 28.8576 17.1109C28.7352 17.2335 28.6665 17.3996 28.6666 17.5728C28.6666 17.7461 28.7355 17.9122 28.8581 18.0346C28.9806 18.157 29.1468 18.2257 29.32 18.2257C29.4932 18.2256 29.6593 18.1567 29.7818 18.0341C29.9042 17.9116 29.9729 17.7454 29.9728 17.5722C29.9728 17.399 29.9039 17.2329 29.7813 17.1104C29.6588 16.988 29.4926 16.9193 29.3194 16.9194ZM26.7081 16.9194C26.5349 16.9195 26.3688 16.9884 26.2464 17.1109C26.124 17.2335 26.0552 17.3996 26.0553 17.5728C26.0554 17.7461 26.1243 17.9122 26.2468 18.0346C26.3694 18.157 26.5356 18.2257 26.7088 18.2257C26.882 18.2256 27.0481 18.1567 27.1705 18.0341C27.2929 17.9116 27.3617 17.7454 27.3616 17.5722C27.3615 17.399 27.2926 17.2329 27.1701 17.1104C27.0475 16.988 26.8813 16.9193 26.7081 16.9194ZM32.5834 21.4891V29.9769C32.5835 30.2341 32.5329 30.4888 32.4345 30.7265C32.3361 30.9641 32.1919 31.1801 32.01 31.3619C31.8281 31.5438 31.6122 31.6881 31.3746 31.7865C31.1369 31.8849 30.8822 31.9355 30.625 31.9354H16.2631C16.0059 31.9355 15.7512 31.8849 15.5136 31.7865C15.2759 31.6881 15.06 31.5438 14.8781 31.3619C14.6962 31.1801 14.552 30.9641 14.4536 30.7265C14.3552 30.4888 14.3046 30.2341 14.3047 29.9769V21.4897L32.5834 21.4891ZM20.3713 26.5216L22.3297 28.48C22.397 28.5467 22.4779 28.5981 22.5669 28.6305C22.6559 28.6629 22.7509 28.6755 22.8453 28.6677C22.9397 28.6598 23.0313 28.6315 23.1137 28.5848C23.1961 28.5381 23.2674 28.4741 23.3226 28.3971L26.5867 23.8274C26.6366 23.7577 26.6722 23.6787 26.6915 23.5952C26.7109 23.5116 26.7136 23.4251 26.6995 23.3405C26.6854 23.2559 26.6548 23.1749 26.6094 23.1022C26.564 23.0294 26.5047 22.9663 26.4349 22.9164C26.3651 22.8666 26.2862 22.831 26.2027 22.8116C26.1191 22.7923 26.0326 22.7896 25.948 22.8037C25.8634 22.8177 25.7824 22.8484 25.7096 22.8938C25.6369 22.9392 25.5738 22.9984 25.5239 23.0682L22.7077 27.0112L21.2944 25.5979C21.1718 25.4758 21.0058 25.4073 20.8328 25.4073C20.6598 25.4073 20.4939 25.4758 20.3713 25.5979C20.1167 25.8525 20.1167 26.2663 20.3713 26.5216Z" fill="white"/>
</svg>
