<svg width="47" height="47" viewBox="0 0 47 47" fill="none" xmlns="http://www.w3.org/2000/svg">
<rect x="0.652778" y="0.652778" width="45.6944" height="45.6944" rx="9.79167" fill="#5635B3"/>
<rect x="0.652778" y="0.652778" width="45.6944" height="45.6944" rx="9.79167" stroke="#5635B3" stroke-width="1.30556"/>
<g clip-path="url(#clip0_802_5136)">
<path d="M18.4504 26.1078C17.6322 26.1078 16.875 26.3951 16.2744 26.8738C15.8658 27.1985 15.5361 27.6115 15.31 28.0818C15.0839 28.5522 14.9672 29.0676 14.9688 29.5895C14.9688 30.2423 15.1516 30.8603 15.4736 31.3826C15.7805 31.8983 16.2163 32.3252 16.7383 32.6213C17.2603 32.9174 17.8503 33.0724 18.4504 33.0712C19.3296 33.0712 20.1303 32.7491 20.7396 32.2008C21.0095 31.9744 21.2445 31.6959 21.4273 31.3826C21.7493 30.8603 21.9321 30.2423 21.9321 29.5895C21.9321 27.6659 20.3741 26.1078 18.4504 26.1078ZM20.2522 29.2152L18.3982 30.9299C18.2763 31.0431 18.111 31.104 17.9543 31.104C17.7889 31.104 17.6235 31.0431 17.493 30.9125L16.6313 30.0508C16.3788 29.7984 16.3788 29.3806 16.6313 29.1282C16.8837 28.8758 17.3015 28.8758 17.5539 29.1282L17.9717 29.546L19.3644 28.2578C19.6255 28.014 20.0433 28.0315 20.287 28.2926C20.5307 28.5537 20.5133 28.9715 20.2522 29.2152ZM27.024 16.4897V19.7973H25.7184V16.4897C25.7184 16.2547 25.5095 16.1416 25.3702 16.1416C25.3267 16.1416 25.2832 16.1503 25.2397 16.1677L18.3373 18.7702C17.876 18.9443 17.58 19.3795 17.58 19.8756V20.4588C16.7879 21.0507 16.2744 21.9995 16.2744 23.0701V19.8756C16.2744 18.8399 16.9098 17.9172 17.876 17.5516L24.7871 14.9404C24.9786 14.8708 25.1788 14.8359 25.3702 14.8359C26.2407 14.8359 27.024 15.541 27.024 16.4897ZM32.8123 25.6726V26.543C32.8123 26.657 32.7677 26.7664 32.6879 26.8477C32.6082 26.9291 32.4997 26.976 32.3858 26.9783H31.115C30.6537 26.9783 30.2359 26.6388 30.2011 26.1862C30.1749 25.9163 30.2794 25.6639 30.4535 25.4898C30.5323 25.4082 30.627 25.3437 30.7319 25.3003C30.8367 25.2568 30.9493 25.2354 31.0628 25.2374H32.3771C32.6295 25.2461 32.8123 25.4376 32.8123 25.6726Z" fill="white"/>
<path d="M31.0531 24.3309H31.9409C32.4197 24.3309 32.8114 23.9392 32.8114 23.4604V23.0775C32.8114 21.2757 31.3403 19.8047 29.5386 19.8047H19.5462C18.8063 19.8047 18.1274 20.0484 17.5791 20.4662C16.787 21.0581 16.2734 22.0068 16.2734 23.0775V24.6268C16.2734 24.9576 16.6216 25.1665 16.935 25.062C17.4224 24.8966 17.9359 24.8096 18.4495 24.8096C21.0868 24.8096 23.2368 26.9595 23.2368 29.5969C23.2368 30.2236 23.0714 30.9112 22.8103 31.5205C22.671 31.8338 22.8886 32.2081 23.2281 32.2081H29.5386C31.3403 32.2081 32.8114 30.7371 32.8114 28.9354V28.77C32.8114 28.2912 32.4197 27.8996 31.9409 27.8996H31.1837C30.3481 27.8996 29.5473 27.386 29.3297 26.5765C29.1556 25.915 29.3645 25.2709 29.7997 24.8531C30.1218 24.5223 30.5657 24.3309 31.0531 24.3309ZM26.2832 24.1568H21.9311C21.5743 24.1568 21.2783 23.8608 21.2783 23.504C21.2783 23.1471 21.5743 22.8511 21.9311 22.8511H26.2832C26.6401 22.8511 26.936 23.1471 26.936 23.504C26.936 23.8608 26.6401 24.1568 26.2832 24.1568Z" fill="white"/>
</g>
<defs>
<clipPath id="clip0_802_5136">
<rect width="20.89" height="20.89" fill="white" transform="translate(14.1016 13.0547)"/>
</clipPath>
</defs>
</svg>
