<svg width="47" height="47" viewBox="0 0 47 47" fill="none" xmlns="http://www.w3.org/2000/svg">
<rect x="0.652778" y="0.652778" width="45.6944" height="45.6944" rx="9.79167" fill="#5635B3"/>
<rect x="0.652778" y="0.652778" width="45.6944" height="45.6944" rx="9.79167" stroke="#5635B3" stroke-width="1.30556"/>
<g clip-path="url(#clip0_768_9992)">
<path d="M30.7075 23.4977C27.8797 23.4977 25.5702 21.3481 25.2612 18.6016H15.9376C14.9252 18.6016 14.1016 19.4252 14.1016 20.4376V31.4538C14.1016 32.4662 14.9252 33.2898 15.9376 33.2898H31.9315C32.9439 33.2898 33.7675 32.4662 33.7675 31.4538V22.5652C32.8915 23.153 31.8394 23.4977 30.7075 23.4977ZM28.2594 24.7217C28.5974 24.7217 28.8714 24.9957 28.8714 25.3337C28.8714 25.6717 28.5974 25.9457 28.2594 25.9457C27.9214 25.9457 27.6474 25.6717 27.6474 25.3337C27.6474 24.9957 27.9214 24.7217 28.2594 24.7217ZM25.8114 24.7217C26.1494 24.7217 26.4234 24.9957 26.4234 25.3337C26.4234 25.6717 26.1494 25.9457 25.8114 25.9457C25.4734 25.9457 25.1994 25.6717 25.1994 25.3337C25.1994 24.9957 25.4734 24.7217 25.8114 24.7217ZM22.6697 30.2298C22.6697 30.5681 22.396 30.8418 22.0577 30.8418H17.1616C16.8233 30.8418 16.5496 30.5681 16.5496 30.2298V29.0058C16.5496 27.9513 17.0858 27.0196 17.9 26.4691C17.4456 26.0244 17.1616 25.4064 17.1616 24.7217C17.1616 23.3715 18.2595 22.2736 19.6097 22.2736C20.9598 22.2736 22.0577 23.3715 22.0577 24.7217C22.0577 25.4064 21.7737 26.0244 21.3194 26.4691C22.1336 27.0196 22.6697 27.9513 22.6697 29.0058V30.2298ZM30.7075 30.8418H25.8114C25.4731 30.8418 25.1994 30.5681 25.1994 30.2298C25.1994 29.8915 25.4731 29.6178 25.8114 29.6178H30.7075C31.0458 29.6178 31.3195 29.8915 31.3195 30.2298C31.3195 30.5681 31.0458 30.8418 30.7075 30.8418ZM30.7075 28.3937H25.8114C25.4731 28.3937 25.1994 28.12 25.1994 27.7817C25.1994 27.4435 25.4731 27.1697 25.8114 27.1697H30.7075C31.0458 27.1697 31.3195 27.4435 31.3195 27.7817C31.3195 28.12 31.0458 28.3937 30.7075 28.3937ZM30.7075 25.9457C30.3695 25.9457 30.0955 25.6717 30.0955 25.3337C30.0955 24.9957 30.3695 24.7217 30.7075 24.7217C31.0455 24.7217 31.3195 24.9957 31.3195 25.3337C31.3195 25.6717 31.0455 25.9457 30.7075 25.9457Z" fill="white"/>
<path d="M19.6095 23.4953C18.9347 23.4953 18.3854 24.0446 18.3854 24.7193C18.3854 25.3941 18.9347 25.9434 19.6095 25.9434C20.2842 25.9434 20.8335 25.3941 20.8335 24.7193C20.8335 24.0446 20.2842 23.4953 19.6095 23.4953ZM19.6095 27.1674C18.597 27.1674 17.7734 27.991 17.7734 29.0034V29.6154H21.4455V29.0034C21.4455 27.991 20.6219 27.1674 19.6095 27.1674ZM30.6665 13.7031C28.3045 13.7031 26.4232 15.6252 26.4232 17.9872C26.4232 20.3492 28.3453 22.2713 30.7073 22.2713C33.0693 22.2713 34.9914 20.3492 34.9914 17.9872C34.9914 15.6252 33.0285 13.7031 30.6665 13.7031ZM32.976 17.1959L30.528 19.6439C30.2889 19.883 29.9016 19.883 29.6625 19.6439L28.4385 18.4199C28.1995 18.1808 28.1995 17.7935 28.4385 17.5545C28.6776 17.3154 29.0649 17.3154 29.3039 17.5545L30.0953 18.3458L32.1106 16.3305C32.3497 16.0914 32.737 16.0914 32.9761 16.3305C33.2151 16.5695 33.2151 16.9568 32.976 17.1959Z" fill="white"/>
</g>
<defs>
<clipPath id="clip0_768_9992">
<rect width="20.89" height="20.89" fill="white" transform="translate(14.1016 13.0547)"/>
</clipPath>
</defs>
</svg>
