<svg width="47" height="47" viewBox="0 0 47 47" fill="none" xmlns="http://www.w3.org/2000/svg">
<rect x="0.652778" y="0.652778" width="45.6944" height="45.6944" rx="9.79167" fill="#5635B3"/>
<rect x="0.652778" y="0.652778" width="45.6944" height="45.6944" rx="9.79167" stroke="#5635B3" stroke-width="1.30556"/>
<g clip-path="url(#clip0_768_9979)">
<path d="M21.6119 22.757C18.9868 22.757 16.5412 22.0268 14.8882 20.916C14.8706 20.9042 14.8531 20.8924 14.836 20.8806V23.1456C15.1675 23.4624 15.587 23.7674 16.0816 24.0447C17.5805 24.8846 19.596 25.3666 21.6119 25.3666C22.3965 25.3666 23.1663 25.3074 23.9018 25.1928V22.5963C23.1605 22.7024 22.3915 22.757 21.6119 22.757ZM23.9018 27.2113V26.4292C23.1605 26.5352 22.3915 26.5899 21.6119 26.5899C18.9819 26.5899 16.5322 25.8572 14.8792 24.7424C14.8645 24.733 14.8502 24.7232 14.836 24.7134V27.2031C15.13 27.4539 15.4798 27.6949 15.8778 27.9183C17.3766 28.7583 19.3922 29.2402 21.4081 29.2402C22.4902 29.2402 23.5446 29.1277 24.52 28.9128C24.1261 28.4459 23.9018 27.8486 23.9018 27.2113ZM28.3744 31.347L28.3328 31.3246L25.806 29.8392C24.4702 30.2461 22.9611 30.4634 21.408 30.4634C18.8621 30.4634 16.4849 29.7768 14.8359 28.7219V31.0775C14.8359 32.9592 18.2529 33.9435 21.6282 33.9435C24.8323 33.9435 28.0738 33.0563 28.3939 31.3564C28.3874 31.3536 28.3809 31.3503 28.3744 31.347ZM21.6282 13.0547C18.3592 13.0547 15.0516 13.978 14.8462 15.745C15.134 15.9868 15.473 16.2194 15.8579 16.435C17.3565 17.2749 19.3722 17.7566 21.3881 17.7566C23.4625 17.7566 25.4358 17.3424 26.9444 16.5902C27.545 16.2908 28.0335 15.952 28.3855 15.6008C28.0216 13.9278 24.8065 13.0547 21.6282 13.0547Z" fill="white"/>
<path d="M27.49 17.6966C25.8153 18.5317 23.6482 18.9916 21.388 18.9916C18.8522 18.9916 16.484 18.269 14.8359 17.2215V19.4058C15.1674 19.7226 15.5462 19.9461 16.0408 20.2234C17.5397 21.0633 19.596 21.5453 21.6119 21.5453C22.3964 21.5453 23.1662 21.4862 23.9018 21.3716V20.6698C23.9018 20.1528 24.248 19.6994 24.745 19.5628L28.42 18.4888V17.1562C28.1391 17.3471 27.8292 17.5274 27.49 17.6966ZM33.5569 20.4913L29.7606 19.3817L29.7454 19.3774C29.6301 19.347 29.5089 19.347 29.3937 19.3774L25.5821 20.4913C25.1712 20.6043 24.885 20.979 24.885 21.4061V26.8224C24.885 27.6452 25.3375 28.3874 26.0673 28.7644L28.5474 30.2221L28.5817 30.2408C28.891 30.3969 29.2303 30.475 29.5695 30.475C29.9087 30.475 30.248 30.3969 30.5573 30.2408L30.5747 30.232L33.0717 28.7644C33.8015 28.3873 34.254 27.6452 34.254 26.8224V21.4061C34.254 20.979 33.9678 20.6044 33.5569 20.4913ZM31.7793 24.2135L29.2817 26.5246C29.2766 26.5294 29.2711 26.5334 29.2659 26.5379C29.2587 26.5442 29.2516 26.5504 29.2441 26.5562C29.2357 26.5629 29.2271 26.569 29.2184 26.5752C29.2108 26.5806 29.2032 26.586 29.1953 26.5911C29.1862 26.5969 29.1769 26.6021 29.1676 26.6074C29.1599 26.6118 29.1522 26.6163 29.1443 26.6204C29.1344 26.6254 29.1243 26.6299 29.1141 26.6344C29.1065 26.6378 29.099 26.6414 29.0913 26.6445C29.0804 26.6487 29.0694 26.6523 29.0584 26.656C29.0511 26.6584 29.0439 26.6611 29.0365 26.6632C29.0246 26.6666 29.0126 26.6693 29.0005 26.672C28.9938 26.6735 28.9873 26.6754 28.9805 26.6766C28.967 26.6792 28.9533 26.6809 28.9397 26.6826C28.9343 26.6832 28.929 26.6843 28.9237 26.6848C28.9046 26.6866 28.8855 26.6875 28.8664 26.6875H28.8663C28.8461 26.6875 28.8261 26.6864 28.806 26.6845C28.8004 26.6839 28.7948 26.6828 28.7892 26.682C28.7748 26.6802 28.7605 26.6784 28.7463 26.6755C28.7392 26.6741 28.7323 26.672 28.7252 26.6704C28.7126 26.6674 28.7 26.6645 28.6877 26.6608C28.6799 26.6584 28.6724 26.6554 28.6647 26.6527C28.6532 26.6487 28.6418 26.6449 28.6305 26.6401C28.6224 26.6367 28.6145 26.6327 28.6065 26.629C28.596 26.6241 28.5856 26.6192 28.5754 26.6137C28.5671 26.6092 28.5591 26.6041 28.551 26.5993C28.5414 26.5935 28.5319 26.5878 28.5226 26.5815C28.5144 26.5759 28.5065 26.5698 28.4985 26.5638C28.4897 26.5572 28.481 26.5505 28.4725 26.5434C28.4648 26.5369 28.4573 26.5299 28.4498 26.5229C28.4445 26.5179 28.4388 26.5135 28.4336 26.5082L27.3424 25.4169C27.1035 25.178 27.1035 24.7908 27.3424 24.5519C27.5813 24.313 27.9685 24.313 28.2074 24.5519L28.8826 25.2271L30.9483 23.3156C31.1961 23.0861 31.5832 23.1012 31.8126 23.3491C32.0422 23.597 32.0273 23.984 31.7793 24.2135Z" fill="white"/>
</g>
<defs>
<clipPath id="clip0_768_9979">
<rect width="20.8889" height="20.8889" fill="white" transform="translate(14.1016 13.0547)"/>
</clipPath>
</defs>
</svg>
