<svg width="32" height="32" viewBox="0 0 32 32" fill="none" xmlns="http://www.w3.org/2000/svg">
<path d="M11.9993 15.9974L14.666 18.6641L20.666 12.6641M9.77771 5.08899C10.8495 5.00346 11.867 4.58201 12.6853 3.88462C14.595 2.25721 17.4037 2.25721 19.3134 3.88462C20.1317 4.58201 21.1492 5.00346 22.221 5.08899C24.7221 5.28858 26.7082 7.27466 26.9078 9.77575C26.9933 10.8475 27.4147 11.865 28.1121 12.6834C29.7395 14.593 29.7395 17.4018 28.1121 19.3114C27.4147 20.1298 26.9933 21.1473 26.9078 22.219C26.7082 24.7201 24.7221 26.7062 22.221 26.9058C21.1492 26.9913 20.1317 27.4128 19.3134 28.1102C17.4037 29.7376 14.595 29.7376 12.6853 28.1102C11.867 27.4128 10.8495 26.9913 9.77771 26.9058C7.27661 26.7062 5.29053 24.7201 5.09094 22.219C5.00541 21.1473 4.58396 20.1298 3.88657 19.3114C2.25916 17.4018 2.25916 14.593 3.88657 12.6834C4.58396 11.865 5.00541 10.8475 5.09094 9.77575C5.29053 7.27466 7.27661 5.28858 9.77771 5.08899Z" stroke="#289900" stroke-width="1.77778" stroke-linecap="round" stroke-linejoin="round"/>
</svg>
