<svg width="24" height="24" viewBox="0 0 24 24" fill="none" xmlns="http://www.w3.org/2000/svg">
<path fill-rule="evenodd" clip-rule="evenodd" d="M6.2411 16.596C6.08673 16.7504 6 16.9597 6 17.1781C6 17.3964 6.08673 17.6058 6.2411 17.7601C6.39548 17.9145 6.60486 18.0012 6.82318 18.0012C7.0415 18.0012 7.25088 17.9145 7.40525 17.7601L12.0001 13.1636L16.5959 17.7593C16.751 17.9092 16.9588 17.9921 17.1746 17.9902C17.3903 17.9884 17.5966 17.9018 17.7492 17.7493C17.9017 17.5967 17.9882 17.3904 17.9901 17.1747C17.992 16.959 17.9091 16.7512 17.7592 16.596L13.1635 12.0003L17.7592 7.40455C17.9135 7.25017 18.0001 7.04084 18 6.8226C17.9999 6.60435 17.9132 6.39508 17.7588 6.24081C17.6044 6.08655 17.3951 5.99992 17.1768 6C16.9586 6.00008 16.7493 6.08685 16.595 6.24122L12.0001 10.8369L7.40443 6.24122C7.24926 6.09136 7.04144 6.00843 6.82573 6.01031C6.61001 6.01218 6.40366 6.09871 6.25112 6.25125C6.09859 6.40378 6.01206 6.61013 6.01019 6.82585C6.00831 7.04156 6.09124 7.24938 6.2411 7.40455L10.8368 12.0003L6.2411 16.596Z" fill="#E11C20"/>
</svg>
