<svg width="9" height="9" viewBox="0 0 9 9" fill="none" xmlns="http://www.w3.org/2000/svg">
<path fill-rule="evenodd" clip-rule="evenodd" d="M0.705614 7.52311C0.603975 7.62475 0.546875 7.7626 0.546875 7.90634C0.546875 8.05008 0.603975 8.18793 0.705614 8.28957C0.807252 8.39121 0.945104 8.44831 1.08884 8.44831C1.23258 8.44831 1.37043 8.39121 1.47207 8.28957L4.49728 5.26328L7.52303 8.28903C7.62519 8.3877 7.76202 8.44229 7.90404 8.44106C8.04606 8.43982 8.18192 8.38286 8.28235 8.28243C8.38278 8.182 8.43974 8.04614 8.44098 7.90412C8.44221 7.7621 8.38762 7.62527 8.28895 7.52311L5.2632 4.49736L8.28895 1.47161C8.39051 1.36997 8.44755 1.23215 8.44749 1.08846C8.44744 0.944772 8.39032 0.806989 8.28868 0.705422C8.18704 0.603855 8.04921 0.546824 7.90553 0.546875C7.76184 0.546926 7.62406 0.604054 7.52249 0.705693L4.49728 3.73144L1.47153 0.705693C1.36937 0.607024 1.23254 0.552427 1.09052 0.553661C0.948498 0.554895 0.812641 0.611862 0.712212 0.712291C0.611782 0.812721 0.554816 0.948578 0.553582 1.0906C0.552348 1.23262 0.606945 1.36945 0.705614 1.47161L3.73136 4.49736L0.705614 7.52311Z" fill="black"/>
</svg>
