<svg width="20" height="20" viewBox="0 0 20 20" fill="none" xmlns="http://www.w3.org/2000/svg">
<path d="M6.28455 14.9723C6.40176 15.0895 6.5607 15.1553 6.72643 15.1553C6.89216 15.1553 7.0511 15.0895 7.1683 14.9723L10.6283 11.5123L14.0883 14.9723C14.2062 15.0862 14.3641 15.1492 14.5279 15.1477C14.6918 15.1463 14.8486 15.0806 14.9644 14.9647C15.0803 14.8488 15.1461 14.6921 15.1475 14.5282C15.1489 14.3643 15.0859 14.2064 14.9721 14.0886L11.5121 10.6286L14.9721 7.16857C15.0859 7.05069 15.1489 6.89282 15.1475 6.72894C15.1461 6.56507 15.0803 6.40831 14.9644 6.29243C14.8486 6.17655 14.6918 6.11082 14.5279 6.1094C14.3641 6.10797 14.2062 6.17097 14.0883 6.28482L10.6283 9.74482L7.1683 6.28482C7.05043 6.17097 6.89255 6.10797 6.72868 6.1094C6.56481 6.11082 6.40805 6.17655 6.29217 6.29243C6.17629 6.40831 6.11056 6.56507 6.10913 6.72894C6.10771 6.89282 6.17071 7.05069 6.28455 7.16857L9.74455 10.6286L6.28455 14.0886C6.16738 14.2058 6.10156 14.3647 6.10156 14.5304C6.10156 14.6962 6.16738 14.8551 6.28455 14.9723Z" fill="#757575"/>
</svg>
