<svg width="27" height="28" viewBox="0 0 27 28" fill="none" xmlns="http://www.w3.org/2000/svg">
<path d="M8.39292 22.2596H6.23287C2.92537 22.0233 1.44043 19.4808 1.44043 17.2196C1.44043 14.9583 2.92539 12.4046 6.17664 12.1796C6.63789 12.1346 7.04287 12.4946 7.07662 12.9671C7.11037 13.4283 6.76168 13.8333 6.28918 13.8671C4.10668 14.0246 3.12793 15.6671 3.12793 17.2308C3.12793 18.7946 4.10668 20.4371 6.28918 20.5946H8.39292C8.85417 20.5946 9.23667 20.9771 9.23667 21.4383C9.23667 21.8996 8.85417 22.2596 8.39292 22.2596Z" fill="#333333"/>
<path d="M18.7533 22.2579C18.7308 22.2579 18.7195 22.2579 18.697 22.2579C18.2358 22.2579 17.8083 21.8754 17.8083 21.4141C17.8083 20.9304 18.1683 20.5704 18.6408 20.5704C20.0245 20.5704 21.262 20.0866 22.2295 19.2204C23.9845 17.6904 24.097 15.4854 23.6245 13.9329C23.152 12.3916 21.8358 10.6254 19.5408 10.3441C19.1695 10.2991 18.877 10.0179 18.8095 9.64662C18.3595 6.94662 16.9083 5.07912 14.7033 4.40412C12.4308 3.69537 9.77575 4.39287 8.122 6.12537C6.51325 7.80162 6.14201 10.1529 7.07576 12.7404C7.23326 13.1791 7.00832 13.6629 6.56957 13.8204C6.13082 13.9779 5.64704 13.7529 5.48954 13.3141C4.35329 10.1416 4.8708 7.10412 6.90705 4.96662C8.9883 2.78412 12.3295 1.91786 15.1983 2.79536C17.8308 3.60536 19.687 5.77661 20.362 8.79161C22.657 9.30911 24.502 11.0529 25.2333 13.4604C26.032 16.0816 25.312 18.7816 23.3433 20.4916C22.0945 21.6166 20.4633 22.2579 18.7533 22.2579Z" fill="#333333"/>
<path d="M13.501 25.5664C11.2397 25.5664 9.12475 24.3627 7.966 22.4164C7.84225 22.2252 7.7185 22.0002 7.61725 21.7527C7.23475 20.9539 7.03223 20.0427 7.03223 19.0977C7.03223 15.5314 9.93473 12.6289 13.501 12.6289C17.0672 12.6289 19.9697 15.5314 19.9697 19.0977C19.9697 20.0539 19.7673 20.9539 19.3623 21.7864C19.2723 22.0002 19.1485 22.2252 19.0135 22.4389C17.8773 24.3627 15.7622 25.5664 13.501 25.5664ZM13.501 14.3164C10.8685 14.3164 8.71973 16.4652 8.71973 19.0977C8.71973 19.7952 8.86598 20.4477 9.14723 21.0439C9.23723 21.2352 9.31596 21.3927 9.40596 21.5389C10.261 22.9902 11.8247 23.8789 13.4897 23.8789C15.1547 23.8789 16.7185 22.9902 17.5622 21.5614C17.6635 21.3927 17.7535 21.2352 17.821 21.0777C18.1248 20.4589 18.271 19.8064 18.271 19.1089C18.2822 16.4652 16.1335 14.3164 13.501 14.3164Z" fill="#333333"/>
<path d="M12.86 21.0539C12.6462 21.0539 12.4325 20.9752 12.2638 20.8064L11.15 19.6927C10.8237 19.3664 10.8237 18.8264 11.15 18.5002C11.4762 18.1739 12.0162 18.1739 12.3425 18.5002L12.8825 19.0402L14.6825 17.3752C15.0312 17.0602 15.56 17.0827 15.875 17.4202C16.19 17.7577 16.1675 18.2977 15.83 18.6127L13.4337 20.8289C13.265 20.9752 13.0625 21.0539 12.86 21.0539Z" fill="#333333"/>
</svg>
