<svg width="50" height="50" viewBox="0 0 50 50" fill="none" xmlns="http://www.w3.org/2000/svg">
<circle cx="25" cy="25" r="25" fill="url(#paint0_linear_3593_5812)"/>
<path d="M23.4839 22.7344H21.9676C21.5192 22.7344 21.1523 23.1012 21.1523 23.5496C21.1523 23.998 21.5192 24.3648 21.9676 24.3648H23.4839C23.9322 24.3648 24.2991 23.998 24.2991 23.5496C24.2991 23.1012 23.9322 22.7344 23.4839 22.7344ZM26.5165 24.3648H28.0328C28.4811 24.3648 28.848 23.998 28.848 23.5496C28.848 23.1012 28.4811 22.7344 28.0328 22.7344H26.5165C26.0681 22.7344 25.7013 23.1012 25.7013 23.5496C25.7013 23.998 26.0681 24.3648 26.5165 24.3648ZM23.4839 26.5251H21.9676C21.5192 26.5251 21.1523 26.892 21.1523 27.3404C21.1523 27.7887 21.5192 28.1556 21.9676 28.1556H23.4839C23.9322 28.1556 24.2991 27.7887 24.2991 27.3404C24.2991 26.892 23.9322 26.5251 23.4839 26.5251ZM28.0246 26.5251H26.5083C26.06 26.5251 25.6931 26.892 25.6931 27.3404C25.6931 27.7887 26.06 28.1556 26.5083 28.1556H28.0246C28.473 28.1556 28.8398 27.7887 28.8398 27.3404C28.8398 26.892 28.473 26.5251 28.0246 26.5251Z" fill="white"/>
<path d="M36.4147 35.6006H35.5995V17.4294C35.5995 17.1359 35.4446 16.8669 35.1838 16.7201L28.4338 12.8805C28.181 12.7337 27.8713 12.7419 27.6185 12.8805C27.4953 12.9516 27.3929 13.0537 27.3214 13.1767C27.2499 13.2997 27.2118 13.4393 27.2109 13.5815V18.9375H22.7843V13.5897C22.7843 13.2962 22.6294 13.0272 22.3767 12.8886C22.253 12.8165 22.1123 12.7785 21.9691 12.7785C21.8259 12.7785 21.6852 12.8165 21.5615 12.8886L14.8196 16.7201C14.5669 16.8669 14.4039 17.1359 14.4039 17.4294V35.6006H13.5887C13.1403 35.6006 12.7734 35.9674 12.7734 36.4158C12.7734 36.8641 13.1403 37.231 13.5887 37.231H36.4147C36.8631 37.231 37.23 36.8641 37.23 36.4158C37.23 35.9674 36.8631 35.6006 36.4147 35.6006ZM28.8414 14.9919L33.9691 17.9103V35.6006H32.6321V19.7609C32.6321 19.3125 32.2653 18.9457 31.8169 18.9457H28.8495V14.9919H28.8414ZM25.8169 31.9321H27.2109V35.6006H25.8169V31.9321ZM24.1865 35.6006H22.7925V31.9321H24.1865V35.6006ZM28.0262 30.3016H21.9691C21.5207 30.3016 21.1539 30.6685 21.1539 31.1169V35.6006H19.0017V20.5761H30.9935V35.6006H28.8414V31.1169C28.8414 30.6685 28.4745 30.3016 28.0262 30.3016ZM16.0343 17.9103L21.162 14.9919V18.9457H18.1946C17.7463 18.9457 17.3794 19.3125 17.3794 19.7609V35.6006H16.0425V17.9103H16.0343Z" fill="white"/>
<defs>
<linearGradient id="paint0_linear_3593_5812" x1="25" y1="0" x2="25" y2="50" gradientUnits="userSpaceOnUse">
<stop stop-color="#5970FF"/>
<stop offset="1" stop-color="#8C39FC"/>
</linearGradient>
</defs>
</svg>
