<svg width="18" height="18" viewBox="0 0 18 18" fill="none" xmlns="http://www.w3.org/2000/svg">
<g clip-path="url(#clip0_1623_5127)">
<path fill-rule="evenodd" clip-rule="evenodd" d="M15.36 6.22575C15.742 7.1007 15.9386 8.04529 15.9375 9C15.9375 12.8288 12.8288 15.9375 9 15.9375C5.17125 15.9375 2.0625 12.8288 2.0625 9C2.0625 5.17125 5.17125 2.0625 9 2.0625C9.14919 2.0625 9.29226 2.00324 9.39775 1.89775C9.50324 1.79226 9.5625 1.64918 9.5625 1.5C9.5625 1.35082 9.50324 1.20774 9.39775 1.10225C9.29226 0.996763 9.14919 0.9375 9 0.9375C4.55025 0.9375 0.9375 4.55025 0.9375 9C0.9375 13.4498 4.55025 17.0625 9 17.0625C13.4498 17.0625 17.0625 13.4498 17.0625 9C17.0625 7.85325 16.8225 6.76275 16.3905 5.77425C16.3306 5.6376 16.2189 5.53033 16.08 5.47603C15.941 5.42174 15.7862 5.42488 15.6495 5.48475C15.5128 5.54462 15.4056 5.65633 15.3513 5.79529C15.297 5.93426 15.3001 6.0891 15.36 6.22575Z" fill="#0957D0"/>
<path fill-rule="evenodd" clip-rule="evenodd" d="M12.7548 0.9375C12.0702 0.937699 11.4137 1.20974 10.9297 1.69382C10.4456 2.17791 10.1735 2.8344 10.1733 3.519C10.1733 3.9645 10.3751 4.50675 10.6871 5.03625C11.3133 6.102 12.3573 7.1475 12.3573 7.1475C12.4095 7.19975 12.4715 7.2412 12.5397 7.26948C12.6079 7.29776 12.681 7.31232 12.7548 7.31232C12.8287 7.31232 12.9018 7.29776 12.97 7.26948C13.0382 7.2412 13.1002 7.19975 13.1523 7.1475C13.1523 7.1475 14.1963 6.102 14.8226 5.03625C15.1346 4.50675 15.3363 3.9645 15.3363 3.519C15.3363 2.094 14.1798 0.9375 12.7548 0.9375ZM12.7548 2.0625C13.5588 2.0625 14.2113 2.715 14.2113 3.519C14.2113 3.915 13.9166 4.40175 13.6001 4.86075C13.3396 5.23212 13.0573 5.58774 12.7548 5.92575C12.5111 5.65125 12.1923 5.27025 11.9096 4.86075C11.5931 4.40175 11.2983 3.915 11.2983 3.519C11.2983 2.715 11.9508 2.0625 12.7548 2.0625ZM1.20708 9.477L3.65958 11.01C4.10658 11.289 4.62333 11.4375 5.14983 11.4375H5.71983C6.21258 11.4375 6.68058 11.6527 7.00158 12.027L7.78983 12.9473C7.97146 13.159 8.09777 13.4124 8.15745 13.6849C8.21714 13.9574 8.20833 14.2405 8.13183 14.5087L7.71408 15.9705C7.67646 16.1129 7.69615 16.2643 7.76894 16.3923C7.84173 16.5203 7.9618 16.6146 8.10338 16.6551C8.24496 16.6955 8.39675 16.6789 8.52617 16.6086C8.65559 16.5384 8.75232 16.4202 8.79558 16.2795L9.21333 14.8177C9.34107 14.3707 9.35593 13.899 9.25659 13.4448C9.15724 12.9906 8.94679 12.5681 8.64408 12.2153L7.85508 11.295C7.59123 10.9868 7.26374 10.7393 6.89514 10.5697C6.52654 10.4001 6.12558 10.3124 5.71983 10.3125H5.14983C4.83408 10.3125 4.52433 10.224 4.25583 10.056L1.80258 8.523C1.73993 8.48155 1.66961 8.45306 1.59577 8.43923C1.52194 8.42539 1.44607 8.42649 1.37267 8.44245C1.29926 8.45841 1.22979 8.48892 1.16837 8.53217C1.10694 8.57541 1.0548 8.63053 1.01502 8.69425C0.975241 8.75798 0.94863 8.82903 0.936757 8.90321C0.924884 8.97739 0.92799 9.05319 0.945892 9.12615C0.963794 9.19911 0.996129 9.26774 1.04099 9.328C1.08585 9.38826 1.14232 9.43892 1.20708 9.477Z" fill="#0957D0"/>
<path fill-rule="evenodd" clip-rule="evenodd" d="M3.99089 3.25516L5.18789 5.64916C5.31877 5.91118 5.504 6.1423 5.73122 6.3271C5.95845 6.51191 6.22245 6.64616 6.50564 6.72091L7.82414 7.06966C8.15639 7.15741 8.41364 7.41991 8.49464 7.75366L9.05939 10.0689C9.18181 10.5715 9.48858 11.0097 9.91889 11.2967L10.2684 11.5292C10.5116 11.6919 10.7866 11.8009 11.0752 11.849C11.3638 11.897 11.6593 11.8831 11.9421 11.808C12.2249 11.7329 12.4885 11.5985 12.7152 11.4136C12.942 11.2287 13.1267 10.9976 13.2571 10.7357L13.6884 9.87241C13.7489 9.75153 13.8349 9.64518 13.9404 9.56065C14.0459 9.47611 14.1685 9.4154 14.2996 9.38266L16.3929 8.85916C16.5357 8.82122 16.6578 8.7286 16.7329 8.60133C16.808 8.47406 16.83 8.32236 16.7941 8.17902C16.7583 8.03567 16.6674 7.91219 16.5413 7.83527C16.4151 7.75834 16.2637 7.73415 16.1199 7.76791L14.0266 8.29066C13.7381 8.36298 13.4687 8.49679 13.2367 8.68294C13.0047 8.86909 12.8157 9.10317 12.6826 9.36916L12.2506 10.2324C12.1916 10.3516 12.1077 10.4568 12.0047 10.541C11.9016 10.6252 11.7818 10.6864 11.6533 10.7205C11.5247 10.7547 11.3903 10.761 11.2591 10.739C11.1279 10.7171 11.0028 10.6673 10.8924 10.5932L10.5429 10.3607C10.3473 10.2302 10.2078 10.0311 10.1521 9.80266L9.58814 7.48741C9.50019 7.12686 9.31658 6.79672 9.05667 6.5318C8.79677 6.26688 8.4702 6.07699 8.11139 5.98216L6.79289 5.63341C6.66418 5.59943 6.54421 5.53836 6.441 5.45429C6.33779 5.37022 6.25371 5.26508 6.19439 5.14591L4.99739 2.75266C4.96475 2.68599 4.91923 2.62643 4.86346 2.57743C4.80769 2.52844 4.74278 2.49096 4.67246 2.46717C4.60214 2.44338 4.5278 2.43374 4.45374 2.43882C4.37967 2.44389 4.30735 2.46357 4.24093 2.49673C4.17451 2.52989 4.11531 2.57587 4.06675 2.63202C4.01818 2.68817 3.98121 2.75338 3.95797 2.82388C3.93473 2.89438 3.92567 2.96879 3.93132 3.04281C3.93697 3.11683 3.95722 3.189 3.99089 3.25516Z" fill="#0957D0"/>
</g>
<defs>
<clipPath id="clip0_1623_5127">
<rect width="18" height="18" fill="white"/>
</clipPath>
</defs>
</svg>
