<svg width="14" height="14" viewBox="0 0 14 14" fill="none" xmlns="http://www.w3.org/2000/svg">
<path d="M9.55914 14H3.53763C2.4086 14 1.43011 13.0968 1.43011 11.8925V3.46237H0.526882C0.225807 3.46237 0 3.16129 0 2.86022C0 2.55914 0.225807 2.33333 0.526882 2.33333H3.76344V2.10753C3.76344 0.978495 4.66667 0 5.87097 0H7.37635C8.50538 0 9.48387 0.903226 9.48387 2.10753V2.33333H12.5699C12.871 2.33333 13.172 2.55914 13.172 2.93548C13.172 3.31183 12.871 3.46237 12.5699 3.46237H11.5914V11.8925C11.6667 13.0215 10.6882 14 9.55914 14ZM2.63441 3.46237V11.8925C2.63441 12.4194 3.08602 12.871 3.6129 12.871H9.63441C10.1613 12.871 10.6129 12.4194 10.6129 11.8925V3.46237H2.63441ZM4.89247 2.33333H8.27957V2.10753C8.27957 1.58065 7.82796 1.12903 7.30108 1.12903H5.7957C5.26882 1.12903 4.8172 1.58065 4.8172 2.10753V2.33333H4.89247ZM8.05376 10.9892C7.75269 10.9892 7.45161 10.7634 7.45161 10.3871V5.87097C7.45161 5.56989 7.67742 5.26882 8.05376 5.26882C8.43011 5.26882 8.65592 5.49462 8.65592 5.87097V10.3871C8.65592 10.6882 8.35484 10.9892 8.05376 10.9892ZM5.04301 10.9892C4.74194 10.9892 4.44086 10.7634 4.44086 10.3871V5.87097C4.44086 5.56989 4.66667 5.26882 5.04301 5.26882C5.41936 5.26882 5.64516 5.49462 5.64516 5.87097V10.3871C5.64516 10.6882 5.34409 10.9892 5.04301 10.9892Z" fill="#101010"/>
</svg>
