<svg width="141" height="140" viewBox="0 0 141 140" fill="none" xmlns="http://www.w3.org/2000/svg">
<g opacity="0.17">
<path opacity="0.038" d="M74.8936 73.9633C74.9001 70.3216 64.8494 67.3513 52.4448 67.329C40.0401 67.3067 29.9788 70.2408 29.9723 73.8826C29.9658 77.5243 40.0164 80.4946 52.4211 80.5169C64.8257 80.5392 74.887 77.6051 74.8936 73.9633Z" fill="#4A0101"/>
<path opacity="0.077" d="M74.3383 73.9606C74.3447 70.409 64.5425 67.5123 52.4445 67.4906C40.3466 67.4688 30.5341 70.3303 30.5277 73.8818C30.5213 77.4334 40.3234 80.3301 52.4214 80.3519C64.5194 80.3736 74.3319 77.5122 74.3383 73.9606Z" fill="#480202"/>
<path opacity="0.115" d="M73.7785 73.9579C73.7847 70.4965 64.2332 67.6734 52.4445 67.6522C40.6558 67.631 31.0941 70.4198 31.0879 73.8811C31.0817 77.3425 40.6333 80.1656 52.422 80.1868C64.2106 80.208 73.7723 77.4192 73.7785 73.9579Z" fill="#460303"/>
<path opacity="0.154" d="M73.2232 73.9551C73.2293 70.584 63.9262 67.8344 52.4442 67.8138C40.9623 67.7931 31.6494 70.5092 31.6433 73.8804C31.6372 77.2515 40.9403 80.0011 52.4223 80.0217C63.9043 80.0424 73.2172 77.3263 73.2232 73.9551Z" fill="#440404"/>
<path opacity="0.192" d="M72.6674 73.9524C72.6733 70.6715 63.6188 67.9955 52.4435 67.9754C41.2682 67.9553 32.2041 70.5987 32.1982 73.8797C32.1923 77.1606 41.2469 79.8366 52.4221 79.8567C63.5974 79.8768 72.6615 77.2333 72.6674 73.9524Z" fill="#420505"/>
<path opacity="0.231" d="M72.1072 73.9575C72.1129 70.7667 63.309 68.1643 52.443 68.1448C41.577 68.1253 32.7637 70.696 32.7579 73.8867C32.7522 77.0775 41.5562 79.6799 52.4222 79.6994C63.2882 79.719 72.1015 77.1482 72.1072 73.9575Z" fill="#400606"/>
<path opacity="0.269" d="M71.5529 73.9626C71.5585 70.862 63.003 68.3332 52.4437 68.3142C41.8844 68.2952 33.3199 70.7933 33.3143 73.8938C33.3087 76.9943 41.8642 79.5232 52.4235 79.5422C62.9828 79.5612 71.5473 77.0631 71.5529 73.9626Z" fill="#3E0606"/>
<path opacity="0.308" d="M70.9927 73.9598C70.9981 70.9495 62.6932 68.4942 52.4432 68.4758C42.1931 68.4574 33.8795 70.8828 33.8741 73.8931C33.8686 76.9034 42.1735 79.3587 52.4236 79.3771C62.6736 79.3955 70.9873 76.9701 70.9927 73.9598Z" fill="#3C0707"/>
<path opacity="0.346" d="M70.4364 73.9571C70.4416 71.037 62.3852 68.6553 52.4419 68.6374C42.4986 68.6195 34.4337 70.9723 34.4285 73.8924C34.4232 76.8125 42.4796 79.1942 52.4229 79.2121C62.3662 79.2299 70.4311 76.8772 70.4364 73.9571Z" fill="#3A0808"/>
<path opacity="0.385" d="M69.8821 73.9544C69.8872 71.1245 62.0793 68.8163 52.4426 68.799C42.806 68.7817 34.9899 71.0617 34.9848 73.8916C34.9797 76.7215 42.7876 79.0297 52.4242 79.047C62.0608 79.0643 69.877 76.7843 69.8821 73.9544Z" fill="#380909"/>
<path opacity="0.423" d="M69.3213 73.9594C69.3263 71.2197 61.769 68.9852 52.4416 68.9684C43.1143 68.9517 35.549 71.159 35.5441 73.8987C35.5391 76.6384 43.0965 78.873 52.4238 78.8897C61.7511 78.9065 69.3164 76.6991 69.3213 73.9594Z" fill="#360A0A"/>
<path opacity="0.462" d="M68.767 73.9536C68.7718 71.3067 61.463 69.1478 52.4423 69.1315C43.4217 69.1153 36.1052 71.2479 36.1004 73.8948C36.0957 76.5418 43.4045 78.7006 52.4251 78.7169C61.4457 78.7331 68.7623 76.6005 68.767 73.9536Z" fill="#340B0B"/>
<path opacity="0.5" d="M68.2117 73.9587C68.2163 71.4019 61.156 69.3166 52.4421 69.301C43.7281 69.2853 36.6604 71.3452 36.6558 73.9019C36.6512 76.4586 43.7115 78.5439 52.4254 78.5596C61.1394 78.5753 68.2071 76.5154 68.2117 73.9587Z" fill="#330C0C"/>
<path opacity="0.538" d="M67.6505 73.9481C67.655 71.4816 60.8452 69.4699 52.4406 69.4547C44.0359 69.4396 37.219 71.4269 37.2146 73.8934C37.2101 76.3599 44.0199 78.3716 52.4245 78.3867C60.8292 78.4018 67.6461 76.4146 67.6505 73.9481Z" fill="#310D0D"/>
<path opacity="0.577" d="M67.0957 73.9532C67.1 71.5769 60.5388 69.6387 52.4408 69.6242C44.3429 69.6096 37.7747 71.5242 37.7704 73.9005C37.7662 76.2768 44.3274 78.2149 52.4253 78.2295C60.5233 78.244 67.0914 76.3295 67.0957 73.9532Z" fill="#2F0E0E"/>
<path opacity="0.615" d="M66.536 73.9426C66.5401 71.6565 60.2294 69.7919 52.4408 69.7779C44.6521 69.7639 38.3348 71.6058 38.3307 73.8919C38.3266 76.178 44.6372 78.0426 52.4259 78.0566C60.2146 78.0706 66.5319 76.2287 66.536 73.9426Z" fill="#2D0F0F"/>
<path opacity="0.654" d="M65.9802 73.9477C65.9841 71.7518 59.922 69.9608 52.44 69.9474C44.958 69.9339 38.8895 71.7031 38.8856 73.899C38.8816 76.0949 44.9438 77.8859 52.4257 77.8994C59.9077 77.9128 65.9762 76.1436 65.9802 73.9477Z" fill="#2B1010"/>
<path opacity="0.692" d="M65.4254 73.9372C65.4292 71.8315 59.6155 70.1141 52.4403 70.1012C45.265 70.0883 39.4452 71.7848 39.4414 73.8905C39.4376 75.9961 45.2513 77.7136 52.4265 77.7265C59.6018 77.7394 65.4216 76.0428 65.4254 73.9372Z" fill="#291111"/>
<path opacity="0.731" d="M64.8642 73.9344C64.8678 71.919 59.3047 70.2751 52.4388 70.2628C45.5728 70.2504 40.0038 71.8743 40.0002 73.8897C39.9966 75.9052 45.5596 77.5491 52.4256 77.5614C59.2916 77.5738 64.8606 75.9499 64.8642 73.9344Z" fill="#271212"/>
<path opacity="0.769" d="M64.3103 73.9395C64.3138 72.0143 58.9993 70.444 52.44 70.4322C45.8807 70.4204 40.5605 71.9716 40.557 73.8968C40.5536 75.8221 45.8681 77.3924 52.4274 77.4042C58.9867 77.416 64.3069 75.8648 64.3103 73.9395Z" fill="#251212"/>
<path opacity="0.808" d="M63.7546 73.9446C63.7579 72.1095 58.6918 70.6128 52.4392 70.6016C46.1866 70.5903 41.1152 72.0688 41.1119 73.9039C41.1086 75.739 46.1747 77.2357 52.4273 77.2469C58.6799 77.2582 63.7513 75.7797 63.7546 73.9446Z" fill="#231313"/>
<path opacity="0.846" d="M63.1938 73.934C63.197 72.1892 58.3815 70.7661 52.4382 70.7554C46.4949 70.7447 41.6743 72.1505 41.6712 73.8954C41.6681 75.6402 46.4835 77.0633 52.4268 77.074C58.3702 77.0847 63.1907 75.6789 63.1938 73.934Z" fill="#211414"/>
<path opacity="0.885" d="M62.6395 73.9391C62.6425 72.2845 58.0755 70.9349 52.4389 70.9248C46.8023 70.9147 42.2305 72.2478 42.2276 73.9024C42.2246 75.5571 46.7915 76.9067 52.4281 76.9168C58.0648 76.9269 62.6365 75.5938 62.6395 73.9391Z" fill="#1F1515"/>
<path opacity="0.923" d="M62.0788 73.9364C62.0816 72.372 57.7652 71.096 52.4379 71.0864C47.1106 71.0768 42.7896 72.3373 42.7868 73.9017C42.784 75.4661 47.1004 76.7421 52.4277 76.7517C57.755 76.7613 62.076 75.5008 62.0788 73.9364Z" fill="#1D1616"/>
<path opacity="0.962" d="M61.524 73.9415C61.5266 72.4672 57.4588 71.2648 52.4381 71.2558C47.4175 71.2468 43.3453 72.4346 43.3427 73.9088C43.34 75.383 47.4079 76.5854 52.4285 76.5945C57.4492 76.6035 61.5213 75.4157 61.524 73.9415Z" fill="#1B1717"/>
<path d="M60.9687 73.9309C60.9712 72.5469 57.1518 71.4181 52.4379 71.4096C47.724 71.4011 43.9005 72.5162 43.8981 73.9003C43.8956 75.2843 47.7149 76.4131 52.4289 76.4216C57.1428 76.4301 60.9662 75.315 60.9687 73.9309Z" fill="#191818"/>
</g>
<path d="M64.0922 33.9918L43.4188 93.6318C42.8915 95.1484 43.7642 96.7911 45.3135 97.2111L88.3122 108.836C90.0155 109.298 91.7795 108.341 92.3255 106.666L114.702 38.2898C115.276 36.5398 114.049 34.7244 112.21 34.5984L67.7042 31.6024C66.0988 31.4904 64.6195 32.4704 64.0922 33.9918Z" fill="url(#paint0_linear_1735_8445)"/>
<path d="M63.3324 32.538L42.6591 92.178C42.1317 93.6947 43.0044 95.3373 44.5537 95.7573L87.5524 107.382C89.2557 107.844 91.0197 106.887 91.5657 105.212L113.942 36.836C114.516 35.086 113.289 33.2707 111.45 33.1447L66.9444 30.1487C65.3391 30.0413 63.8597 31.0167 63.3324 32.538Z" fill="url(#paint1_linear_1735_8445)"/>
<path d="M113.723 34.5781C113.998 35.1895 114.068 35.9081 113.835 36.6128L91.4533 104.984C90.9026 106.659 89.1386 107.611 87.4399 107.154L44.4413 95.5295C43.69 95.3241 43.102 94.8341 42.752 94.2088C43.0786 94.9368 43.7133 95.5201 44.5533 95.7488L87.5519 107.373C89.2553 107.835 91.0193 106.879 91.5653 105.203L113.942 36.8275C114.203 36.0388 114.087 35.2315 113.723 34.5781Z" fill="url(#paint2_linear_1735_8445)"/>
<path d="M88.4149 105.378C88.3122 105.378 88.2049 105.364 88.1022 105.336L45.1035 93.7116C44.8702 93.6463 44.7535 93.483 44.7022 93.3896C44.6555 93.2963 44.5855 93.1096 44.6649 92.8763L65.3382 33.2363C65.5389 32.6576 66.0849 32.2656 66.7009 32.2656C66.7335 32.2656 66.7662 32.2656 66.7989 32.2703L111.31 35.271C111.604 35.2896 111.767 35.4716 111.842 35.5743C111.912 35.6816 112.019 35.8963 111.926 36.181L89.5489 104.557C89.3855 105.047 88.9329 105.378 88.4149 105.378Z" fill="url(#paint3_linear_1735_8445)"/>
<path d="M94.5798 28.743C94.6032 28.5983 94.6218 28.4536 94.6218 28.3043C94.6218 26.307 92.2605 24.795 89.3438 24.9303C86.7258 25.0516 84.5605 26.461 84.1452 28.1923L80.9578 28.0243C80.2438 27.987 79.5765 28.3836 79.2685 29.0323L76.6738 33.8903L77.1405 34.4876L97.0392 35.967L99.0318 30.6096C99.3305 29.8116 98.7658 28.9576 97.9165 28.911L94.5798 28.743ZM89.3438 30.6003C87.6965 30.675 86.3572 29.821 86.3572 28.6916C86.3572 27.5623 87.6918 26.5823 89.3438 26.503C90.9912 26.4283 92.3305 27.2823 92.3305 28.4116C92.3305 29.541 90.9912 30.521 89.3438 30.6003Z" fill="url(#paint4_linear_1735_8445)"/>
<path d="M94.1132 28.1258C94.1365 27.9811 94.1552 27.8364 94.1552 27.6871C94.1552 25.6898 91.7938 24.1778 88.8772 24.3131C86.2592 24.4344 84.0938 25.8438 83.6785 27.5751L80.4912 27.4071C79.7772 27.3698 79.1098 27.7664 78.8018 28.4151L76.6738 33.8704L96.5725 35.3498L98.5652 29.9924C98.8638 29.1944 98.2992 28.3404 97.4498 28.2938L94.1132 28.1258ZM88.8772 29.9831C87.2298 30.0578 85.8905 29.2038 85.8905 28.0744C85.8905 26.9451 87.2252 25.9651 88.8772 25.8858C90.5245 25.8111 91.8638 26.6651 91.8638 27.7944C91.8638 28.9238 90.5245 29.9084 88.8772 29.9831Z" fill="url(#paint5_linear_1735_8445)"/>
<path d="M86.3807 29.1854C86.0727 28.8774 85.8907 28.4994 85.8907 28.0841C85.8907 26.9547 87.2254 25.9747 88.8774 25.8954C89.8387 25.8487 90.6927 26.1241 91.2387 26.5861C90.7067 26.0541 89.7874 25.7274 88.742 25.7787C87.0947 25.8534 85.7554 26.8334 85.7554 27.9674C85.76 28.4341 85.9934 28.8587 86.3807 29.1854Z" fill="url(#paint6_linear_1735_8445)"/>
<path d="M94.0202 27.5772C94.0202 27.7265 94.0015 27.8712 93.9782 28.0159L94.1275 28.0252C94.1415 27.9179 94.1555 27.8105 94.1555 27.6985C94.1555 26.9005 93.7775 26.1865 93.1382 25.6172C93.6935 26.1632 94.0202 26.8352 94.0202 27.5772Z" fill="url(#paint7_linear_1735_8445)"/>
<path d="M98.1631 28.5859C98.4758 28.9173 98.6065 29.4119 98.4291 29.8879L96.4365 35.2453L76.7105 33.7753L76.6685 33.8826L96.5671 35.3619L98.5598 30.0046C98.7651 29.4679 98.5691 28.9126 98.1631 28.5859Z" fill="url(#paint8_linear_1735_8445)"/>
<path d="M81.0322 42.4375L104.851 44.5655" stroke="#B3B3B3" stroke-width="1.06204" stroke-miterlimit="10" stroke-linecap="round" stroke-linejoin="round"/>
<path d="M80.2065 45.3672L103.909 47.9105" stroke="#B3B3B3" stroke-width="1.06204" stroke-miterlimit="10" stroke-linecap="round" stroke-linejoin="round"/>
<path d="M79.3853 48.2969L102.966 51.2602" stroke="#B3B3B3" stroke-width="1.06204" stroke-miterlimit="10" stroke-linecap="round" stroke-linejoin="round"/>
<path d="M74.9707 58.5156L98.2434 62.2863" stroke="#B3B3B3" stroke-width="1.06204" stroke-miterlimit="10" stroke-linecap="round" stroke-linejoin="round"/>
<path d="M74.1494 61.4297L97.3008 65.6204" stroke="#B3B3B3" stroke-width="1.06204" stroke-miterlimit="10" stroke-linecap="round" stroke-linejoin="round"/>
<path d="M73.3232 64.3594L96.3579 68.9654" stroke="#B3B3B3" stroke-width="1.06204" stroke-miterlimit="10" stroke-linecap="round" stroke-linejoin="round"/>
<path d="M71.6429 45.2311C72.3709 44.8624 72.9029 44.1671 72.9449 43.4344C73.0009 42.4404 72.1329 41.7451 71.0036 41.8851C69.8789 42.0251 68.9176 42.9491 68.8662 43.9431C68.8476 44.2698 68.9316 44.5638 69.0902 44.8064C67.4942 45.1798 66.2016 46.5238 66.1222 47.9751C66.0336 49.5431 67.4056 50.6351 69.1789 50.4158C70.9522 50.1964 72.4642 48.7451 72.5482 47.1724C72.5902 46.3558 72.2402 45.6744 71.6429 45.2311Z" fill="url(#paint9_linear_1735_8445)"/>
<path d="M70.3687 40.4268C66.6773 40.8888 63.5413 43.9082 63.3593 47.1702C63.1773 50.4322 66.024 52.7048 69.7153 52.2428C73.4067 51.7808 76.5427 48.7615 76.7247 45.4995C76.9067 42.2375 74.06 39.9648 70.3687 40.4268ZM69.7527 51.5615C66.486 51.9675 63.9707 49.9608 64.1293 47.0722C64.288 44.1835 67.0647 41.5142 70.3313 41.1082C73.598 40.7022 76.1133 42.7088 75.9547 45.5975C75.796 48.4815 73.0193 51.1555 69.7527 51.5615Z" fill="url(#paint10_linear_1735_8445)"/>
<path d="M65.5863 61.3092C66.3143 60.9406 66.8463 60.2452 66.8883 59.5126C66.9443 58.5186 66.0763 57.8232 64.9469 57.9632C63.8223 58.1032 62.8609 59.0272 62.8096 60.0212C62.7909 60.3479 62.8749 60.6419 63.0336 60.8846C61.4376 61.2579 60.1449 62.6019 60.0656 64.0532C59.9769 65.6212 61.3489 66.7132 63.1223 66.4939C64.8956 66.2746 66.4076 64.8232 66.4916 63.2506C66.5289 62.4339 66.1789 61.7479 65.5863 61.3092Z" fill="url(#paint11_linear_1735_8445)"/>
<path d="M64.3076 56.4961C60.6163 56.9581 57.4803 59.9775 57.2983 63.2395C57.1163 66.5015 59.963 68.7741 63.6543 68.3121C67.3456 67.8501 70.4816 64.8308 70.6636 61.5688C70.8456 58.3068 67.999 56.0388 64.3076 56.4961ZM63.6916 67.6308C60.425 68.0368 57.9096 66.0301 58.0683 63.1415C58.227 60.2528 61.0036 57.5835 64.2703 57.1775C67.537 56.7715 70.0523 58.7781 69.8936 61.6668C69.735 64.5555 66.9583 67.2248 63.6916 67.6308Z" fill="url(#paint12_linear_1735_8445)"/>
<path d="M59.5238 77.3796C60.2518 77.0109 60.7838 76.3156 60.8258 75.5829C60.8818 74.5889 60.0138 73.8936 58.8844 74.0336C57.7598 74.1736 56.7984 75.0976 56.7471 76.0916C56.7284 76.4182 56.8124 76.7122 56.9711 76.9549C55.3751 77.3282 54.0824 78.6722 54.0031 80.1236C53.9144 81.6916 55.2864 82.7836 57.0598 82.5642C58.8331 82.3449 60.3451 80.8936 60.4291 79.3209C60.4711 78.5042 60.1164 77.8182 59.5238 77.3796Z" fill="url(#paint13_linear_1735_8445)"/>
<path d="M58.2495 72.5909C54.5582 73.0529 51.4222 76.0722 51.2402 79.3342C51.0582 82.5962 53.9049 84.8689 57.5962 84.4069C61.2875 83.9449 64.4235 80.9255 64.6055 77.6635C64.7829 74.4015 61.9409 72.1289 58.2495 72.5909ZM57.6335 83.7256C54.3669 84.1316 51.8515 82.1249 52.0102 79.2362C52.1689 76.3476 54.9455 73.6782 58.2122 73.2722C61.4789 72.8662 63.9942 74.8729 63.8355 77.7616C63.6722 80.6456 60.8955 83.3149 57.6335 83.7256Z" fill="url(#paint14_linear_1735_8445)"/>
<path d="M68.5356 76.4375L91.7056 81.4728" stroke="#B3B3B3" stroke-width="1.06204" stroke-miterlimit="10" stroke-linecap="round" stroke-linejoin="round"/>
<path d="M67.7095 79.3828L90.7628 84.8335" stroke="#B3B3B3" stroke-width="1.06204" stroke-miterlimit="10" stroke-linecap="round" stroke-linejoin="round"/>
<path d="M66.8882 82.2969L89.8202 88.1675" stroke="#B3B3B3" stroke-width="1.06204" stroke-miterlimit="10" stroke-linecap="round" stroke-linejoin="round"/>
<path d="M45.5986 35.6307L58.5159 36.676C59.7759 36.7787 60.5926 38.048 60.1633 39.238L56.0053 50.7133C55.6926 51.572 54.8199 52.09 53.9146 51.9547L41.2306 50.018C40.0313 49.836 39.3033 48.5947 39.7233 47.4607L43.6479 36.8767C43.9466 36.0693 44.7446 35.5653 45.5986 35.6307Z" fill="url(#paint15_linear_1735_8445)"/>
<path d="M45.2436 35.2166L58.161 36.2619C59.421 36.3646 60.2376 37.6339 59.8083 38.8239L55.6503 50.2993C55.3376 51.1579 54.465 51.6759 53.5596 51.5406L40.8756 49.6039C39.6763 49.4219 38.9483 48.1806 39.3683 47.0466L43.293 36.4626C43.5916 35.6553 44.3896 35.1513 45.2436 35.2166Z" fill="url(#paint16_linear_1735_8445)"/>
<path d="M44.918 41.1804L47.522 46.6217L55.3386 42.6457L54.1953 40.6437L48.306 43.481L46.6633 39.9297L44.918 41.1804Z" fill="white"/>
<path d="M81.7747 50.6406L82.2414 51.588L83.2867 51.742L82.5307 52.4793L82.708 53.52L81.7747 53.03L80.8367 53.52L81.0187 52.4793L80.2627 51.742L81.308 51.588L81.7747 50.6406Z" fill="#B3B3B3"/>
<path d="M86.3804 51.3203L86.8471 52.2676L87.8924 52.4216L87.1364 53.159L87.3138 54.1996L86.3804 53.7096L85.4424 54.1996L85.6198 53.159L84.8638 52.4216L85.9091 52.2676L86.3804 51.3203Z" fill="#B3B3B3"/>
<path d="M90.9817 52.0234L91.4484 52.9708L92.4984 53.1248L91.7377 53.8621L91.9197 54.9028L90.9817 54.4128L90.0484 54.9028L90.2257 53.8621L89.4697 53.1248L90.5151 52.9708L90.9817 52.0234Z" fill="#B3B3B3"/>
<path d="M95.5882 52.7109L96.0548 53.6583L97.1002 53.8123L96.3442 54.5496L96.5215 55.5903L95.5882 55.1003L94.6502 55.5903L94.8322 54.5496L94.0762 53.8123L95.1215 53.6583L95.5882 52.7109Z" fill="#B3B3B3"/>
<path d="M78.205 67.0469L78.5783 68.0362L79.6003 68.2929L78.7743 68.9509L78.849 70.0055L77.967 69.4222L76.987 69.8189L77.267 68.7969L76.5903 67.9895L77.645 67.9429L78.205 67.0469Z" fill="url(#paint17_linear_1735_8445)"/>
<path d="M82.7172 68.2031L83.0859 69.1925L84.1125 69.4491L83.2865 70.1071L83.3565 71.1618L82.4745 70.5785L81.4945 70.9751L81.7792 69.9531L81.1025 69.1458L82.1572 69.0991L82.7172 68.2031Z" fill="url(#paint18_linear_1735_8445)"/>
<path d="M87.2292 69.3594L87.5979 70.3487L88.6245 70.6054L87.7939 71.2634L87.8685 72.318L86.9865 71.7347L86.0065 72.1267L86.2912 71.1094L85.6099 70.302L86.6692 70.2554L87.2292 69.3594Z" fill="url(#paint19_linear_1735_8445)"/>
<path d="M91.7429 70.5078L92.1115 71.4971L93.1335 71.7538L92.3075 72.4118L92.3822 73.4665L91.5002 72.8831L90.5202 73.2751L90.8002 72.2578L90.1235 71.4458L91.1782 71.4038L91.7429 70.5078Z" fill="url(#paint20_linear_1735_8445)"/>
<path d="M69.9636 85.2188L70.3183 86.2128L71.3403 86.4834L70.505 87.1274L70.561 88.1868L69.6883 87.5894L68.7036 87.9674L69.0023 86.9548L68.335 86.1334L69.3896 86.1054L69.9636 85.2188Z" fill="#B3B3B3"/>
<path d="M74.4578 86.4453L74.8124 87.4393L75.8344 87.71L74.9991 88.354L75.0551 89.4133L74.1824 88.816L73.1978 89.194L73.4964 88.1813L72.8291 87.36L73.8838 87.332L74.4578 86.4453Z" fill="#B3B3B3"/>
<path d="M78.9514 87.6484L79.3061 88.6471L80.3281 88.9178L79.4928 89.5618L79.5488 90.6164L78.6761 90.0238L77.6914 90.4018L77.9901 89.3891L77.3228 88.5678L78.3774 88.5398L78.9514 87.6484Z" fill="#B3B3B3"/>
<path d="M83.4451 88.8594L83.7997 89.858L84.8217 90.1287L83.9864 90.7727L84.0424 91.8274L83.1697 91.2347L82.1851 91.6127L82.4837 90.6L81.8164 89.7787L82.8711 89.7507L83.4451 88.8594Z" fill="#B3B3B3"/>
<path d="M27.8508 78.0324C27.8228 78.0044 27.7901 77.9811 27.7621 77.9531C27.7481 77.9391 27.7341 77.9298 27.7248 77.9158C27.7201 77.9111 27.7155 77.9064 27.7061 77.8971C27.6968 77.8877 27.6875 77.8784 27.6735 77.8691C27.6455 77.8411 27.6175 77.8131 27.5895 77.7804C27.5615 77.7477 27.5335 77.7197 27.5055 77.6871C27.5055 77.6871 27.5055 77.6871 27.5008 77.6824C27.5008 77.6824 27.5008 77.6824 27.4961 77.6778C27.4681 77.6498 27.4448 77.6171 27.4168 77.5891C27.3888 77.5564 27.3608 77.5191 27.3328 77.4864C27.3235 77.4724 27.3141 77.4631 27.3048 77.4491C27.3001 77.4398 27.2955 77.4351 27.2861 77.4258C27.2721 77.4118 27.2628 77.3931 27.2488 77.3791C27.2208 77.3418 27.1975 77.3044 27.1695 77.2671C27.1508 77.2391 27.1321 77.2111 27.1135 77.1831C27.1088 77.1784 27.1088 77.1737 27.1041 77.1691C27.0995 77.1644 27.0995 77.1597 27.0948 77.1551C27.0715 77.1177 27.0481 77.0804 27.0201 77.0431C26.9968 77.0058 26.9735 76.9684 26.9501 76.9264C26.9455 76.9171 26.9408 76.9124 26.9361 76.9031C26.9315 76.8984 26.9315 76.8891 26.9268 76.8844C26.9128 76.8611 26.8988 76.8378 26.8848 76.8098C26.8615 76.7724 26.8428 76.7351 26.8241 76.6978C26.8101 76.6698 26.7961 76.6417 26.7821 76.6137C26.7775 76.6091 26.7775 76.6044 26.7728 76.5998C26.7681 76.5951 26.7681 76.5904 26.7635 76.5811C26.7448 76.5438 26.7261 76.5018 26.7075 76.4644C26.6888 76.4224 26.6655 76.3757 26.6468 76.3337C26.6421 76.3291 26.6421 76.3197 26.6375 76.3151C26.6328 76.3057 26.6281 76.2964 26.6281 76.2871C26.6141 76.2497 26.5955 76.2171 26.5815 76.1798C26.5628 76.1331 26.5441 76.0911 26.5301 76.0444C26.5208 76.0211 26.5115 75.9978 26.5021 75.9744C26.4975 75.9651 26.4928 75.9558 26.4928 75.9464C26.4788 75.9044 26.4648 75.8671 26.4508 75.8251C26.4321 75.7644 26.4088 75.7084 26.3901 75.6478C26.3855 75.6384 26.3855 75.6291 26.3808 75.6198C26.3528 75.5311 26.3295 75.4471 26.3108 75.3584C26.2968 75.2977 26.2828 75.2418 26.2688 75.1811C26.2595 75.1344 26.2501 75.0831 26.2408 75.0364C26.2408 75.0364 26.2408 75.0364 26.2408 75.0317C26.2315 74.9851 26.2221 74.9337 26.2175 74.8871C26.2081 74.8404 26.2035 74.7938 26.1988 74.7424C26.1988 74.7331 26.1988 74.7284 26.1941 74.7191C26.1941 74.7098 26.1941 74.7051 26.1895 74.6958C26.1848 74.6631 26.1801 74.6304 26.1755 74.5978C26.1708 74.5511 26.1661 74.4998 26.1615 74.4531C26.1615 74.4391 26.1615 74.4251 26.1568 74.4064C26.1568 74.3971 26.1568 74.3831 26.1568 74.3737C26.1568 74.3504 26.1521 74.3271 26.1521 74.3037C26.1521 74.2524 26.1475 74.2058 26.1475 74.1591C26.1475 74.1358 26.1475 74.1171 26.1475 74.0937C26.1475 74.0844 26.1475 74.0704 26.1475 74.0611C26.1475 74.0471 26.1475 74.0284 26.1475 74.0144C26.1475 73.9678 26.1521 73.9211 26.1521 73.8791C26.1521 73.8464 26.1568 73.8138 26.1615 73.7811C26.1615 73.7764 26.1615 73.7671 26.1615 73.7624C26.1615 73.7578 26.1615 73.7531 26.1615 73.7437C26.1661 73.7017 26.1708 73.6598 26.1755 73.6178C26.1801 73.5758 26.1848 73.5384 26.1941 73.4964C26.1941 73.4871 26.1988 73.4777 26.1988 73.4684C26.2035 73.4404 26.2081 73.4078 26.2128 73.3798C26.2221 73.3424 26.2268 73.3051 26.2361 73.2678C26.2408 73.2444 26.2501 73.2211 26.2548 73.1978C26.2548 73.1931 26.2595 73.1884 26.2595 73.1791C26.2595 73.1744 26.2641 73.1651 26.2641 73.1604C26.2735 73.1231 26.2828 73.0904 26.2968 73.0578C26.3061 73.0251 26.3201 72.9877 26.3295 72.9551C26.3295 72.9504 26.3341 72.9458 26.3341 72.9364C26.3341 72.9318 26.3388 72.9271 26.3388 72.9224C26.3481 72.8991 26.3575 72.8757 26.3668 72.8571C26.3808 72.8244 26.3948 72.7918 26.4088 72.7591C26.4181 72.7451 26.4228 72.7311 26.4321 72.7124C26.4368 72.7078 26.4368 72.6984 26.4415 72.6937C26.4461 72.6844 26.4508 72.6751 26.4555 72.6658C26.4741 72.6331 26.4928 72.6004 26.5115 72.5724C26.5255 72.5538 26.5348 72.5351 26.5488 72.5164C26.5535 72.5118 26.5581 72.5024 26.5628 72.4978C26.5675 72.4931 26.5721 72.4838 26.5768 72.4791C26.6001 72.4464 26.6235 72.4184 26.6468 72.3858C26.6561 72.3718 26.6701 72.3624 26.6795 72.3484C26.6888 72.3391 26.6981 72.3297 26.7075 72.3204C26.7168 72.3111 26.7261 72.3018 26.7355 72.2924C26.7681 72.2598 26.8055 72.2271 26.8428 72.1944C26.8521 72.1898 26.8615 72.1804 26.8708 72.1758C26.9081 72.1478 26.9501 72.1151 26.9875 72.0917C26.9921 72.0917 26.9968 72.0871 26.9968 72.0871C27.0575 72.0497 27.1181 72.0217 27.1881 71.9984L40.1288 67.0938C40.0635 67.1171 40.0028 67.1498 39.9375 67.1824C39.8908 67.2104 39.8488 67.2384 39.8068 67.2711C39.7975 67.2758 39.7881 67.2804 39.7788 67.2898C39.7321 67.3271 39.6855 67.3738 39.6435 67.4158C39.6341 67.4251 39.6248 67.4344 39.6155 67.4437C39.5735 67.4904 39.5361 67.5371 39.4988 67.5931C39.4941 67.5978 39.4895 67.6071 39.4848 67.6117C39.4475 67.6677 39.4101 67.7284 39.3775 67.7891C39.3728 67.7938 39.3728 67.8031 39.3681 67.8078C39.3355 67.8731 39.3028 67.9431 39.2748 68.0131C39.2748 68.0178 39.2701 68.0224 39.2701 68.0271C39.2421 68.1017 39.2141 68.1858 39.1908 68.2698C39.1908 68.2744 39.1861 68.2791 39.1861 68.2884C39.1628 68.3724 39.1441 68.4658 39.1301 68.5591C39.1161 68.6571 39.1021 68.7504 39.0928 68.8531C39.0928 68.8578 39.0928 68.8671 39.0928 68.8717C39.0835 68.9651 39.0835 69.0584 39.0788 69.1517C39.0788 69.1611 39.0788 69.1751 39.0788 69.1844C39.0788 69.2778 39.0835 69.3711 39.0881 69.4644C39.0881 69.4738 39.0881 69.4877 39.0881 69.4971C39.0928 69.5951 39.1021 69.6884 39.1161 69.7864C39.1161 69.7958 39.1161 69.8004 39.1208 69.8098C39.1348 69.9124 39.1488 70.0198 39.1721 70.1224C39.1721 70.1224 39.1721 70.1224 39.1721 70.1271C39.1908 70.2344 39.2141 70.3418 39.2421 70.4491C39.2655 70.5471 39.2935 70.6451 39.3261 70.7384C39.3448 70.7991 39.3635 70.8598 39.3868 70.9158C39.4055 70.9671 39.4195 71.0137 39.4381 71.0651C39.4475 71.0884 39.4568 71.1117 39.4661 71.1351C39.4988 71.2191 39.5315 71.2984 39.5641 71.3778C39.5688 71.3871 39.5735 71.3964 39.5735 71.4058C39.6155 71.5038 39.6621 71.5971 39.7088 71.6951C39.7135 71.6997 39.7135 71.7044 39.7181 71.7091C39.7648 71.8024 39.8161 71.8911 39.8675 71.9798C39.8721 71.9844 39.8721 71.9891 39.8768 71.9984C39.9281 72.0871 39.9841 72.1758 40.0401 72.2644C40.0448 72.2691 40.0448 72.2737 40.0495 72.2784C40.1055 72.3624 40.1615 72.4418 40.2221 72.5164C40.2268 72.5258 40.2315 72.5304 40.2408 72.5398C40.3015 72.6191 40.3668 72.6984 40.4321 72.7684C40.4321 72.7684 40.4321 72.7731 40.4368 72.7731C40.5021 72.8478 40.5721 72.9178 40.6375 72.9878C40.6421 72.9924 40.6468 72.9971 40.6561 73.0064C40.7261 73.0718 40.7961 73.1371 40.8708 73.1978C40.9455 73.2584 41.0155 73.3098 41.0901 73.3611C41.0948 73.3658 41.1041 73.3704 41.1088 73.3751C41.1741 73.4217 41.2441 73.4591 41.3095 73.4964C41.3188 73.5011 41.3281 73.5057 41.3375 73.5104C41.4028 73.5431 41.4681 73.5758 41.5288 73.5991C41.5428 73.6038 41.5521 73.6084 41.5661 73.6131C41.6268 73.6364 41.6875 73.6551 41.7481 73.6737C41.7528 73.6737 41.7621 73.6784 41.7668 73.6784C41.8368 73.6971 41.9021 73.7064 41.9675 73.7158C41.9768 73.7158 41.9861 73.7158 41.9955 73.7158C42.0468 73.7204 42.1028 73.7251 42.1541 73.7204C42.1728 73.7204 42.1915 73.7204 42.2101 73.7158C42.2521 73.7111 42.2941 73.7064 42.3408 73.7017C42.3595 73.6971 42.3781 73.6971 42.3921 73.6924C42.4481 73.6784 42.5041 73.6644 42.5601 73.6458L29.6195 78.5598C29.5635 78.5784 29.5075 78.5924 29.4515 78.6064C29.4328 78.6111 29.4188 78.6111 29.4001 78.6158C29.3581 78.6204 29.3161 78.6298 29.2695 78.6298C29.2508 78.6298 29.2321 78.6344 29.2135 78.6344C29.1621 78.6344 29.1061 78.6344 29.0548 78.6298C29.0455 78.6298 29.0361 78.6298 29.0268 78.6298H29.0221C28.9615 78.6204 28.8961 78.6111 28.8308 78.5924H28.8261C28.8215 78.5924 28.8121 78.5878 28.8075 78.5878C28.7655 78.5784 28.7281 78.5644 28.6861 78.5504C28.6675 78.5457 28.6441 78.5364 28.6255 78.5271C28.6115 78.5224 28.6021 78.5178 28.5881 78.5131C28.5788 78.5084 28.5648 78.5037 28.5555 78.4991C28.5181 78.4804 28.4761 78.4618 28.4388 78.4431C28.4248 78.4384 28.4108 78.4291 28.3968 78.4198C28.3875 78.4151 28.3781 78.4104 28.3688 78.4058C28.3548 78.3964 28.3408 78.3918 28.3268 78.3824C28.2941 78.3638 28.2568 78.3404 28.2241 78.3217C28.2055 78.3077 28.1868 78.2984 28.1681 78.2844C28.1635 78.2798 28.1541 78.2751 28.1495 78.2704C28.1401 78.2657 28.1355 78.2611 28.1261 78.2564C28.0935 78.2331 28.0608 78.2098 28.0328 78.1864C28.0001 78.1631 27.9721 78.1397 27.9395 78.1117L27.9348 78.1071C27.9068 78.0837 27.8788 78.0557 27.8508 78.0324Z" fill="url(#paint21_linear_1735_8445)"/>
<path d="M39.1496 68.5587C38.8882 70.122 39.6582 72.194 40.8762 73.1974C42.0942 74.196 43.2936 73.7434 43.5549 72.18C43.8162 70.6214 43.0416 68.5447 41.8282 67.546C40.6102 66.5474 39.4109 67 39.1496 68.5587Z" fill="url(#paint22_linear_1735_8445)"/>
<path d="M41.8743 71.663C41.8557 71.649 41.837 71.6304 41.8183 71.6117C41.809 71.6024 41.8043 71.5977 41.795 71.5884C41.7903 71.5837 41.7903 71.5837 41.7857 71.579C41.781 71.5744 41.7717 71.565 41.767 71.5604C41.7483 71.5417 41.7343 71.523 41.7157 71.509C41.697 71.4904 41.683 71.4717 41.6643 71.453C41.6503 71.4344 41.6317 71.4157 41.6177 71.397C41.599 71.3784 41.585 71.355 41.5663 71.3364C41.5617 71.327 41.557 71.3224 41.5477 71.313C41.543 71.3084 41.543 71.3037 41.5383 71.299C41.529 71.2897 41.5243 71.2804 41.515 71.271C41.4963 71.2477 41.4823 71.2244 41.4683 71.2057C41.459 71.187 41.445 71.173 41.4357 71.1544C41.4357 71.1497 41.431 71.1497 41.431 71.145C41.431 71.1404 41.4263 71.1404 41.4263 71.1357C41.4123 71.1124 41.3983 71.089 41.3797 71.0657C41.3657 71.0424 41.3517 71.019 41.3377 70.9957C41.333 70.991 41.333 70.9864 41.3283 70.9817C41.3283 70.977 41.3237 70.9724 41.3237 70.9724C41.3143 70.9584 41.305 70.9444 41.2957 70.9257C41.2817 70.9024 41.2723 70.879 41.2583 70.8557C41.249 70.837 41.2397 70.823 41.2303 70.8044C41.2303 70.7997 41.2257 70.7997 41.2257 70.795C41.2257 70.7904 41.221 70.7904 41.221 70.7857C41.207 70.7624 41.1977 70.739 41.1837 70.711C41.1697 70.683 41.1603 70.6597 41.1463 70.6317C41.1463 70.627 41.1417 70.6224 41.1417 70.6177C41.1417 70.613 41.137 70.6084 41.137 70.6037C41.1277 70.5804 41.1183 70.5617 41.109 70.5384C41.0997 70.5104 41.0857 70.4824 41.0763 70.4544C41.0717 70.4404 41.067 70.4264 41.0577 70.4124C41.0577 70.4077 41.053 70.403 41.053 70.3937C41.0437 70.3704 41.039 70.3424 41.0297 70.319C41.0157 70.2817 41.0063 70.2444 40.9923 70.2117C40.9923 70.207 40.9877 70.2024 40.9877 70.193C40.9737 70.1417 40.955 70.0857 40.9457 70.0344C40.9363 69.997 40.927 69.9644 40.9223 69.927C40.9177 69.899 40.9083 69.8664 40.9037 69.8384C40.899 69.8104 40.8943 69.7777 40.8897 69.7497C40.885 69.7217 40.8803 69.6937 40.8757 69.661C40.8757 69.6564 40.8757 69.6517 40.8757 69.647C40.8757 69.6424 40.8757 69.6377 40.8757 69.633C40.871 69.6144 40.871 69.591 40.8663 69.5724C40.8617 69.5444 40.8617 69.5117 40.857 69.4837C40.857 69.4744 40.857 69.465 40.857 69.4557C40.857 69.451 40.857 69.4417 40.857 69.437C40.857 69.423 40.857 69.409 40.8523 69.395C40.8523 69.367 40.8523 69.3344 40.8477 69.3064C40.8477 69.2924 40.8477 69.2784 40.8477 69.269C40.8477 69.2644 40.8477 69.255 40.8477 69.2504C40.8477 69.241 40.8477 69.2317 40.8477 69.2224C40.8477 69.1944 40.8477 69.1664 40.8523 69.1384C40.8523 69.1197 40.857 69.0964 40.857 69.0777C40.857 69.073 40.857 69.0684 40.857 69.0684C40.857 69.0637 40.857 69.0637 40.857 69.059C40.857 69.031 40.8617 69.0077 40.8663 68.9844C40.871 68.961 40.871 68.933 40.8757 68.9097C40.8757 68.905 40.8757 68.9004 40.8803 68.891C40.885 68.8724 40.885 68.8537 40.8897 68.835C40.8943 68.8117 40.899 68.7884 40.9037 68.765C40.9083 68.751 40.913 68.737 40.913 68.723C40.913 68.7184 40.913 68.7184 40.9177 68.7137C40.9177 68.709 40.9177 68.7044 40.9223 68.6997C40.927 68.6764 40.9363 68.6577 40.941 68.639C40.9457 68.6157 40.955 68.597 40.9643 68.5784C40.9643 68.5737 40.969 68.5737 40.969 68.569C40.969 68.5644 40.9737 68.5644 40.9737 68.5597C40.9783 68.5457 40.983 68.5317 40.9877 68.5177C40.997 68.499 41.0063 68.4757 41.0157 68.457C41.0203 68.4477 41.025 68.4384 41.0297 68.429C41.0297 68.4244 41.0343 68.4197 41.0343 68.415C41.039 68.4104 41.039 68.401 41.0437 68.3964C41.053 68.3777 41.067 68.359 41.0763 68.3404C41.0857 68.331 41.0903 68.317 41.0997 68.3077C41.1043 68.303 41.1043 68.2984 41.109 68.2984C41.1137 68.2937 41.1137 68.289 41.1183 68.289C41.1323 68.2704 41.1463 68.2517 41.1603 68.233C41.165 68.2237 41.1743 68.219 41.179 68.2097C41.1837 68.205 41.1883 68.1957 41.193 68.191C41.1977 68.1864 41.2023 68.177 41.2117 68.1724C41.2303 68.149 41.2537 68.1304 41.277 68.1117C41.2817 68.107 41.2863 68.1024 41.291 68.1024C41.3143 68.0837 41.3377 68.065 41.3657 68.051C41.3657 68.051 41.3703 68.051 41.3703 68.0464C41.4077 68.023 41.445 68.0044 41.487 67.9904L48.2723 65.4844C48.2303 65.4984 48.193 65.517 48.1557 65.5404C48.1277 65.5544 48.1043 65.573 48.0763 65.5964C48.0717 65.601 48.067 65.6057 48.0623 65.6057C48.0343 65.629 48.0063 65.657 47.9783 65.685C47.9737 65.6897 47.969 65.6944 47.9643 65.7037C47.941 65.7317 47.913 65.7597 47.8943 65.7924C47.8897 65.797 47.8897 65.8017 47.885 65.8017C47.8617 65.8344 47.8383 65.8717 47.8197 65.909C47.8197 65.9137 47.815 65.9184 47.815 65.923C47.7963 65.965 47.7777 66.007 47.759 66.049C47.759 66.0537 47.7543 66.0537 47.7543 66.0584C47.7357 66.105 47.7217 66.1564 47.7077 66.2077C47.7077 66.2124 47.7077 66.2124 47.703 66.217C47.689 66.2684 47.675 66.3244 47.6657 66.3804C47.6563 66.441 47.647 66.497 47.6423 66.5577C47.6423 66.5624 47.6423 66.567 47.6423 66.567C47.6377 66.623 47.633 66.679 47.633 66.7397C47.633 66.7444 47.633 66.7537 47.633 66.7584C47.633 66.8144 47.633 66.8704 47.6377 66.931C47.6377 66.9357 47.6377 66.945 47.6377 66.9497C47.6423 67.0104 47.647 67.0664 47.6563 67.127C47.6563 67.1317 47.6563 67.1364 47.6563 67.141C47.6657 67.2064 47.675 67.267 47.6843 67.3324C47.6983 67.3977 47.7123 67.463 47.7263 67.5284C47.7403 67.589 47.759 67.645 47.7777 67.7057C47.787 67.743 47.801 67.7804 47.815 67.813C47.8243 67.841 47.8337 67.8737 47.8477 67.9017C47.8523 67.9157 47.857 67.9297 47.8663 67.9437C47.885 67.995 47.9037 68.0417 47.927 68.093C47.927 68.0977 47.9317 68.1024 47.9317 68.107C47.9597 68.1677 47.983 68.2237 48.0157 68.2844C48.0157 68.289 48.0203 68.289 48.0203 68.2937C48.0483 68.3497 48.081 68.4057 48.109 68.457C48.109 68.4617 48.1137 68.4617 48.1137 68.4664C48.1463 68.5224 48.179 68.5737 48.2163 68.6297C48.2163 68.6344 48.221 68.6344 48.221 68.639C48.2537 68.6904 48.291 68.737 48.3237 68.7837C48.3283 68.7884 48.3283 68.793 48.333 68.7977C48.3703 68.8444 48.4077 68.891 48.4497 68.9377C48.4917 68.9844 48.529 69.0264 48.571 69.0684C48.5757 69.073 48.5803 69.073 48.5803 69.0777C48.6223 69.1197 48.6643 69.157 48.711 69.1944C48.7577 69.2317 48.7997 69.2644 48.8417 69.2924C48.8463 69.297 48.851 69.297 48.8557 69.3017C48.8977 69.3297 48.935 69.353 48.977 69.3764C48.9817 69.381 48.9863 69.381 48.991 69.3857C49.0283 69.4044 49.0703 69.423 49.1077 69.4417C49.117 69.4464 49.1217 69.4464 49.131 69.451C49.1683 69.465 49.2057 69.479 49.243 69.4884C49.2477 69.4884 49.2523 69.493 49.257 69.493C49.299 69.5024 49.341 69.5117 49.3783 69.5164C49.383 69.5164 49.3877 69.5164 49.3923 69.5164C49.425 69.521 49.4577 69.521 49.4903 69.521C49.4997 69.521 49.5137 69.521 49.523 69.521C49.551 69.521 49.5743 69.5164 49.6023 69.5117C49.6117 69.5117 49.6257 69.507 49.635 69.507C49.6677 69.4977 49.705 69.4884 49.7377 69.479L42.9523 71.985C42.9197 71.999 42.8823 72.0084 42.8497 72.013C42.8403 72.013 42.8263 72.0177 42.817 72.0177C42.789 72.0224 42.7657 72.027 42.7377 72.027C42.7283 72.027 42.7143 72.027 42.705 72.027C42.6723 72.027 42.6397 72.027 42.607 72.0224C42.6023 72.0224 42.5977 72.0224 42.593 72.0224H42.5883C42.551 72.0177 42.5137 72.0084 42.4717 71.999H42.467C42.4623 71.999 42.4577 71.9944 42.453 71.9944C42.4297 71.9897 42.4063 71.9804 42.3783 71.971C42.3643 71.9664 42.355 71.9617 42.341 71.957C42.3317 71.9524 42.327 71.9524 42.3177 71.9477C42.313 71.943 42.3037 71.943 42.299 71.9384C42.2757 71.929 42.2523 71.915 42.2243 71.9057C42.215 71.901 42.2057 71.8964 42.201 71.8917C42.1963 71.887 42.1917 71.887 42.187 71.8824C42.1777 71.8777 42.1683 71.873 42.1637 71.8684C42.145 71.8544 42.1217 71.845 42.103 71.831C42.0937 71.8217 42.0797 71.817 42.0703 71.8077C42.0657 71.803 42.061 71.803 42.0563 71.7984C42.0517 71.7937 42.047 71.7937 42.0423 71.789C42.0237 71.775 42.005 71.761 41.9863 71.747C41.9677 71.733 41.949 71.719 41.9303 71.7004C41.9303 71.7004 41.9303 71.7004 41.9257 71.6957C41.9117 71.691 41.893 71.677 41.8743 71.663Z" fill="url(#paint23_linear_1735_8445)"/>
<path d="M47.6572 66.3665C47.4985 67.3185 47.9699 68.5878 48.7119 69.1945C49.4539 69.8058 50.1865 69.5258 50.3452 68.5738C50.5039 67.6218 50.0325 66.3571 49.2905 65.7458C48.5532 65.1345 47.8205 65.4145 47.6572 66.3665Z" fill="#898989"/>
<path d="M50.4242 57.6376C54.1155 49.4056 63.2248 45.0516 70.7708 47.9076C78.3215 50.7682 81.4435 59.7562 77.7568 67.9882C74.0655 76.2202 64.9608 80.5742 57.4102 77.7136C49.8595 74.8576 46.7328 65.8649 50.4242 57.6376ZM75.2228 67.0316C78.2328 60.3209 75.6848 52.9989 69.5295 50.6656C63.3788 48.3369 55.9542 51.8836 52.9442 58.5942C49.9342 65.3049 52.4868 72.6316 58.6375 74.9602C64.7928 77.2889 72.2175 73.7422 75.2228 67.0316Z" fill="url(#paint24_linear_1735_8445)"/>
<path d="M75.5215 66.4906C79.2129 58.2586 76.0909 49.2706 68.5402 46.4099C60.9942 43.5492 51.8849 47.9032 48.1982 56.1399C44.5069 64.3719 47.6335 73.3599 55.1795 76.2159C62.7209 79.0812 71.8302 74.7226 75.5215 66.4906ZM71.0322 51.5899C74.3455 54.9312 75.2882 60.4099 72.9922 65.5339C69.9822 72.2446 62.5575 75.7912 56.4115 73.4579C55.3942 73.0706 54.4749 72.5525 53.6675 71.9225C49.5702 68.7259 48.2075 62.6919 50.7182 57.0919C53.7282 50.3812 61.1529 46.8346 67.3035 49.1632C68.7549 49.7186 70.0102 50.5539 71.0322 51.5899Z" fill="url(#paint25_linear_1735_8445)"/>
<path opacity="0.34" d="M72.9922 65.5403C75.2882 60.4163 74.3455 54.9376 71.0322 51.5963C70.2249 50.9616 69.3102 50.4436 68.2975 50.061C62.1469 47.7276 54.7222 51.2743 51.7122 57.9896C49.4162 63.109 50.3589 68.5876 53.6629 71.929C54.4702 72.559 55.3895 73.077 56.4069 73.4643C62.5575 75.7976 69.9822 72.251 72.9922 65.5403Z" fill="url(#paint26_linear_1735_8445)"/>
<defs>
<linearGradient id="paint0_linear_1735_8445" x1="91.0735" y1="44.0915" x2="66.4008" y2="94.4237" gradientUnits="userSpaceOnUse">
<stop stop-color="#7F7F7F"/>
<stop offset="1" stop-color="#444444"/>
</linearGradient>
<linearGradient id="paint1_linear_1735_8445" x1="42.5067" y1="68.8177" x2="114.084" y2="68.8177" gradientUnits="userSpaceOnUse">
<stop stop-color="#7F7F7F"/>
<stop offset="1" stop-color="#444444"/>
</linearGradient>
<linearGradient id="paint2_linear_1735_8445" x1="42.7528" y1="71.0316" x2="114.083" y2="71.0316" gradientUnits="userSpaceOnUse">
<stop stop-color="#7F7F7F"/>
<stop offset="1" stop-color="white"/>
</linearGradient>
<linearGradient id="paint3_linear_1735_8445" x1="71.9553" y1="44.0383" x2="84.6462" y2="85.0537" gradientUnits="userSpaceOnUse">
<stop stop-color="#FBFBFB"/>
<stop offset="1" stop-color="#E5E5E5"/>
</linearGradient>
<linearGradient id="paint4_linear_1735_8445" x1="76.6731" y1="30.4461" x2="99.1112" y2="30.4461" gradientUnits="userSpaceOnUse">
<stop stop-color="#3ABAF9"/>
<stop offset="1" stop-color="#267EBD"/>
</linearGradient>
<linearGradient id="paint5_linear_1735_8445" x1="96.6361" y1="34.3009" x2="78.5369" y2="27.0435" gradientUnits="userSpaceOnUse">
<stop stop-color="#3ABAF9"/>
<stop offset="1" stop-color="#267EBD"/>
</linearGradient>
<linearGradient id="paint6_linear_1735_8445" x1="90.4133" y1="28.4254" x2="85.9739" y2="26.6453" gradientUnits="userSpaceOnUse">
<stop stop-color="#3ABAF9"/>
<stop offset="1" stop-color="white"/>
</linearGradient>
<linearGradient id="paint7_linear_1735_8445" x1="94.4367" y1="27.1668" x2="92.7155" y2="26.4766" gradientUnits="userSpaceOnUse">
<stop stop-color="#3ABAF9"/>
<stop offset="1" stop-color="white"/>
</linearGradient>
<linearGradient id="paint8_linear_1735_8445" x1="96.4214" y1="34.8447" x2="78.3739" y2="27.6081" gradientUnits="userSpaceOnUse">
<stop stop-color="#3ABAF9"/>
<stop offset="1" stop-color="white"/>
</linearGradient>
<linearGradient id="paint9_linear_1735_8445" x1="71.1924" y1="43.7815" x2="68.5069" y2="49.26" gradientUnits="userSpaceOnUse">
<stop stop-color="#3ABAF9"/>
<stop offset="1" stop-color="#267EBD"/>
</linearGradient>
<linearGradient id="paint10_linear_1735_8445" x1="71.722" y1="42.9069" x2="67.9424" y2="50.6172" gradientUnits="userSpaceOnUse">
<stop stop-color="#3ABAF9"/>
<stop offset="1" stop-color="#267EBD"/>
</linearGradient>
<linearGradient id="paint11_linear_1735_8445" x1="65.1329" y1="59.8564" x2="62.4473" y2="65.3349" gradientUnits="userSpaceOnUse">
<stop stop-color="#82FB7C"/>
<stop offset="1" stop-color="#0BA2B3"/>
</linearGradient>
<linearGradient id="paint12_linear_1735_8445" x1="65.6627" y1="58.9776" x2="61.8831" y2="66.6879" gradientUnits="userSpaceOnUse">
<stop stop-color="#82FB7C"/>
<stop offset="1" stop-color="#0BA2B3"/>
</linearGradient>
<linearGradient id="paint13_linear_1735_8445" x1="59.0722" y1="75.9281" x2="56.3866" y2="81.4067" gradientUnits="userSpaceOnUse">
<stop stop-color="#FE7F0A"/>
<stop offset="1" stop-color="#FFB538"/>
</linearGradient>
<linearGradient id="paint14_linear_1735_8445" x1="59.6017" y1="75.0692" x2="55.8221" y2="82.7795" gradientUnits="userSpaceOnUse">
<stop stop-color="#FE7F0A"/>
<stop offset="1" stop-color="#FFB538"/>
</linearGradient>
<linearGradient id="paint15_linear_1735_8445" x1="45.8533" y1="47.2193" x2="55.1759" y2="39.1948" gradientUnits="userSpaceOnUse">
<stop stop-color="#82FB7C"/>
<stop offset="1" stop-color="#0BA2B3"/>
</linearGradient>
<linearGradient id="paint16_linear_1735_8445" x1="51.8102" y1="36.0711" x2="47.857" y2="48.2848" gradientUnits="userSpaceOnUse">
<stop stop-color="#82FB7C"/>
<stop offset="1" stop-color="#0BA2B3"/>
</linearGradient>
<linearGradient id="paint17_linear_1735_8445" x1="76.5542" y1="68.3331" x2="79.566" y2="68.6389" gradientUnits="userSpaceOnUse">
<stop stop-color="#FE7F0A"/>
<stop offset="1" stop-color="#FFB538"/>
</linearGradient>
<linearGradient id="paint18_linear_1735_8445" x1="81.0649" y1="69.489" x2="84.0766" y2="69.7948" gradientUnits="userSpaceOnUse">
<stop stop-color="#FE7F0A"/>
<stop offset="1" stop-color="#FFB538"/>
</linearGradient>
<linearGradient id="paint19_linear_1735_8445" x1="85.5754" y1="70.6449" x2="88.5871" y2="70.9507" gradientUnits="userSpaceOnUse">
<stop stop-color="#FE7F0A"/>
<stop offset="1" stop-color="#FFB538"/>
</linearGradient>
<linearGradient id="paint20_linear_1735_8445" x1="90.0875" y1="71.793" x2="93.0993" y2="72.0988" gradientUnits="userSpaceOnUse">
<stop stop-color="#FE7F0A"/>
<stop offset="1" stop-color="#FFB538"/>
</linearGradient>
<linearGradient id="paint21_linear_1735_8445" x1="34.891" y1="75.999" x2="33.0533" y2="69.6552" gradientUnits="userSpaceOnUse">
<stop stop-color="#7F7F7F"/>
<stop offset="1" stop-color="#444444"/>
</linearGradient>
<linearGradient id="paint22_linear_1735_8445" x1="42.9351" y1="68.4588" x2="39.7744" y2="72.2856" gradientUnits="userSpaceOnUse">
<stop stop-color="#7F7F7F"/>
<stop offset="1" stop-color="#444444"/>
</linearGradient>
<linearGradient id="paint23_linear_1735_8445" x1="45.5942" y1="70.6174" x2="44.5082" y2="66.8692" gradientUnits="userSpaceOnUse">
<stop stop-color="#FBFBFB"/>
<stop offset="1" stop-color="#E5E5E5"/>
</linearGradient>
<linearGradient id="paint24_linear_1735_8445" x1="66.204" y1="46.928" x2="62.0003" y2="78.6659" gradientUnits="userSpaceOnUse">
<stop stop-color="#7F7F7F"/>
<stop offset="1" stop-color="#444444"/>
</linearGradient>
<linearGradient id="paint25_linear_1735_8445" x1="55.0259" y1="59.0156" x2="78.633" y2="66.9467" gradientUnits="userSpaceOnUse">
<stop stop-color="#FBFBFB"/>
<stop offset="1" stop-color="#E5E5E5"/>
</linearGradient>
<linearGradient id="paint26_linear_1735_8445" x1="51.5996" y1="58.1321" x2="73.1343" y2="65.3671" gradientUnits="userSpaceOnUse">
<stop stop-color="#82FB7C"/>
<stop offset="1" stop-color="#0BA2B3"/>
</linearGradient>
</defs>
</svg>
