<svg width="60" height="60" viewBox="0 0 60 60" fill="none" xmlns="http://www.w3.org/2000/svg">
<rect width="60" height="60" rx="30" fill="#2C2A3E"/>
<path fill-rule="evenodd" clip-rule="evenodd" d="M24.5534 41.452C21.049 41.452 18.4973 38.7189 18.4973 34.7531C18.4973 30.7871 21.049 28.097 24.5534 28.097C28.0578 28.097 30.6523 30.83 30.6523 34.7531C30.6523 38.6762 28.1006 41.452 24.5534 41.452ZM30.4347 23.8641C30.4165 24.5246 30.4451 25.1856 30.5204 25.8421H30.349C29.2116 23.9102 26.4984 22.7201 23.5149 22.7201C17.0699 22.7201 12.3984 27.7047 12.3984 34.8388C12.3984 41.9727 16.8951 46.9607 23.2545 46.9607C26.5512 46.9607 29.3534 45.5926 30.7808 43.1694H30.9556C30.8881 43.8574 30.8562 44.5485 30.86 45.24V46.2551H36.3984V13.1992H30.4347V23.8641Z" fill="white"/>
<path d="M43.9986 46.7972C45.9865 46.7972 47.5984 45.1853 47.5984 43.1973C47.5984 41.2091 45.9865 39.5972 43.9986 39.5972C42.0103 39.5972 40.3984 41.2091 40.3984 43.1973C40.3984 45.1853 42.0103 46.7972 43.9986 46.7972Z" fill="#FB5F7F"/>
</svg>
