<svg width="16" height="16" viewBox="0 0 16 16" fill="none" xmlns="http://www.w3.org/2000/svg">
<g clip-path="url(#clip0_1795_52575)">
<path d="M8.00045 3.55558C8.9823 3.55558 9.77824 2.75964 9.77824 1.77779C9.77824 0.795944 8.9823 0 8.00045 0C7.0186 0 6.22266 0.795944 6.22266 1.77779C6.22266 2.75964 7.0186 3.55558 8.00045 3.55558Z" fill="#A9A9A9"/>
<path d="M8.00045 9.77433C8.9823 9.77433 9.77824 8.97839 9.77824 7.99654C9.77824 7.01469 8.9823 6.21875 8.00045 6.21875C7.0186 6.21875 6.22266 7.01469 6.22266 7.99654C6.22266 8.97839 7.0186 9.77433 8.00045 9.77433Z" fill="#A9A9A9"/>
<path d="M8.00045 16.0009C8.9823 16.0009 9.77824 15.205 9.77824 14.2231C9.77824 13.2413 8.9823 12.4453 8.00045 12.4453C7.0186 12.4453 6.22266 13.2413 6.22266 14.2231C6.22266 15.205 7.0186 16.0009 8.00045 16.0009Z" fill="#A9A9A9"/>
</g>
<defs>
<clipPath id="clip0_1795_52575">
<rect width="16" height="16" fill="white"/>
</clipPath>
</defs>
</svg>
