<svg width="9" height="6" viewBox="0 0 9 6" fill="none" xmlns="http://www.w3.org/2000/svg">
<path fill-rule="evenodd" clip-rule="evenodd" d="M4.49754 4.40325L7.90625 0.994537C8.00841 0.895868 8.14524 0.841271 8.28726 0.842505C8.42928 0.843739 8.56514 0.900706 8.66557 1.00113C8.766 1.10156 8.82296 1.23742 8.8242 1.37944C8.82543 1.52147 8.77084 1.65829 8.67217 1.76045L4.8805 5.55212C4.83024 5.60247 4.77055 5.64241 4.70483 5.66966C4.63912 5.69691 4.56868 5.71094 4.49754 5.71094C4.4264 5.71094 4.35596 5.69691 4.29025 5.66966C4.22454 5.64241 4.16484 5.60247 4.11458 5.55212L0.322916 1.76045C0.224247 1.65829 0.16965 1.52147 0.170884 1.37944C0.172118 1.23742 0.229085 1.10156 0.329515 1.00113C0.429944 0.900706 0.565801 0.843739 0.707824 0.842505C0.849847 0.841271 0.986674 0.895868 1.08883 0.994537L4.49754 4.40325Z" fill="white"/>
</svg>
