<svg width="32" height="32" viewBox="0 0 32 32" fill="none" xmlns="http://www.w3.org/2000/svg">
<rect x="0.5" y="0.5" width="31" height="31" rx="3.5" fill="white"/>
<rect x="0.5" y="0.5" width="31" height="31" rx="3.5" stroke="#DFE2E6"/>
<path d="M11.6972 21.0156C11.2906 21.0156 10.9106 20.8756 10.6372 20.6156C10.2906 20.289 10.1239 19.7956 10.1839 19.2623L10.4306 17.1023C10.4772 16.6956 10.7239 16.1556 11.0106 15.8623L16.4839 10.069C17.8506 8.62231 19.2772 8.58231 20.7239 9.94898C22.1706 11.3156 22.2106 12.7423 20.8439 14.189L15.3706 19.9823C15.0906 20.2823 14.5706 20.5623 14.1639 20.629L12.0172 20.9956C11.9039 21.0023 11.8039 21.0156 11.6972 21.0156ZM18.6239 9.94231C18.1106 9.94231 17.6639 10.2623 17.2106 10.7423L11.7372 16.5423C11.6039 16.6823 11.4506 17.0156 11.4239 17.209L11.1772 19.369C11.1506 19.589 11.2039 19.769 11.3239 19.8823C11.4439 19.9956 11.6239 20.0356 11.8439 20.0023L13.9906 19.6356C14.1839 19.6023 14.5039 19.429 14.6372 19.289L20.1106 13.4956C20.9372 12.6156 21.2372 11.8023 20.0306 10.669C19.4972 10.1556 19.0372 9.94231 18.6239 9.94231Z" fill="#010101"/>
<path d="M19.5629 15.2992C19.5496 15.2992 19.5296 15.2992 19.5162 15.2992C17.4362 15.0926 15.7629 13.5126 15.4429 11.4459C15.4029 11.1726 15.5896 10.9192 15.8629 10.8726C16.1362 10.8326 16.3896 11.0192 16.4362 11.2926C16.6896 12.9059 17.9962 14.1459 19.6229 14.3059C19.8962 14.3326 20.0962 14.5792 20.0696 14.8526C20.0362 15.1059 19.8162 15.2992 19.5629 15.2992Z" fill="#010101"/>
<path d="M22 23.1641H10C9.72667 23.1641 9.5 22.9374 9.5 22.6641C9.5 22.3907 9.72667 22.1641 10 22.1641H22C22.2733 22.1641 22.5 22.3907 22.5 22.6641C22.5 22.9374 22.2733 23.1641 22 23.1641Z" fill="#010101"/>
</svg>
