<svg width="16" height="16" viewBox="0 0 16 16" fill="none" xmlns="http://www.w3.org/2000/svg">
<path d="M3.69332 13.0156C3.28666 13.0156 2.90666 12.8756 2.63332 12.6156C2.28666 12.289 2.11999 11.7956 2.17999 11.2623L2.42666 9.10231C2.47332 8.69564 2.71999 8.15565 3.00666 7.86231L8.47999 2.06898C9.84666 0.622311 11.2733 0.582311 12.72 1.94898C14.1667 3.31564 14.2067 4.74231 12.84 6.18898L7.36666 11.9823C7.08666 12.2823 6.56666 12.5623 6.15999 12.629L4.01332 12.9956C3.89999 13.0023 3.79999 13.0156 3.69332 13.0156ZM10.62 1.94231C10.1067 1.94231 9.65999 2.26231 9.20666 2.74231L3.73332 8.54231C3.59999 8.68231 3.44666 9.01565 3.41999 9.20898L3.17332 11.369C3.14666 11.589 3.19999 11.769 3.31999 11.8823C3.43999 11.9956 3.61999 12.0356 3.83999 12.0023L5.98666 11.6356C6.17999 11.6023 6.49999 11.429 6.63332 11.289L12.1067 5.49564C12.9333 4.61564 13.2333 3.80231 12.0267 2.66898C11.4933 2.15564 11.0333 1.94231 10.62 1.94231Z" fill="#0957D0"/>
<path d="M11.56 7.29925C11.5466 7.29925 11.5266 7.29925 11.5133 7.29925C9.4333 7.09258 7.75996 5.51258 7.43996 3.44592C7.39996 3.17258 7.58663 2.91925 7.85996 2.87258C8.1333 2.83258 8.38663 3.01925 8.4333 3.29258C8.68663 4.90592 9.9933 6.14592 11.62 6.30591C11.8933 6.33258 12.0933 6.57925 12.0666 6.85258C12.0333 7.10591 11.8133 7.29925 11.56 7.29925Z" fill="#0957D0"/>
<path d="M14 15.1641H2C1.72667 15.1641 1.5 14.9374 1.5 14.6641C1.5 14.3907 1.72667 14.1641 2 14.1641H14C14.2733 14.1641 14.5 14.3907 14.5 14.6641C14.5 14.9374 14.2733 15.1641 14 15.1641Z" fill="#0957D0"/>
</svg>
