<svg width="15" height="15" viewBox="0 0 15 15" fill="none" xmlns="http://www.w3.org/2000/svg">
<path d="M13.6662 14.6669H5.66623C5.53362 14.6669 5.40644 14.6142 5.31267 14.5204C5.2189 14.4267 5.16623 14.2995 5.16623 14.1669C5.16623 14.0343 5.2189 13.9071 5.31267 13.8133C5.40644 13.7196 5.53362 13.6669 5.66623 13.6669H13.6662C13.7988 13.6669 13.926 13.7196 14.0198 13.8133C14.1135 13.9071 14.1662 14.0343 14.1662 14.1669C14.1662 14.2995 14.1135 14.4267 14.0198 14.5204C13.926 14.6142 13.7988 14.6669 13.6662 14.6669ZM0.999559 13.9735C0.884887 13.9738 0.771387 13.9505 0.666163 13.9049C0.560938 13.8593 0.466253 13.7925 0.388032 13.7087C0.309811 13.6248 0.249738 13.5257 0.211572 13.4176C0.173406 13.3094 0.157969 13.1946 0.166226 13.0802L0.386226 10.1669C0.406404 9.88723 0.527186 9.62435 0.726226 9.42688L9.52623 0.660216C9.74736 0.447161 10.0425 0.328125 10.3496 0.328125C10.6566 0.328125 10.9518 0.447161 11.1729 0.660216L13.4862 2.96688C13.7044 3.18668 13.8269 3.48383 13.8269 3.79355C13.8269 4.10327 13.7044 4.40042 13.4862 4.62022L4.68623 13.4202C4.48911 13.6149 4.22916 13.733 3.95289 13.7535L1.06623 13.9735H0.999559ZM10.3329 1.31355C10.3103 1.31344 10.2879 1.31814 10.2672 1.32734C10.2465 1.33653 10.228 1.35001 10.2129 1.36688L1.43289 10.1669C1.4055 10.196 1.38902 10.2337 1.38623 10.2735L1.18623 12.9402L3.85289 12.7402C3.89381 12.7362 3.9318 12.7172 3.95956 12.6869L12.7796 3.91355C12.8091 3.88055 12.8254 3.83783 12.8254 3.79355C12.8254 3.74927 12.8091 3.70655 12.7796 3.67355L10.4662 1.36688C10.45 1.34778 10.4294 1.33294 10.4062 1.32364C10.3829 1.31435 10.3578 1.31088 10.3329 1.31355Z" fill="#010101"/>
</svg>
