<svg width="16" height="15" viewBox="0 0 16 15" fill="none" xmlns="http://www.w3.org/2000/svg">
<g clip-path="url(#clip0_2191_18248)">
<path d="M12.375 0.625H3.625C2.7965 0.625992 2.00222 0.955551 1.41639 1.54139C0.830551 2.12722 0.500992 2.9215 0.5 3.75L0.5 11.25C0.500992 12.0785 0.830551 12.8728 1.41639 13.4586C2.00222 14.0445 2.7965 14.374 3.625 14.375H12.375C13.2035 14.374 13.9978 14.0445 14.5836 13.4586C15.1694 12.8728 15.499 12.0785 15.5 11.25V3.75C15.499 2.9215 15.1694 2.12722 14.5836 1.54139C13.9978 0.955551 13.2035 0.625992 12.375 0.625ZM3.625 1.875H12.375C12.7492 1.87574 13.1147 1.98845 13.4243 2.19863C13.734 2.40881 13.9737 2.70684 14.1125 3.05438L9.32625 7.84125C8.97402 8.19207 8.49713 8.38904 8 8.38904C7.50287 8.38904 7.02598 8.19207 6.67375 7.84125L1.8875 3.05438C2.02634 2.70684 2.26601 2.40881 2.57565 2.19863C2.8853 1.98845 3.25076 1.87574 3.625 1.875ZM12.375 13.125H3.625C3.12772 13.125 2.65081 12.9275 2.29917 12.5758C1.94754 12.2242 1.75 11.7473 1.75 11.25V4.6875L5.79 8.725C6.37664 9.31016 7.17141 9.63878 8 9.63878C8.82859 9.63878 9.62336 9.31016 10.21 8.725L14.25 4.6875V11.25C14.25 11.7473 14.0525 12.2242 13.7008 12.5758C13.3492 12.9275 12.8723 13.125 12.375 13.125Z" fill="#303030"/>
</g>
<defs>
<clipPath id="clip0_2191_18248">
<rect width="15" height="15" fill="white" transform="translate(0.5)"/>
</clipPath>
</defs>
</svg>
