<svg width="24" height="24" viewBox="0 0 24 24" fill="none" xmlns="http://www.w3.org/2000/svg">
<g clip-path="url(#clip0_1791_42087)">
<path d="M8.3999 7.99844H9.1999V8.79844H8.3999V7.99844ZM8.3999 9.59844H9.1999V10.3984H8.3999V9.59844ZM8.3999 11.1984H9.1999V11.9984H8.3999V11.1984ZM8.3999 12.7984H9.1999V13.5984H8.3999V12.7984ZM9.9999 7.99844H10.7999V8.79844H9.9999V7.99844ZM9.9999 9.59844H10.7999V10.3984H9.9999V9.59844ZM9.9999 11.1984H10.7999V11.9984H9.9999V11.1984ZM9.9999 12.7984H10.7999V13.5984H9.9999V12.7984ZM11.5999 7.99844H12.3999V8.79844H11.5999V7.99844ZM11.5999 9.59844H12.3999V10.3984H11.5999V9.59844ZM11.5999 11.1984H12.3999V11.9984H11.5999V11.1984ZM11.5999 12.7984H12.3999V13.5984H11.5999V12.7984ZM13.1999 7.99844H13.9999V8.79844H13.1999V7.99844ZM9.9999 6.39844H10.7999V7.19844H9.9999V6.39844ZM11.5999 6.39844H12.3999V7.19844H11.5999V6.39844ZM13.1999 6.39844H13.9999V7.19844H13.1999V6.39844ZM13.1999 9.59844H13.9999V10.3984H13.1999V9.59844ZM13.1999 11.1984H13.9999V11.9984H13.1999V11.1984ZM13.1999 12.7984H13.9999V13.5984H13.1999V12.7984ZM14.7999 7.99844H15.5999V8.79844H14.7999V7.99844ZM14.7999 9.59844H15.5999V10.3984H14.7999V9.59844ZM14.7999 11.1984H15.5999V11.9984H14.7999V11.1984ZM14.7999 12.7984H15.5999V13.5984H14.7999V12.7984Z" fill="#754B95"/>
<path d="M23.6005 6H17.6V0.4C17.6 0.3475 17.5897 0.295508 17.5697 0.246992C17.5496 0.198476 17.5202 0.154387 17.4831 0.117243C17.446 0.0800991 17.4019 0.0506272 17.3534 0.0305105C17.3049 0.0103938 17.253 2.63344e-05 17.2005 7.82123e-08H6.8C6.7475 -3.27615e-05 6.69551 0.0102762 6.64699 0.0303383C6.59848 0.0504004 6.55439 0.0798227 6.51724 0.116925C6.4801 0.154027 6.45063 0.198083 6.43051 0.246576C6.41039 0.295069 6.40003 0.34705 6.4 0.39955V6H0.4C0.3475 5.99997 0.295508 6.01028 0.246992 6.03034C0.198476 6.0504 0.154387 6.07982 0.117243 6.11693C0.0800991 6.15403 0.0506272 6.19808 0.0305105 6.24658C0.0103938 6.29507 2.63344e-05 6.34705 7.82123e-08 6.39955V20.8C-3.27615e-05 20.8525 0.0102762 20.9045 0.0303383 20.953C0.0504004 21.0015 0.0798227 21.0456 0.116925 21.0828C0.154027 21.1199 0.198083 21.1494 0.246576 21.1695C0.295069 21.1896 0.34705 21.2 0.39955 21.2H1.23615C1.21295 21.3321 1.20085 21.4659 1.2 21.6V23.6C1.19997 23.6525 1.21028 23.7045 1.23034 23.753C1.2504 23.8015 1.27982 23.8456 1.31693 23.8828C1.35403 23.9199 1.39808 23.9494 1.44658 23.9695C1.49507 23.9896 1.54705 24 1.59955 24H22.4C22.4525 24 22.5045 23.9897 22.553 23.9697C22.6015 23.9496 22.6456 23.9202 22.6828 23.8831C22.7199 23.846 22.7494 23.8019 22.7695 23.7534C22.7896 23.7049 22.8 23.653 22.8 23.6005V21.6C22.7992 21.4659 22.7871 21.3321 22.7639 21.2H23.6C23.6525 21.2 23.7045 21.1897 23.753 21.1697C23.8015 21.1496 23.8456 21.1202 23.8828 21.0831C23.9199 21.046 23.9494 21.0019 23.9695 20.9534C23.9896 20.9049 24 20.853 24 20.8005V6.4C24 6.3475 23.9897 6.29551 23.9697 6.24699C23.9496 6.19848 23.9202 6.15439 23.8831 6.11724C23.846 6.0801 23.8019 6.05063 23.7534 6.03051C23.7049 6.01039 23.653 6.00003 23.6005 6ZM17.2 17.2C17.2 17.6418 16.8419 18 16.4 18C15.9581 18 15.6 17.6418 15.6 17.2C15.6 16.7582 15.9581 16.4 16.4 16.4C16.8416 16.4006 17.1994 16.7584 17.2 17.2ZM7.6 16.4C8.04185 16.4 8.4 16.7582 8.4 17.2C8.4 17.6418 8.04185 18 7.6 18C7.15815 18 6.8 17.6418 6.8 17.2C6.80055 16.7584 7.1584 16.4006 7.6 16.4ZM5.2 23.2H2V21.6C2 20.7164 2.71635 20 3.6 20C4.48365 20 5.2 20.7164 5.2 21.6V23.2ZM2.8 18.4C2.8 17.9582 3.15815 17.6 3.6 17.6C4.04185 17.6 4.4 17.9582 4.4 18.4C4.4 18.8419 4.04185 19.2 3.6 19.2C3.1584 19.1994 2.80055 18.8416 2.8 18.4ZM5.2606 19.8713C5.10976 19.7258 4.94061 19.6006 4.7574 19.4988C5.3675 18.8596 5.34395 17.8468 4.70475 17.2367C4.06555 16.6265 3.05275 16.6501 2.4426 17.2893C1.85245 17.9076 1.85245 18.8805 2.4426 19.4988C2.0608 19.7107 1.74358 20.0221 1.5247 20.4H0.8V6.8H6.4V16.1528C5.8507 16.7691 5.86925 17.7048 6.4426 18.2988C6.14595 18.4629 5.88731 18.6878 5.68361 18.9588C5.47992 19.2297 5.33577 19.5407 5.2606 19.8713ZM9.2 23.2H6V20.4C6 19.5163 6.71635 18.8 7.6 18.8C8.48365 18.8 9.2 19.5163 9.2 20.4V23.2ZM14 23.2H10V20.4C10 19.2955 10.8955 18.4 12 18.4C13.1046 18.4 14 19.2955 14 20.4V23.2ZM10.8 16.4C10.8 15.7373 11.3372 15.2 12 15.2C12.6628 15.2 13.2 15.7373 13.2 16.4C13.2 17.0627 12.6628 17.6 12 17.6C11.3376 17.5993 10.8007 17.0625 10.8 16.4ZM14.4361 19.0247C14.1683 18.5526 13.7698 18.1678 13.2885 17.9167C14.1333 17.2052 14.2413 15.9434 13.5297 15.0986C12.8182 14.2537 11.5564 14.1457 10.7116 14.8572C9.8667 15.5688 9.7587 16.8306 10.4703 17.6755C10.5437 17.7626 10.6244 17.8433 10.7116 17.9167C10.2302 18.1678 9.83172 18.5526 9.5639 19.0247C9.35359 18.7247 9.0778 18.4765 8.7574 18.2988C9.37065 17.6715 9.35925 16.6657 8.73185 16.0525C8.53335 15.8584 8.28746 15.7198 8.01869 15.6503C7.74992 15.5809 7.46764 15.5832 7.2 15.6568V0.8H16.8V15.6568C16.6696 15.6208 16.5352 15.6018 16.4 15.6C15.5187 15.5977 14.8024 16.3102 14.8 17.1915C14.7989 17.604 14.9575 18.0008 15.2426 18.2988C14.9222 18.4765 14.6464 18.7247 14.4361 19.0247ZM18 21.6V23.2H14.8V20.4C14.8 19.5163 15.5163 18.8 16.4 18.8C17.2836 18.8 18 19.5163 18 20.4V21.6ZM22 23.2H18.8V21.6C18.8 20.7164 19.5163 20 20.4 20C21.2836 20 22 20.7164 22 21.6V23.2ZM19.6 18.4C19.6 17.9582 19.9582 17.6 20.4 17.6C20.8419 17.6 21.2 17.9582 21.2 18.4C21.2 18.8419 20.8419 19.2 20.4 19.2C19.9584 19.1994 19.6005 18.8416 19.6 18.4ZM23.2 20.4H22.4753C22.2564 20.0222 21.9392 19.7107 21.5574 19.4988C22.1675 18.8596 22.1439 17.8468 21.5048 17.2367C20.8656 16.6266 19.8527 16.6501 19.2426 17.2893C18.6525 17.9076 18.6525 18.8805 19.2426 19.4988C19.0594 19.6005 18.8902 19.7257 18.7394 19.8712C18.6642 19.5406 18.5201 19.2297 18.3164 18.9587C18.1127 18.6877 17.8541 18.4628 17.5574 18.2987C18.1308 17.7047 18.1494 16.7691 17.6 16.1528V6.8H23.2001V20.4H23.2Z" fill="#754B95"/>
<path d="M18.8 9.20156H19.6V15.6016H18.8V9.20156ZM21.2 9.20156H22V15.6016H21.2V9.20156ZM2 9.20156H2.8V15.6016H2V9.20156ZM4.4 9.20156H5.2V15.6016H4.4V9.20156ZM14.4005 1.60156H9.6C9.5475 1.60153 9.49551 1.61184 9.44699 1.6319C9.39848 1.65196 9.35439 1.68139 9.31724 1.71849C9.2801 1.75559 9.25063 1.79965 9.23051 1.84814C9.21039 1.89663 9.20003 1.94861 9.2 2.00111V5.20156C9.19997 5.25406 9.21028 5.30606 9.23034 5.35457C9.2504 5.40309 9.27982 5.44718 9.31693 5.48432C9.35403 5.52146 9.39808 5.55094 9.44658 5.57105C9.49507 5.59117 9.54705 5.60154 9.59955 5.60156H14.4C14.4525 5.6016 14.5045 5.59129 14.553 5.57122C14.6015 5.55116 14.6456 5.52174 14.6828 5.48464C14.7199 5.44754 14.7494 5.40348 14.7695 5.35499C14.7896 5.30649 14.8 5.25451 14.8 5.20201V2.00156C14.8 1.94906 14.7897 1.89707 14.7697 1.84855C14.7496 1.80004 14.7202 1.75595 14.6831 1.71881C14.646 1.68166 14.6019 1.65219 14.5534 1.63207C14.5049 1.61196 14.453 1.60159 14.4005 1.60156ZM14 4.80156H10V2.40156H14V4.80156Z" fill="#754B95"/>
</g>
<defs>
<clipPath id="clip0_1791_42087">
<rect width="24" height="24" fill="white"/>
</clipPath>
</defs>
</svg>
