<svg width="19" height="18" viewBox="0 0 19 18" fill="none" xmlns="http://www.w3.org/2000/svg">
<path d="M8.841 7.32812H7.725C7.395 7.32812 7.125 7.59812 7.125 7.92812C7.125 8.25812 7.395 8.52812 7.725 8.52812H8.841C9.171 8.52812 9.441 8.25812 9.441 7.92812C9.441 7.59812 9.171 7.32812 8.841 7.32812ZM11.073 8.52812H12.189C12.519 8.52812 12.789 8.25812 12.789 7.92812C12.789 7.59812 12.519 7.32812 12.189 7.32812H11.073C10.743 7.32812 10.473 7.59812 10.473 7.92812C10.473 8.25812 10.743 8.52812 11.073 8.52812ZM8.841 10.1181H7.725C7.395 10.1181 7.125 10.3881 7.125 10.7181C7.125 11.0481 7.395 11.3181 7.725 11.3181H8.841C9.171 11.3181 9.441 11.0481 9.441 10.7181C9.441 10.3881 9.171 10.1181 8.841 10.1181ZM12.183 10.1181H11.067C10.737 10.1181 10.467 10.3881 10.467 10.7181C10.467 11.0481 10.737 11.3181 11.067 11.3181H12.183C12.513 11.3181 12.783 11.0481 12.783 10.7181C12.783 10.3881 12.513 10.1181 12.183 10.1181Z" fill="#0957D0"/>
<path d="M18.3609 16.8008H17.7609V3.42677C17.7609 3.21077 17.6469 3.01277 17.4549 2.90477L12.4869 0.0787661C12.3009 -0.0292339 12.0729 -0.0232339 11.8869 0.0787661C11.7963 0.131119 11.7209 0.206293 11.6682 0.296815C11.6156 0.387338 11.5876 0.490058 11.5869 0.594766V4.53677H8.32894V0.600766C8.32894 0.384766 8.21494 0.186766 8.02894 0.0847661C7.93787 0.0316905 7.83435 0.00372587 7.72894 0.00372587C7.62353 0.00372587 7.52001 0.0316905 7.42894 0.0847661L2.46694 2.90477C2.28094 3.01277 2.16094 3.21077 2.16094 3.42677V16.8008H1.56094C1.23094 16.8008 0.960938 17.0708 0.960938 17.4008C0.960938 17.7308 1.23094 18.0008 1.56094 18.0008H18.3609C18.6909 18.0008 18.9609 17.7308 18.9609 17.4008C18.9609 17.0708 18.6909 16.8008 18.3609 16.8008ZM12.7869 1.63277L16.5609 3.78077V16.8008H15.5769V5.14277C15.5769 4.81277 15.3069 4.54277 14.9769 4.54277H12.7929V1.63277H12.7869ZM10.5609 14.1008H11.5869V16.8008H10.5609V14.1008ZM9.36094 16.8008H8.33494V14.1008H9.36094V16.8008ZM12.1869 12.9008H7.72894C7.39894 12.9008 7.12894 13.1708 7.12894 13.5008V16.8008H5.54494V5.74277H14.3709V16.8008H12.7869V13.5008C12.7869 13.1708 12.5169 12.9008 12.1869 12.9008ZM3.36094 3.78077L7.13494 1.63277V4.54277H4.95094C4.62094 4.54277 4.35094 4.81277 4.35094 5.14277V16.8008H3.36694V3.78077H3.36094Z" fill="#0957D0"/>
</svg>
