<svg width="14" height="10" viewBox="0 0 14 10" fill="none" xmlns="http://www.w3.org/2000/svg">
<path d="M6.99999 9.375C2.42013 9.375 0.149503 5.38238 0.0551126 5.21252C0.0189684 5.1475 0 5.07434 0 4.99995C0 4.92556 0.0189684 4.85239 0.0551126 4.78737C0.149503 4.61762 2.42013 0.625 6.99999 0.625C11.5798 0.625 13.8505 4.61762 13.9449 4.78748C13.981 4.8525 14 4.92566 14 5.00006C14 5.07445 13.981 5.14761 13.9449 5.21263C13.8505 5.38238 11.5798 9.375 6.99999 9.375ZM0.952316 4.99934C1.47272 5.78805 3.51596 8.5 6.99999 8.5C10.4951 8.5 12.5292 5.79023 13.0477 5.00066C12.5273 4.21195 10.484 1.5 6.99999 1.5C3.50491 1.5 1.47075 4.20977 0.952316 4.99934ZM6.99999 7.625C5.55252 7.625 4.37499 6.44747 4.37499 5C4.37499 3.55253 5.55252 2.375 6.99999 2.375C8.44746 2.375 9.62499 3.55253 9.62499 5C9.62499 6.44747 8.44746 7.625 6.99999 7.625ZM6.99999 3.25C6.03508 3.25 5.24999 4.03509 5.24999 5C5.24999 5.96491 6.03508 6.75 6.99999 6.75C7.96489 6.75 8.74999 5.96491 8.74999 5C8.74999 4.03509 7.96489 3.25 6.99999 3.25Z" fill="#010101"/>
</svg>
