<svg width="36" height="36" viewBox="0 0 36 36" fill="none" xmlns="http://www.w3.org/2000/svg">
<path d="M23.6248 14.0175L19.5861 18L23.6248 21.9825C23.7372 22.0877 23.8268 22.2149 23.8881 22.3562C23.9494 22.4974 23.981 22.6498 23.981 22.8038C23.981 22.9577 23.9494 23.1101 23.8881 23.2513C23.8268 23.3926 23.7372 23.5198 23.6248 23.625C23.5197 23.7293 23.3951 23.8118 23.258 23.8677C23.1209 23.9237 22.9741 23.9521 22.8261 23.9513C22.531 23.95 22.2481 23.8328 22.0386 23.625L17.9998 19.5863L14.0173 23.625C13.8078 23.8328 13.525 23.95 13.2298 23.9513C13.0818 23.9521 12.935 23.9237 12.7979 23.8677C12.6609 23.8118 12.5362 23.7293 12.4311 23.625C12.2216 23.4142 12.1039 23.1291 12.1039 22.8319C12.1039 22.5347 12.2216 22.2495 12.4311 22.0388L16.4136 18L12.4311 14.0175C12.2468 13.8023 12.1505 13.5255 12.1614 13.2423C12.1724 12.9592 12.2897 12.6906 12.4901 12.4902C12.6904 12.2899 12.959 12.1725 13.2422 12.1616C13.5253 12.1506 13.8021 12.247 14.0173 12.4313L17.9998 16.4138L21.9823 12.4313C22.0865 12.3234 22.2109 12.2371 22.3484 12.1774C22.4859 12.1176 22.6338 12.0855 22.7837 12.0828C22.9336 12.0802 23.0826 12.1072 23.2221 12.1621C23.3616 12.2171 23.4889 12.299 23.5967 12.4031C23.7046 12.5073 23.7908 12.6317 23.8506 12.7692C23.9104 12.9067 23.9425 13.0546 23.9451 13.2045C23.9477 13.3544 23.9208 13.5034 23.8658 13.6429C23.8109 13.7824 23.729 13.9097 23.6248 14.0175ZM29.1373 29.1375C26.9346 31.34 24.1282 32.8399 21.0731 33.4475C18.0179 34.0551 14.8512 33.7431 11.9733 32.551C9.0955 31.3588 6.63578 29.3401 4.90522 26.7501C3.17466 24.16 2.25098 21.115 2.25098 18C2.25098 14.885 3.17466 11.84 4.90522 9.24994C6.63578 6.6599 9.0955 4.64119 11.9733 3.44906C14.8512 2.25693 18.0179 1.94493 21.0731 2.55252C24.1282 3.16011 26.9346 4.65999 29.1373 6.86251C30.6 8.32505 31.7603 10.0614 32.5519 11.9724C33.3435 13.8834 33.751 15.9316 33.751 18C33.751 20.0685 33.3435 22.1167 32.5519 24.0276C31.7603 25.9386 30.6 27.675 29.1373 29.1375ZM27.5511 8.44876C25.6612 6.56544 23.2557 5.28434 20.6382 4.76724C18.0208 4.25013 15.3088 4.52021 12.8447 5.54337C10.3806 6.56653 8.27497 8.29688 6.79364 10.5159C5.31231 12.735 4.52174 15.3432 4.52174 18.0113C4.52174 20.6793 5.31231 23.2875 6.79364 25.5066C8.27497 27.7256 10.3806 29.456 12.8447 30.4791C15.3088 31.5023 18.0208 31.7724 20.6382 31.2553C23.2557 30.7382 25.6612 29.4571 27.5511 27.5738C28.8096 26.3196 29.8082 24.8293 30.4896 23.1883C31.171 21.5474 31.5217 19.788 31.5217 18.0113C31.5217 16.2345 31.171 14.4752 30.4896 12.8342C29.8082 11.1933 28.8096 9.70295 27.5511 8.44876Z" fill="#E11C20"/>
</svg>
