<svg width="24" height="22" viewBox="0 0 24 22" fill="none" xmlns="http://www.w3.org/2000/svg">
<path d="M13.5936 0.319202C15.2337 1.17584 16.1063 2.85088 16.9478 4.42474C17.1615 4.81532 17.3754 5.20578 17.5896 5.59609C17.6924 5.78457 17.7953 5.97304 17.9012 6.16722C18.2715 6.83918 18.6568 7.501 19.0495 8.16001C19.9119 9.61197 20.755 11.0748 21.5974 12.5384C21.7024 12.7208 21.8074 12.9032 21.9156 13.0911C22.0188 13.2705 22.122 13.4499 22.2283 13.6347C22.656 14.3735 23.0904 15.1082 23.5259 15.8424C24.0422 16.7727 24.0588 17.672 23.9391 18.7124C23.5667 19.8507 23.0266 20.6763 22.0225 21.326C20.9409 21.8114 20.0575 21.9258 18.8798 21.9219C18.6258 21.9241 18.6258 21.9241 18.3666 21.9264C17.8104 21.9305 17.2542 21.9307 16.698 21.9304C16.3092 21.9317 15.9203 21.933 15.5315 21.9345C14.7179 21.9368 13.9044 21.9371 13.0908 21.9361C12.0506 21.935 11.0106 21.9404 9.97048 21.9474C9.1679 21.9519 8.36537 21.9524 7.56279 21.9518C7.1794 21.9521 6.79601 21.9537 6.41264 21.9568C5.87556 21.9607 5.33877 21.959 4.80169 21.956C4.56659 21.9594 4.56659 21.9594 4.32675 21.963C3.03501 21.9459 2.0311 21.5214 1.09257 20.6243C0.245799 19.3956 -0.153548 18.3003 0.0682313 16.7958C0.646995 15.389 1.4609 14.0727 2.23534 12.7665C2.45121 12.3995 2.66697 12.0324 2.88262 11.6652C2.9931 11.4774 3.10358 11.2896 3.2174 11.0961C3.76991 10.1529 4.31461 9.20536 4.85984 8.25802C5.07716 7.88162 5.2945 7.50523 5.51188 7.12886C5.95777 6.35642 6.40108 5.58255 6.84318 4.80793C7.06049 4.42971 7.27783 4.0515 7.49522 3.67333C7.59416 3.49869 7.6931 3.32406 7.79504 3.14414C9.05904 0.953703 10.9403 -0.694209 13.5936 0.319202Z" fill="#27A7F6"/>
<path d="M13.594 0.319213C15.2765 1.1996 16.1648 2.94545 17.0352 4.55543C17.1959 4.84551 17.1959 4.84551 17.3599 5.14145C17.7969 5.93621 18.2161 6.71179 18.538 7.56107C18.3799 7.45326 18.2218 7.34545 18.0589 7.23437C16.9176 6.48814 16.0726 6.35218 14.7047 6.51563C12.5913 7.20515 11.6923 9.42031 10.6754 11.231C10.5519 11.4494 10.4282 11.6678 10.3045 11.8861C10.0709 12.2984 9.83797 12.7111 9.60532 13.1239C9.27461 13.7103 8.94128 14.2952 8.60633 14.8792C7.86581 14.9009 7.12547 14.9166 6.38472 14.927C6.13343 14.9314 5.88215 14.9373 5.63093 14.9449C4.11923 14.9894 2.89012 14.9745 1.63672 14.008C3.30838 10.9266 5.04583 7.88215 6.82513 4.86171C7.16947 4.27685 7.5067 3.68945 7.83382 3.0948C9.07697 0.864923 10.9182 -0.702767 13.594 0.319213Z" fill="#4241F9"/>
<path d="M1.63612 14.0081C1.8359 14.1217 2.03567 14.2352 2.2415 14.3523C3.46446 14.8921 4.75508 14.7914 6.06359 14.7731C6.33871 14.7718 6.61384 14.7708 6.88896 14.7701C7.60826 14.7674 8.32745 14.7606 9.04671 14.7529C9.78259 14.7457 10.5185 14.7426 11.2544 14.739C12.6948 14.7316 14.135 14.7197 15.5753 14.705C15.749 15.034 15.9206 15.3641 16.0913 15.6946C16.187 15.8783 16.2828 16.062 16.3815 16.2513C16.8709 17.3651 16.7337 18.3262 16.3485 19.4531C15.8405 20.5926 15.0319 21.2546 13.8883 21.7348C12.9959 21.9869 12.0539 21.9304 11.1336 21.9305C10.7937 21.9325 10.7937 21.9325 10.4469 21.9346C9.96858 21.9369 9.49031 21.9372 9.01198 21.9362C8.40286 21.9351 7.79398 21.9405 7.1849 21.9475C6.599 21.9531 6.01314 21.9523 5.42721 21.9523C5.21045 21.9552 4.99369 21.958 4.77037 21.961C3.26586 21.9491 2.19562 21.679 1.0923 20.6244C0.254017 19.408 -0.176173 18.2899 0.0679607 16.7959C0.46248 15.7853 0.9637 14.8602 1.63612 14.0081Z" fill="#31C6AE"/>
<path d="M17.2079 6.5076C18.2874 7.15245 19.0684 8.00995 19.6724 9.10963C19.7789 9.30178 19.8854 9.49394 19.9951 9.69191C20.1033 9.8908 20.2116 10.0897 20.3231 10.2946C20.4896 10.596 20.4896 10.596 20.6594 10.9034C21.4289 12.2993 21.4289 12.2993 21.6735 12.7884C21.4543 12.7381 21.2351 12.6878 21.0092 12.636C19.9792 12.4288 18.9449 12.3268 17.9007 12.223C16.5982 12.0928 15.3032 11.9251 14.0069 11.743C14.4277 12.7617 14.9044 13.7121 15.4008 14.7051C13.1584 14.7051 10.9159 14.7051 8.60547 14.7051C8.95046 14.0726 9.29546 13.4401 9.65091 12.7884C9.75758 12.592 9.86426 12.3955 9.97417 12.1931C10.2675 11.6536 10.5635 11.1157 10.8597 10.5777C10.9611 10.3903 11.0625 10.2029 11.167 10.0098C11.9375 8.61646 12.7768 7.11195 14.303 6.45111C15.2617 6.18904 16.2752 6.13267 17.2079 6.5076Z" fill="#2FD2F5"/>
</svg>
