<svg width="24" height="24" viewBox="0 0 24 24" fill="none" xmlns="http://www.w3.org/2000/svg">
<path d="M20.5034 2.13642C20.2387 1.98225 19.7897 1.77038 19.1847 1.56342C16.7924 0.745219 14.1447 0.745219 11.5352 2.11509C9.46927 3.19913 7.37606 3.19913 5.46248 2.54494C5.30662 2.49185 5.1524 2.43407 5.00002 2.37169V0.999984C5.00002 0.447703 4.55227 0 3.99998 0C3.4477 0 3 0.447703 3 0.999984V23C3 23.5523 3.4477 24 3.99998 24C4.55227 24 4.99997 23.5523 4.99997 23V14.5163C7.34344 15.272 9.92203 15.2381 12.4646 13.904C14.5307 12.8199 16.6239 12.8199 18.5376 13.4741C19.0089 13.6352 19.3401 13.7914 19.4968 13.8827C20.1635 14.2709 21 13.79 21 13.0185V3.00052C21 2.82564 20.9541 2.65382 20.867 2.50219C20.7798 2.35057 20.6545 2.22446 20.5034 2.13642ZM19 11.5203C16.6566 10.7647 14.0779 10.7989 11.5353 12.133C9.46922 13.2172 7.37602 13.2172 5.46239 12.563C5.30652 12.5099 5.1523 12.4521 4.99992 12.3898V4.49869C7.34334 5.25431 9.92203 5.22009 12.4646 3.88598C14.5308 2.80134 16.6239 2.80134 18.5374 3.45577C18.6933 3.50886 18.8475 3.56667 18.9999 3.62911V11.5203H19Z" fill="#38A3A5"/>
</svg>
