<svg width="77" height="77" viewBox="0 0 77 77" fill="none" xmlns="http://www.w3.org/2000/svg">
<path fill-rule="evenodd" clip-rule="evenodd" d="M50.8319 38.1406L38.0703 50.901C38.0703 50.901 42.6085 49.4837 49.1306 51.7516C50.2279 52.133 52.0639 50.297 51.6825 49.1997C49.4146 42.6776 50.8319 38.1406 50.8319 38.1406Z" fill="url(#paint0_linear_187_40040)"/>
<path fill-rule="evenodd" clip-rule="evenodd" d="M16.6803 16.7399C24.4284 8.99296 37.0071 8.99296 44.7552 16.7399C52.5022 24.488 52.5022 37.0667 44.7552 44.8148C37.0071 52.5617 24.4284 52.5617 16.6803 44.8148C8.93339 37.0667 8.93339 24.488 16.6803 16.7399Z" fill="url(#paint1_linear_187_40040)"/>
<path fill-rule="evenodd" clip-rule="evenodd" d="M42.1883 14.5781C43.1028 15.2279 43.9612 15.9531 44.7546 16.7462C52.5015 24.4943 52.5015 37.073 44.7546 44.8211C37.0065 52.568 24.4278 52.568 16.6797 44.8211C16.2237 44.3639 15.7942 43.8911 15.3911 43.4038C22.901 45.8437 31.4841 44.0824 37.4468 38.1197C43.8065 31.76 45.3874 22.4189 42.1883 14.5781Z" fill="#E5EEF8"/>
<path fill-rule="evenodd" clip-rule="evenodd" d="M14.9788 15.0384C23.6654 6.3518 37.7696 6.3518 46.4562 15.0384C55.1427 23.7249 55.1427 37.8292 46.4562 46.5157C37.7696 55.2023 23.6654 55.2023 14.9788 46.5157C6.29223 37.8292 6.29223 23.7249 14.9788 15.0384ZM17.5306 17.5902C24.8083 10.3125 36.6266 10.3125 43.9043 17.5902C51.182 24.8679 51.182 36.6862 43.9043 43.9639C36.6266 51.2416 24.8083 51.2416 17.5306 43.9639C10.2529 36.6862 10.2529 24.8679 17.5306 17.5902Z" fill="url(#paint2_linear_187_40040)"/>
<path fill-rule="evenodd" clip-rule="evenodd" d="M10.7763 40.6742C6.64721 32.3497 8.04764 21.9692 14.9788 15.038C21.4878 8.52906 31.0382 6.89762 39.0738 10.1437C39.1774 11.4663 39.189 12.7945 39.1087 14.1188C32.1174 10.5984 23.3658 11.7558 17.5307 17.5898C11.3454 23.7751 10.4166 33.24 14.7466 40.4107C13.4785 40.5839 12.184 40.6742 10.8702 40.6742H10.7763Z" fill="url(#paint3_linear_187_40040)"/>
<path fill-rule="evenodd" clip-rule="evenodd" d="M48.1556 55.8753C47.1402 54.8599 46.5698 53.4828 46.5698 52.0469C46.5698 50.611 47.1402 49.2339 48.1556 48.2186C49.1709 47.2032 50.548 46.6328 51.9839 46.6328C53.4198 46.6328 54.7969 47.2032 55.8123 48.2186L73.2528 65.6591C73.722 66.1283 72.3877 68.2253 70.275 70.338C68.1623 72.4507 66.0653 73.785 65.5961 73.3158L48.1556 55.8753Z" fill="url(#paint4_linear_187_40040)"/>
<path fill-rule="evenodd" clip-rule="evenodd" d="M48.1556 55.8753C47.1402 54.8599 46.5698 53.4828 46.5698 52.0469C46.5698 50.611 47.1402 49.2339 48.1556 48.2186C49.1709 47.2032 50.548 46.6328 51.9839 46.6328C53.4198 46.6328 54.7969 47.2032 55.8123 48.2186L71.5973 64.0036C72.0665 64.4728 70.7322 66.5698 68.6195 68.6825C66.5068 70.7952 64.4098 72.1295 63.9406 71.6603L48.1556 55.8753Z" fill="url(#paint5_linear_187_40040)"/>
<path fill-rule="evenodd" clip-rule="evenodd" d="M28.167 26.9883C28.1393 25.8418 28.5701 25.0044 29.2342 24.5135C30.2785 23.7435 31.8389 23.776 32.6859 24.7301C33.0493 25.1403 33.2598 25.7203 33.2659 26.4542C33.2803 28.2143 32.4549 29.243 31.6464 30.3078C30.5588 31.7431 29.4724 33.2181 29.3377 35.6809C29.3203 35.9997 29.4302 36.3123 29.6433 36.55C29.8564 36.7877 30.1552 36.931 30.474 36.9484C30.7928 36.9658 31.1054 36.8559 31.3431 36.6427C31.5808 36.4296 31.7241 36.1308 31.7415 35.8121C31.8426 33.9412 32.7377 32.8512 33.5642 31.7611C34.6711 30.3018 35.6926 28.846 35.6721 26.4349C35.6601 25.0176 35.1872 23.924 34.4846 23.1323C32.8436 21.2843 29.8297 21.0846 27.8061 22.5765C26.5933 23.4716 25.7114 24.9539 25.7608 27.0449C25.7683 27.364 25.9022 27.667 26.1331 27.8873C26.3641 28.1077 26.6731 28.2272 26.9922 28.2197C27.3112 28.2122 27.6143 28.0783 27.8346 27.8474C28.0549 27.6164 28.1745 27.3074 28.167 26.9883Z" fill="url(#paint6_linear_187_40040)"/>
<path d="M30.4296 41.4206C31.2468 41.4206 31.9094 40.7581 31.9094 39.9408C31.9094 39.1235 31.2468 38.4609 30.4296 38.4609C29.6123 38.4609 28.9497 39.1235 28.9497 39.9408C28.9497 40.7581 29.6123 41.4206 30.4296 41.4206Z" fill="url(#paint7_linear_187_40040)"/>
<path fill-rule="evenodd" clip-rule="evenodd" d="M52.083 10.2206L55.6923 4.20496C55.7736 4.06947 55.8274 3.91931 55.8507 3.76303C55.8739 3.60675 55.8662 3.44742 55.8279 3.29414C55.7895 3.14086 55.7214 2.99663 55.6274 2.86968C55.5333 2.74274 55.4151 2.63556 55.2797 2.55427C55.1442 2.47298 54.994 2.41917 54.8377 2.39592C54.6815 2.37266 54.5221 2.38042 54.3689 2.41874C54.2156 2.45706 54.0713 2.52519 53.9444 2.61925C53.8174 2.71331 53.7103 2.83146 53.629 2.96694L50.0196 8.98256C49.8554 9.25618 49.8067 9.58381 49.8841 9.89338C49.9615 10.2029 50.1587 10.4691 50.4323 10.6333C50.7059 10.7974 51.0335 10.8462 51.3431 10.7688C51.6527 10.6914 51.9188 10.4942 52.083 10.2206ZM57.7749 14.1849L71.0093 4.55988C71.2675 4.37225 71.4405 4.08977 71.4904 3.77456C71.5402 3.45936 71.4628 3.13725 71.2752 2.87911C71.1823 2.75129 71.0651 2.64302 70.9304 2.56049C70.7957 2.47795 70.646 2.42276 70.4899 2.39807C70.1747 2.3482 69.8526 2.4256 69.5944 2.61322L56.3601 12.2382C56.1019 12.4258 55.9289 12.7083 55.879 13.0235C55.8292 13.3387 55.9066 13.6608 56.0942 13.919C56.2818 14.1771 56.5643 14.3502 56.8795 14.4C57.1947 14.4499 57.5168 14.3725 57.7749 14.1849ZM59.7649 21.5973L69.3899 19.1911C69.5455 19.155 69.6924 19.0883 69.8219 18.9949C69.9515 18.9014 70.0611 18.7831 70.1445 18.6469C70.2278 18.5106 70.2832 18.3591 70.3074 18.2012C70.3316 18.0433 70.3241 17.8822 70.2854 17.7272C70.2466 17.5723 70.1774 17.4266 70.0818 17.2987C69.9861 17.1707 69.866 17.0631 69.7283 16.9821C69.5906 16.9011 69.4382 16.8483 69.2799 16.8268C69.1217 16.8054 68.9607 16.8156 68.8064 16.857L59.1814 19.2633C58.8767 19.345 58.6162 19.5432 58.4562 19.8152C58.2962 20.0871 58.2494 20.411 58.326 20.7171C58.4025 21.0232 58.5962 21.287 58.8653 21.4516C59.1345 21.6163 59.4576 21.6686 59.7649 21.5973Z" fill="black"/>
<defs>
<linearGradient id="paint0_linear_187_40040" x1="38.0703" y1="38.1406" x2="51.7337" y2="38.1406" gradientUnits="userSpaceOnUse">
<stop stop-color="#559AFF"/>
<stop offset="1" stop-color="#2E69EF"/>
</linearGradient>
<linearGradient id="paint1_linear_187_40040" x1="16.8139" y1="19.6171" x2="44.6161" y2="44.949" gradientUnits="userSpaceOnUse">
<stop stop-color="white"/>
<stop offset="1" stop-color="#E9F3FC"/>
</linearGradient>
<linearGradient id="paint2_linear_187_40040" x1="8.46387" y1="8.52344" x2="52.9711" y2="8.52344" gradientUnits="userSpaceOnUse">
<stop stop-color="#A4BBDB"/>
<stop offset="1" stop-color="#8DA3BE"/>
</linearGradient>
<linearGradient id="paint3_linear_187_40040" x1="18.4791" y1="10.9369" x2="28.5948" y2="41.7529" gradientUnits="userSpaceOnUse">
<stop stop-color="#CADCF0"/>
<stop offset="1" stop-color="#A4BBDB"/>
</linearGradient>
<linearGradient id="paint4_linear_187_40040" x1="46.5698" y1="46.6328" x2="73.3467" y2="46.6328" gradientUnits="userSpaceOnUse">
<stop stop-color="#A4BBDB"/>
<stop offset="1" stop-color="#8DA3BE"/>
</linearGradient>
<linearGradient id="paint5_linear_187_40040" x1="62.8231" y1="55.2273" x2="58.0688" y2="65.7864" gradientUnits="userSpaceOnUse">
<stop stop-color="#E9F3FC"/>
<stop offset="1" stop-color="#CADCF0"/>
</linearGradient>
<linearGradient id="paint6_linear_187_40040" x1="25.7588" y1="21.5859" x2="35.6724" y2="21.5859" gradientUnits="userSpaceOnUse">
<stop stop-color="#559AFF"/>
<stop offset="1" stop-color="#2E69EF"/>
</linearGradient>
<linearGradient id="paint7_linear_187_40040" x1="25.7582" y1="21.624" x2="31.9064" y2="41.4085" gradientUnits="userSpaceOnUse">
<stop stop-color="#559AFF"/>
<stop offset="1" stop-color="#2E69EF"/>
</linearGradient>
</defs>
</svg>
