<svg width="18" height="18" viewBox="0 0 18 18" fill="none" xmlns="http://www.w3.org/2000/svg">
<path d="M14.1503 9.58084C14.1503 9.79026 14.0671 9.9911 13.919 10.1392C13.7709 10.2873 13.5701 10.3704 13.3607 10.3704H4.93823C4.72881 10.3704 4.52797 10.2873 4.37989 10.1392C4.23181 9.9911 4.14862 9.79026 4.14862 9.58084C4.14862 9.37142 4.23181 9.17058 4.37989 9.0225C4.52797 8.87443 4.72881 8.79123 4.93823 8.79123H13.3607C13.5701 8.79123 13.7709 8.87443 13.919 9.0225C14.0671 9.17058 14.1503 9.37142 14.1503 9.58084ZM15.9927 5.63281H2.30621C2.09679 5.63281 1.89595 5.716 1.74787 5.86408C1.59979 6.01216 1.5166 6.213 1.5166 6.42242C1.5166 6.63183 1.59979 6.83267 1.74787 6.98075C1.89595 7.12883 2.09679 7.21202 2.30621 7.21202H15.9927C16.2021 7.21202 16.403 7.12883 16.551 6.98075C16.6991 6.83267 16.7823 6.63183 16.7823 6.42242C16.7823 6.213 16.6991 6.01216 16.551 5.86408C16.403 5.716 16.2021 5.63281 15.9927 5.63281ZM10.7287 11.9497H7.57025C7.36083 11.9497 7.15999 12.0328 7.01191 12.1809C6.86383 12.329 6.78064 12.5298 6.78064 12.7393C6.78064 12.9487 6.86383 13.1495 7.01191 13.2976C7.15999 13.4457 7.36083 13.5289 7.57025 13.5289H10.7287C10.9381 13.5289 11.1389 13.4457 11.287 13.2976C11.4351 13.1495 11.5183 12.9487 11.5183 12.7393C11.5183 12.5298 11.4351 12.329 11.287 12.1809C11.1389 12.0328 10.9381 11.9497 10.7287 11.9497Z" fill="#475569"/>
</svg>
