<svg width="16" height="16" viewBox="0 0 16 16" fill="none" xmlns="http://www.w3.org/2000/svg">
<path d="M8.00016 14.6693C4.31826 14.6693 1.3335 11.6845 1.3335 8.0026C1.3335 4.3207 4.31826 1.33594 8.00016 1.33594C11.682 1.33594 14.6668 4.3207 14.6668 8.0026C14.6668 11.6845 11.682 14.6693 8.00016 14.6693ZM8.00016 13.3359C10.9457 13.3359 13.3335 10.9481 13.3335 8.0026C13.3335 5.05708 10.9457 2.66927 8.00016 2.66927C5.05464 2.66927 2.66683 5.05708 2.66683 8.0026C2.66683 10.9481 5.05464 13.3359 8.00016 13.3359ZM7.3335 4.66927H8.66683V6.0026H7.3335V4.66927ZM7.3335 7.33594H8.66683V11.3359H7.3335V7.33594Z" fill="#757575"/>
</svg>
