<svg width="39" height="45" viewBox="0 0 39 45" fill="none" xmlns="http://www.w3.org/2000/svg">
<path d="M8.29687 0C6.77578 0 5.53125 1.24453 5.53125 2.76562V41.4844C5.53125 43.0055 6.77578 44.25 8.29687 44.25H35.9531C37.4742 44.25 38.7187 43.0055 38.7187 41.4844V11.0625L27.6562 0H8.29687Z" fill="#E2E5E7"/>
<path d="M30.4219 11.0625H38.7188L27.6562 0V8.29688C27.6562 9.81797 28.9008 11.0625 30.4219 11.0625Z" fill="#B0B7BD"/>
<path d="M38.7187 19.3594L30.4219 11.0625H38.7187V19.3594Z" fill="#CAD1D8"/>
<path d="M33.1875 35.9531C33.1875 36.7137 32.5652 37.3359 31.8047 37.3359H1.38281C0.622266 37.3359 0 36.7137 0 35.9531V22.125C0 21.3645 0.622266 20.7422 1.38281 20.7422H31.8047C32.5652 20.7422 33.1875 21.3645 33.1875 22.125V35.9531Z" fill="#50BEE8"/>
<path d="M9.50473 26.2039C9.50473 25.2746 10.965 25.2746 10.965 26.2039V30.5708C10.965 32.3076 10.1353 33.3585 8.22286 33.3585C7.28255 33.3585 6.49849 33.1027 5.81262 32.2191C5.24843 31.5443 6.31043 30.5722 6.88568 31.2788C7.35031 31.854 7.84812 31.9868 8.33349 31.9647C8.9516 31.9425 9.49505 31.6646 9.50611 30.5708V26.2039H9.50473ZM12.9078 26.2039C12.9078 25.8388 13.1955 25.4405 13.6601 25.4405H16.2141C17.6523 25.4405 18.9466 26.403 18.9466 28.2477C18.9466 29.9955 17.6523 30.969 16.2141 30.969H14.3681V32.4293C14.3681 32.916 14.0583 33.1912 13.6601 33.1912C13.295 33.1912 12.9078 32.916 12.9078 32.4293V26.2039ZM14.3681 26.833V29.5876H16.2141C16.9553 29.5876 17.5416 28.9335 17.5416 28.2477C17.5416 27.4747 16.9553 26.833 16.2141 26.833H14.3681ZM26.8424 32.3408C26.057 32.9935 25.0946 33.27 24.1224 33.27C21.7993 33.27 20.1524 31.9439 20.1524 29.311C20.1524 27.0792 21.8892 25.3438 24.2206 25.3438C25.0946 25.3438 26.0556 25.6411 26.7415 26.3159C27.4149 26.9782 26.4428 27.9628 25.7804 27.3779C25.3711 26.9796 24.7959 26.6809 24.2206 26.6809C22.8834 26.6809 21.5905 27.7526 21.5905 29.311C21.5905 30.9483 22.6733 31.9439 24.1224 31.9439C24.7959 31.9439 25.3711 31.7434 25.7804 31.4461V30.0868H24.1224C23.1379 30.0868 23.2374 28.7372 24.1224 28.7372H26.3336C26.7429 28.7372 27.1176 29.0469 27.1176 29.3899V31.7448C27.1176 31.9439 27.0305 32.1292 26.8424 32.3408Z" fill="white"/>
<path d="M31.8047 37.3359H5.53125V38.7188H31.8047C32.5652 38.7188 33.1875 38.0965 33.1875 37.3359V35.9531C33.1875 36.7137 32.5652 37.3359 31.8047 37.3359Z" fill="#CAD1D8"/>
</svg>
