<svg width="24" height="24" viewBox="0 0 24 24" fill="none" xmlns="http://www.w3.org/2000/svg">
<path fill-rule="evenodd" clip-rule="evenodd" d="M4.59493 7.31188C4.59493 6.6117 4.87307 5.94021 5.36817 5.44511C5.86327 4.95002 6.53476 4.67188 7.23493 4.67188H7.54885C7.73981 4.67188 7.92294 4.74773 8.05797 4.88276C8.19299 5.01778 8.26885 5.20092 8.26885 5.39188C8.26885 5.58283 8.19299 5.76597 8.05797 5.90099C7.92294 6.03602 7.73981 6.11188 7.54885 6.11188H7.23493C6.57253 6.11188 6.03493 6.64852 6.03493 7.31188V10.3896C6.03479 10.4879 6.01453 10.5851 5.9754 10.6753C5.93627 10.7654 5.8791 10.8466 5.80741 10.9138L4.79653 11.8642C4.7249 11.9315 4.66781 12.0128 4.62879 12.103C4.58977 12.1933 4.56964 12.2905 4.56964 12.3888C4.56964 12.4871 4.58977 12.5844 4.62879 12.6746C4.66781 12.7649 4.7249 12.8461 4.79653 12.9135L5.80741 13.8629C5.87922 13.9302 5.93645 14.0116 5.97559 14.1019C6.01472 14.1922 6.03492 14.2896 6.03493 14.388V17.4658C6.03493 18.1282 6.57253 18.6658 7.23493 18.6658H7.54885C7.73981 18.6658 7.92294 18.7417 8.05797 18.8767C8.19299 19.0117 8.26885 19.1948 8.26885 19.3858C8.26885 19.5768 8.19299 19.7599 8.05797 19.8949C7.92294 20.0299 7.73981 20.1058 7.54885 20.1058H7.23493C6.53476 20.1058 5.86327 19.8277 5.36817 19.3326C4.87307 18.8375 4.59493 18.166 4.59493 17.4658V14.6991L3.81061 13.9637C3.59541 13.7617 3.42389 13.5177 3.30665 13.2469C3.1894 12.976 3.12891 12.684 3.12891 12.3888C3.12891 12.0937 3.1894 11.8017 3.30665 11.5308C3.42389 11.2599 3.59541 11.016 3.81061 10.814L4.59493 10.0776V7.31188ZM19.4058 7.31188C19.4058 6.6117 19.1277 5.94021 18.6326 5.44511C18.1375 4.95002 17.466 4.67188 16.7658 4.67188H16.4519C16.2609 4.67188 16.0778 4.74773 15.9428 4.88276C15.8077 5.01778 15.7319 5.20092 15.7319 5.39188C15.7319 5.58283 15.8077 5.76597 15.9428 5.90099C16.0778 6.03602 16.2609 6.11188 16.4519 6.11188H16.7658C17.4282 6.11188 17.9658 6.64852 17.9658 7.31188V10.3896C17.966 10.4879 17.9862 10.5851 18.0253 10.6753C18.0645 10.7654 18.1216 10.8466 18.1933 10.9138L19.2042 11.8642C19.2758 11.9315 19.3329 12.0128 19.372 12.103C19.411 12.1933 19.4311 12.2905 19.4311 12.3888C19.4311 12.4871 19.411 12.5844 19.372 12.6746C19.3329 12.7649 19.2758 12.8461 19.2042 12.9135L18.1933 13.8629C18.1215 13.9302 18.0643 14.0116 18.0252 14.1019C17.986 14.1922 17.9658 14.2896 17.9658 14.388V17.4658C17.9658 18.1282 17.4282 18.6658 16.7658 18.6658H16.4519C16.2609 18.6658 16.0778 18.7417 15.9428 18.8767C15.8077 19.0117 15.7319 19.1948 15.7319 19.3858C15.7319 19.5768 15.8077 19.7599 15.9428 19.8949C16.0778 20.0299 16.2609 20.1058 16.4519 20.1058H16.7658C17.466 20.1058 18.1375 19.8277 18.6326 19.3326C19.1277 18.8375 19.4058 18.166 19.4058 17.4658V14.6991L20.1901 13.9637C20.4053 13.7617 20.5768 13.5177 20.6941 13.2469C20.8113 12.976 20.8718 12.684 20.8718 12.3888C20.8718 12.0937 20.8113 11.8017 20.6941 11.5308C20.5768 11.2599 20.4053 11.016 20.1901 10.814L19.4058 10.0776V7.31188ZM14.1873 6.9202C14.3644 6.99109 14.5061 7.12938 14.5814 7.30469C14.6566 7.48001 14.6592 7.67802 14.5885 7.85524L10.7485 17.4552C10.7155 17.5458 10.6645 17.6288 10.5988 17.6993C10.5331 17.7698 10.4538 17.8264 10.3658 17.8657C10.2778 17.905 10.1828 17.9262 10.0864 17.9281C9.99002 17.93 9.89424 17.9125 9.80474 17.8767C9.71524 17.8409 9.63385 17.7875 9.56538 17.7196C9.49692 17.6518 9.44277 17.5708 9.40617 17.4817C9.36956 17.3925 9.35123 17.2969 9.35227 17.2005C9.35331 17.1041 9.37369 17.0089 9.41221 16.9205L13.2522 7.32052C13.3231 7.1434 13.4614 7.00166 13.6367 6.92642C13.812 6.85118 14.01 6.84956 14.1873 6.9202Z" fill="#34A853"/>
</svg>
