<svg width="24" height="24" viewBox="0 0 24 24" fill="none" xmlns="http://www.w3.org/2000/svg">
<path d="M21.9998 10.9967H4.41379L9.70679 5.70366C9.8023 5.61142 9.87848 5.50107 9.93089 5.37907C9.9833 5.25706 10.0109 5.12584 10.012 4.99306C10.0132 4.86029 9.98789 4.72861 9.93761 4.60571C9.88733 4.48281 9.81307 4.37116 9.71918 4.27727C9.62529 4.18338 9.51364 4.10912 9.39074 4.05884C9.26784 4.00856 9.13616 3.98326 9.00339 3.98441C8.87061 3.98557 8.73939 4.01315 8.61738 4.06556C8.49538 4.11797 8.38503 4.19415 8.29279 4.28966L1.29279 11.2897C1.10532 11.4772 1 11.7315 1 11.9967C1 12.2618 1.10532 12.5161 1.29279 12.7037L8.29279 19.7037C8.48139 19.8858 8.73399 19.9866 8.99619 19.9843C9.25838 19.9821 9.5092 19.8769 9.6946 19.6915C9.88001 19.5061 9.98518 19.2553 9.98746 18.9931C9.98974 18.7309 9.88894 18.4783 9.70679 18.2897L4.41379 12.9967H21.9998C22.265 12.9967 22.5194 12.8913 22.7069 12.7038C22.8944 12.5162 22.9998 12.2619 22.9998 11.9967C22.9998 11.7314 22.8944 11.4771 22.7069 11.2896C22.5194 11.102 22.265 10.9967 21.9998 10.9967Z" fill="#010101"/>
</svg>
