<svg width="16" height="15" viewBox="0 0 16 15" fill="none" xmlns="http://www.w3.org/2000/svg">
<g clip-path="url(#clip0_2191_18256)">
<path d="M8 3.75C7.50555 3.75 7.0222 3.89662 6.61108 4.17133C6.19995 4.44603 5.87952 4.83648 5.6903 5.29329C5.50108 5.75011 5.45157 6.25277 5.54804 6.73773C5.6445 7.22268 5.8826 7.66814 6.23223 8.01777C6.58187 8.3674 7.02732 8.6055 7.51228 8.70196C7.99723 8.79843 8.4999 8.74892 8.95671 8.5597C9.41353 8.37048 9.80397 8.05005 10.0787 7.63893C10.3534 7.2278 10.5 6.74445 10.5 6.25C10.5 5.58696 10.2366 4.95107 9.76777 4.48223C9.29893 4.01339 8.66304 3.75 8 3.75ZM8 7.5C7.75277 7.5 7.5111 7.42669 7.30554 7.28934C7.09998 7.15199 6.93976 6.95676 6.84515 6.72835C6.75054 6.49995 6.72579 6.24861 6.77402 6.00614C6.82225 5.76366 6.9413 5.54093 7.11612 5.36612C7.29093 5.1913 7.51366 5.07225 7.75614 5.02402C7.99861 4.97579 8.24995 5.00054 8.47836 5.09515C8.70676 5.18976 8.90199 5.34998 9.03934 5.55554C9.17669 5.7611 9.25 6.00277 9.25 6.25C9.25 6.58152 9.11831 6.89946 8.88388 7.13388C8.64946 7.3683 8.33152 7.5 8 7.5Z" fill="#303030"/>
<path d="M8.0002 15.0013C7.47391 15.0039 6.95464 14.8805 6.48586 14.6413C6.01708 14.4021 5.61244 14.054 5.30582 13.6263C2.92395 10.3406 1.71582 7.87063 1.71582 6.28438C1.71582 4.61766 2.37792 3.0192 3.55647 1.84065C4.73502 0.662102 6.33348 0 8.0002 0C9.66692 0 11.2654 0.662102 12.4439 1.84065C13.6225 3.0192 14.2846 4.61766 14.2846 6.28438C14.2846 7.87063 13.0764 10.3406 10.6946 13.6263C10.3879 14.054 9.98331 14.4021 9.51453 14.6413C9.04575 14.8805 8.52648 15.0039 8.0002 15.0013ZM8.0002 1.36438C6.69546 1.36586 5.44458 1.88483 4.52199 2.80742C3.5994 3.73001 3.08043 4.98089 3.07895 6.28563C3.07895 7.54188 4.26207 9.865 6.40957 12.8269C6.59188 13.078 6.83105 13.2824 7.10752 13.4233C7.38398 13.5642 7.68988 13.6377 8.0002 13.6377C8.31051 13.6377 8.61641 13.5642 8.89287 13.4233C9.16934 13.2824 9.40851 13.078 9.59082 12.8269C11.7383 9.865 12.9214 7.54188 12.9214 6.28563C12.92 4.98089 12.401 3.73001 11.4784 2.80742C10.5558 1.88483 9.30494 1.36586 8.0002 1.36438Z" fill="#303030"/>
</g>
<defs>
<clipPath id="clip0_2191_18256">
<rect width="15" height="15" fill="white" transform="translate(0.5)"/>
</clipPath>
</defs>
</svg>
