<svg width="24" height="24" viewBox="0 0 24 24" fill="none" xmlns="http://www.w3.org/2000/svg">
<path d="M6.35234 8.46875H3.52881V9.88051H4.94057V14.1158H3.52881V15.5276H7.7641V14.1158H6.35234V8.46875ZM9.17587 9.88051H11.2935V11.2923H9.17587V15.5276H12.7053V14.1158H10.5876V12.704H12.7053V8.46875H9.17587V9.88051ZM14.117 8.46875V9.88051H16.2347V11.2923H14.8229V12.704H16.2346L16.2347 14.1158H14.117V15.5276H17.6465V8.46875H14.117Z" fill="#0957D0"/>
<path d="M24 18.3575V5.65165H20.4706V4.23989H21.8824V2.82812H17.6471V4.23989H19.0588V5.65165H0V18.3575H19.0588V19.7693H17.6471V21.1811H21.8824V19.7693H20.4706V18.3575H24ZM22.5882 7.06342V16.9458H20.4706V7.06342H22.5882ZM1.41176 16.9458V7.06342H19.0588V16.9458H1.41176Z" fill="#0957D0"/>
</svg>
