<svg width="142" height="113" viewBox="0 0 142 113" fill="none" xmlns="http://www.w3.org/2000/svg">
<rect x="81.1094" y="18.4258" width="61.4969" height="75.3874" rx="5.80875" transform="rotate(25.6375 81.1094 18.4258)" stroke="#EDF1F3" stroke-width="1.01022" stroke-linecap="round" stroke-dasharray="3.66 2.78"/>
<rect y="38.1699" width="61.4969" height="75.3874" rx="5.80875" transform="rotate(-24.5519 0 38.1699)" stroke="#EDF1F3" stroke-width="1.01022" stroke-linecap="round" stroke-dasharray="3.66 2.78"/>
<rect x="37.8828" y="1" width="61.4969" height="75.3874" rx="5.80875" fill="white" stroke="#EDF1F3" stroke-width="1.01022" stroke-linecap="round" stroke-dasharray="3.66 2.78"/>
<path d="M82.1431 14.0068L55.0566 41.0933" stroke="#EDF1F3" stroke-width="1.01022" stroke-linecap="round"/>
<path d="M55.0566 14.0063L82.1431 41.0928" stroke="#EDF1F3" stroke-width="1.01022" stroke-linecap="round"/>
<path d="M118.807 64.0762C118.706 81.2266 104.841 95.0517 87.8116 94.9509C70.7217 94.8502 56.957 80.9445 57.0779 63.8545C57.1989 46.7848 71.0643 33.1209 88.1542 33.2015C105.123 33.2821 118.908 47.1677 118.807 64.0762ZM113.507 64.1165C113.547 50.0698 102.14 38.5623 88.134 38.5018C73.9462 38.4414 62.3984 49.8279 62.3782 63.915C62.3379 78.1432 73.7245 89.5902 87.9526 89.6305C102.04 89.6708 113.487 78.2439 113.527 64.1165H113.507Z" fill="#E0E7EB"/>
<path d="M117.417 97.7525C121.065 94.5078 124.047 90.9609 126.446 86.8496C126.929 87.1116 127.353 87.3333 127.776 87.5953C131.182 89.7718 134.708 91.8073 137.953 94.1854C143.455 98.216 142.528 106.459 136.341 109.139C133.056 110.57 129.811 110.207 127.211 107.769C123.826 104.605 120.702 101.158 117.417 97.7525Z" fill="#CDD4D8"/>
<path d="M110.846 89.3482C112.962 86.7887 114.958 84.3704 117.074 81.8311C119.19 82.9193 121.487 84.1084 123.825 85.3176C121.628 89.1265 118.887 92.3712 115.562 95.3135C113.95 93.2781 112.338 91.2426 110.826 89.328L110.846 89.3482Z" fill="#CDD4D8"/>
<path d="M113.507 64.1158C113.467 78.2432 102.02 89.6701 87.9329 89.6298C73.7048 89.5895 62.3182 78.1223 62.3585 63.9143C62.3988 49.8272 73.9264 38.4608 88.1143 38.5011C102.121 38.5615 113.527 50.069 113.487 64.1158H113.507ZM110.484 64.1158C110.505 51.7014 100.468 41.5644 88.0941 41.5241C75.5589 41.4838 65.4016 51.5201 65.3815 63.9747C65.3613 76.4899 75.3976 86.5665 87.9128 86.6269C100.347 86.6672 110.444 76.5906 110.484 64.1158Z" fill="white"/>
<path d="M110.485 64.1163C110.465 76.5911 100.348 86.6677 87.9132 86.6274C75.3981 86.5871 65.3417 76.4903 65.382 63.9752C65.4021 51.5205 75.5795 41.4842 88.0946 41.5245C100.469 41.5648 110.505 51.6817 110.485 64.1163ZM68.4452 63.1489C68.4452 63.6124 68.4452 63.955 68.4452 64.2977C68.4452 64.7007 68.5057 65.1038 68.5259 65.527C68.6266 66.716 69.2111 67.3206 70.1784 67.24C71.0853 67.1594 71.5891 66.454 71.5287 65.3255C71.1861 58.4532 74.0075 53.2537 79.8721 49.6866C80.9604 49.0215 81.2828 48.2154 80.779 47.3891C80.2953 46.583 79.4287 46.4621 78.4009 47.0667C72.2139 50.7144 68.9894 56.1558 68.4452 63.1489ZM85.6359 47.7519C86.9459 47.7519 87.7923 47.0868 87.752 46.1195C87.7319 45.273 87.0063 44.6483 86.0994 44.6684C84.7089 44.7087 83.9834 45.273 84.0035 46.3008C84.0237 47.1674 84.7089 47.772 85.6359 47.7519Z" fill="white"/>
<path d="M68.4453 63.1496C68.9693 56.1565 72.214 50.7151 78.401 47.0674C79.4288 46.4628 80.2954 46.5837 80.7791 47.3898C81.2829 48.2161 80.9605 49.0222 79.8722 49.6873C74.0076 53.2544 71.2063 58.4539 71.5288 65.3262C71.5892 66.4547 71.0854 67.1601 70.1785 67.2407C69.2111 67.3213 68.6065 66.7167 68.5259 65.5277C68.4856 65.1246 68.4655 64.7216 68.4453 64.2984C68.4453 63.9557 68.4453 63.6131 68.4453 63.1496Z" fill="#E0E7EB"/>
<path d="M85.6348 47.7509C84.7077 47.7509 84.0427 47.1665 84.0024 46.2999C83.9822 45.2721 84.7077 44.7078 86.0983 44.6675C87.0052 44.6473 87.7106 45.2721 87.7509 46.1185C87.7912 47.0859 86.9447 47.7308 85.6348 47.7509Z" fill="#E0E7EB"/>
</svg>
