<svg width="24" height="25" viewBox="0 0 24 25" fill="none" xmlns="http://www.w3.org/2000/svg">
<circle cx="12" cy="12.0469" r="12" fill="#FAEAEE"/>
<g clip-path="url(#clip0_1109_13170)">
<path d="M12.0018 4.84009C10.5777 4.84009 9.18569 5.26236 8.00166 6.05351C6.81762 6.84465 5.89478 7.96914 5.34983 9.28477C4.80488 10.6004 4.66229 12.0481 4.94011 13.4447C5.21792 14.8414 5.90365 16.1243 6.91059 17.1313C7.91753 18.1382 9.20045 18.8239 10.5971 19.1017C11.9938 19.3796 13.4415 19.237 14.7571 18.692C16.0727 18.1471 17.1972 17.2242 17.9883 16.0402C18.7795 14.8562 19.2018 13.4641 19.2018 12.0401C19.1997 10.1312 18.4405 8.30101 17.0907 6.9512C15.7408 5.60138 13.9107 4.84215 12.0018 4.84009ZM12.0018 18.0401C10.8151 18.0401 9.65503 17.6882 8.66834 17.0289C7.68164 16.3696 6.91261 15.4325 6.45848 14.3362C6.00436 13.2398 5.88554 12.0334 6.11705 10.8695C6.34856 9.70566 6.92001 8.63656 7.75912 7.79745C8.59824 6.95833 9.66733 6.38689 10.8312 6.15538C11.9951 5.92386 13.2015 6.04268 14.2979 6.49681C15.3942 6.95094 16.3313 7.71997 16.9906 8.70667C17.6499 9.69336 18.0018 10.8534 18.0018 12.0401C18 13.6309 17.3673 15.156 16.2425 16.2808C15.1176 17.4056 13.5925 18.0383 12.0018 18.0401Z" fill="#C50A0A"/>
<path d="M14.2273 9.81141C14.1148 9.69893 13.9622 9.63574 13.8031 9.63574C13.644 9.63574 13.4914 9.69893 13.3789 9.81141L12.0031 11.1872L10.6273 9.81141C10.5141 9.70212 10.3626 9.64164 10.2052 9.64301C10.0479 9.64438 9.89743 9.70748 9.78618 9.81872C9.67494 9.92997 9.61184 10.0805 9.61047 10.2378C9.6091 10.3951 9.66958 10.5467 9.77888 10.6598L11.1547 12.0356L9.77888 13.4114C9.72157 13.4668 9.67586 13.533 9.64441 13.6062C9.61297 13.6794 9.59642 13.7581 9.59573 13.8378C9.59503 13.9174 9.61021 13.9964 9.64038 14.0702C9.67055 14.1439 9.7151 14.2109 9.77144 14.2673C9.82777 14.3236 9.89477 14.3681 9.9685 14.3983C10.0422 14.4285 10.1212 14.4437 10.2009 14.443C10.2806 14.4423 10.3593 14.4257 10.4325 14.3943C10.5057 14.3628 10.5719 14.3171 10.6273 14.2598L12.0031 12.884L13.3789 14.2598C13.492 14.3691 13.6436 14.4296 13.8009 14.4282C13.9582 14.4269 14.1087 14.3637 14.22 14.2525C14.3312 14.1413 14.3943 13.9908 14.3957 13.8335C14.397 13.6761 14.3366 13.5246 14.2273 13.4114L12.8515 12.0356L14.2273 10.6598C14.3398 10.5473 14.4029 10.3947 14.4029 10.2356C14.4029 10.0765 14.3398 9.92393 14.2273 9.81141Z" fill="#C50A0A"/>
</g>
<defs>
<clipPath id="clip0_1109_13170">
<rect width="14.4" height="14.4" fill="white" transform="translate(4.80127 4.84253)"/>
</clipPath>
</defs>
</svg>
