<svg width="16" height="10" viewBox="0 0 16 10" fill="none" xmlns="http://www.w3.org/2000/svg">
<path d="M8 0.226562C4.94303 0.226562 2.17081 1.89906 0.125192 4.61564C-0.0417306 4.8382 -0.0417306 5.14914 0.125192 5.3717C2.17081 8.09155 4.94303 9.76405 8 9.76405C11.057 9.76405 13.8292 8.09155 15.8748 5.37497C16.0417 5.15241 16.0417 4.84148 15.8748 4.61891C13.8292 1.89906 11.057 0.226562 8 0.226562ZM8.21929 8.35339C6.19004 8.48104 4.51427 6.80854 4.64191 4.77602C4.74665 3.10025 6.10494 1.74196 7.78071 1.63722C9.80996 1.50957 11.4857 3.18207 11.3581 5.2146C11.2501 6.88709 9.89179 8.24538 8.21929 8.35339ZM8.11783 6.80199C7.02465 6.87073 6.1213 5.97066 6.19331 4.87748C6.24895 3.97413 6.9821 3.24426 7.88545 3.18534C8.97862 3.11661 9.88197 4.01668 9.80996 5.10986C9.75105 6.01648 9.0179 6.74635 8.11783 6.80199Z" fill="#010101"/>
</svg>
