<svg width="51" height="50" viewBox="0 0 51 50" fill="none" xmlns="http://www.w3.org/2000/svg">
<path d="M0.5 25C0.5 11.1929 11.6929 0 25.5 0C39.3071 0 50.5 11.1929 50.5 25C50.5 38.8071 39.3071 50 25.5 50C11.6929 50 0.5 38.8071 0.5 25Z" fill="#FEF0C7"/>
<path d="M25.4987 20.834V25.0007M25.4987 29.1673H25.5091M35.9154 25.0007C35.9154 30.7536 31.2517 35.4173 25.4987 35.4173C19.7457 35.4173 15.082 30.7536 15.082 25.0007C15.082 19.2477 19.7457 14.584 25.4987 14.584C31.2517 14.584 35.9154 19.2477 35.9154 25.0007Z" stroke="#DC6803" stroke-width="2.08333" stroke-linecap="round" stroke-linejoin="round"/>
</svg>
