<svg width="16" height="16" viewBox="0 0 16 16" fill="none" xmlns="http://www.w3.org/2000/svg">
<g opacity="0.9" clip-path="url(#clip0_991_36713)">
<path d="M8.00261 5.33594C7.47519 5.33594 6.95962 5.49233 6.52109 5.78535C6.08255 6.07837 5.74076 6.49485 5.53893 6.98211C5.33709 7.46938 5.28428 8.00556 5.38718 8.52285C5.49007 9.04013 5.74405 9.51528 6.11699 9.88822C6.48993 10.2612 6.96508 10.5151 7.48236 10.618C7.99965 10.7209 8.53583 10.6681 9.0231 10.4663C9.51036 10.2644 9.92684 9.92266 10.2199 9.48412C10.5129 9.04559 10.6693 8.53002 10.6693 8.0026C10.6693 7.29536 10.3883 6.61708 9.88822 6.11699C9.38813 5.61689 8.70985 5.33594 8.00261 5.33594V5.33594ZM8.00261 9.33594C7.7389 9.33594 7.48111 9.25774 7.26185 9.11123C7.04258 8.96472 6.87168 8.75648 6.77077 8.51285C6.66985 8.26921 6.64344 8.00113 6.69489 7.74248C6.74634 7.48384 6.87333 7.24627 7.0598 7.0598C7.24627 6.87333 7.48384 6.74634 7.74249 6.69489C8.00113 6.64344 8.26922 6.66985 8.51285 6.77076C8.75649 6.87168 8.96472 7.04258 9.11123 7.26184C9.25774 7.48111 9.33594 7.7389 9.33594 8.0026C9.33594 8.35623 9.19546 8.69536 8.94541 8.94541C8.69537 9.19546 8.35623 9.33594 8.00261 9.33594Z" fill="#5635B3"/>
<path d="M14.1985 9.26667L13.9025 9.096C14.0357 8.37096 14.0357 7.62771 13.9025 6.90267L14.1985 6.732C14.4261 6.60068 14.6256 6.42581 14.7857 6.21737C14.9457 6.00894 15.0631 5.77103 15.1312 5.51721C15.1993 5.2634 15.2168 4.99866 15.1825 4.73811C15.1483 4.47755 15.0631 4.22629 14.9318 3.99867C14.8005 3.77104 14.6256 3.57151 14.4172 3.41147C14.2087 3.25143 13.9708 3.134 13.717 3.06591C13.4632 2.99781 13.1985 2.98037 12.9379 3.01459C12.6774 3.04881 12.4261 3.13401 12.1985 3.26533L11.9018 3.43667C11.3415 2.95795 10.6976 2.58683 10.0025 2.342V2C10.0025 1.46957 9.79176 0.960859 9.41668 0.585786C9.04161 0.210714 8.5329 0 8.00247 0C7.47204 0 6.96333 0.210714 6.58826 0.585786C6.21318 0.960859 6.00247 1.46957 6.00247 2V2.342C5.3074 2.58771 4.6637 2.95973 4.1038 3.43933L3.8058 3.26667C3.34609 3.00145 2.79986 2.92971 2.28726 3.06724C1.77466 3.20477 1.33769 3.54029 1.07247 4C0.807254 4.45971 0.735518 5.00595 0.873045 5.51855C1.01057 6.03114 1.34609 6.46812 1.8058 6.73333L2.1018 6.904C1.96854 7.62904 1.96854 8.37229 2.1018 9.09733L1.8058 9.268C1.34609 9.53322 1.01057 9.97019 0.873045 10.4828C0.735518 10.9954 0.807254 11.5416 1.07247 12.0013C1.33769 12.461 1.77466 12.7966 2.28726 12.9341C2.79986 13.0716 3.34609 12.9999 3.8058 12.7347L4.10247 12.5633C4.66298 13.0421 5.30712 13.4132 6.00247 13.658V14C6.00247 14.5304 6.21318 15.0391 6.58826 15.4142C6.96333 15.7893 7.47204 16 8.00247 16C8.5329 16 9.04161 15.7893 9.41668 15.4142C9.79176 15.0391 10.0025 14.5304 10.0025 14V13.658C10.6975 13.4123 11.3412 13.0403 11.9011 12.5607L12.1991 12.7327C12.6588 12.9979 13.2051 13.0696 13.7177 12.9321C14.2303 12.7946 14.6673 12.459 14.9325 11.9993C15.1977 11.5396 15.2694 10.9934 15.1319 10.4808C14.9944 9.96819 14.6588 9.53122 14.1991 9.266L14.1985 9.26667ZM12.4998 6.74933C12.7256 7.56738 12.7256 8.43129 12.4998 9.24933C12.4604 9.39171 12.4694 9.54316 12.5254 9.67987C12.5814 9.81659 12.6812 9.93084 12.8091 10.0047L13.5318 10.422C13.685 10.5104 13.7968 10.6561 13.8426 10.8269C13.8885 10.9977 13.8645 11.1798 13.7761 11.333C13.6877 11.4862 13.5421 11.598 13.3712 11.6438C13.2004 11.6897 13.0183 11.6657 12.8651 11.5773L12.1411 11.1587C12.0131 11.0845 11.864 11.055 11.7173 11.075C11.5706 11.0949 11.4348 11.163 11.3311 11.2687C10.7377 11.8744 9.99019 12.3067 9.16914 12.5187C9.02583 12.5555 8.89885 12.639 8.8082 12.7559C8.71755 12.8729 8.6684 13.0167 8.66847 13.1647V14C8.66847 14.1768 8.59823 14.3464 8.47321 14.4714C8.34818 14.5964 8.17861 14.6667 8.0018 14.6667C7.82499 14.6667 7.65542 14.5964 7.5304 14.4714C7.40537 14.3464 7.33514 14.1768 7.33514 14V13.1653C7.33521 13.0174 7.28605 12.8736 7.19541 12.7566C7.10476 12.6397 6.97778 12.5562 6.83447 12.5193C6.01337 12.3065 5.26602 11.8733 4.67314 11.2667C4.56949 11.161 4.43363 11.0929 4.28697 11.073C4.14032 11.053 3.99121 11.0825 3.86314 11.1567L3.14047 11.5747C3.06462 11.6191 2.98073 11.6482 2.89362 11.6601C2.80651 11.672 2.71791 11.6665 2.63291 11.6441C2.54791 11.6216 2.46819 11.5825 2.39835 11.5291C2.32851 11.4757 2.26992 11.409 2.22596 11.3329C2.182 11.2567 2.15353 11.1727 2.1422 11.0855C2.13087 10.9983 2.13689 10.9097 2.15993 10.8249C2.18297 10.74 2.22256 10.6606 2.27643 10.5911C2.33029 10.5216 2.39737 10.4635 2.4738 10.42L3.19647 10.0027C3.32444 9.92884 3.42425 9.81459 3.48024 9.67787C3.53623 9.54116 3.54522 9.38971 3.5058 9.24733C3.28004 8.42929 3.28004 7.56538 3.5058 6.74733C3.54451 6.60525 3.53509 6.45436 3.47901 6.31819C3.42293 6.18203 3.32335 6.06827 3.1958 5.99467L2.47314 5.57733C2.31993 5.48893 2.20812 5.34328 2.1623 5.17244C2.11647 5.00159 2.1404 4.81954 2.2288 4.66633C2.31721 4.51313 2.46285 4.40131 2.6337 4.35549C2.80455 4.30967 2.9866 4.33359 3.1398 4.422L3.8638 4.84067C3.99152 4.91501 4.14032 4.94481 4.28682 4.92538C4.43332 4.90595 4.56921 4.8384 4.67314 4.73333C5.26653 4.12756 6.01409 3.69535 6.83514 3.48333C6.97889 3.44638 7.1062 3.3625 7.19689 3.245C7.28758 3.1275 7.33647 2.98309 7.3358 2.83467V2C7.3358 1.82319 7.40604 1.65362 7.53107 1.5286C7.65609 1.40357 7.82566 1.33333 8.00247 1.33333C8.17928 1.33333 8.34885 1.40357 8.47387 1.5286C8.5989 1.65362 8.66914 1.82319 8.66914 2V2.83467C8.66906 2.98264 8.71822 3.12643 8.80887 3.24339C8.89951 3.36035 9.02649 3.44382 9.1698 3.48067C9.99114 3.69343 10.7387 4.12659 11.3318 4.73333C11.4355 4.83898 11.5713 4.90713 11.718 4.92704C11.8646 4.94696 12.0137 4.91751 12.1418 4.84333L12.8645 4.42533C12.9403 4.38087 13.0242 4.35185 13.1113 4.33993C13.1984 4.32802 13.287 4.33346 13.372 4.35593C13.457 4.37841 13.5367 4.41747 13.6066 4.47088C13.6764 4.52428 13.735 4.59097 13.779 4.66712C13.8229 4.74326 13.8514 4.82734 13.8627 4.91453C13.8741 5.00171 13.868 5.09028 13.845 5.17513C13.822 5.25998 13.7824 5.33943 13.7285 5.40892C13.6746 5.4784 13.6076 5.53655 13.5311 5.58L12.8085 5.99733C12.6812 6.07114 12.5819 6.18498 12.526 6.32113C12.4702 6.45727 12.461 6.60807 12.4998 6.75V6.74933Z" fill="#5635B3"/>
</g>
<defs>
<clipPath id="clip0_991_36713">
<rect width="16" height="16" fill="white"/>
</clipPath>
</defs>
</svg>
