<svg width="24" height="24" viewBox="0 0 24 24" fill="none" xmlns="http://www.w3.org/2000/svg">
<rect width="24" height="24" rx="4" fill="#341C6E"/>
<path d="M16 5.33333C17.4707 5.33333 18.6667 6.52933 18.6667 8V16C18.6667 17.4707 17.4707 18.6667 16 18.6667H8C6.52933 18.6667 5.33333 17.4707 5.33333 16V8C5.33333 6.52933 6.52933 5.33333 8 5.33333H16ZM16 4H8C6.93913 4 5.92172 4.42143 5.17157 5.17157C4.42143 5.92172 4 6.93913 4 8L4 16C4 17.0609 4.42143 18.0783 5.17157 18.8284C5.92172 19.5786 6.93913 20 8 20H16C17.0609 20 18.0783 19.5786 18.8284 18.8284C19.5786 18.0783 20 17.0609 20 16V8C20 6.93913 19.5786 5.92172 18.8284 5.17157C18.0783 4.42143 17.0609 4 16 4Z" fill="white"/>
<path d="M12.0026 16C11.8258 16 11.6562 15.9298 11.5312 15.8047C11.4062 15.6797 11.3359 15.5101 11.3359 15.3333V8.66667C11.3359 8.48986 11.4062 8.32029 11.5312 8.19526C11.6562 8.07024 11.8258 8 12.0026 8C12.1794 8 12.349 8.07024 12.474 8.19526C12.599 8.32029 12.6693 8.48986 12.6693 8.66667V15.3333C12.6693 15.5101 12.599 15.6797 12.474 15.8047C12.349 15.9298 12.1794 16 12.0026 16Z" fill="white"/>
<path d="M8 11.9948C8 11.818 8.07024 11.6484 8.19526 11.5234C8.32029 11.3984 8.48986 11.3281 8.66667 11.3281H15.3333C15.5101 11.3281 15.6797 11.3984 15.8047 11.5234C15.9298 11.6484 16 11.818 16 11.9948C16 12.1716 15.9298 12.3412 15.8047 12.4662C15.6797 12.5912 15.5101 12.6615 15.3333 12.6615H8.66667C8.48986 12.6615 8.32029 12.5912 8.19526 12.4662C8.07024 12.3412 8 12.1716 8 11.9948Z" fill="white"/>
</svg>
