<svg width="14" height="14" viewBox="0 0 14 14" fill="none" xmlns="http://www.w3.org/2000/svg">
<g opacity="0.9">
<path d="M7.0013 4.66602C6.53981 4.66602 6.08869 4.80286 5.70497 5.05925C5.32126 5.31564 5.02219 5.68006 4.84558 6.10642C4.66898 6.53278 4.62277 7.00194 4.7128 7.45456C4.80284 7.90718 5.02506 8.32294 5.35139 8.64927C5.67771 8.97559 6.09347 9.19782 6.54609 9.28785C6.99872 9.37788 7.46787 9.33167 7.89423 9.15507C8.32059 8.97846 8.68501 8.67939 8.9414 8.29568C9.19779 7.91196 9.33464 7.46084 9.33464 6.99935C9.33464 6.38051 9.0888 5.78702 8.65122 5.34943C8.21363 4.91185 7.62014 4.66602 7.0013 4.66602V4.66602ZM7.0013 8.16602C6.77056 8.16602 6.545 8.09759 6.35314 7.9694C6.16128 7.8412 6.01175 7.65899 5.92344 7.44581C5.83514 7.23263 5.81204 6.99805 5.85705 6.77174C5.90207 6.54543 6.01318 6.33755 6.17635 6.17439C6.33951 6.01123 6.54739 5.90012 6.7737 5.8551C7.00001 5.81008 7.23459 5.83319 7.44777 5.92149C7.66095 6.00979 7.84316 6.15933 7.97135 6.35118C8.09955 6.54304 8.16797 6.7686 8.16797 6.99935C8.16797 7.30877 8.04505 7.60551 7.82626 7.82431C7.60747 8.0431 7.31072 8.16602 7.0013 8.16602Z" fill="white"/>
<path d="M12.4227 8.10833L12.1637 7.959C12.2803 7.32459 12.2803 6.67424 12.1637 6.03983L12.4227 5.8905C12.6219 5.77559 12.7964 5.62258 12.9365 5.4402C13.0765 5.25782 13.1793 5.04965 13.2389 4.82756C13.2984 4.60547 13.3137 4.37383 13.2838 4.14584C13.2538 3.91786 13.1793 3.69801 13.0644 3.49883C12.9494 3.29966 12.7964 3.12507 12.6141 2.98504C12.4317 2.845 12.2235 2.74225 12.0014 2.68267C11.7793 2.62309 11.5477 2.60783 11.3197 2.63777C11.0917 2.66771 10.8719 2.74226 10.6727 2.85717L10.4131 3.00708C9.92283 2.5882 9.35941 2.26348 8.75119 2.04925V1.75C8.75119 1.28587 8.56681 0.840752 8.23862 0.512563C7.91043 0.184374 7.46531 0 7.00119 0C6.53706 0 6.09194 0.184374 5.76375 0.512563C5.43556 0.840752 5.25119 1.28587 5.25119 1.75V2.04925C4.64299 2.26425 4.07976 2.58977 3.58985 3.00942L3.3291 2.85833C2.92686 2.62627 2.4489 2.5635 2.00037 2.68384C1.55185 2.80417 1.1695 3.09776 0.937435 3.5C0.70537 3.90225 0.642602 4.3802 0.762938 4.82873C0.883274 5.27725 1.17686 5.6596 1.5791 5.89167L1.8381 6.041C1.7215 6.67541 1.7215 7.32576 1.8381 7.96017L1.5791 8.1095C1.17686 8.34157 0.883274 8.72392 0.762938 9.17244C0.642602 9.62096 0.70537 10.0989 0.937435 10.5012C1.1695 10.9034 1.55185 11.197 2.00037 11.3173C2.4489 11.4377 2.92686 11.3749 3.3291 11.1428L3.58868 10.9929C4.07913 11.4119 4.64276 11.7366 5.25119 11.9508V12.25C5.25119 12.7141 5.43556 13.1592 5.76375 13.4874C6.09194 13.8156 6.53706 14 7.00119 14C7.46531 14 7.91043 13.8156 8.23862 13.4874C8.56681 13.1592 8.75119 12.7141 8.75119 12.25V11.9508C9.35938 11.7358 9.92261 11.4102 10.4125 10.9906L10.6733 11.1411C11.0755 11.3731 11.5535 11.4359 12.002 11.3156C12.4505 11.1952 12.8329 10.9017 13.0649 10.4994C13.297 10.0972 13.3598 9.61922 13.2394 9.17069C13.1191 8.72217 12.8255 8.33982 12.4233 8.10775L12.4227 8.10833ZM10.9364 5.90567C11.1339 6.62145 11.1339 7.37738 10.9364 8.09317C10.9019 8.21775 10.9097 8.35026 10.9587 8.46989C11.0077 8.58952 11.095 8.68948 11.207 8.75408L11.8394 9.11925C11.9734 9.19661 12.0712 9.32405 12.1113 9.47354C12.1514 9.62303 12.1305 9.78232 12.0531 9.91638C11.9758 10.0504 11.8483 10.1483 11.6989 10.1884C11.5494 10.2285 11.3901 10.2075 11.256 10.1302L10.6225 9.76383C10.5105 9.69893 10.38 9.67316 10.2517 9.69059C10.1233 9.70801 10.0045 9.76764 9.91377 9.86008C9.39455 10.3901 8.74044 10.7683 8.02202 10.9538C7.89662 10.9861 7.78551 11.0591 7.7062 11.1615C7.62688 11.2638 7.58387 11.3896 7.58393 11.5191V12.25C7.58393 12.4047 7.52248 12.5531 7.41308 12.6625C7.30368 12.7719 7.15531 12.8333 7.0006 12.8333C6.84589 12.8333 6.69752 12.7719 6.58812 12.6625C6.47873 12.5531 6.41727 12.4047 6.41727 12.25V11.5197C6.41733 11.3902 6.37432 11.2644 6.295 11.162C6.21569 11.0597 6.10458 10.9867 5.97919 10.9544C5.26072 10.7681 4.60679 10.3891 4.08802 9.85833C3.99732 9.76589 3.87845 9.70626 3.75013 9.68884C3.6218 9.67141 3.49133 9.69718 3.37927 9.76208L2.74693 10.1278C2.68057 10.1667 2.60716 10.1921 2.53094 10.2026C2.45472 10.213 2.37719 10.2082 2.30282 10.1886C2.22844 10.1689 2.15869 10.1347 2.09758 10.088C2.03647 10.0413 1.98521 9.9829 1.94674 9.91628C1.90827 9.84965 1.88337 9.77608 1.87345 9.69979C1.86353 9.6235 1.86881 9.54601 1.88896 9.47176C1.90912 9.39752 1.94376 9.328 1.9909 9.2672C2.03803 9.2064 2.09672 9.15552 2.1636 9.1175L2.79593 8.75233C2.90791 8.68773 2.99525 8.58777 3.04424 8.46814C3.09323 8.34851 3.10109 8.216 3.0666 8.09142C2.86906 7.37563 2.86906 6.6197 3.0666 5.90392C3.10047 5.7796 3.09223 5.64756 3.04316 5.52842C2.99409 5.40928 2.90695 5.30974 2.79535 5.24533L2.16302 4.88017C2.02896 4.80281 1.93113 4.67537 1.89103 4.52588C1.85094 4.37639 1.87187 4.2171 1.94923 4.08304C2.02658 3.94899 2.15402 3.85115 2.30351 3.81106C2.453 3.77096 2.6123 3.7919 2.74635 3.86925L3.37985 4.23558C3.49161 4.30063 3.62181 4.32671 3.74999 4.30971C3.87818 4.29271 3.99708 4.2336 4.08802 4.14167C4.60724 3.61162 5.26135 3.23343 5.97977 3.04792C6.10555 3.01558 6.21695 2.94219 6.29631 2.83938C6.37566 2.73656 6.41844 2.61021 6.41785 2.48033V1.75C6.41785 1.59529 6.47931 1.44692 6.58871 1.33752C6.6981 1.22812 6.84648 1.16667 7.00119 1.16667C7.15589 1.16667 7.30427 1.22812 7.41366 1.33752C7.52306 1.44692 7.58452 1.59529 7.58452 1.75V2.48033C7.58445 2.60981 7.62747 2.73563 7.70678 2.83796C7.7861 2.9403 7.8972 3.01334 8.0226 3.04558C8.74128 3.23176 9.39542 3.61077 9.91435 4.14167C10.005 4.23411 10.1239 4.29374 10.2522 4.31116C10.3806 4.32859 10.511 4.30282 10.6231 4.23792L11.2554 3.87217C11.3218 3.83326 11.3952 3.80786 11.4714 3.79744C11.5477 3.78702 11.6252 3.79178 11.6996 3.81144C11.7739 3.83111 11.8437 3.86529 11.9048 3.91202C11.9659 3.95875 12.0172 4.0171 12.0556 4.08373C12.0941 4.15035 12.119 4.22392 12.1289 4.30021C12.1388 4.3765 12.1336 4.454 12.1134 4.52824C12.0933 4.60248 12.0586 4.672 12.0115 4.7328C11.9643 4.7936 11.9056 4.84448 11.8388 4.8825L11.2064 5.24767C11.095 5.31225 11.0082 5.41186 10.9593 5.53099C10.9104 5.65012 10.9024 5.78206 10.9364 5.90625V5.90567Z" fill="white"/>
</g>
</svg>
