<svg width="22" height="21" viewBox="0 0 22 21" fill="none" xmlns="http://www.w3.org/2000/svg">
<path d="M5.35359 17.0801C4.81984 17.0801 4.32109 16.8964 3.96234 16.5551C3.50734 16.1264 3.28859 15.4789 3.36734 14.7789L3.69109 11.9439C3.75234 11.4101 4.07609 10.7014 4.45234 10.3164L11.6361 2.7126C13.4298 0.813854 15.3023 0.761354 17.2011 2.5551C19.0998 4.34885 19.1523 6.22135 17.3586 8.1201L10.1748 15.7239C9.80734 16.1176 9.12484 16.4851 8.59109 16.5726L5.77359 17.0539C5.62484 17.0626 5.49359 17.0801 5.35359 17.0801ZM14.4448 2.54635C13.7711 2.54635 13.1848 2.96635 12.5898 3.59635L5.40609 11.2089C5.23109 11.3926 5.02984 11.8301 4.99484 12.0839L4.67109 14.9189C4.63609 15.2076 4.70609 15.4439 4.86359 15.5926C5.02109 15.7414 5.25734 15.7939 5.54609 15.7501L8.36359 15.2689C8.61734 15.2251 9.03734 14.9976 9.21234 14.8139L16.3961 7.2101C17.4811 6.0551 17.8748 4.9876 16.2911 3.5001C15.5911 2.82635 14.9873 2.54635 14.4448 2.54635Z" fill="#010101"/>
<path d="M15.6802 9.58075C15.6627 9.58075 15.6365 9.58075 15.619 9.58075C12.889 9.3095 10.6927 7.23575 10.2727 4.52325C10.2202 4.1645 10.4652 3.832 10.824 3.77075C11.1827 3.71825 11.5152 3.96325 11.5765 4.322C11.909 6.4395 13.624 8.067 15.759 8.277C16.1177 8.312 16.3802 8.63575 16.3452 8.9945C16.3015 9.327 16.0127 9.58075 15.6802 9.58075Z" fill="#010101"/>
<path d="M18.8828 19.9062H3.13281C2.77406 19.9062 2.47656 19.6087 2.47656 19.25C2.47656 18.8913 2.77406 18.5938 3.13281 18.5938H18.8828C19.2416 18.5938 19.5391 18.8913 19.5391 19.25C19.5391 19.6087 19.2416 19.9062 18.8828 19.9062Z" fill="#010101"/>
</svg>
