<svg width="14" height="14" viewBox="0 0 14 14" fill="none" xmlns="http://www.w3.org/2000/svg">
<g opacity="0.9" clip-path="url(#clip0_804_4652)">
<path d="M4.08333 8.16667C4.08333 8.32138 4.02188 8.46975 3.91248 8.57915C3.80308 8.68854 3.65471 8.75 3.5 8.75H2.91667C2.76196 8.75 2.61358 8.68854 2.50419 8.57915C2.39479 8.46975 2.33333 8.32138 2.33333 8.16667C2.33333 8.01196 2.39479 7.86358 2.50419 7.75419C2.61358 7.64479 2.76196 7.58333 2.91667 7.58333H3.5C3.65471 7.58333 3.80308 7.64479 3.91248 7.75419C4.02188 7.86358 4.08333 8.01196 4.08333 8.16667ZM6.41667 7.58333H5.83333C5.67862 7.58333 5.53025 7.64479 5.42085 7.75419C5.31146 7.86358 5.25 8.01196 5.25 8.16667C5.25 8.32138 5.31146 8.46975 5.42085 8.57915C5.53025 8.68854 5.67862 8.75 5.83333 8.75H6.41667C6.57138 8.75 6.71975 8.68854 6.82915 8.57915C6.93854 8.46975 7 8.32138 7 8.16667C7 8.01196 6.93854 7.86358 6.82915 7.75419C6.71975 7.64479 6.57138 7.58333 6.41667 7.58333ZM3.5 9.91667H2.91667C2.76196 9.91667 2.61358 9.97813 2.50419 10.0875C2.39479 10.1969 2.33333 10.3453 2.33333 10.5C2.33333 10.6547 2.39479 10.8031 2.50419 10.9125C2.61358 11.0219 2.76196 11.0833 2.91667 11.0833H3.5C3.65471 11.0833 3.80308 11.0219 3.91248 10.9125C4.02188 10.8031 4.08333 10.6547 4.08333 10.5C4.08333 10.3453 4.02188 10.1969 3.91248 10.0875C3.80308 9.97813 3.65471 9.91667 3.5 9.91667ZM6.41667 9.91667H5.83333C5.67862 9.91667 5.53025 9.97813 5.42085 10.0875C5.31146 10.1969 5.25 10.3453 5.25 10.5C5.25 10.6547 5.31146 10.8031 5.42085 10.9125C5.53025 11.0219 5.67862 11.0833 5.83333 11.0833H6.41667C6.57138 11.0833 6.71975 11.0219 6.82915 10.9125C6.93854 10.8031 7 10.6547 7 10.5C7 10.3453 6.93854 10.1969 6.82915 10.0875C6.71975 9.97813 6.57138 9.91667 6.41667 9.91667ZM3.5 2.91667H2.91667C2.76196 2.91667 2.61358 2.97813 2.50419 3.08752C2.39479 3.19692 2.33333 3.34529 2.33333 3.5C2.33333 3.65471 2.39479 3.80308 2.50419 3.91248C2.61358 4.02188 2.76196 4.08333 2.91667 4.08333H3.5C3.65471 4.08333 3.80308 4.02188 3.91248 3.91248C4.02188 3.80308 4.08333 3.65471 4.08333 3.5C4.08333 3.34529 4.02188 3.19692 3.91248 3.08752C3.80308 2.97813 3.65471 2.91667 3.5 2.91667ZM6.41667 2.91667H5.83333C5.67862 2.91667 5.53025 2.97813 5.42085 3.08752C5.31146 3.19692 5.25 3.34529 5.25 3.5C5.25 3.65471 5.31146 3.80308 5.42085 3.91248C5.53025 4.02188 5.67862 4.08333 5.83333 4.08333H6.41667C6.57138 4.08333 6.71975 4.02188 6.82915 3.91248C6.93854 3.80308 7 3.65471 7 3.5C7 3.34529 6.93854 3.19692 6.82915 3.08752C6.71975 2.97813 6.57138 2.91667 6.41667 2.91667ZM3.5 5.25H2.91667C2.76196 5.25 2.61358 5.31146 2.50419 5.42085C2.39479 5.53025 2.33333 5.67862 2.33333 5.83333C2.33333 5.98804 2.39479 6.13642 2.50419 6.24581C2.61358 6.35521 2.76196 6.41667 2.91667 6.41667H3.5C3.65471 6.41667 3.80308 6.35521 3.91248 6.24581C4.02188 6.13642 4.08333 5.98804 4.08333 5.83333C4.08333 5.67862 4.02188 5.53025 3.91248 5.42085C3.80308 5.31146 3.65471 5.25 3.5 5.25ZM6.41667 5.25H5.83333C5.67862 5.25 5.53025 5.31146 5.42085 5.42085C5.31146 5.53025 5.25 5.67862 5.25 5.83333C5.25 5.98804 5.31146 6.13642 5.42085 6.24581C5.53025 6.35521 5.67862 6.41667 5.83333 6.41667H6.41667C6.57138 6.41667 6.71975 6.35521 6.82915 6.24581C6.93854 6.13642 7 5.98804 7 5.83333C7 5.67862 6.93854 5.53025 6.82915 5.42085C6.71975 5.31146 6.57138 5.25 6.41667 5.25ZM14 5.83333V11.0833C13.9991 11.8566 13.6915 12.5979 13.1447 13.1447C12.5979 13.6915 11.8566 13.9991 11.0833 14H2.91667C2.1434 13.9991 1.40208 13.6915 0.855295 13.1447C0.308515 12.5979 0.00092625 11.8566 0 11.0833L0 2.91667C0.00092625 2.1434 0.308515 1.40208 0.855295 0.855295C1.40208 0.308515 2.1434 0.00092625 2.91667 0L6.41667 0C7.18993 0.00092625 7.93126 0.308515 8.47804 0.855295C9.02482 1.40208 9.33241 2.1434 9.33333 2.91667H11.0833C11.8566 2.91759 12.5979 3.22518 13.1447 3.77196C13.6915 4.31874 13.9991 5.06007 14 5.83333V5.83333ZM2.91667 12.8333H8.16667V2.91667C8.16667 2.45254 7.98229 2.00742 7.6541 1.67923C7.32592 1.35104 6.8808 1.16667 6.41667 1.16667H2.91667C2.45254 1.16667 2.00742 1.35104 1.67923 1.67923C1.35104 2.00742 1.16667 2.45254 1.16667 2.91667V11.0833C1.16667 11.5475 1.35104 11.9926 1.67923 12.3208C2.00742 12.649 2.45254 12.8333 2.91667 12.8333ZM12.8333 5.83333C12.8333 5.3692 12.649 4.92409 12.3208 4.5959C11.9926 4.26771 11.5475 4.08333 11.0833 4.08333H9.33333V12.8333H11.0833C11.5475 12.8333 11.9926 12.649 12.3208 12.3208C12.649 11.9926 12.8333 11.5475 12.8333 11.0833V5.83333ZM11.0833 7.58333C10.968 7.58333 10.8552 7.61755 10.7593 7.68164C10.6633 7.74574 10.5886 7.83684 10.5444 7.94344C10.5003 8.05003 10.4887 8.16731 10.5112 8.28047C10.5337 8.39363 10.5893 8.49757 10.6709 8.57915C10.7524 8.66073 10.8564 8.71628 10.9695 8.73879C11.0827 8.7613 11.2 8.74975 11.3066 8.7056C11.4132 8.66145 11.5043 8.58668 11.5684 8.49075C11.6325 8.39482 11.6667 8.28204 11.6667 8.16667C11.6667 8.01196 11.6052 7.86358 11.4958 7.75419C11.3864 7.64479 11.238 7.58333 11.0833 7.58333ZM11.0833 9.91667C10.968 9.91667 10.8552 9.95088 10.7593 10.015C10.6633 10.0791 10.5886 10.1702 10.5444 10.2768C10.5003 10.3834 10.4887 10.5006 10.5112 10.6138C10.5337 10.727 10.5893 10.8309 10.6709 10.9125C10.7524 10.9941 10.8564 11.0496 10.9695 11.0721C11.0827 11.0946 11.2 11.0831 11.3066 11.0389C11.4132 10.9948 11.5043 10.92 11.5684 10.8241C11.6325 10.7282 11.6667 10.6154 11.6667 10.5C11.6667 10.3453 11.6052 10.1969 11.4958 10.0875C11.3864 9.97813 11.238 9.91667 11.0833 9.91667ZM11.0833 5.25C10.968 5.25 10.8552 5.28421 10.7593 5.34831C10.6633 5.41241 10.5886 5.50351 10.5444 5.6101C10.5003 5.71669 10.4887 5.83398 10.5112 5.94714C10.5337 6.06029 10.5893 6.16423 10.6709 6.24581C10.7524 6.32739 10.8564 6.38295 10.9695 6.40546C11.0827 6.42797 11.2 6.41641 11.3066 6.37226C11.4132 6.32811 11.5043 6.25335 11.5684 6.15742C11.6325 6.06149 11.6667 5.94871 11.6667 5.83333C11.6667 5.67862 11.6052 5.53025 11.4958 5.42085C11.3864 5.31146 11.238 5.25 11.0833 5.25Z" fill="white"/>
</g>
<defs>
<clipPath id="clip0_804_4652">
<rect width="14" height="14" fill="white"/>
</clipPath>
</defs>
</svg>
