<svg width="12" height="14" viewBox="0 0 12 14" fill="none" xmlns="http://www.w3.org/2000/svg">
<path d="M11.6198 5.3125C11.6196 5.16632 11.5678 5.02232 11.4602 4.91478L6.96022 0.414777C6.85268 0.306883 6.70871 0.254535 6.5625 0.254535V0.25H3.1875C1.63679 0.25 0.375 1.51179 0.375 3.0625V10.9375C0.375 12.4882 1.63679 13.75 3.1875 13.75H8.8125C10.3632 13.75 11.625 12.4882 11.625 10.9375V5.3125H11.6198ZM7.125 2.17041L9.70459 4.75H8.8125C7.88195 4.75 7.125 3.99305 7.125 3.0625V2.17041ZM8.8125 12.625H3.1875C2.25695 12.625 1.5 11.8681 1.5 10.9375V3.0625C1.5 2.13195 2.25695 1.375 3.1875 1.375H6V3.0625C6 4.61321 7.26179 5.875 8.8125 5.875H10.5V10.9375C10.5 11.8681 9.74305 12.625 8.8125 12.625ZM8.8125 10.375C8.8125 10.6859 8.56064 10.9375 8.25 10.9375H3.75C3.43936 10.9375 3.1875 10.6859 3.1875 10.375C3.1875 10.0641 3.43936 9.8125 3.75 9.8125H8.25C8.56064 9.8125 8.8125 10.0641 8.8125 10.375ZM8.8125 8.125C8.8125 8.43592 8.56064 8.6875 8.25 8.6875H3.75C3.43936 8.6875 3.1875 8.43592 3.1875 8.125C3.1875 7.81408 3.43936 7.5625 3.75 7.5625H8.25C8.56064 7.5625 8.8125 7.81408 8.8125 8.125ZM3.1875 5.875C3.1875 5.56408 3.43936 5.3125 3.75 5.3125H4.875C5.18564 5.3125 5.4375 5.56408 5.4375 5.875C5.4375 6.18592 5.18564 6.4375 4.875 6.4375H3.75C3.43936 6.4375 3.1875 6.18592 3.1875 5.875Z" fill="#010101"/>
</svg>
