<svg width="12" height="12" viewBox="0 0 12 12" fill="none" xmlns="http://www.w3.org/2000/svg">
<path d="M3.38035 11.156C3.49793 11.1492 3.60892 11.0994 3.69219 11.0161L9.03139 5.67695C9.09138 5.61694 9.12508 5.53556 9.12508 5.45071C9.12508 5.36586 9.09138 5.28448 9.03139 5.22447L6.77507 2.96847C6.71506 2.90848 6.63368 2.87478 6.54883 2.87478C6.46398 2.87478 6.3826 2.90848 6.32259 2.96847L0.983229 8.30751C0.899936 8.39078 0.850165 8.50176 0.843389 8.61935L0.719549 10.7729C0.715645 10.8405 0.726082 10.9082 0.750174 10.9714C0.774266 11.0347 0.811469 11.0922 0.859339 11.14C0.907209 11.1879 0.964663 11.2251 1.02793 11.2492C1.0912 11.2733 1.15884 11.2837 1.22643 11.2798L3.38035 11.156ZM7.11443 2.17631C7.0847 2.20602 7.06112 2.24131 7.04503 2.28014C7.02894 2.31897 7.02066 2.36059 7.02066 2.40263C7.02066 2.44466 7.02894 2.48628 7.04503 2.52512C7.06112 2.56395 7.0847 2.59923 7.11443 2.62895L9.37059 4.88511C9.4003 4.91484 9.43559 4.93842 9.47442 4.95451C9.51325 4.9706 9.55488 4.97888 9.59691 4.97888C9.63894 4.97888 9.68056 4.9706 9.7194 4.95451C9.75823 4.93842 9.79351 4.91484 9.82323 4.88511L11.2027 3.50559C11.2473 3.46101 11.2827 3.4081 11.3068 3.34985C11.3309 3.29161 11.3434 3.22919 11.3434 3.16615C11.3434 3.10311 11.3309 3.04068 11.3068 2.98244C11.2827 2.9242 11.2473 2.87128 11.2027 2.82671L9.17283 0.796788C9.08282 0.706802 8.96075 0.65625 8.83347 0.65625C8.70619 0.65625 8.58412 0.706802 8.49411 0.796788L7.11443 2.17631Z" fill="#010101"/>
</svg>
