<svg width="20" height="14" viewBox="0 0 20 14" fill="none" xmlns="http://www.w3.org/2000/svg">
<path d="M1.9616 0.664062C1.68629 0.664873 1.41691 0.744098 1.185 0.892463L9.4062 8.21546C9.7762 8.54526 10.2396 8.54526 10.6088 8.21546L18.8148 0.892463C18.5829 0.744098 18.3135 0.664873 18.0382 0.664062H1.9616ZM0.5836 1.65366C0.5332 1.80226 0.5 1.95966 0.5 2.12566V11.8693C0.5 12.1589 0.584 12.4269 0.7284 12.6533L6.5976 7.02026L0.5836 1.65366ZM19.4162 1.65366L13.418 7.01266L19.264 12.6609C19.4178 12.4255 19.4998 12.1504 19.5 11.8693V2.12566C19.5 1.95966 19.4668 1.80246 19.4162 1.65366ZM12.687 7.66726L11.256 8.94606C10.9127 9.25317 10.4683 9.42296 10.0077 9.42296C9.5471 9.42296 9.10267 9.25317 8.7594 8.94606L7.3284 7.67486L1.5128 13.2543C1.6548 13.3003 1.8042 13.3303 1.9618 13.3303H18.0386C18.1964 13.3303 18.3456 13.3003 18.4878 13.2543L12.6872 7.66686L12.687 7.66726Z" fill="#5635B3"/>
</svg>
