<svg width="22" height="19" viewBox="0 0 22 19" fill="none" xmlns="http://www.w3.org/2000/svg">
<path d="M21.4057 15.6936L12.5108 0.942156C12.1604 0.361022 11.5211 0 10.8425 0C10.1639 0 9.52462 0.361022 9.17415 0.942198L0.279341 15.6936C-0.0828249 16.2942 -0.0935404 17.0468 0.251345 17.6575C0.596315 18.2682 1.24627 18.6477 1.94765 18.6477H19.7373C20.4387 18.6477 21.0887 18.2682 21.4337 17.6575C21.7786 17.0467 21.7679 16.2941 21.4057 15.6936ZM20.2043 16.9632C20.1575 17.0459 20.0897 17.1147 20.0076 17.1626C19.9256 17.2105 19.8323 17.2357 19.7373 17.2358H1.94765C1.85267 17.2358 1.75941 17.2105 1.67738 17.1626C1.59534 17.1147 1.52748 17.046 1.4807 16.9633C1.43406 16.8805 1.4102 16.7869 1.41155 16.6919C1.4129 16.597 1.4394 16.504 1.48837 16.4226L10.3833 1.67123C10.4312 1.59228 10.4986 1.52697 10.579 1.48156C10.6594 1.43614 10.7502 1.41214 10.8425 1.41186C11.0293 1.41186 11.2053 1.51126 11.3018 1.67123L20.1966 16.4226C20.2456 16.504 20.2721 16.5969 20.2735 16.6919C20.2748 16.7869 20.251 16.8805 20.2043 16.9632Z" fill="#E11C20"/>
<path d="M10.8392 5.8125C10.3021 5.8125 9.88301 6.10067 9.88301 6.61154C9.88301 8.17024 10.0664 10.4101 10.0664 11.9688C10.0664 12.3748 10.4201 12.5451 10.8392 12.5451C11.1536 12.5451 11.5989 12.3748 11.5989 11.9688C11.5989 10.4101 11.7823 8.17028 11.7823 6.61154C11.7823 6.10072 11.3501 5.8125 10.8392 5.8125ZM10.8524 13.4489C10.2761 13.4489 9.84375 13.9073 9.84375 14.4575C9.84375 14.9945 10.276 15.4661 10.8524 15.4661C11.3894 15.4661 11.8479 14.9945 11.8479 14.4575C11.8479 13.9073 11.3894 13.4489 10.8524 13.4489Z" fill="#E11C20"/>
</svg>
