<svg width="12" height="7" viewBox="0 0 12 7" fill="none" xmlns="http://www.w3.org/2000/svg">
<path fill-rule="evenodd" clip-rule="evenodd" d="M6.00298 4.53116L10.1983 0.335824C10.3241 0.214386 10.4925 0.14719 10.6673 0.148709C10.842 0.150228 11.0093 0.22034 11.1329 0.343946C11.2565 0.467551 11.3266 0.634759 11.3281 0.809557C11.3296 0.984355 11.2624 1.15276 11.141 1.27849L6.47432 5.94516C6.41246 6.00712 6.33899 6.05628 6.25811 6.08982C6.17724 6.12336 6.09054 6.14062 6.00298 6.14062C5.91543 6.14062 5.82873 6.12336 5.74785 6.08982C5.66698 6.05628 5.59351 6.00712 5.53165 5.94516L0.864983 1.27849C0.743545 1.15276 0.676348 0.984355 0.677867 0.809557C0.679386 0.634759 0.749499 0.467551 0.873104 0.343946C0.99671 0.22034 1.16392 0.150228 1.33872 0.148709C1.51351 0.14719 1.68192 0.214386 1.80765 0.335824L6.00298 4.53116Z" fill="#010101"/>
</svg>
