<svg width="13" height="17" viewBox="0 0 13 17" fill="none" xmlns="http://www.w3.org/2000/svg">
<path d="M1.50195 17H11.4629C12.2868 17 12.957 16.3298 12.957 15.5059V4.98047H9.4707C8.6468 4.98047 7.97656 4.31023 7.97656 3.48633V0H1.50195C0.678051 0 0.0078125 0.670238 0.0078125 1.49414V15.5059C0.0078125 16.3298 0.678051 17 1.50195 17ZM3.49414 7.00586H9.4707C9.74599 7.00586 9.96875 7.22862 9.96875 7.50391C9.96875 7.77919 9.74599 8.00195 9.4707 8.00195H3.49414C3.21885 8.00195 2.99609 7.77919 2.99609 7.50391C2.99609 7.22862 3.21885 7.00586 3.49414 7.00586ZM3.49414 8.99805H9.4707C9.74599 8.99805 9.96875 9.22081 9.96875 9.49609C9.96875 9.77138 9.74599 9.99414 9.4707 9.99414H3.49414C3.21885 9.99414 2.99609 9.77138 2.99609 9.49609C2.99609 9.22081 3.21885 8.99805 3.49414 8.99805ZM3.49414 10.9902H9.4707C9.74599 10.9902 9.96875 11.213 9.96875 11.4883C9.96875 11.7636 9.74599 11.9863 9.4707 11.9863H3.49414C3.21885 11.9863 2.99609 11.7636 2.99609 11.4883C2.99609 11.213 3.21885 10.9902 3.49414 10.9902ZM3.49414 12.9824H7.47852C7.7538 12.9824 7.97656 13.2052 7.97656 13.4805C7.97656 13.7558 7.7538 13.9785 7.47852 13.9785H3.49414C3.21885 13.9785 2.99609 13.7558 2.99609 13.4805C2.99609 13.2052 3.21885 12.9824 3.49414 12.9824Z" fill="white"/>
<path d="M9.4707 3.98454H12.6652L8.97266 0.291992V3.4865C8.97266 3.76129 9.19591 3.98454 9.4707 3.98454Z" fill="white"/>
</svg>
