<svg width="20" height="20" viewBox="0 0 20 20" fill="none" xmlns="http://www.w3.org/2000/svg">
<path d="M19.4542 14.678L16.6631 11.8869C15.6663 10.8901 13.9717 11.2889 13.573 12.5847C13.274 13.4819 12.2772 13.9803 11.38 13.7809C9.38643 13.2825 6.69505 10.6908 6.19665 8.59746C5.89761 7.7003 6.49569 6.70349 7.39282 6.40448C8.68867 6.00576 9.08739 4.31119 8.09058 3.31438L5.29953 0.523324C4.50208 -0.174441 3.30591 -0.174441 2.60815 0.523324L0.714213 2.41726C-1.17972 4.41087 0.913575 9.69395 5.59857 14.3789C10.2836 19.0639 15.5666 21.2569 17.5603 19.2633L19.4542 17.3694C20.152 16.5719 20.152 15.3757 19.4542 14.678Z" fill="#5635B3"/>
</svg>
