<svg width="20" height="20" viewBox="0 0 20 20" fill="none" xmlns="http://www.w3.org/2000/svg">
<path d="M5.83317 4.9974V2.4974C5.83317 2.03716 6.20627 1.66406 6.6665 1.66406H16.6665C17.1267 1.66406 17.4998 2.03716 17.4998 2.4974V14.1641C17.4998 14.6243 17.1267 14.9974 16.6665 14.9974H14.1665V17.4966C14.1665 17.9573 13.7916 18.3307 13.3275 18.3307H3.33888C2.87549 18.3307 2.5 17.9602 2.5 17.4966L2.50217 5.83145C2.50225 5.37082 2.8772 4.9974 3.34118 4.9974H5.83317ZM4.16868 6.66406L4.16682 16.6641H12.4998V6.66406H4.16868ZM7.49983 4.9974H14.1665V13.3307H15.8332V3.33073H7.49983V4.9974Z" fill="#606060"/>
</svg>
