<svg width="24" height="24" viewBox="0 0 24 24" fill="none" xmlns="http://www.w3.org/2000/svg">
<rect width="24" height="24" rx="4" fill="#C50A0A"/>
<path d="M15.6114 20.0057H8.29714C6.92571 20.0057 5.73714 18.9086 5.73714 17.4457V7.20571H4.64C4.27429 7.20571 4 6.84 4 6.47429C4 6.10857 4.27429 5.83429 4.64 5.83429H8.57143V5.56C8.57143 4.18857 9.66857 3 11.1314 3H12.96C14.3314 3 15.52 4.09714 15.52 5.56V5.83429H19.2686C19.6343 5.83429 20 6.10857 20 6.56571C20 7.02286 19.6343 7.20571 19.2686 7.20571H18.08V17.4457C18.1714 18.8171 16.9829 20.0057 15.6114 20.0057ZM7.2 7.20571V17.4457C7.2 18.0857 7.74857 18.6343 8.38857 18.6343H15.7029C16.3429 18.6343 16.8914 18.0857 16.8914 17.4457V7.20571H7.2ZM9.94286 5.83429H14.0571V5.56C14.0571 4.92 13.5086 4.37143 12.8686 4.37143H11.04C10.4 4.37143 9.85143 4.92 9.85143 5.56V5.83429H9.94286ZM13.7829 16.3486C13.4171 16.3486 13.0514 16.0743 13.0514 15.6171V10.1314C13.0514 9.76571 13.3257 9.4 13.7829 9.4C14.24 9.4 14.5143 9.67429 14.5143 10.1314V15.6171C14.5143 15.9829 14.1486 16.3486 13.7829 16.3486ZM10.1257 16.3486C9.76 16.3486 9.39429 16.0743 9.39429 15.6171V10.1314C9.39429 9.76571 9.66857 9.4 10.1257 9.4C10.5829 9.4 10.8571 9.67429 10.8571 10.1314V15.6171C10.8571 15.9829 10.4914 16.3486 10.1257 16.3486Z" fill="white"/>
</svg>
