<svg width="18" height="20" viewBox="0 0 18 20" fill="none" xmlns="http://www.w3.org/2000/svg">
<path d="M15.875 6.875H11.5V2.5C11.5 2.00272 11.3025 1.52581 10.9508 1.17417C10.5992 0.822544 10.1223 0.625 9.625 0.625H2.125C1.62772 0.625 1.15081 0.822544 0.799175 1.17417C0.447544 1.52581 0.25 2.00272 0.25 2.5V18.75C0.25 18.9158 0.315848 19.0747 0.433058 19.1919C0.550268 19.3092 0.70924 19.375 0.875 19.375H4.9375C5.02038 19.375 5.09987 19.3421 5.15847 19.2835C5.21708 19.2249 5.25 19.1454 5.25 19.0625V16.2676C5.25 15.9313 5.50859 15.6426 5.84492 15.6258C5.92943 15.6217 6.01388 15.6348 6.09316 15.6644C6.17245 15.6939 6.24491 15.7392 6.30616 15.7976C6.3674 15.856 6.41617 15.9261 6.44949 16.0039C6.48281 16.0817 6.49999 16.1654 6.5 16.25V19.0625C6.5 19.1454 6.53292 19.2249 6.59153 19.2835C6.65013 19.3421 6.72962 19.375 6.8125 19.375H17.125C17.2908 19.375 17.4497 19.3092 17.5669 19.1919C17.6842 19.0747 17.75 18.9158 17.75 18.75V8.75C17.75 8.25272 17.5525 7.77581 17.2008 7.42417C16.8492 7.07254 16.3723 6.875 15.875 6.875ZM2.83125 16.8699C2.70181 16.8869 2.57031 16.8628 2.45522 16.8012C2.34013 16.7396 2.24722 16.6435 2.18954 16.5264C2.13185 16.4093 2.11228 16.2771 2.13357 16.1483C2.15486 16.0195 2.21595 15.9006 2.30826 15.8083C2.40057 15.7159 2.51946 15.6549 2.64826 15.6336C2.77705 15.6123 2.90928 15.6318 3.02639 15.6895C3.1435 15.7472 3.2396 15.8401 3.30121 15.9552C3.36282 16.0703 3.38685 16.2018 3.36992 16.3312C3.35206 16.4679 3.28956 16.5947 3.19214 16.6921C3.09473 16.7896 2.96785 16.8521 2.83125 16.8699ZM2.83125 13.7449C2.70181 13.7619 2.57031 13.7378 2.45522 13.6762C2.34013 13.6146 2.24722 13.5185 2.18954 13.4014C2.13185 13.2843 2.11228 13.1521 2.13357 13.0233C2.15486 12.8945 2.21595 12.7756 2.30826 12.6833C2.40057 12.5909 2.51946 12.5299 2.64826 12.5086C2.77705 12.4873 2.90928 12.5068 3.02639 12.5645C3.1435 12.6222 3.2396 12.7151 3.30121 12.8302C3.36282 12.9453 3.38685 13.0768 3.36992 13.2062C3.35206 13.3429 3.28956 13.4697 3.19214 13.5671C3.09473 13.6646 2.96785 13.7271 2.83125 13.7449ZM2.83125 10.6199C2.70181 10.6369 2.57031 10.6128 2.45522 10.5512C2.34013 10.4896 2.24722 10.3935 2.18954 10.2764C2.13185 10.1593 2.11228 10.0271 2.13357 9.89826C2.15486 9.76946 2.21595 9.65057 2.30826 9.55826C2.40057 9.46595 2.51946 9.40486 2.64826 9.38357C2.77705 9.36228 2.90928 9.38185 3.02639 9.43954C3.1435 9.49722 3.2396 9.59013 3.30121 9.70522C3.36282 9.82031 3.38685 9.95181 3.36992 10.0812C3.35206 10.2179 3.28956 10.3447 3.19214 10.4421C3.09473 10.5396 2.96785 10.6021 2.83125 10.6199ZM2.83125 7.49492C2.70181 7.51185 2.57031 7.48782 2.45522 7.42621C2.34013 7.3646 2.24722 7.2685 2.18954 7.15139C2.13185 7.03428 2.11228 6.90205 2.13357 6.77326C2.15486 6.64446 2.21595 6.52557 2.30826 6.43326C2.40057 6.34095 2.51946 6.27986 2.64826 6.25857C2.77705 6.23728 2.90928 6.25685 3.02639 6.31454C3.1435 6.37222 3.2396 6.46513 3.30121 6.58022C3.36282 6.69531 3.38685 6.82681 3.36992 6.95625C3.35206 7.09285 3.28956 7.21973 3.19214 7.31714C3.09473 7.41456 2.96785 7.47706 2.83125 7.49492ZM2.83125 4.36992C2.70181 4.38685 2.57031 4.36282 2.45522 4.30121C2.34013 4.2396 2.24722 4.1435 2.18954 4.02639C2.13185 3.90928 2.11228 3.77705 2.13357 3.64826C2.15486 3.51946 2.21595 3.40057 2.30826 3.30826C2.40057 3.21595 2.51946 3.15486 2.64826 3.13357C2.77705 3.11228 2.90928 3.13185 3.02639 3.18954C3.1435 3.24722 3.2396 3.34013 3.30121 3.45522C3.36282 3.57031 3.38685 3.70181 3.36992 3.83125C3.35206 3.96785 3.28956 4.09473 3.19214 4.19214C3.09473 4.28956 2.96785 4.35206 2.83125 4.36992ZM5.95625 13.7449C5.82681 13.7619 5.69531 13.7378 5.58022 13.6762C5.46513 13.6146 5.37222 13.5185 5.31454 13.4014C5.25685 13.2843 5.23728 13.1521 5.25857 13.0233C5.27986 12.8945 5.34095 12.7756 5.43326 12.6833C5.52557 12.5909 5.64446 12.5299 5.77326 12.5086C5.90205 12.4873 6.03428 12.5068 6.15139 12.5645C6.2685 12.6222 6.3646 12.7151 6.42621 12.8302C6.48782 12.9453 6.51185 13.0768 6.49492 13.2062C6.47706 13.3429 6.41456 13.4697 6.31714 13.5671C6.21973 13.6646 6.09285 13.7271 5.95625 13.7449ZM5.95625 10.6199C5.82681 10.6369 5.69531 10.6128 5.58022 10.5512C5.46513 10.4896 5.37222 10.3935 5.31454 10.2764C5.25685 10.1593 5.23728 10.0271 5.25857 9.89826C5.27986 9.76946 5.34095 9.65057 5.43326 9.55826C5.52557 9.46595 5.64446 9.40486 5.77326 9.38357C5.90205 9.36228 6.03428 9.38185 6.15139 9.43954C6.2685 9.49722 6.3646 9.59013 6.42621 9.70522C6.48782 9.82031 6.51185 9.95181 6.49492 10.0812C6.47706 10.2179 6.41456 10.3447 6.31714 10.4421C6.21973 10.5396 6.09285 10.6021 5.95625 10.6199ZM5.95625 7.49492C5.82681 7.51185 5.69531 7.48782 5.58022 7.42621C5.46513 7.3646 5.37222 7.2685 5.31454 7.15139C5.25685 7.03428 5.23728 6.90205 5.25857 6.77326C5.27986 6.64446 5.34095 6.52557 5.43326 6.43326C5.52557 6.34095 5.64446 6.27986 5.77326 6.25857C5.90205 6.23728 6.03428 6.25685 6.15139 6.31454C6.2685 6.37222 6.3646 6.46513 6.42621 6.58022C6.48782 6.69531 6.51185 6.82681 6.49492 6.95625C6.47706 7.09285 6.41456 7.21973 6.31714 7.31714C6.21973 7.41456 6.09285 7.47706 5.95625 7.49492ZM5.95625 4.36992C5.82681 4.38685 5.69531 4.36282 5.58022 4.30121C5.46513 4.2396 5.37222 4.1435 5.31454 4.02639C5.25685 3.90928 5.23728 3.77705 5.25857 3.64826C5.27986 3.51946 5.34095 3.40057 5.43326 3.30826C5.52557 3.21595 5.64446 3.15486 5.77326 3.13357C5.90205 3.11228 6.03428 3.13185 6.15139 3.18954C6.2685 3.24722 6.3646 3.34013 6.42621 3.45522C6.48782 3.57031 6.51185 3.70181 6.49492 3.83125C6.47706 3.96785 6.41456 4.09473 6.31714 4.19214C6.21973 4.28956 6.09285 4.35206 5.95625 4.36992ZM9.08125 16.8699C8.95181 16.8869 8.82031 16.8628 8.70522 16.8012C8.59013 16.7396 8.49722 16.6435 8.43954 16.5264C8.38185 16.4093 8.36228 16.2771 8.38357 16.1483C8.40486 16.0195 8.46595 15.9006 8.55826 15.8083C8.65057 15.7159 8.76946 15.6549 8.89826 15.6336C9.02705 15.6123 9.15929 15.6318 9.27639 15.6895C9.3935 15.7472 9.4896 15.8401 9.55121 15.9552C9.61282 16.0703 9.63685 16.2018 9.61992 16.3312C9.60206 16.4679 9.53956 16.5947 9.44214 16.6921C9.34473 16.7896 9.21785 16.8521 9.08125 16.8699ZM9.08125 13.7449C8.95181 13.7619 8.82031 13.7378 8.70522 13.6762C8.59013 13.6146 8.49722 13.5185 8.43954 13.4014C8.38185 13.2843 8.36228 13.1521 8.38357 13.0233C8.40486 12.8945 8.46595 12.7756 8.55826 12.6833C8.65057 12.5909 8.76946 12.5299 8.89826 12.5086C9.02705 12.4873 9.15929 12.5068 9.27639 12.5645C9.3935 12.6222 9.4896 12.7151 9.55121 12.8302C9.61282 12.9453 9.63685 13.0768 9.61992 13.2062C9.60206 13.3429 9.53956 13.4697 9.44214 13.5671C9.34473 13.6646 9.21785 13.7271 9.08125 13.7449ZM9.08125 10.6199C8.95181 10.6369 8.82031 10.6128 8.70522 10.5512C8.59013 10.4896 8.49722 10.3935 8.43954 10.2764C8.38185 10.1593 8.36228 10.0271 8.38357 9.89826C8.40486 9.76946 8.46595 9.65057 8.55826 9.55826C8.65057 9.46595 8.76946 9.40486 8.89826 9.38357C9.02705 9.36228 9.15929 9.38185 9.27639 9.43954C9.3935 9.49722 9.4896 9.59013 9.55121 9.70522C9.61282 9.82031 9.63685 9.95181 9.61992 10.0812C9.60206 10.2179 9.53956 10.3447 9.44214 10.4421C9.34473 10.5396 9.21785 10.6021 9.08125 10.6199ZM9.08125 7.49492C8.95181 7.51185 8.82031 7.48782 8.70522 7.42621C8.59013 7.3646 8.49722 7.2685 8.43954 7.15139C8.38185 7.03428 8.36228 6.90205 8.38357 6.77326C8.40486 6.64446 8.46595 6.52557 8.55826 6.43326C8.65057 6.34095 8.76946 6.27986 8.89826 6.25857C9.02705 6.23728 9.15929 6.25685 9.27639 6.31454C9.3935 6.37222 9.4896 6.46513 9.55121 6.58022C9.61282 6.69531 9.63685 6.82681 9.61992 6.95625C9.60206 7.09285 9.53956 7.21973 9.44214 7.31714C9.34473 7.41456 9.21785 7.47706 9.08125 7.49492ZM9.08125 4.36992C8.95181 4.38685 8.82031 4.36282 8.70522 4.30121C8.59013 4.2396 8.49722 4.1435 8.43954 4.02639C8.38185 3.90928 8.36228 3.77705 8.38357 3.64826C8.40486 3.51946 8.46595 3.40057 8.55826 3.30826C8.65057 3.21595 8.76946 3.15486 8.89826 3.13357C9.02705 3.11228 9.15929 3.13185 9.27639 3.18954C9.3935 3.24722 9.4896 3.34013 9.55121 3.45522C9.61282 3.57031 9.63685 3.70181 9.61992 3.83125C9.60206 3.96785 9.53956 4.09473 9.44214 4.19214C9.34473 4.28956 9.21785 4.35206 9.08125 4.36992ZM16.3438 18.125H11.5V8.125H15.875C16.0408 8.125 16.1997 8.19085 16.3169 8.30806C16.4342 8.42527 16.5 8.58424 16.5 8.75V17.9688C16.5 18.0102 16.4835 18.0499 16.4542 18.0792C16.4249 18.1085 16.3852 18.125 16.3438 18.125Z" fill="#5635B3"/>
<path d="M14.625 15.625C14.5014 15.625 14.3805 15.6617 14.2778 15.7303C14.175 15.799 14.0949 15.8966 14.0476 16.0108C14.0003 16.125 13.9879 16.2507 14.012 16.3719C14.0361 16.4932 14.0957 16.6045 14.1831 16.6919C14.2705 16.7793 14.3818 16.8389 14.5031 16.863C14.6243 16.8871 14.75 16.8747 14.8642 16.8274C14.9784 16.7801 15.076 16.7 15.1447 16.5972C15.2133 16.4945 15.25 16.3736 15.25 16.25C15.25 16.0842 15.1842 15.9253 15.0669 15.8081C14.9497 15.6908 14.7908 15.625 14.625 15.625ZM14.625 12.5C14.5014 12.5 14.3805 12.5367 14.2778 12.6053C14.175 12.674 14.0949 12.7716 14.0476 12.8858C14.0003 13 13.9879 13.1257 14.012 13.2469C14.0361 13.3682 14.0957 13.4795 14.1831 13.5669C14.2705 13.6543 14.3818 13.7139 14.5031 13.738C14.6243 13.7621 14.75 13.7497 14.8642 13.7024C14.9784 13.6551 15.076 13.575 15.1447 13.4722C15.2133 13.3695 15.25 13.2486 15.25 13.125C15.25 12.9592 15.1842 12.8003 15.0669 12.6831C14.9497 12.5658 14.7908 12.5 14.625 12.5ZM14.625 9.375C14.5014 9.375 14.3805 9.41166 14.2778 9.48033C14.175 9.54901 14.0949 9.64662 14.0476 9.76082C14.0003 9.87503 13.9879 10.0007 14.012 10.1219C14.0361 10.2432 14.0957 10.3545 14.1831 10.4419C14.2705 10.5294 14.3818 10.5889 14.5031 10.613C14.6243 10.6371 14.75 10.6247 14.8642 10.5774C14.9784 10.5301 15.076 10.45 15.1447 10.3472C15.2133 10.2445 15.25 10.1236 15.25 10C15.25 9.83424 15.1842 9.67527 15.0669 9.55806C14.9497 9.44085 14.7908 9.375 14.625 9.375ZM12.125 15.625C12.0014 15.625 11.8805 15.6617 11.7778 15.7303C11.675 15.799 11.5949 15.8966 11.5476 16.0108C11.5003 16.125 11.4879 16.2507 11.512 16.3719C11.5361 16.4932 11.5957 16.6045 11.6831 16.6919C11.7705 16.7793 11.8818 16.8389 12.0031 16.863C12.1243 16.8871 12.25 16.8747 12.3642 16.8274C12.4784 16.7801 12.576 16.7 12.6447 16.5972C12.7133 16.4945 12.75 16.3736 12.75 16.25C12.75 16.0842 12.6842 15.9253 12.5669 15.8081C12.4497 15.6908 12.2908 15.625 12.125 15.625ZM12.125 12.5C12.0014 12.5 11.8805 12.5367 11.7778 12.6053C11.675 12.674 11.5949 12.7716 11.5476 12.8858C11.5003 13 11.4879 13.1257 11.512 13.2469C11.5361 13.3682 11.5957 13.4795 11.6831 13.5669C11.7705 13.6543 11.8818 13.7139 12.0031 13.738C12.1243 13.7621 12.25 13.7497 12.3642 13.7024C12.4784 13.6551 12.576 13.575 12.6447 13.4722C12.7133 13.3695 12.75 13.2486 12.75 13.125C12.75 12.9592 12.6842 12.8003 12.5669 12.6831C12.4497 12.5658 12.2908 12.5 12.125 12.5ZM12.125 9.375C12.0014 9.375 11.8805 9.41166 11.7778 9.48033C11.675 9.54901 11.5949 9.64662 11.5476 9.76082C11.5003 9.87503 11.4879 10.0007 11.512 10.1219C11.5361 10.2432 11.5957 10.3545 11.6831 10.4419C11.7705 10.5294 11.8818 10.5889 12.0031 10.613C12.1243 10.6371 12.25 10.6247 12.3642 10.5774C12.4784 10.5301 12.576 10.45 12.6447 10.3472C12.7133 10.2445 12.75 10.1236 12.75 10C12.75 9.83424 12.6842 9.67527 12.5669 9.55806C12.4497 9.44085 12.2908 9.375 12.125 9.375Z" fill="#5635B3"/>
</svg>
