<svg width="18" height="18" viewBox="0 0 18 18" fill="none" xmlns="http://www.w3.org/2000/svg">
<path fill-rule="evenodd" clip-rule="evenodd" d="M9.00346 0.257812C11.2967 0.299254 13.4821 1.23934 15.0892 2.87578C16.6963 4.51221 17.5968 6.71417 17.5968 9.00781C17.5968 11.3015 16.6963 13.5034 15.0892 15.1398C13.4821 16.7763 11.2967 17.7164 9.00346 17.7578C6.7102 17.7164 4.52486 16.7763 2.91774 15.1398C1.31061 13.5034 0.410156 11.3015 0.410156 9.00781C0.410156 6.71417 1.31061 4.51221 2.91774 2.87578C4.52486 1.23934 6.7102 0.299254 9.00346 0.257812ZM7.18632 11.8502L5.04346 9.70543C4.86806 9.52942 4.76957 9.29106 4.76957 9.04257C4.76957 8.79409 4.86806 8.55573 5.04346 8.37972C5.21976 8.20449 5.45823 8.10613 5.7068 8.10613C5.95536 8.10613 6.19383 8.20449 6.37013 8.37972L7.87965 9.89115L11.6368 6.134C11.8128 5.9586 12.0512 5.86011 12.2997 5.86011C12.5481 5.86011 12.7865 5.9586 12.9625 6.134C13.1377 6.31014 13.236 6.54845 13.236 6.79686C13.236 7.04527 13.1377 7.28358 12.9625 7.45972L8.54156 11.8807C8.45181 11.97 8.34496 12.0402 8.2274 12.0872C8.10984 12.1341 7.98401 12.1569 7.85745 12.1541C7.73089 12.1512 7.6062 12.1228 7.49088 12.0706C7.37555 12.0184 7.27196 11.9434 7.18632 11.8502Z" fill="#34A853"/>
</svg>
