<svg width="22" height="22" viewBox="0 0 22 22" fill="none" xmlns="http://www.w3.org/2000/svg">
<path d="M18.8742 6.39648C18.8567 6.39648 18.8305 6.39648 18.8042 6.39648C14.1755 5.93273 9.55547 5.75773 4.97922 6.22148L3.19422 6.39648C2.82672 6.43148 2.50297 6.16898 2.46797 5.80148C2.43297 5.43398 2.69547 5.11898 3.05422 5.08398L4.83922 4.90898C9.49423 4.43648 14.2105 4.62023 18.9355 5.08398C19.2942 5.11898 19.5567 5.44273 19.5217 5.80148C19.4955 6.14273 19.2067 6.39648 18.8742 6.39648Z" fill="#333333"/>
<path d="M7.93424 5.51086C7.89924 5.51086 7.86424 5.51086 7.82049 5.50211C7.47049 5.44086 7.22549 5.09961 7.28674 4.74961L7.47924 3.60336C7.61924 2.76336 7.81174 1.59961 9.85049 1.59961H12.143C14.1905 1.59961 14.383 2.80711 14.5142 3.61211L14.7067 4.74961C14.768 5.10836 14.523 5.44961 14.173 5.50211C13.8142 5.56336 13.473 5.31836 13.4205 4.96836L13.228 3.83086C13.1055 3.06961 13.0792 2.92086 12.1517 2.92086H9.85924C8.93174 2.92086 8.91424 3.04336 8.78299 3.82211L8.58174 4.95961C8.52924 5.28336 8.24924 5.51086 7.93424 5.51086Z" fill="#333333"/>
<path d="M13.8042 20.4135H8.18671C5.13296 20.4135 5.01046 18.7247 4.91421 17.3597L4.34546 8.54846C4.31921 8.18971 4.59921 7.87471 4.95796 7.84846C5.32546 7.83096 5.63171 8.10221 5.65796 8.46096L6.22671 17.2722C6.32296 18.6022 6.35796 19.101 8.18671 19.101H13.8042C15.6417 19.101 15.6767 18.6022 15.7642 17.2722L16.333 8.46096C16.3592 8.10221 16.6742 7.83096 17.033 7.84846C17.3917 7.87471 17.6717 8.18096 17.6455 8.54846L17.0767 17.3597C16.9805 18.7247 16.858 20.4135 13.8042 20.4135Z" fill="#333333"/>
<path d="M12.4528 15.6016H9.53906C9.18031 15.6016 8.88281 15.3041 8.88281 14.9453C8.88281 14.5866 9.18031 14.2891 9.53906 14.2891H12.4528C12.8116 14.2891 13.1091 14.5866 13.1091 14.9453C13.1091 15.3041 12.8116 15.6016 12.4528 15.6016Z" fill="#333333"/>
<path d="M13.1875 12.1016H8.8125C8.45375 12.1016 8.15625 11.8041 8.15625 11.4453C8.15625 11.0866 8.45375 10.7891 8.8125 10.7891H13.1875C13.5463 10.7891 13.8438 11.0866 13.8438 11.4453C13.8438 11.8041 13.5463 12.1016 13.1875 12.1016Z" fill="#333333"/>
</svg>
