<svg width="35" height="36" viewBox="0 0 35 36" fill="none" xmlns="http://www.w3.org/2000/svg">
<mask id="mask0_1270_24590" style="mask-type:alpha" maskUnits="userSpaceOnUse" x="4" y="10" width="27" height="26">
<path d="M24.0516 15.4281H30.4803V17.9996H27.9088V34.7141C27.9088 35.4242 27.3332 35.9998 26.6231 35.9998H8.62283C7.91274 35.9998 7.33709 35.4242 7.33709 34.7141V17.9996H4.76562V15.4281H11.1943V11.5709C11.1943 10.8608 11.7699 10.2852 12.48 10.2852H22.7659C23.476 10.2852 24.0516 10.8608 24.0516 11.5709V15.4281ZM25.3374 17.9996H9.90856V33.4284H25.3374V17.9996ZM13.7658 21.8568H16.3372V29.5712H13.7658V21.8568ZM18.9087 21.8568H21.4802V29.5712H18.9087V21.8568ZM13.7658 12.8566V15.4281H21.4802V12.8566H13.7658Z" fill="#843333"/>
</mask>
<g mask="url(#mask0_1270_24590)">
<path d="M-0.078125 19H37.3667V40H-0.078125V19Z" fill="#843333"/>
</g>
<mask id="mask1_1270_24590" style="mask-type:alpha" maskUnits="userSpaceOnUse" x="2" y="3" width="30" height="31">
<path d="M20.7134 8.18453L26.6691 5.76446L27.6372 8.14675L25.2549 9.11478L31.5471 24.5997C31.8144 25.2575 31.4978 26.0075 30.8399 26.2748L14.1639 33.051C13.5061 33.3184 12.7561 33.0018 12.4887 32.3439L6.19654 16.859L3.81425 17.8271L2.84622 15.4448L8.80195 13.0247L7.3499 9.45125C7.08259 8.7934 7.39919 8.0434 8.05703 7.77608L17.5862 3.90396C18.2441 3.63664 18.994 3.95325 19.2614 4.61109L20.7134 8.18453ZM22.8726 10.0828L8.57883 15.891L14.387 30.1847L28.6808 24.3766L22.8726 10.0828ZM13.6043 18.0124L15.9866 17.0444L18.8907 24.1912L16.5084 25.1593L13.6043 18.0124ZM18.3689 16.0763L20.7512 15.1083L23.6553 22.2552L21.273 23.2232L18.3689 16.0763ZM10.2162 9.67436L11.1842 12.0567L18.3311 9.15256L17.3631 6.77027L10.2162 9.67436Z" fill="#843333"/>
</mask>
<g mask="url(#mask1_1270_24590)">
<rect width="37.2863" height="12.8572" transform="matrix(0.926438 -0.376447 -0.376453 -0.926436 -0.949219 19.7627)" fill="#843333"/>
</g>
</svg>
