<svg width="21" height="21" viewBox="0 0 21 21" fill="none" xmlns="http://www.w3.org/2000/svg">
<path d="M10.8457 14.9912C11.1702 14.9913 11.4815 15.1202 11.7109 15.3496C11.9404 15.5791 12.0693 15.8903 12.0693 16.2148C12.0693 16.4568 11.9976 16.6933 11.8633 16.8945C11.7288 17.0958 11.5371 17.2531 11.3135 17.3457C11.0899 17.4382 10.8438 17.4622 10.6064 17.415C10.3692 17.3678 10.1516 17.2511 9.98047 17.0801C9.80943 16.909 9.6928 16.6913 9.64551 16.4541C9.59828 16.2167 9.62221 15.9697 9.71484 15.7461C9.80746 15.5227 9.96404 15.3317 10.165 15.1973C10.3663 15.0628 10.6036 14.9912 10.8457 14.9912ZM10.8457 9.62207C11.1702 9.62215 11.4815 9.75102 11.7109 9.98047C11.9403 10.21 12.0693 10.5212 12.0693 10.8457C12.0693 11.0876 11.9976 11.3242 11.8633 11.5254C11.7288 11.7267 11.5371 11.8839 11.3135 11.9766C11.0899 12.0691 10.8437 12.0931 10.6064 12.0459C10.3692 11.9987 10.1516 11.8819 9.98047 11.7109C9.8093 11.5398 9.69273 11.3214 9.64551 11.084C9.59835 10.8467 9.62224 10.6005 9.71484 10.377C9.80744 10.1536 9.96403 9.96254 10.165 9.82812C10.3663 9.69364 10.6036 9.62207 10.8457 9.62207ZM11.084 4.27637C11.3214 4.32359 11.5398 4.44016 11.7109 4.61133C11.8819 4.78241 11.9987 5.00009 12.0459 5.2373C12.0931 5.47457 12.0691 5.72081 11.9766 5.94434C11.8839 6.16797 11.7267 6.35966 11.5254 6.49414C11.3242 6.62853 11.0876 6.70014 10.8457 6.7002C10.5213 6.7002 10.21 6.57113 9.98047 6.3418C9.75102 6.11234 9.62117 5.80105 9.62109 5.47656C9.62109 5.2345 9.69364 4.99717 9.82812 4.7959C9.96257 4.59488 10.1535 4.43828 10.377 4.3457C10.6006 4.25308 10.8466 4.22917 11.084 4.27637Z" fill="#475569" stroke="#475569" stroke-width="0.0789606"/>
</svg>
