<svg width="44" height="43" viewBox="0 0 44 43" fill="none" xmlns="http://www.w3.org/2000/svg">
<path d="M15.9775 1.82812H28.8916L42.1221 15.0586V36.6875C42.1218 39.361 39.9548 41.5281 37.2812 41.5283H15.9775C13.3039 41.5281 11.137 39.3611 11.1367 36.6875V6.66895C11.1369 3.99527 13.3039 1.8283 15.9775 1.82812Z" fill="#EEF1F7" stroke="#CBD0DC" stroke-width="1.93663"/>
<rect y="19.2578" width="29.0494" height="16.9455" rx="3.3891" fill="#D82042"/>
<path d="M4.81543 31.8486V23.75H7.70215C8.33222 23.75 8.8542 23.8647 9.2681 24.094C9.68199 24.3234 9.99175 24.6371 10.1974 25.0352C10.403 25.4306 10.5058 25.8762 10.5058 26.3718C10.5058 26.87 10.4017 27.3182 10.1934 27.7163C9.9878 28.1117 9.67672 28.4254 9.26019 28.6574C8.84629 28.8868 8.32563 29.0015 7.69819 29.0015H5.71308V27.9654H7.58747C7.98555 27.9654 8.30849 27.8969 8.5563 27.7598C8.80411 27.62 8.98601 27.4302 9.10201 27.1903C9.21801 26.9504 9.276 26.6776 9.276 26.3718C9.276 26.066 9.21801 25.7944 9.10201 25.5572C8.98601 25.3199 8.80279 25.134 8.55235 24.9996C8.30454 24.8651 7.97764 24.7979 7.57165 24.7979H6.03734V31.8486H4.81543Z" fill="white"/>
<path d="M14.5601 31.8486H11.9383V23.75H14.6431C15.4366 23.75 16.1181 23.9121 16.6876 24.2364C17.257 24.558 17.6933 25.0207 17.9965 25.6244C18.3023 26.2255 18.4552 26.9465 18.4552 27.7875C18.4552 28.6311 18.301 29.356 17.9925 29.9624C17.6867 30.5687 17.2438 31.0353 16.6638 31.3622C16.0838 31.6865 15.3826 31.8486 14.5601 31.8486ZM13.1602 30.7809H14.4929C15.1097 30.7809 15.6225 30.6649 16.0311 30.433C16.4397 30.1983 16.7456 29.8596 16.9485 29.4167C17.1515 28.9711 17.253 28.4281 17.253 27.7875C17.253 27.1521 17.1515 26.613 16.9485 26.1701C16.7482 25.7272 16.449 25.3911 16.0509 25.1617C15.6528 24.9324 15.1585 24.8177 14.568 24.8177H13.1602V30.7809Z" fill="white"/>
<path d="M19.9747 31.8486V23.75H24.9968V24.8019H21.1966V27.2694H24.6369V28.3173H21.1966V31.8486H19.9747Z" fill="white"/>
</svg>
