<svg width="15" height="15" viewBox="0 0 15 15" fill="none" xmlns="http://www.w3.org/2000/svg">
<path d="M8.12498 0.625998C8.12498 0.460238 8.19083 0.301267 8.30804 0.184056C8.42525 0.0668461 8.58422 0.000998105 8.74998 0.000998105C10.407 0.00281785 11.9957 0.661882 13.1674 1.83359C14.3391 3.0053 14.9981 4.59395 15 6.251C15 6.41676 14.9341 6.57573 14.8169 6.69294C14.6997 6.81015 14.5407 6.876 14.375 6.876C14.2092 6.876 14.0502 6.81015 13.933 6.69294C13.8158 6.57573 13.75 6.41676 13.75 6.251C13.7485 4.92537 13.2212 3.65447 12.2839 2.71711C11.3465 1.77975 10.0756 1.25249 8.74998 1.251C8.58422 1.251 8.42525 1.18515 8.30804 1.06794C8.19083 0.95073 8.12498 0.791758 8.12498 0.625998ZM8.74998 3.751C9.41302 3.751 10.0489 4.01439 10.5177 4.48323C10.9866 4.95207 11.25 5.58796 11.25 6.251C11.25 6.41676 11.3158 6.57573 11.433 6.69294C11.5502 6.81015 11.7092 6.876 11.875 6.876C12.0407 6.876 12.1997 6.81015 12.3169 6.69294C12.4341 6.57573 12.5 6.41676 12.5 6.251C12.499 5.25674 12.1036 4.30349 11.4005 3.60044C10.6975 2.8974 9.74423 2.50199 8.74998 2.501C8.58422 2.501 8.42525 2.56685 8.30804 2.68406C8.19083 2.80127 8.12498 2.96024 8.12498 3.126C8.12498 3.29176 8.19083 3.45073 8.30804 3.56794C8.42525 3.68515 8.58422 3.751 8.74998 3.751ZM14.4331 10.4629C14.7953 10.8261 14.9987 11.3181 14.9987 11.831C14.9987 12.3439 14.7953 12.8359 14.4331 13.1991L13.8643 13.8547C8.7456 18.7554 -3.71063 6.30225 1.11436 1.16725L1.83311 0.542248C2.19672 0.190171 2.68432 -0.00459622 3.19043 8.2381e-05C3.69653 0.00476098 4.18045 0.20851 4.53748 0.567248C4.55686 0.586623 5.71498 2.091 5.71498 2.091C6.05863 2.45202 6.24992 2.93158 6.24911 3.43C6.24829 3.92842 6.05543 4.40736 5.71061 4.76725L4.98686 5.67725C5.38739 6.65044 5.97627 7.5349 6.71967 8.27981C7.46308 9.02471 8.34634 9.61538 9.31873 10.0179L10.2344 9.28975C10.5943 8.94519 11.0731 8.75256 11.5714 8.75186C12.0697 8.75116 12.5491 8.94245 12.91 9.286C12.91 9.286 14.4137 10.4435 14.4331 10.4629ZM13.5731 11.3716C13.5731 11.3716 12.0775 10.221 12.0581 10.2016C11.9293 10.074 11.7554 10.0023 11.574 10.0023C11.3927 10.0023 11.2187 10.074 11.09 10.2016C11.0731 10.2191 9.81248 11.2235 9.81248 11.2235C9.72753 11.2911 9.62642 11.3354 9.51913 11.3521C9.41184 11.3688 9.30206 11.3572 9.2006 11.3185C7.94089 10.8495 6.79669 10.1152 5.8455 9.16542C4.89432 8.21564 4.15836 7.07252 3.68749 5.8135C3.64573 5.71066 3.63212 5.59855 3.64805 5.48871C3.66398 5.37887 3.70887 5.27524 3.77811 5.1885C3.77811 5.1885 4.78248 3.92725 4.79936 3.911C4.92703 3.78224 4.99866 3.60826 4.99866 3.42694C4.99866 3.24561 4.92703 3.07163 4.79936 2.94287C4.77998 2.92412 3.62936 1.42725 3.62936 1.42725C3.49867 1.31006 3.32811 1.24731 3.15264 1.25184C2.97717 1.25637 2.81008 1.32785 2.68561 1.45162L1.96686 2.07662C-1.55938 6.31662 9.23498 16.5122 12.9506 13.001L13.52 12.3447C13.6534 12.2212 13.7335 12.0505 13.7435 11.8689C13.7534 11.6873 13.6923 11.509 13.5731 11.3716Z" fill="#303030"/>
</svg>
