<svg width="20" height="20" viewBox="0 0 20 20" fill="none" xmlns="http://www.w3.org/2000/svg">
<circle cx="10" cy="10" r="10" fill="#4C84F5"/>
<g clip-path="url(#clip0_2605_88672)">
<path d="M15.3492 9.99826C15.3492 9.35989 15.2234 8.72777 14.9791 8.138C14.7348 7.54822 14.3768 7.01234 13.9254 6.56094C13.474 6.10954 12.9381 5.75148 12.3483 5.50718C11.7585 5.26289 11.1264 5.13715 10.488 5.13715V6.10937C11.2572 6.10937 12.0091 6.33745 12.6486 6.76477C13.2881 7.19209 13.7866 7.79945 14.0809 8.51005C14.3752 9.22065 14.4523 10.0026 14.3022 10.7569C14.1522 11.5113 13.7818 12.2043 13.2379 12.7481C12.694 13.292 12.0011 13.6624 11.2467 13.8124C10.4924 13.9625 9.71043 13.8855 8.99983 13.5911C8.28923 13.2968 7.68187 12.7983 7.25455 12.1588C6.82723 11.5193 6.59915 10.7674 6.59915 9.99826V9.71146L7.22624 10.3434L7.91652 9.65312L6.45818 8.19479C6.41299 8.14923 6.35923 8.11307 6.29999 8.08839C6.24075 8.06371 6.17722 8.051 6.11304 8.051C6.04887 8.051 5.98533 8.06371 5.9261 8.08839C5.86686 8.11307 5.81309 8.14923 5.7679 8.19479L4.30957 9.65312L4.99985 10.3434L5.62693 9.71146V9.99826C5.62693 11.2875 6.13908 12.524 7.05072 13.4356C7.96235 14.3472 9.1988 14.8594 10.488 14.8594C11.7773 14.8594 13.0137 14.3472 13.9254 13.4356C14.837 12.524 15.3492 11.2875 15.3492 9.99826Z" fill="white"/>
</g>
<defs>
<clipPath id="clip0_2605_88672">
<rect width="11.6667" height="11.6667" fill="white" transform="matrix(1 0 0 -1 4.16699 15.8359)"/>
</clipPath>
</defs>
</svg>
