<svg width="18" height="19" viewBox="0 0 18 19" fill="none" xmlns="http://www.w3.org/2000/svg">
<g clip-path="url(#clip0_3593_5893)">
<path d="M17.3096 14.6421L10.1266 2.72959C9.84358 2.26029 9.32736 1.96875 8.77932 1.96875C8.23129 1.96875 7.71507 2.26029 7.43204 2.72962L0.24902 14.6421C-0.043448 15.1272 -0.0521013 15.7349 0.226412 16.2281C0.504993 16.7213 1.02987 17.0277 1.59627 17.0277H15.9624C16.5288 17.0277 17.0537 16.7213 17.3323 16.2281C17.6108 15.7348 17.6021 15.1271 17.3096 14.6421ZM16.3395 15.6675C16.3017 15.7342 16.2469 15.7898 16.1807 15.8284C16.1144 15.8671 16.0391 15.8875 15.9624 15.8876H1.59627C1.51956 15.8875 1.44425 15.8671 1.37801 15.8285C1.31176 15.7898 1.25696 15.7343 1.21918 15.6675C1.18152 15.6007 1.16225 15.5251 1.16334 15.4484C1.16443 15.3717 1.18583 15.2966 1.22537 15.2309L8.40846 3.31836C8.44717 3.2546 8.50161 3.20186 8.56655 3.16518C8.6315 3.12851 8.70477 3.10913 8.77936 3.1089C8.93019 3.1089 9.0723 3.18917 9.15022 3.31836L16.3332 15.2309C16.3728 15.2966 16.3942 15.3716 16.3953 15.4483C16.3964 15.525 16.3772 15.6006 16.3395 15.6675Z" fill="#E11C20"/>
<path d="M8.78043 6.66406C8.34674 6.66406 8.00827 6.89678 8.00827 7.30933C8.00827 8.56806 8.15633 10.3768 8.15633 11.6356C8.15637 11.9635 8.44199 12.101 8.78046 12.101C9.03432 12.101 9.39396 11.9635 9.39396 11.6356C9.39396 10.3769 9.54202 8.5681 9.54202 7.30933C9.54202 6.89681 9.19298 6.66406 8.78043 6.66406ZM8.79107 12.8309C8.32567 12.8309 7.97656 13.2011 7.97656 13.6454C7.97656 14.079 8.32564 14.4599 8.79107 14.4599C9.22476 14.4599 9.595 14.079 9.595 13.6454C9.595 13.2011 9.22472 12.8309 8.79107 12.8309Z" fill="#E11C20"/>
</g>
<defs>
<clipPath id="clip0_3593_5893">
<rect width="17.5118" height="17.5118" fill="white" transform="translate(0.0234375 0.75)"/>
</clipPath>
</defs>
</svg>
