<svg width="414" height="417" viewBox="0 0 414 417" fill="none" xmlns="http://www.w3.org/2000/svg">
<g clip-path="url(#clip0_1121_62)">
<path d="M181.4 367.53C175.05 373.8 166.25 376.93 155 376.93C143.75 376.93 134.97 373.82 128.66 367.59C122.35 361.36 119.2 352.54 119.2 341.13V291.1H138.49V340.16C138.49 352.7 143.99 358.97 155.01 358.97C166.03 358.97 171.41 352.7 171.41 340.16V291.1H190.82V341.13C190.82 352.54 187.69 361.34 181.42 367.53H181.4Z" fill="url(#paint0_linear_1121_62)"/>
<path d="M250.83 325.7H291.7C292.18 328.43 292.42 331.29 292.42 334.26C292.42 347.28 288.5 357.65 280.67 365.36C272.83 373.08 262.65 376.93 250.11 376.93C237.57 376.93 226.5 372.87 218.1 364.75C209.7 356.63 205.5 346.18 205.5 333.41C205.5 320.64 209.9 309.74 218.7 301.71C227.5 293.67 238.81 289.66 252.64 289.66C262.36 289.66 271.08 291.51 278.8 295.2V313.28C270.12 309.02 261.6 306.89 253.24 306.89C244.88 306.89 237.85 309.22 232.87 313.88C227.89 318.54 225.4 325.05 225.4 333.41C225.4 341.77 227.71 347.78 232.33 352.4C236.95 357.02 243.08 359.33 250.71 359.33C256.98 359.33 262.12 357.74 266.14 354.57C270.16 351.4 272.57 346.96 273.37 341.25H250.83V325.7Z" fill="url(#paint1_linear_1121_62)"/>
<path d="M378.25 375.48H356.31L337.38 347.75H327.25V375.48H307.96V291.1H343.28C353.65 291.1 361.76 293.67 367.63 298.81C373.5 303.95 376.43 311.03 376.43 320.03C376.43 333.45 370.08 342.05 357.38 345.83L378.23 375.48H378.25ZM342.33 307.98H327.26V332.09H342.33C352.05 332.09 356.92 328.07 356.92 320.04C356.92 312.01 352.06 307.99 342.33 307.99V307.98Z" fill="url(#paint2_linear_1121_62)"/>
<path d="M105.33 375.48H83.39L64.46 347.75H54.33V375.48H35.04V291.1H70.36C80.73 291.1 88.84 293.67 94.71 298.81C100.58 303.95 103.51 311.03 103.51 320.03C103.51 333.45 97.16 342.05 84.46 345.83L105.31 375.48H105.33ZM69.41 307.98H54.34V332.09H69.41C79.13 332.09 84 328.07 84 320.04C84 312.01 79.14 307.99 69.41 307.99V307.98Z" fill="url(#paint3_linear_1121_62)"/>
<path d="M170.15 42.3801C164.5 53.5001 160.27 65.3001 157.56 77.5501C147.86 69.6801 137.25 63.1001 125.95 57.9501C128.26 45.1201 132.31 32.7101 137.96 21.0801C149.55 26.6501 160.4 33.8101 170.15 42.3901V42.3801Z" fill="url(#paint4_linear_1121_62)"/>
<path d="M238.81 42.3801C244.46 53.5001 248.69 65.3001 251.4 77.5501C261.1 69.6801 271.71 63.1001 283.01 57.9501C280.7 45.1201 276.65 32.7101 271 21.0801C259.41 26.6501 248.56 33.8101 238.81 42.3901V42.3801Z" fill="url(#paint5_linear_1121_62)"/>
<path d="M169.19 175.06C164.34 180.84 160.88 187.84 159.23 195.46C139.97 186.47 122.46 172.99 108.35 155.21C84.0096 124.49 74.4196 86.7404 78.6396 50.6504C106.29 53.7804 133.05 65.0104 155 83.9804C153.79 91.6804 153.16 99.5204 153.16 107.51C153.16 131.38 158.67 154.39 169.19 175.05V175.06Z" fill="url(#paint6_linear_1121_62)"/>
<path d="M159.6 205.979C159.6 206.199 159.6 206.459 159.64 206.679C138.32 204.619 117.14 197.659 97.8001 185.389C64.7101 164.429 43.2801 131.989 35.3701 96.4894C47.7601 93.6894 60.4801 92.5094 73.2401 93.0994C77.5401 117.189 87.7601 140.019 103.42 159.759C118.64 178.989 137.91 193.829 159.67 203.509C159.63 204.319 159.6 205.129 159.6 205.979Z" fill="url(#paint7_linear_1121_62)"/>
<path d="M303.98 154.68C289.9 172.43 272.44 185.91 253.24 194.9C251.03 185.8 246.22 177.67 239.56 171.44C249.05 151.59 254.05 129.67 254.05 106.99C254.05 100.43 253.65 93.9502 252.8 87.5402C275.56 66.1102 304.09 53.4702 333.68 50.1602C337.91 86.2502 328.31 123.97 303.97 154.68H303.98Z" fill="url(#paint8_linear_1121_62)"/>
<path d="M378.36 96.4894C370.46 131.989 349.02 164.439 315.93 185.389C296.7 197.579 275.67 204.539 254.53 206.639C254.57 206.419 254.57 206.199 254.57 205.979C254.57 205.099 254.53 204.209 254.5 203.329C276.08 193.639 295.16 178.879 310.31 159.759C325.97 140.019 336.19 117.189 340.5 93.0994C353.26 92.5094 365.98 93.6894 378.37 96.4894H378.36Z" fill="url(#paint9_linear_1121_62)"/>
<path d="M407.07 165.139C385.31 194.199 352.4 214.859 313.61 220.309C292.8 223.179 272.43 221.409 253.57 215.739C253.86 214.229 254.12 212.719 254.27 211.169C276.55 210.689 298.61 205.129 319.05 194.599C341.44 183.109 360.15 166.539 373.98 146.359C385.86 151.109 396.99 157.439 407.07 165.139Z" fill="url(#paint10_linear_1121_62)"/>
<path d="M160.559 215.489C141.439 221.379 120.779 223.259 99.6795 220.309C60.8895 214.859 27.9495 194.199 6.18945 165.139C16.2995 157.439 27.3995 151.109 39.2795 146.359C53.0995 166.539 71.8195 183.119 94.2094 194.599C114.909 205.279 137.299 210.839 159.909 211.169C160.059 212.609 160.279 214.079 160.569 215.479L160.559 215.489Z" fill="url(#paint11_linear_1121_62)"/>
<path d="M245.5 106.99C245.5 131.07 239.51 153.8 228.88 173.65C225.61 172.66 222.34 171.66 219.06 170.7C219.91 170.33 220.75 169.89 221.6 169.45C227.45 166.28 230.5 161.49 230.42 154.72C230.42 150.56 229.65 146.58 227.92 142.9C224.24 135.02 220.23 127.36 216.52 119.51C212.7 111.37 209.35 103.08 207.88 94.1701C207.36 90.9701 207.03 87.6901 208.4 84.5601C208.77 83.6401 209.28 82.5001 210.49 83.7501C212.7 86.0701 215.53 85.7001 218.1 85.1101C219.97 84.6701 221.56 84.7401 223.36 85.1801C227.7 86.2901 232.04 86.2901 236.71 84.3001C235.98 83.8201 235.79 83.6001 235.53 83.5301C229.61 82.0901 225.35 78.6301 222.41 73.2501C219.47 67.9101 213.66 65.7401 207.89 67.4301C208.04 64.9201 208.81 62.6101 210.65 60.5801C211.46 59.7001 211.13 58.4401 209.99 57.7801C208.74 57.0801 207.6 57.5601 207.12 58.8101C205.87 61.8301 205.83 64.8101 206.94 67.7201C206.2 68.0101 205.47 68.3501 204.77 68.7501C202.45 65.6901 201.13 62.3401 201.57 58.2901C201.72 56.7401 200.43 55.6801 198.74 55.9001C196.9 56.1201 196.13 57.4801 196.57 59.1801C197.67 63.6401 200.28 66.9501 204.22 69.1201C203.48 69.6001 202.79 70.1101 202.16 70.7001C196.98 69.2601 192.64 66.6901 189.77 61.7501C188.7 59.9501 186.39 59.8001 184.73 61.4201C182.89 63.1501 183.15 65.2901 184.99 66.8001C189.77 70.7401 195.17 72.4001 201.17 71.6601C198.52 74.5001 196.76 78.3301 196.54 82.1901C196.13 88.7401 198.01 94.9001 199.89 101.05C202.9 111.07 206.1 121.01 205.92 131.77C205.77 139.14 203.2 144.14 196.29 147.42C186.8 151.88 180.3 159.39 176.62 169.22C167.43 150.44 162.24 129.33 162.24 106.98C162.24 67.7601 178.16 32.2201 203.86 6.58008C229.6 32.2101 245.52 67.7501 245.52 106.98L245.5 106.99Z" fill="url(#paint12_linear_1121_62)"/>
<path d="M258.81 189.219C258.81 184.799 258.82 175.709 258.82 175.709C258.82 175.149 258.82 174.589 258.78 174.029C258.43 169.689 255.9 166.109 252.02 164.469C250.99 164.029 250.01 163.719 249.2 163.479L237.94 160.099C228.42 157.239 218.91 154.389 209.41 151.499C207.82 151.019 206.23 150.779 204.66 150.779C203.09 150.779 201.49 151.019 199.91 151.509C194.59 153.149 189.27 154.739 183.94 156.339L174.31 159.229C169.2 160.769 164.09 162.299 159 163.849C153.61 165.489 150.52 169.589 150.52 175.109C150.52 190.969 150.52 206.829 150.52 222.689C150.52 225.629 151.04 228.679 152.1 232.009C154.12 238.349 157.73 244.129 163.46 250.199C168.34 255.379 174.09 260.079 181.55 265.009C187.04 268.639 203.65 276.499 205.38 277.019C206.63 276.499 207.89 275.989 209.15 275.469C217.95 271.229 225.46 266.839 232.11 262.039C240.85 255.729 246.82 249.979 251.47 243.389C256.44 236.359 258.92 228.719 258.86 220.689C258.78 210.209 258.8 199.539 258.81 189.219ZM238.59 234.119C234.95 239.279 230.01 243.969 222.59 249.319C217.9 252.699 212.7 255.889 206.8 258.979C205.48 259.669 203.86 259.669 202.53 258.979C198.16 256.689 194.23 254.389 190.63 251.999C184.03 247.639 179.05 243.579 174.93 239.219C170.85 234.899 168.47 231.219 167.22 227.269C166.7 225.619 166.44 224.259 166.44 223.119V219.919C166.44 214.709 166.44 209.499 166.44 204.289C166.44 196.649 166.44 189.009 166.44 181.369C166.44 179.339 167.76 177.549 169.71 176.959C173.53 175.809 178.18 174.409 178.18 174.409L188.77 171.229C193.63 169.779 198.49 168.319 203.34 166.829C204.21 166.569 205.14 166.559 206 166.829C215.39 169.679 224.8 172.499 234.21 175.329L239.61 176.949C241.56 177.539 242.89 179.329 242.89 181.369V188.589C242.87 199.289 242.85 210.339 242.93 221.189C242.97 225.699 241.54 229.929 238.59 234.119Z" fill="url(#paint13_linear_1121_62)"/>
<path d="M361.04 87.6602C367.634 87.6602 372.98 82.3056 372.98 75.7002C372.98 69.0949 367.634 63.7402 361.04 63.7402C354.445 63.7402 349.1 69.0949 349.1 75.7002C349.1 82.3056 354.445 87.6602 361.04 87.6602Z" fill="#08D24C"/>
<path d="M301.83 47.7501C308.424 47.7501 313.77 42.3954 313.77 35.7901C313.77 29.1848 308.424 23.8301 301.83 23.8301C295.235 23.8301 289.89 29.1848 289.89 35.7901C289.89 42.3954 295.235 47.7501 301.83 47.7501Z" fill="#08D24C"/>
<path d="M239.69 23.9298C246.284 23.9298 251.63 18.5751 251.63 11.9698C251.63 5.36444 246.284 0.00976562 239.69 0.00976562C233.096 0.00976562 227.75 5.36444 227.75 11.9698C227.75 18.5751 233.096 23.9298 239.69 23.9298Z" fill="#08D24C"/>
<path d="M169.57 23.9298C176.164 23.9298 181.51 18.5751 181.51 11.9698C181.51 5.36444 176.164 0.00976562 169.57 0.00976562C162.976 0.00976562 157.63 5.36444 157.63 11.9698C157.63 18.5751 162.976 23.9298 169.57 23.9298Z" fill="#08D24C"/>
<path d="M107.94 47.7403C114.534 47.7403 119.88 42.3856 119.88 35.7803C119.88 29.175 114.534 23.8203 107.94 23.8203C101.346 23.8203 96 29.175 96 35.7803C96 42.3856 101.346 47.7403 107.94 47.7403Z" fill="#08D24C"/>
<path d="M51.3795 87.5098C57.9737 87.5098 63.3195 82.1552 63.3195 75.5498C63.3195 68.9445 57.9737 63.5898 51.3795 63.5898C44.7852 63.5898 39.4395 68.9445 39.4395 75.5498C39.4395 82.1552 44.7852 87.5098 51.3795 87.5098Z" fill="#08D24C"/>
<path d="M12.0699 151.25C18.6642 151.25 24.0099 145.895 24.0099 139.29C24.0099 132.685 18.6642 127.33 12.0699 127.33C5.4756 127.33 0.129883 132.685 0.129883 139.29C0.129883 145.895 5.4756 151.25 12.0699 151.25Z" fill="#08D24C"/>
<path d="M401.24 151.25C407.834 151.25 413.18 145.895 413.18 139.29C413.18 132.685 407.834 127.33 401.24 127.33C394.646 127.33 389.3 132.685 389.3 139.29C389.3 145.895 394.646 151.25 401.24 151.25Z" fill="#08D24C"/>
<path d="M206.42 214.181C199.27 207.021 187.68 207.021 180.53 214.181L201.21 234.891C208.36 242.051 219.95 242.051 227.1 234.891L206.42 214.181Z" fill="url(#paint14_linear_1121_62)"/>
<path d="M201.24 217.821L221.91 238.521C223.79 237.641 225.56 236.441 227.11 234.891L206.43 214.181C199.28 207.021 187.69 207.021 180.54 214.181H180.55C187.33 211.021 195.64 212.211 201.24 217.821Z" fill="url(#paint15_linear_1121_62)"/>
<path d="M215.82 185.99H180.54V204.33H197.51C207.62 204.33 215.82 196.12 215.82 185.99Z" fill="url(#paint16_linear_1121_62)"/>
<path d="M378.25 384.76H35.0498V387.35H378.25V384.76Z" fill="#097431"/>
<path d="M40.9198 400.499H35.5498V396.449H50.7298V400.499H45.3598V415.739H40.9198V400.499Z" fill="#097431"/>
<path d="M65.5896 408.079H57.7596V415.739H53.3496V396.449H57.7596V404.029H65.5896V396.449H70.0296V415.739H65.5896V408.079Z" fill="#097431"/>
<path d="M74.0195 396.449H87.8495V400.199H78.4295V404.219H86.3895V407.829H78.4295V411.989H87.9695V415.739H74.0295V396.449H74.0195Z" fill="#097431"/>
<path d="M97.5801 396.449H111.22V400.449H101.99V404.859H109.95V408.739H101.99V415.739H97.5801V396.449Z" fill="#097431"/>
<path d="M114.17 396.449H118.58V415.739H114.17V396.449Z" fill="#097431"/>
<path d="M122.58 396.449H126.8L135.4 408.599V396.449H139.78V415.739H135.56L126.96 403.589V415.739H122.58V396.449Z" fill="#097431"/>
<path d="M147.76 400.499H142.39V396.449H157.57V400.499H152.2V415.739H147.76V400.499Z" fill="#097431"/>
<path d="M160.189 396.449H174.019V400.199H164.599V404.219H172.559V407.829H164.599V411.989H174.139V415.739H160.199V396.449H160.189Z" fill="#097431"/>
<path d="M176.17 406.099C176.17 400.069 180.52 396.119 186.64 396.119C188.57 396.119 190.61 396.529 192.12 397.329V401.569C190.66 400.719 188.7 400.189 186.94 400.189C183.22 400.189 180.74 402.479 180.74 406.089C180.74 409.699 183.22 411.989 186.94 411.989C188.7 411.989 190.66 411.469 192.12 410.609V414.849C190.6 415.649 188.57 416.059 186.64 416.059C180.52 416.059 176.17 412.119 176.17 406.079V406.099Z" fill="#097431"/>
<path d="M207.59 408.079H199.76V415.739H195.35V396.449H199.76V404.029H207.59V396.449H212.03V415.739H207.59V408.079Z" fill="#097431"/>
<path d="M221.53 406.099C221.53 400.509 225.8 396.119 231.62 396.119C237.44 396.119 241.68 400.499 241.68 406.099C241.68 411.699 237.41 416.079 231.62 416.079C225.83 416.079 221.53 411.699 221.53 406.099ZM231.62 411.939C234.93 411.939 237.16 409.459 237.16 406.099C237.16 402.739 234.93 400.259 231.62 400.259C228.31 400.259 226.08 402.739 226.08 406.099C226.08 409.459 228.28 411.939 231.62 411.939Z" fill="#097431"/>
<path d="M244.76 396.449H258.4V400.449H249.17V404.859H257.13V408.739H249.17V415.739H244.76V396.449Z" fill="#097431"/>
<path d="M267.8 396.449H275.98C280.47 396.449 282.95 398.349 282.95 401.659C282.95 403.619 282.1 405.109 280.36 405.709C282.84 406.229 284.05 407.919 284.05 410.339C284.05 413.729 281.6 415.739 277 415.739H267.8V396.449ZM275.74 404.249C277.67 404.249 278.55 403.529 278.55 402.129C278.55 400.729 277.67 399.979 275.74 399.979H272.19V404.249H275.74ZM276.51 412.219C278.66 412.219 279.6 411.479 279.6 409.909C279.6 408.339 278.66 407.619 276.51 407.619H272.18V412.219H276.51Z" fill="#097431"/>
<path d="M299.24 408.079H291.41V415.739H287V396.449H291.41V404.029H299.24V396.449H303.68V415.739H299.24V408.079Z" fill="#097431"/>
<path d="M313.3 396.449H318.18L325.62 415.739H321.07L319.69 411.909H311.78L310.4 415.739H305.85L313.29 396.449H313.3ZM318.39 408.359L315.74 400.979L313.07 408.359H318.39Z" fill="#097431"/>
<path d="M327.82 396.449H335.89C340.66 396.449 343.47 398.989 343.47 403.059C343.47 406.119 341.9 408.129 339.12 408.959L343.89 415.739H338.87L334.54 409.399H332.23V415.739H327.82V396.449ZM335.67 405.819C337.93 405.819 339 404.879 339 403.059C339 401.239 337.92 400.309 335.67 400.309H332.23V405.819H335.67Z" fill="#097431"/>
<path d="M352.51 396.449H357.39L364.83 415.739H360.28L358.9 411.909H350.99L349.61 415.739H345.06L352.5 396.449H352.51ZM357.61 408.359L354.96 400.979L352.29 408.359H357.61Z" fill="#097431"/>
<path d="M368.55 400.499H363.18V396.449H378.36V400.499H372.99V415.739H368.55V400.499Z" fill="#097431"/>
</g>
<defs>
<linearGradient id="paint0_linear_1121_62" x1="153.63" y1="369.46" x2="155.63" y2="292.1" gradientUnits="userSpaceOnUse">
<stop offset="0.13" stop-color="#0B7431"/>
<stop offset="0.61" stop-color="#09AA41"/>
<stop offset="0.96" stop-color="#08D24C"/>
</linearGradient>
<linearGradient id="paint1_linear_1121_62" x1="248.05" y1="369.39" x2="250.06" y2="291.48" gradientUnits="userSpaceOnUse">
<stop offset="0.13" stop-color="#0B7431"/>
<stop offset="0.61" stop-color="#09AA41"/>
<stop offset="0.96" stop-color="#08D24C"/>
</linearGradient>
<linearGradient id="paint2_linear_1121_62" x1="342.19" y1="369.03" x2="344.15" y2="292.98" gradientUnits="userSpaceOnUse">
<stop offset="0.13" stop-color="#0B7431"/>
<stop offset="0.61" stop-color="#09AA41"/>
<stop offset="0.96" stop-color="#08D24C"/>
</linearGradient>
<linearGradient id="paint3_linear_1121_62" x1="69.27" y1="369.03" x2="71.23" y2="292.98" gradientUnits="userSpaceOnUse">
<stop offset="0.13" stop-color="#0B7431"/>
<stop offset="0.61" stop-color="#09AA41"/>
<stop offset="0.96" stop-color="#08D24C"/>
</linearGradient>
<linearGradient id="paint4_linear_1121_62" x1="147.48" y1="72.4701" x2="148.76" y2="22.5801" gradientUnits="userSpaceOnUse">
<stop offset="0.13" stop-color="#0B7431"/>
<stop offset="0.61" stop-color="#09AA41"/>
<stop offset="0.96" stop-color="#08D24C"/>
</linearGradient>
<linearGradient id="paint5_linear_1121_62" x1="261.48" y1="72.4701" x2="260.2" y2="22.5801" gradientUnits="userSpaceOnUse">
<stop offset="0.13" stop-color="#0B7431"/>
<stop offset="0.61" stop-color="#09AA41"/>
<stop offset="0.96" stop-color="#08D24C"/>
</linearGradient>
<linearGradient id="paint6_linear_1121_62" x1="121.83" y1="182.22" x2="125.11" y2="54.9804" gradientUnits="userSpaceOnUse">
<stop offset="0.13" stop-color="#0B7431"/>
<stop offset="0.61" stop-color="#09AA41"/>
<stop offset="0.96" stop-color="#08D24C"/>
</linearGradient>
<linearGradient id="paint7_linear_1121_62" x1="96.3801" y1="195.479" x2="98.9401" y2="96.1794" gradientUnits="userSpaceOnUse">
<stop offset="0.13" stop-color="#0B7431"/>
<stop offset="0.61" stop-color="#09AA41"/>
<stop offset="0.96" stop-color="#08D24C"/>
</linearGradient>
<linearGradient id="paint8_linear_1121_62" x1="285.48" y1="183.11" x2="288.86" y2="52.2302" gradientUnits="userSpaceOnUse">
<stop offset="0.13" stop-color="#0B7431"/>
<stop offset="0.61" stop-color="#09AA41"/>
<stop offset="0.96" stop-color="#08D24C"/>
</linearGradient>
<linearGradient id="paint9_linear_1121_62" x1="315.18" y1="198.229" x2="317.85" y2="94.7094" gradientUnits="userSpaceOnUse">
<stop offset="0.13" stop-color="#0B7431"/>
<stop offset="0.61" stop-color="#09AA41"/>
<stop offset="0.96" stop-color="#08D24C"/>
</linearGradient>
<linearGradient id="paint10_linear_1121_62" x1="329.66" y1="215.979" x2="331.44" y2="146.959" gradientUnits="userSpaceOnUse">
<stop offset="0.13" stop-color="#0B7431"/>
<stop offset="0.61" stop-color="#09AA41"/>
<stop offset="0.96" stop-color="#08D24C"/>
</linearGradient>
<linearGradient id="paint11_linear_1121_62" x1="82.7495" y1="214.479" x2="84.4295" y2="149.129" gradientUnits="userSpaceOnUse">
<stop offset="0.13" stop-color="#0B7431"/>
<stop offset="0.61" stop-color="#09AA41"/>
<stop offset="0.96" stop-color="#08D24C"/>
</linearGradient>
<linearGradient id="paint12_linear_1121_62" x1="202.53" y1="158.66" x2="206.36" y2="10.3101" gradientUnits="userSpaceOnUse">
<stop offset="0.13" stop-color="#0B7431"/>
<stop offset="0.61" stop-color="#09AA41"/>
<stop offset="0.96" stop-color="#08D24C"/>
</linearGradient>
<linearGradient id="paint13_linear_1121_62" x1="202.93" y1="266.099" x2="205.84" y2="153.579" gradientUnits="userSpaceOnUse">
<stop offset="0.13" stop-color="#0B7431"/>
<stop offset="0.61" stop-color="#09AA41"/>
<stop offset="0.96" stop-color="#08D24C"/>
</linearGradient>
<linearGradient id="paint14_linear_1121_62" x1="203.49" y1="237.341" x2="204.2" y2="209.761" gradientUnits="userSpaceOnUse">
<stop offset="0.13" stop-color="#0B7431"/>
<stop offset="0.61" stop-color="#09AA41"/>
<stop offset="0.96" stop-color="#08D24C"/>
</linearGradient>
<linearGradient id="paint15_linear_1121_62" x1="203.53" y1="235.561" x2="204.2" y2="209.721" gradientUnits="userSpaceOnUse">
<stop offset="0.13" stop-color="#0B7431"/>
<stop offset="0.61" stop-color="#09AA41"/>
<stop offset="0.96" stop-color="#08D24C"/>
</linearGradient>
<linearGradient id="paint16_linear_1121_62" x1="197.74" y1="203.12" x2="198.18" y2="185.96" gradientUnits="userSpaceOnUse">
<stop offset="0.13" stop-color="#0B7431"/>
<stop offset="0.61" stop-color="#09AA41"/>
<stop offset="0.96" stop-color="#08D24C"/>
</linearGradient>
<clipPath id="clip0_1121_62">
<rect width="413.06" height="416.08" fill="white" transform="translate(0.120117)"/>
</clipPath>
</defs>
</svg>
