<svg width="12" height="11" viewBox="0 0 12 11" fill="none" xmlns="http://www.w3.org/2000/svg">
<path d="M11.8648 10.2245L9.12896 7.48869C9.8745 6.57688 10.2411 5.4134 10.1528 4.23891C10.0646 3.06441 9.52827 1.96877 8.65486 1.1786C7.78144 0.388425 6.63773 -0.0358163 5.4603 -0.00637673C4.28286 0.0230629 3.16178 0.503931 2.32895 1.33676C1.49612 2.1696 1.01525 3.29067 0.985811 4.46811C0.956371 5.64555 1.38061 6.78925 2.17078 7.66267C2.96096 8.53608 4.0566 9.07237 5.23109 9.16062C6.40559 9.24887 7.56907 8.88231 8.48088 8.13678L11.2167 10.8726C11.3031 10.9561 11.4189 11.0023 11.5391 11.0012C11.6592 11.0002 11.7742 10.952 11.8592 10.867C11.9441 10.782 11.9924 10.667 11.9934 10.5469C11.9944 10.4267 11.9482 10.3109 11.8648 10.2245ZM5.58238 8.25686C4.85718 8.25686 4.14827 8.04181 3.54529 7.63891C2.94231 7.23601 2.47234 6.66336 2.19482 5.99336C1.9173 5.32337 1.84469 4.58612 1.98617 3.87486C2.12765 3.1636 2.47686 2.51026 2.98965 1.99747C3.50245 1.48467 4.15578 1.13546 4.86705 0.993979C5.57831 0.852499 6.31556 0.925112 6.98555 1.20263C7.65555 1.48015 8.2282 1.95012 8.6311 2.5531C9.034 3.15608 9.24905 3.86499 9.24905 4.59019C9.24795 5.56232 8.86129 6.49431 8.1739 7.18171C7.4865 7.86911 6.5545 8.25577 5.58238 8.25686Z" fill="#757575"/>
</svg>
