<svg width="36" height="36" viewBox="0 0 36 36" fill="none" xmlns="http://www.w3.org/2000/svg">
<path d="M13.5 18L16.5 21L23.25 14.25M11.0007 5.72804C12.2064 5.63182 13.3511 5.15769 14.2717 4.37313C16.4201 2.54229 19.5799 2.54229 21.7283 4.37313C22.6489 5.15769 23.7936 5.63182 24.9993 5.72804C27.8131 5.95258 30.0474 8.18692 30.272 11.0007C30.3682 12.2064 30.8423 13.3511 31.6269 14.2717C33.4577 16.4201 33.4577 19.5799 31.6269 21.7283C30.8423 22.6489 30.3682 23.7936 30.272 24.9993C30.0474 27.8131 27.8131 30.0474 24.9993 30.272C23.7936 30.3682 22.6489 30.8423 21.7283 31.6269C19.5799 33.4577 16.4201 33.4577 14.2717 31.6269C13.3511 30.8423 12.2064 30.3682 11.0007 30.272C8.18692 30.0474 5.95258 27.8131 5.72804 24.9993C5.63182 23.7936 5.15769 22.6489 4.37313 21.7283C2.54229 19.5799 2.54229 16.4201 4.37313 14.2717C5.15769 13.3511 5.63182 12.2064 5.72804 11.0007C5.95258 8.18692 8.18692 5.95258 11.0007 5.72804Z" stroke="#0957D0" stroke-width="2" stroke-linecap="round" stroke-linejoin="round"/>
</svg>
