<svg width="18" height="18" viewBox="0 0 18 18" fill="none" xmlns="http://www.w3.org/2000/svg">
<path d="M9 18C13.962 18 18 13.962 18 9C18 4.03801 13.962 0 9 0C4.03796 0 0 4.03801 0 9C0 13.962 4.03801 18 9 18ZM9 1.19998C13.302 1.19998 16.8 4.69797 16.8 9C16.8 13.302 13.302 16.8 9 16.8C4.69797 16.8 1.19998 13.302 1.19998 9C1.19998 4.69797 4.69802 1.19998 9 1.19998Z" fill="#757575"/>
<path d="M11.6254 11.8696C11.7364 11.9595 11.8684 12.0016 12.0004 12.0016C12.0903 12.0018 12.1791 11.9816 12.2601 11.9426C12.3412 11.9037 12.4123 11.8469 12.4684 11.7766C12.6754 11.5186 12.6333 11.1406 12.3754 10.9336L9.60037 8.71355V4.20155C9.60037 3.87155 9.33039 3.60156 9.00038 3.60156C8.67038 3.60156 8.40039 3.87155 8.40039 4.20155V9.00157C8.40039 9.18459 8.48441 9.35557 8.62539 9.46955L11.6254 11.8696Z" fill="#757575"/>
</svg>
