<svg width="18" height="18" viewBox="0 0 18 18" fill="none" xmlns="http://www.w3.org/2000/svg">
<path d="M15.3638 4.92375C15.3491 4.92375 15.3272 4.92375 15.3052 4.92375C11.4353 4.53603 7.57272 4.38972 3.7467 4.77744L2.25434 4.92375C1.94708 4.95301 1.67641 4.73355 1.64715 4.42629C1.61789 4.11904 1.83735 3.85568 2.13729 3.82642L3.62966 3.68011C7.52151 3.28507 11.4646 3.4387 15.415 3.82642C15.7149 3.85568 15.9344 4.12636 15.9051 4.42629C15.8832 4.7116 15.6417 4.92375 15.3638 4.92375Z" fill="#333333"/>
<path d="M6.21913 4.1841C6.18987 4.1841 6.1606 4.1841 6.12403 4.17678C5.83141 4.12558 5.62657 3.84027 5.67778 3.54765L5.83872 2.58932C5.95577 1.88703 6.11671 0.914062 7.82123 0.914062H9.73789C11.4497 0.914062 11.6107 1.9236 11.7204 2.59663L11.8813 3.54765C11.9326 3.84759 11.7277 4.13289 11.4351 4.17678C11.1352 4.22799 10.8499 4.02316 10.806 3.73054L10.645 2.77952C10.5426 2.14307 10.5207 2.01871 9.74521 2.01871H7.82854C7.0531 2.01871 7.03847 2.12112 6.92873 2.7722L6.76048 3.72322C6.71658 3.9939 6.48249 4.1841 6.21913 4.1841Z" fill="#333333"/>
<path d="M11.1283 16.6425H6.43169C3.87857 16.6425 3.77616 15.2306 3.69569 14.0894L3.22018 6.72263C3.19823 6.42269 3.43233 6.15934 3.73226 6.13739C4.03951 6.12276 4.29556 6.34954 4.3175 6.64947L4.79301 14.0162C4.87348 15.1282 4.90275 15.5451 6.43169 15.5451H11.1283C12.6645 15.5451 12.6938 15.1282 12.7669 14.0162L13.2424 6.64947C13.2644 6.34954 13.5277 6.12276 13.8277 6.13739C14.1276 6.15934 14.3617 6.41538 14.3398 6.72263L13.8643 14.0894C13.7838 15.2306 13.6814 16.6425 11.1283 16.6425Z" fill="#333333"/>
<path d="M9.99352 12.6208H7.55745C7.25752 12.6208 7.00879 12.372 7.00879 12.0721C7.00879 11.7722 7.25752 11.5234 7.55745 11.5234H9.99352C10.2935 11.5234 10.5422 11.7722 10.5422 12.0721C10.5422 12.372 10.2935 12.6208 9.99352 12.6208Z" fill="#333333"/>
<path d="M10.6088 9.69498H6.95101C6.65107 9.69498 6.40234 9.44626 6.40234 9.14632C6.40234 8.84638 6.65107 8.59766 6.95101 8.59766H10.6088C10.9087 8.59766 11.1574 8.84638 11.1574 9.14632C11.1574 9.44626 10.9087 9.69498 10.6088 9.69498Z" fill="#333333"/>
</svg>
