<svg width="15" height="15" viewBox="0 0 15 15" fill="none" xmlns="http://www.w3.org/2000/svg">
<path d="M7.5 7.5C8.24168 7.5 8.9667 7.28007 9.58339 6.86801C10.2001 6.45596 10.6807 5.87029 10.9645 5.18506C11.2484 4.49984 11.3226 3.74584 11.1779 3.01841C11.0333 2.29098 10.6761 1.6228 10.1517 1.09835C9.6272 0.573904 8.95902 0.216751 8.23159 0.0720569C7.50416 -0.0726377 6.75016 0.00162482 6.06494 0.285453C5.37971 0.569282 4.79404 1.04993 4.38199 1.66661C3.96993 2.2833 3.75 3.00832 3.75 3.75C3.75099 4.74426 4.1464 5.69751 4.84945 6.40056C5.55249 7.1036 6.50574 7.49901 7.5 7.5ZM7.5 1.25C7.99445 1.25 8.4778 1.39662 8.88893 1.67133C9.30005 1.94603 9.62048 2.33648 9.8097 2.79329C9.99892 3.25011 10.0484 3.75277 9.95196 4.23773C9.8555 4.72268 9.6174 5.16814 9.26777 5.51777C8.91814 5.8674 8.47268 6.1055 7.98773 6.20197C7.50277 6.29843 7.00011 6.24892 6.54329 6.0597C6.08648 5.87048 5.69603 5.55005 5.42133 5.13893C5.14662 4.7278 5 4.24445 5 3.75C5 3.08696 5.26339 2.45108 5.73223 1.98223C6.20107 1.51339 6.83696 1.25 7.5 1.25Z" fill="#303030"/>
<path d="M7.5 8.75C6.00867 8.75165 4.57889 9.34482 3.52435 10.3994C2.46982 11.4539 1.87665 12.8837 1.875 14.375C1.875 14.5408 1.94085 14.6997 2.05806 14.8169C2.17527 14.9342 2.33424 15 2.5 15C2.66576 15 2.82473 14.9342 2.94194 14.8169C3.05915 14.6997 3.125 14.5408 3.125 14.375C3.125 13.2147 3.58594 12.1019 4.40641 11.2814C5.22688 10.4609 6.33968 10 7.5 10C8.66032 10 9.77312 10.4609 10.5936 11.2814C11.4141 12.1019 11.875 13.2147 11.875 14.375C11.875 14.5408 11.9408 14.6997 12.0581 14.8169C12.1753 14.9342 12.3342 15 12.5 15C12.6658 15 12.8247 14.9342 12.9419 14.8169C13.0592 14.6997 13.125 14.5408 13.125 14.375C13.1233 12.8837 12.5302 11.4539 11.4756 10.3994C10.4211 9.34482 8.99133 8.75165 7.5 8.75Z" fill="#303030"/>
</svg>
