<svg width="18" height="17" viewBox="0 0 18 17" fill="none" xmlns="http://www.w3.org/2000/svg">
<path d="M8.78125 0C4.09436 0 0.28125 3.81311 0.28125 8.5C0.28125 13.1869 4.09436 17 8.78125 17C13.4681 17 17.2812 13.1869 17.2812 8.5C17.2812 3.81311 13.4681 0 8.78125 0ZM8.78125 15.6923C4.8154 15.6923 1.58896 12.4658 1.58896 8.5C1.58896 4.53419 4.8154 1.30771 8.78125 1.30771C12.7471 1.30771 15.9735 4.53415 15.9735 8.5C15.9735 12.4658 12.7471 15.6923 8.78125 15.6923Z" fill="#34A853"/>
<path d="M11.8025 5.85156L7.4699 10.1841L5.75273 8.46694L4.82812 9.39158L7.4699 12.0334L12.7271 6.7762L11.8025 5.85156Z" fill="#34A853"/>
</svg>
