<svg width="16" height="17" viewBox="0 0 16 17" fill="none" xmlns="http://www.w3.org/2000/svg">
<path d="M14.3781 5.28903C14.3781 4.78205 14.3793 3.73941 14.3793 3.73941C14.3793 3.67517 14.3793 3.61094 14.3747 3.54671C14.3345 3.0489 14.0443 2.63827 13.5993 2.45015C13.4812 2.39968 13.3687 2.36413 13.2758 2.3366L11.9843 1.94891C10.8923 1.62086 9.80151 1.29396 8.71184 0.962467C8.52946 0.90741 8.34709 0.879883 8.16701 0.879883C7.98692 0.879883 7.8034 0.907411 7.62217 0.963615C7.01195 1.15173 6.40174 1.3341 5.79038 1.51763L4.68579 1.84912C4.09967 2.02576 3.51354 2.20125 2.9297 2.37904C2.31146 2.56715 1.95703 3.03743 1.95703 3.67058C1.95703 5.48976 1.95703 7.30894 1.95703 9.12811C1.95703 9.46534 2.01668 9.81518 2.13826 10.1971C2.36996 10.9243 2.78403 11.5873 3.44128 12.2836C4.00102 12.8777 4.66056 13.4168 5.51624 13.9823C6.14595 14.3987 8.05116 15.3002 8.24959 15.3599C8.39297 15.3002 8.53749 15.2417 8.68202 15.1821C9.6914 14.6958 10.5528 14.1922 11.3156 13.6416C12.3181 12.9179 13.0028 12.2583 13.5362 11.5024C14.1063 10.6961 14.3907 9.81977 14.3839 8.89871C14.3747 7.69663 14.377 6.47276 14.3781 5.28903ZM12.0588 10.4392C11.6413 11.031 11.0747 11.569 10.2236 12.1826C9.68566 12.5703 9.08921 12.9362 8.41247 13.2907C8.26106 13.3698 8.07524 13.3698 7.92269 13.2907C7.42144 13.028 6.97066 12.7642 6.55773 12.49C5.8007 11.9899 5.22948 11.5242 4.75691 11.0241C4.28892 10.5286 4.01593 10.1065 3.87256 9.65345C3.81291 9.46419 3.78309 9.3082 3.78309 9.17744V8.81039C3.78309 8.21279 3.78309 7.61519 3.78309 7.01759C3.78309 6.14127 3.78309 5.26495 3.78309 4.38862C3.78309 4.15578 3.9345 3.95046 4.15817 3.88278C4.59633 3.75088 5.12969 3.59029 5.12969 3.59029L6.34439 3.22554C6.90184 3.05922 7.45929 2.89176 8.0156 2.72085C8.11539 2.69103 8.22206 2.68988 8.32071 2.72085C9.39776 3.04775 10.4771 3.37121 11.5565 3.69582L12.1758 3.88164C12.3995 3.94931 12.5521 4.15463 12.5521 4.38862V5.21677C12.5498 6.44408 12.5475 7.71154 12.5567 8.95606C12.5612 9.47337 12.3972 9.95856 12.0588 10.4392Z" fill="url(#paint0_linear_113_56)"/>
<path d="M8.36808 8.15208C7.54796 7.33082 6.21856 7.33082 5.39844 8.15208L7.77048 10.5276C8.5906 11.3488 9.92 11.3488 10.7401 10.5276L8.36808 8.15208Z" fill="url(#paint1_linear_113_56)"/>
<path d="M9.44904 4.91846H5.40234V7.02209H7.34884C8.50848 7.02209 9.44904 6.08039 9.44904 4.91846Z" fill="url(#paint2_linear_113_56)"/>
<defs>
<linearGradient id="paint0_linear_113_56" x1="7.96857" y1="14.1073" x2="8.30235" y2="1.20105" gradientUnits="userSpaceOnUse">
<stop offset="0.13" stop-color="#0B7431"/>
<stop offset="0.61" stop-color="#09AA41"/>
<stop offset="0.96" stop-color="#08D24C"/>
</linearGradient>
<linearGradient id="paint1_linear_113_56" x1="8.032" y1="10.8086" x2="8.11344" y2="7.6451" gradientUnits="userSpaceOnUse">
<stop offset="0.13" stop-color="#0B7431"/>
<stop offset="0.61" stop-color="#09AA41"/>
<stop offset="0.96" stop-color="#08D24C"/>
</linearGradient>
<linearGradient id="paint2_linear_113_56" x1="7.37522" y1="6.8833" x2="7.42569" y2="4.91502" gradientUnits="userSpaceOnUse">
<stop offset="0.13" stop-color="#0B7431"/>
<stop offset="0.61" stop-color="#09AA41"/>
<stop offset="0.96" stop-color="#08D24C"/>
</linearGradient>
</defs>
</svg>
