<svg width="91" height="97" viewBox="0 0 91 97" fill="none" xmlns="http://www.w3.org/2000/svg">
<path opacity="0.3" d="M1.92799 90.5648C2.90774 91.6876 4.53721 92.504 5.71632 93.2908C6.8544 94.0451 8.03402 94.7721 9.23537 95.4297C9.24247 96.5165 10.3482 97.1852 11.3037 96.5601C25.7696 87.0568 40.2464 77.582 54.7222 68.0999C55.3934 67.6569 55.4461 66.4439 54.7451 65.9889C54.6082 65.9006 54.473 65.8268 54.3434 65.7376C53.5303 62.3306 52.8984 58.8803 52.2959 55.4265C52.2025 54.8786 51.7731 54.6454 51.3498 54.6574C51.2903 54.5302 51.1941 54.4073 51.0589 54.3336C48.5132 53.0053 45.7239 52.0183 42.9457 51.2534C53.1891 35.4167 69.1001 22.0652 87.7546 18.4746C99.778 16.1611 111.749 19.4859 122.498 24.8598C132.669 29.9432 142.992 38.0635 142.846 50.5291C142.837 51.223 143.796 51.7747 144.399 51.4513C150.232 48.315 156.528 46.1381 162.335 43.0272C162.735 42.8168 162.856 42.3186 162.737 41.9375C162.734 41.9081 162.753 41.8761 162.748 41.8394C162.745 41.81 162.741 41.7732 162.737 41.7438C162.769 41.6955 162.8 41.6397 162.797 41.558C162.901 37.2549 163.726 32.8754 163.593 28.5922C163.646 28.4743 163.659 28.3312 163.59 28.1828C163.569 28.1331 163.542 28.0915 163.521 28.0418C163.511 28.0132 163.493 27.9855 163.482 27.957C162.756 26.4545 161.919 25.0245 161.013 23.6398C161.03 23.4591 161.052 23.2702 161.069 23.0896C161.088 22.8713 160.762 22.8198 160.728 23.0398C160.718 23.0856 160.708 23.1314 160.705 23.169C156.056 16.3041 149.33 10.865 142.329 6.52319C132.663 0.531754 122.391 -3.81729 110.927 -4.38485C105.877 -4.63242 100.817 -4.64786 95.8079 -4.34892C95.8062 -4.36362 95.8045 -4.37831 95.8036 -4.38566C95.8037 -4.70601 95.2585 -4.71719 95.2364 -4.39428C95.2399 -4.36488 95.2351 -4.34194 95.2312 -4.31168C82.9548 -3.5333 71.0091 -0.871272 60.3121 4.715C60.1027 4.51584 59.6762 4.69206 59.7081 5.03104C55.7308 7.15453 51.9353 9.68895 48.358 12.6897C48.2494 12.7173 48.1542 12.7954 48.1147 12.9043C47.0365 13.8192 45.9772 14.7693 44.9387 15.7691C44.8321 15.8783 44.778 15.9889 44.7467 16.1042C40.2952 18.5063 37.0322 22.2901 33.8967 26.208C29.5251 31.6702 25.2191 37.1843 20.8811 42.6798C20.8487 42.7208 20.8235 42.761 20.8058 42.8003C19.3565 41.0988 16.6861 40.1724 14.7263 39.3348C12.0851 38.2113 9.39201 37.1535 6.60023 36.4647C5.85646 36.283 5.39623 37.0665 5.5432 37.6901C5.45447 37.76 5.38468 37.865 5.35766 38.0172C3.75116 46.8233 3.01443 55.6774 2.2551 64.5938C1.54625 72.9827 0.292168 81.6809 0.600064 90.1007C0.624124 90.8206 1.48862 90.9511 1.92713 90.5574L1.92799 90.5648ZM50.4809 55.5778C50.4809 55.5778 50.4704 55.6163 50.4739 55.6457C50.7244 58.8275 51.4969 61.8219 52.6908 64.7228C51.6506 64.1061 50.61 63.5491 49.5671 63.037C49.6567 62.9745 49.7182 62.863 49.6799 62.7259C48.967 60.0523 48.1676 57.4037 47.4105 54.7352C48.4286 55.0341 49.4523 55.3174 50.4809 55.5778ZM46.385 54.4372C47.32 57.2265 48.1841 60.0465 49.155 62.8242C47.7812 62.1569 46.3874 61.5738 44.971 61.053C45.1392 61.026 45.2911 60.8594 45.2296 60.6505C44.4687 58.206 43.672 55.773 42.8688 53.3483C44.0368 53.7192 45.2113 54.0819 46.3923 54.4363L46.385 54.4372ZM41.9578 53.0742C42.8421 55.6832 43.7411 58.2905 44.6677 60.8797C44.6794 60.9156 44.6974 60.9433 44.7229 60.9701C42.7015 60.244 40.6204 59.644 38.4033 59.1566C38.4219 59.1247 38.4414 59.1 38.46 59.0681C39.4901 57.0338 40.6265 55.0169 41.8416 53.0356C41.88 53.046 41.9267 53.0629 41.9652 53.0734L41.9578 53.0742ZM145.044 48.5453C144.324 37.5362 135.88 29.5626 126.624 24.4027C115.671 18.3 102.864 14.0593 90.1989 15.7247C66.9147 18.773 45.9731 37.3652 36.1209 58.0436C35.7198 58.8874 36.2831 59.5669 36.981 59.7391C37.0246 59.7936 37.0829 59.8465 37.1689 59.8812C42.0137 61.7617 46.9852 64.2832 51.4726 67.062C38.3157 75.713 25.1514 84.3647 11.9854 93.0018C12.8881 78.4591 13.221 63.8857 12.9737 49.3201C15.5568 50.5845 18.1462 51.8406 20.7358 53.0967C22.1251 53.7696 23.3131 54.6969 24.6366 53.9695C24.5487 55.0078 26.2923 55.5874 26.9501 54.4531C34.1187 42.0952 42.1062 28.1297 53.9888 19.7312C65.899 11.3145 80.3422 6.2316 94.8834 5.19748C121.202 3.32374 150.87 16.2958 161.506 41.5964C155.792 42.8787 150.224 45.7457 145.045 48.5527L145.044 48.5453ZM162.067 27.8979C161.954 28.0153 161.857 28.1458 161.818 28.3217C161.233 30.8482 161.244 33.6405 161.451 36.3804C160.842 34.7973 160.053 33.2649 159.136 31.7846C159.185 31.7566 159.224 31.7073 159.253 31.6369C159.927 29.8079 160.393 27.9137 160.706 25.9925C161.174 26.6234 161.627 27.2561 162.066 27.8905L162.067 27.8979ZM160.283 25.4307C159.867 27.3639 159.334 29.2584 158.735 31.1532C158.119 30.2116 157.454 29.2981 156.748 28.4117C157.629 26.5734 158.034 24.418 157.842 22.3768C158.681 23.3745 159.5 24.3968 160.283 25.4307ZM157.17 21.5981C157.17 21.5981 157.147 21.653 157.143 21.6832C157.102 22.0381 157.038 22.3809 156.975 22.7383C156.958 22.8446 157.027 22.926 157.12 22.9598C157.046 24.6297 156.778 26.1732 156.236 27.7932C155.127 26.4544 153.928 25.1709 152.683 23.9522C153.581 22.3132 153.986 20.2249 154.179 18.3549C155.21 19.4121 156.208 20.4956 157.17 21.5981ZM153.745 17.8913C153.585 18.8858 153.379 19.8708 153.089 20.8357C152.825 21.7082 152.429 22.529 152.109 23.3707C150.961 22.2749 149.783 21.2422 148.604 20.2617C149.135 18.4195 149.665 16.5699 150.181 14.7221C150.255 14.4676 149.823 14.339 149.734 14.5952C149.144 16.3176 148.569 18.0382 147.987 19.7598C146.959 18.9257 145.936 18.1357 144.925 17.3889C144.938 17.3651 144.958 17.3479 144.97 17.3241C145.646 15.5098 146.368 13.6453 146.88 11.7681C149.292 13.678 151.594 15.7275 153.746 17.8987L153.745 17.8913ZM142.823 8.78279C142.823 8.78279 142.815 8.78364 142.808 8.7845C142.171 9.58121 141.754 10.3523 141.359 11.3145C141.053 12.0801 140.522 13.088 140.686 13.9256C140.741 14.2024 141.075 14.32 141.271 14.0886C141.808 13.4452 141.893 12.4518 142.183 11.6732C142.512 10.7857 142.881 9.92329 143.194 9.03014C144.24 9.75793 145.281 10.5086 146.287 11.2856C145.465 13.0574 144.847 14.9842 144.212 16.831C141.576 14.9173 138.805 13.1832 135.936 11.6392C136.32 10.5888 136.636 9.52402 137.098 8.49446C137.481 7.63038 137.968 6.81397 138.375 5.96203C139.886 6.84438 141.373 7.78163 142.822 8.77543L142.823 8.78279ZM137.738 5.60406C136.479 7.15082 135.545 9.30068 135.057 11.1974C134.034 10.6608 132.993 10.1634 131.946 9.68159C132.713 7.88641 133.17 5.85171 133.706 3.98659C133.802 3.66249 133.255 3.50997 133.142 3.82107C132.494 5.61729 131.692 7.49112 131.253 9.35984C129.893 8.74314 128.515 8.1731 127.12 7.64239C127.349 7.69027 127.594 7.61715 127.676 7.36176C128.003 6.33288 128.307 5.29184 128.611 4.25082C128.859 3.3727 129.265 2.4464 129.292 1.5269C132.183 2.68099 135.002 4.05203 137.73 5.60491L137.738 5.60406ZM128.652 1.27352C128.141 2.07041 127.939 3.08479 127.655 3.97453C127.327 5.00341 127.001 6.03961 126.704 7.07978C126.64 7.29585 126.75 7.46936 126.918 7.56903C125.874 7.1763 124.825 6.80648 123.772 6.45956C123.828 6.43067 123.867 6.38145 123.889 6.31188C124.479 4.34352 124.661 2.05769 124.808 -0.0751596C126.099 0.333496 127.388 0.779721 128.659 1.2653L128.652 1.27352ZM124.212 -0.26669C123.735 1.84494 123.255 4.12822 123.259 6.21372C123.262 6.24313 123.266 6.27251 123.276 6.29371C122.169 5.93807 121.058 5.60534 119.941 5.2955C120.496 3.2121 120.44 0.804866 120.16 -1.34545C121.523 -1.0344 122.875 -0.677526 124.211 -0.274003L124.212 -0.26669ZM119.641 -1.45646C119.7 0.786489 119.377 2.88019 119.157 5.08859C118.074 4.80474 116.992 4.5356 115.893 4.30576C115.687 4.26267 115.481 4.22692 115.275 4.18383C115.682 2.30383 115.555 0.0538436 115.568 -1.82499C115.57 -2.19029 114.982 -2.18896 114.934 -1.83323C114.698 -0.0104858 114.3 2.13672 114.429 4.02138C113.37 3.81668 112.3 3.65043 111.231 3.49154C111.74 1.58488 111.878 -0.561825 112.024 -2.57535C114.587 -2.38148 117.133 -2.00691 119.649 -1.44995L119.641 -1.45646ZM107.221 -2.80701C108.38 -2.77769 109.525 -2.73193 110.664 -2.67065C110.882 -2.65867 111.107 -2.6402 111.326 -2.62086C110.89 -0.663089 110.432 1.42394 110.376 3.3749C109.127 3.20711 107.875 3.07693 106.619 2.96965C106.773 2.11734 106.778 1.20042 106.866 0.348446C106.976 -0.685073 107.133 -1.70903 107.222 -2.73998C107.219 -2.76204 107.218 -2.77674 107.215 -2.7988L107.221 -2.80701ZM101.136 -0.550331C101.055 -1.31565 101.025 -2.08694 101.003 -2.85174C102.929 -2.88184 104.852 -2.87436 106.743 -2.82583C106.219 -1.11115 105.65 1.041 105.724 2.89488C104.289 2.7934 102.844 2.73039 101.396 2.70498C101.484 2.63507 101.554 2.53011 101.546 2.39694C101.506 1.41077 101.235 0.429006 101.136 -0.550331ZM90.7572 2.57782C90.6078 0.971116 90.4427 -0.641218 90.2712 -2.24536C91.8836 -2.41037 93.5002 -2.53864 95.1129 -2.63664C94.9753 -1.06363 94.842 0.546118 95.0106 2.0612C95.0516 2.41402 95.5665 2.42128 95.6302 2.07119C95.9077 0.548971 95.8668 -1.08528 95.8302 -2.68274C97.3482 -2.76229 98.8679 -2.82715 100.37 -2.85267C100.256 -1.07384 100.251 0.930824 100.864 2.55808C100.886 2.61517 100.913 2.65672 100.954 2.6892C97.5674 2.65065 94.154 2.83125 90.7645 3.21766C90.7838 2.99936 90.7721 2.76978 90.7555 2.56311L90.7572 2.57782ZM89.6171 -2.16934C89.6632 -1.45206 89.701 -0.741305 89.7545 -0.0248815C89.7794 0.381965 89.7056 2.7596 89.93 3.34441C88.0132 3.58204 86.104 3.88585 84.2026 4.2558C84.2605 2.4462 83.8462 0.482889 83.515 -1.3411C85.54 -1.67326 87.5792 -1.94748 89.6179 -2.16203L89.6171 -2.16934ZM78.2402 -0.31842C79.7944 -0.662923 81.3529 -0.970674 82.9303 -1.24338C83.0345 0.614436 83.0757 2.63603 83.5617 4.38242C81.9241 4.71426 80.2997 5.09673 78.6879 5.52243C78.701 3.58393 78.4492 1.60915 78.2475 -0.319269L78.2402 -0.31842ZM73.4339 6.78854C73.1725 4.8596 72.8682 3.01011 72.8935 1.04786C74.4504 0.598739 76.0264 0.184684 77.623 -0.179639C77.6794 1.78057 77.6757 3.7999 77.9665 5.72543C76.3351 6.17574 74.7245 6.67579 73.1263 7.2191C73.3058 7.16099 73.4668 7.00821 73.4339 6.78854ZM72.1591 1.26729C72.0893 3.16766 72.1483 5.14991 72.6446 6.98452C72.7078 7.20811 72.9157 7.26592 73.1043 7.22166C71.6635 7.70942 70.2443 8.25427 68.8432 8.82683C68.716 6.77054 68.2945 4.68145 68.0847 2.61986C69.429 2.13585 70.7841 1.68035 72.1591 1.26729ZM67.499 2.83688C67.4213 4.92443 67.4474 7.20107 67.9975 9.17841C66.1219 9.96255 64.2768 10.8177 62.4771 11.742C61.7873 9.78086 61.3293 7.763 60.7204 5.79249C62.9164 4.68803 65.1793 3.70988 67.4999 2.84424L67.499 2.83688ZM59.8824 6.21021C60.2405 8.20241 61.05 10.2316 61.8519 12.0679C59.5762 13.2561 57.3648 14.5486 55.2414 15.9575C55.0158 14.978 54.7976 13.9976 54.5573 13.0198C54.3102 11.9832 54.1626 10.9052 53.6871 9.95476C55.6726 8.57677 57.7404 7.33075 59.8824 6.21021ZM45.8564 16.7426C45.9949 16.6521 46.0538 16.5186 46.0597 16.3763C46.8385 15.5781 47.6446 14.8214 48.4679 14.085C48.7183 14.637 48.9982 15.1856 49.2053 15.7501C49.5757 16.7575 49.7834 17.7763 49.9578 18.8288C50.0067 19.1211 50.433 19.0716 50.4136 18.7759C50.3359 17.1459 50.0342 14.9982 49.1423 13.4777C50.4149 12.3763 51.732 11.3367 53.0943 10.3664C53.2017 11.4192 53.6451 12.4777 53.9402 13.4789C54.2121 14.4084 54.4978 15.3288 54.7844 16.2565C52.7523 17.6175 50.7984 19.0738 48.9389 20.6383C47.6971 21.684 46.4988 22.7843 45.3442 23.9391C45.005 22.943 44.629 21.9512 44.2612 20.9658C43.9687 20.1803 43.73 19.3439 43.3511 18.5833C44.1626 17.9377 44.9914 17.3125 45.8482 16.7361L45.8564 16.7426ZM42.6236 19.1819C42.878 19.8973 43.2264 20.5869 43.5224 21.2752C43.9722 22.3255 44.4221 23.3758 44.8996 24.408C43.4206 25.9133 42.0107 27.5001 40.6526 29.1479C40.4609 28.0751 40.1672 27.0215 39.8522 25.9779C39.5381 24.9416 39.2592 23.7597 38.6254 22.8574C39.9052 21.5614 41.2286 20.32 42.6153 19.1754L42.6236 19.1819ZM38.0085 23.5102C38.2939 24.3636 38.7752 25.1718 39.1177 26.0037C39.5967 27.1772 39.9304 28.3826 40.3091 29.5901C38.6279 31.6629 37.0404 33.8364 35.5103 36.0555C35.1045 33.525 34.7743 30.7473 33.8775 28.4154C33.8569 28.3657 33.8297 28.3241 33.796 28.2908C35.1468 26.6439 36.5468 25.0359 38.0019 23.5184L38.0085 23.5102ZM33.243 28.9808C33.4936 31.5219 34.4027 34.2174 35.0771 36.6869C33.9511 38.345 32.8662 40.0355 31.805 41.7382C31.0688 39.3132 30.3689 36.8168 29.3563 34.5133C29.3059 34.3999 29.2303 34.3268 29.1443 34.2921C30.4789 32.5055 31.8437 30.7228 33.243 28.9808ZM28.6345 34.9697C29.3174 37.5127 30.3899 40.0104 31.3397 42.4777C30.2096 44.2927 29.118 46.1181 28.0467 47.9262C27.5358 45.1323 26.8013 42.0813 25.2828 39.7843C25.2466 39.729 25.1974 39.69 25.1499 39.6657C26.3034 38.1162 27.4616 36.5438 28.6345 34.9697ZM22.1127 43.6616C22.9685 42.5639 23.8284 41.4359 24.6799 40.3014C25.1378 41.8052 25.9138 43.2273 26.4443 44.7153C26.9051 45.9878 27.295 47.291 27.6554 48.5975C26.8896 49.8934 26.1312 51.1884 25.3931 52.4661C25.3824 52.4376 25.3798 52.4155 25.3617 52.3878C25.3155 52.3112 25.2759 52.2264 25.2297 52.1498C25.068 51.8483 24.8604 51.6638 24.596 51.5679C23.6801 49.0073 22.7265 46.4436 21.6687 43.9442C21.8296 43.918 21.9836 43.8331 22.1127 43.6616ZM20.6538 43.6077C20.6134 43.7092 20.5968 43.8229 20.6489 43.9509C21.5696 46.4886 22.6217 49.0036 23.7007 51.4931C23.6134 51.5107 23.5277 51.543 23.4364 51.5909C21.9334 51.2217 19.6257 49.6348 18.5746 49.1163C18.4641 49.0621 18.3608 49.0071 18.251 48.9602C18.251 48.9602 18.2502 48.9529 18.2493 48.9455C17.8037 46.7772 17.1446 44.2463 16.0448 42.1541C17.5331 42.8453 19.0984 43.5574 20.6529 43.6003L20.6538 43.6077ZM14.3632 41.4034C14.441 41.4316 14.5196 41.4671 14.5909 41.5036C15.0838 42.6681 15.7562 43.7745 16.2491 44.939C16.7709 46.1597 17.1989 47.4063 17.6203 48.661C15.7951 47.7631 13.9698 46.8651 12.1454 45.9746C12.0823 45.9446 12.0218 45.9368 11.9596 45.9142C11.1042 43.6818 10.0485 41.2641 8.70244 39.2973C10.5993 39.9783 12.4945 40.6446 14.3641 41.4107L14.3632 41.4034ZM6.41318 38.4458C6.64738 38.5378 6.87987 38.6151 7.11405 38.7071C7.77685 40.1796 8.76025 41.5255 9.53554 42.9403C10.0832 43.9345 10.603 44.9469 11.1221 45.9519C10.6272 46.1808 10.2845 46.757 10.2931 47.3445C10.3096 48.1919 10.3197 49.0474 10.3362 49.8948C9.26406 47.4641 8.0731 44.9727 6.53085 42.984C6.43461 42.8611 6.30284 42.8168 6.17054 42.8321C6.2621 41.3762 6.34547 39.9138 6.40592 38.4466L6.41318 38.4458ZM6.10616 44.0093C7.26955 46.7125 8.93759 49.3347 10.3791 51.9311C10.4153 54.4226 10.4222 56.9175 10.4208 59.4059C9.44636 57.8802 8.4645 56.3553 7.49093 54.8369C7.0091 54.0883 6.38514 52.3729 5.48466 51.74C5.71444 49.1654 5.92954 46.5925 6.10616 44.0093ZM5.35547 53.1928C5.64622 53.6432 5.90621 54.1494 6.09475 54.4255C6.61333 55.1698 7.13276 55.9215 7.65134 56.6658C8.57245 57.9892 9.4862 59.3134 10.4138 60.6285C10.4077 62.8195 10.3786 65.0057 10.3504 67.1992C8.52336 64.8115 6.61328 62.4782 4.70402 60.1522C4.91873 57.8327 5.14076 55.5123 5.34812 53.1937L5.35547 53.1928ZM4.33207 64.196C4.41111 63.3375 4.49013 62.479 4.57002 61.6279C6.35469 63.7151 8.11167 65.8204 9.88248 67.9166C10.0124 68.0729 10.1931 68.0891 10.3431 68.0344C10.3088 69.9828 10.2671 71.9321 10.2172 73.8749C9.07528 72.5101 7.94061 71.1446 6.79865 69.7798C6.07188 68.9107 5.29509 67.3546 4.10003 67.1358C4.1719 66.1515 4.24465 65.1746 4.33207 64.196ZM4.01701 68.3449C4.08315 68.3372 4.15498 68.314 4.22508 68.276C4.22508 68.276 4.23244 68.2752 4.23894 68.267C4.83362 68.7045 5.51526 69.698 5.85798 70.0829C6.36255 70.6426 6.86716 71.2023 7.37174 71.762C8.31184 72.8 9.24369 73.8316 10.1838 74.8696C10.1265 76.8132 10.062 78.7577 9.98185 80.6965C8.95558 79.7504 7.92284 78.8125 6.88923 77.8673C5.87116 76.9277 4.85645 75.6972 3.60059 75.0833C3.73392 72.8328 3.85999 70.5832 4.00888 68.3384L4.01701 68.3449ZM3.54495 76.2072C4.3413 77.0981 5.46128 77.8247 6.35081 78.5557C7.55383 79.5483 8.74386 80.5573 9.95337 81.5416C9.86774 83.6897 9.76822 85.8468 9.65234 87.991C9.66106 87.9378 9.64694 87.8798 9.60985 87.8171C8.6773 86.3312 7.30948 85.0747 6.1311 83.7812C5.17458 82.7302 4.24882 81.6234 3.22477 80.6324C3.33668 79.1592 3.44047 77.6795 3.52947 76.2016L3.54495 76.2072ZM3.11936 82.0974C3.98786 83.032 4.92477 83.914 5.80539 84.8248C6.90532 85.956 7.97908 87.2467 9.26348 88.1703C9.43407 88.292 9.62873 88.1725 9.65405 88.0057C9.558 89.8718 9.45381 91.7315 9.33486 93.5929C8.37917 92.8696 7.41045 92.1627 6.44264 91.4631C5.15823 90.5396 3.88999 89.2417 2.36281 88.7933C2.68675 86.5803 2.92551 84.34 3.1185 82.09L3.11936 82.0974Z" fill="#8772A6"/>
</svg>
