<svg width="20" height="20" viewBox="0 0 20 20" fill="none" xmlns="http://www.w3.org/2000/svg">
<g clip-path="url(#clip0_1101_13107)">
<path d="M18.7344 17.8812H1.46943C1.24042 17.8812 1.02079 17.9721 0.858862 18.1341C0.69693 18.296 0.605957 18.5156 0.605957 18.7446C0.605957 18.9736 0.69693 19.1933 0.858862 19.3552C1.02079 19.5171 1.24042 19.6081 1.46943 19.6081H18.734C18.963 19.6082 19.1827 19.5172 19.3446 19.3553C19.5066 19.1934 19.5976 18.9738 19.5977 18.7448C19.5977 18.5158 19.5068 18.2962 19.3449 18.1342C19.183 17.9722 18.9634 17.8812 18.7344 17.8812ZM2.54836 15.6364C2.3193 15.6364 2.09962 15.7274 1.93765 15.8893C1.77568 16.0513 1.68469 16.271 1.68469 16.5C1.68469 16.7291 1.77568 16.9488 1.93765 17.1108C2.09962 17.2727 2.3193 17.3637 2.54836 17.3637H17.6551C17.8841 17.3637 18.1038 17.2727 18.2658 17.1108C18.4277 16.9488 18.5187 16.7291 18.5187 16.5C18.5187 16.271 18.4277 16.0513 18.2658 15.8893C18.1038 15.7274 17.8841 15.6364 17.6551 15.6364H17.4396V7.86675H17.6551C17.7695 7.86675 17.8792 7.82131 17.9601 7.74042C18.041 7.65952 18.0864 7.54981 18.0864 7.43542C18.0864 7.32102 18.041 7.21131 17.9601 7.13042C17.8792 7.04953 17.7695 7.00409 17.6551 7.00409H2.54836C2.43397 7.00409 2.32426 7.04953 2.24337 7.13042C2.16248 7.21131 2.11703 7.32102 2.11703 7.43542C2.11703 7.54981 2.16248 7.65952 2.24337 7.74042C2.32426 7.82131 2.43397 7.86675 2.54836 7.86675H2.76423V15.636L2.54836 15.6364ZM15.7127 7.86675V15.636H13.1231V7.86675H15.7127ZM11.3961 7.86675V15.636H8.80651V7.86675H11.3961ZM4.49036 7.86675H7.07997V15.636H4.49036V7.86675ZM1.46943 6.22793H18.7425C18.9473 6.22867 19.1457 6.15653 19.3023 6.02442C19.4588 5.89231 19.5632 5.70883 19.5969 5.50679C19.6306 5.30475 19.5913 5.09732 19.4861 4.92157C19.3809 4.74583 19.2166 4.61323 19.0226 4.54748L10.4566 0.692987C10.3453 0.64302 10.2246 0.617187 10.1025 0.617188C9.98046 0.617187 9.85977 0.64302 9.7484 0.692987L1.11531 4.57739C0.935009 4.65827 0.787923 4.79856 0.698624 4.97484C0.609324 5.15112 0.58322 5.35271 0.624673 5.54592C0.666126 5.73913 0.772625 5.91226 0.926377 6.03639C1.08013 6.16053 1.27182 6.22814 1.46943 6.22793Z" fill="white"/>
</g>
<defs>
<clipPath id="clip0_1101_13107">
<rect width="19" height="19" fill="white" transform="translate(0.605469 0.609375)"/>
</clipPath>
</defs>
</svg>
