<svg width="17" height="20" viewBox="0 0 17 20" fill="none" xmlns="http://www.w3.org/2000/svg">
<path d="M7.98145 9.7565C9.26704 9.7565 10.3803 9.29537 11.2899 8.38561C12.1995 7.47603 12.6606 6.36308 12.6606 5.07734C12.6606 3.79197 12.1995 2.6789 11.2898 1.76899C10.38 0.859524 9.26689 0.398438 7.98145 0.398438C6.69566 0.398438 5.58267 0.859524 4.6731 1.76914C3.76352 2.67875 3.30224 3.79186 3.30224 5.07734C3.30224 6.36308 3.76348 7.47618 4.67325 8.3858C5.58301 9.29526 6.69612 9.7565 7.98145 9.7565ZM16.1687 15.3368C16.1425 14.9583 16.0894 14.5453 16.0113 14.1093C15.9325 13.67 15.831 13.2547 15.7094 12.8751C15.5839 12.4828 15.4131 12.0954 15.2021 11.724C14.983 11.3387 14.7257 11.0031 14.437 10.727C14.135 10.4381 13.7654 10.2059 13.3379 10.0364C12.912 9.86798 12.4399 9.7826 11.9349 9.7826C11.7366 9.7826 11.5448 9.86395 11.1744 10.1051C10.9112 10.2766 10.6471 10.4468 10.3822 10.6158C10.1277 10.778 9.78299 10.9299 9.35715 11.0675C8.94171 11.2019 8.5199 11.2701 8.10355 11.2701C7.68723 11.2701 7.26553 11.2019 6.84964 11.0675C6.42429 10.93 6.07954 10.7782 5.82532 10.616C5.5305 10.4276 5.26376 10.2557 5.03238 10.1049C4.66243 9.8638 4.47048 9.78241 4.27219 9.78241C3.76705 9.78241 3.29515 9.86794 2.86931 10.0366C2.44215 10.2057 2.07235 10.438 1.77013 10.7272C1.48157 11.0034 1.22413 11.3388 1.00535 11.724C0.79446 12.0953 0.623715 12.4826 0.498009 12.8752C0.37659 13.2548 0.275092 13.67 0.196246 14.1093C0.118121 14.5447 0.0650762 14.9578 0.0388195 15.3373C0.0127002 15.7191 -0.000246182 16.1017 3.54443e-06 16.4844C3.54443e-06 17.4986 0.32237 18.3195 0.958071 18.925C1.58592 19.5225 2.41665 19.8255 3.42689 19.8255H12.7811C13.7914 19.8255 14.6218 19.5226 15.2498 18.925C15.8856 18.32 16.208 17.4989 16.208 16.4843C16.2078 16.0929 16.1947 15.7068 16.1687 15.3368Z" fill="white"/>
</svg>
