<svg width="185" height="138" viewBox="0 0 185 138" fill="none" xmlns="http://www.w3.org/2000/svg">
<g clip-path="url(#clip0_744_3009)">
<path d="M27.8567 107.737C34.2319 101.848 42.0045 91.2881 33.3317 87.1881C29.5068 85.3805 26.4737 82.6593 25.7678 78.1306C25.02 73.3349 25.6379 67.9336 19.812 66.9833C16.0659 66.3726 11.5546 67.7157 8.4826 69.9867C-0.536974 76.6565 -3.27139 91.4815 1.67879 101.537C5.68681 109.68 14.4875 116.244 23.1531 111.379C24.3295 110.719 26.0358 109.418 27.8567 107.737Z" fill="white"/>
<path d="M17.046 113.278C15.797 113.278 14.5336 113.081 13.262 112.686C8.5625 111.227 4.15041 107.094 1.46203 101.632C-0.95526 96.7223 -1.63145 90.4535 -0.393647 84.4354C0.887118 78.2055 3.98878 73.0036 8.33745 69.7874C11.6007 67.3742 16.2266 66.1497 19.8469 66.741C24.8534 67.5573 25.282 71.6482 25.6973 75.604C25.7833 76.4234 25.8723 77.2705 25.9991 78.0868C26.6078 81.9854 29.0384 84.8896 33.43 86.9652C35.7143 88.0455 37.0339 89.6393 37.35 91.7036C38.0999 96.5965 33.0198 103.28 28.0144 107.903C26.2426 109.54 24.5117 110.879 23.2657 111.579C21.2474 112.711 19.1656 113.279 17.046 113.279V113.278ZM17.9442 67.0683C14.8078 67.0683 11.2591 68.2192 8.62081 70.17C-0.0171917 76.5554 -3.16284 91.1594 1.88963 101.423C4.52175 106.771 8.82643 110.812 13.4042 112.233C16.7054 113.258 19.9451 112.898 23.0345 111.164C24.2498 110.481 25.948 109.166 27.6932 107.554C32.6086 103.014 37.6027 96.484 36.8815 91.7762C36.59 89.8776 35.3614 88.4035 33.2285 87.3959C28.6834 85.2476 26.1648 82.2268 25.5306 78.1605C25.4017 77.3318 25.3117 76.4787 25.2257 75.6542C24.8114 71.7024 24.4196 67.9696 19.7723 67.2116C19.1871 67.1164 18.5754 67.0694 17.9463 67.0694L17.9442 67.0683Z" fill="black"/>
<path d="M16.3594 131.402C16.2275 131.402 16.1211 131.296 16.1211 131.164V93.2618C16.1211 93.1309 16.2275 93.0234 16.3594 93.0234C16.4914 93.0234 16.5978 93.1298 16.5978 93.2618V131.164C16.5978 131.295 16.4914 131.402 16.3594 131.402Z" fill="black"/>
<path d="M16.5466 103.381C16.5036 103.381 16.4596 103.368 16.4197 103.344C16.3082 103.274 16.2755 103.127 16.3451 103.016L21.4743 94.8768C21.5448 94.7653 21.6911 94.7325 21.8026 94.8021C21.9141 94.8716 21.9469 95.019 21.8773 95.1305L16.7481 103.269C16.7031 103.341 16.6253 103.381 16.5466 103.381Z" fill="black"/>
<path d="M10.7485 89.3177C10.6646 89.3177 10.5828 89.2727 10.5388 89.194L6.74762 82.2183C6.68522 82.1027 6.72716 81.9585 6.84276 81.8961C6.95835 81.8337 7.10259 81.8756 7.16499 81.9912L10.9561 88.9669C11.0185 89.0825 10.9766 89.2267 10.861 89.2891C10.8252 89.3085 10.7863 89.3177 10.7475 89.3177H10.7485Z" fill="black"/>
<path d="M8.73801 100.436C8.68686 100.436 8.63572 100.42 8.59275 100.386L4.6901 97.3632C4.58576 97.2824 4.56734 97.1331 4.64714 97.0297C4.72795 96.9254 4.87731 96.907 4.98063 96.9878L8.88328 100.011C8.98762 100.092 9.00603 100.241 8.92624 100.344C8.87918 100.405 8.8086 100.436 8.73801 100.436Z" fill="black"/>
<path d="M143.625 26.4453H111.633V132.942H143.625V26.4453Z" fill="white"/>
<path d="M143.63 133.183H111.637C111.505 133.183 111.398 133.077 111.398 132.945V26.4493C111.398 26.3184 111.505 26.2109 111.637 26.2109H143.63C143.762 26.2109 143.869 26.3173 143.869 26.4493V132.946C143.869 133.077 143.762 133.184 143.63 133.184V133.183ZM111.875 132.708H143.392V26.6866H111.875V132.708Z" fill="black"/>
<path d="M111.658 132.941H97.3906V35.6541L111.658 26.4453V132.941Z" fill="white"/>
<path d="M111.662 133.184H97.3946C97.2626 133.184 97.1562 133.077 97.1562 132.945V35.6574C97.1562 35.5766 97.1972 35.5009 97.2657 35.4579L111.533 26.2491C111.606 26.202 111.7 26.198 111.776 26.2399C111.852 26.2818 111.899 26.3616 111.899 26.4486V132.945C111.899 133.076 111.793 133.184 111.661 133.184H111.662ZM97.633 132.708H111.424V26.8864L97.633 35.7883V132.709V132.708Z" fill="black"/>
<path d="M120.991 125.039H115.441C115.31 125.039 115.203 124.932 115.203 124.8V33.5899C115.203 33.459 115.31 33.3516 115.441 33.3516H120.991C121.123 33.3516 121.229 33.458 121.229 33.5899V124.8C121.229 124.931 121.123 125.039 120.991 125.039ZM115.68 124.563H120.753V33.8272H115.68V124.562V124.563Z" fill="black"/>
<path d="M130.409 125.039H124.859C124.727 125.039 124.621 124.932 124.621 124.8V33.5899C124.621 33.459 124.727 33.3516 124.859 33.3516H130.409C130.541 33.3516 130.647 33.458 130.647 33.5899V124.8C130.647 124.931 130.541 125.039 130.409 125.039ZM125.098 124.563H130.171V33.8272H125.098V124.562V124.563Z" fill="black"/>
<path d="M139.815 125.039H134.266C134.134 125.039 134.027 124.932 134.027 124.8V33.5899C134.027 33.459 134.134 33.3516 134.266 33.3516H139.815C139.947 33.3516 140.054 33.458 140.054 33.5899V124.8C140.054 124.931 139.947 125.039 139.815 125.039ZM134.504 124.563H139.577V33.8272H134.504V124.562V124.563Z" fill="black"/>
<path d="M97.9679 1.89844H77.9688V76.9715H97.9679V1.89844Z" fill="white"/>
<path d="M97.9602 77.1982H77.961C77.829 77.1982 77.7227 77.0918 77.7227 76.9599V1.88679C77.7227 1.75585 77.829 1.64844 77.961 1.64844H97.9602C98.0921 1.64844 98.1985 1.75483 98.1985 1.88679V76.9599C98.1985 77.0908 98.0921 77.1982 97.9602 77.1982ZM78.1994 76.7225H97.7218V2.12514H78.1994V76.7225Z" fill="black"/>
<path d="M94.1278 11.0958H82.1641C82.0322 11.0958 81.9258 10.9894 81.9258 10.8574V5.71492C81.9258 5.58397 82.0322 5.47656 82.1641 5.47656H94.1278C94.2598 5.47656 94.3662 5.58295 94.3662 5.71492V10.8574C94.3662 10.9884 94.2598 11.0958 94.1278 11.0958ZM82.4035 10.6201H93.8905V5.95327H82.4035V10.6201Z" fill="black"/>
<path d="M77.9808 76.9715H69.0625V7.65472L77.9808 1.89844V76.9715Z" fill="white"/>
<path d="M77.977 77.1975H69.0587C68.9267 77.1975 68.8203 77.0911 68.8203 76.9591V7.64236C68.8203 7.56155 68.8612 7.48687 68.9298 7.44288L77.8481 1.6866C77.9207 1.63954 78.0138 1.63545 78.0905 1.67739C78.1672 1.71934 78.2143 1.79913 78.2143 1.88608V76.9591C78.2143 77.0901 78.1079 77.1975 77.9759 77.1975H77.977ZM69.296 76.7218H77.7386V2.32289L69.296 7.77228V76.7218Z" fill="black"/>
<path d="M106.633 14.3828H74.6406V134.481H106.633V14.3828Z" fill="white"/>
<path d="M106.63 134.731H74.6368C74.5048 134.731 74.3984 134.625 74.3984 134.493V14.3946C74.3984 14.2637 74.5048 14.1562 74.6368 14.1562H106.63C106.762 14.1562 106.869 14.2626 106.869 14.3946V134.493C106.869 134.624 106.762 134.731 106.63 134.731ZM74.8751 134.256H106.392V14.633H74.8751V134.256Z" fill="black"/>
<path d="M74.6648 134.481H60.3984V23.5916L74.6648 14.3828V134.481Z" fill="white"/>
<path d="M74.6581 134.731H60.3907C60.2587 134.731 60.1523 134.624 60.1523 134.492V23.6027C60.1523 23.5219 60.1933 23.4462 60.2618 23.4032L74.5292 14.1944C74.6019 14.1474 74.695 14.1433 74.7717 14.1852C74.8484 14.2271 74.8955 14.3069 74.8955 14.3939V134.492C74.8955 134.623 74.7891 134.731 74.6571 134.731H74.6581ZM60.629 134.255H74.4208V14.8307L60.629 23.7326V134.255Z" fill="black"/>
<path d="M101.67 25.9083H78.8477C78.7158 25.9083 78.6094 25.8019 78.6094 25.6699V20.4415C78.6094 20.3105 78.7158 20.2031 78.8477 20.2031H101.67C101.802 20.2031 101.909 20.3095 101.909 20.4415V25.6699C101.909 25.8008 101.802 25.9083 101.67 25.9083ZM79.0861 25.4326H101.433V20.6798H79.0861V25.4326Z" fill="black"/>
<path d="M101.67 36.7754H78.8477C78.7158 36.7754 78.6094 36.6691 78.6094 36.5371V31.3087C78.6094 31.1777 78.7158 31.0703 78.8477 31.0703H101.67C101.802 31.0703 101.909 31.1767 101.909 31.3087V36.5371C101.909 36.668 101.802 36.7754 101.67 36.7754ZM79.0861 36.2998H101.433V31.547H79.0861V36.2998Z" fill="black"/>
<path d="M101.67 47.6348H78.8477C78.7158 47.6348 78.6094 47.5284 78.6094 47.3965V42.168C78.6094 42.0371 78.7158 41.9297 78.8477 41.9297H101.67C101.802 41.9297 101.909 42.0361 101.909 42.168V47.3965C101.909 47.5274 101.802 47.6348 101.67 47.6348ZM79.0861 47.1591H101.433V42.4064H79.0861V47.1591Z" fill="black"/>
<path d="M101.67 58.4786H78.8477C78.7158 58.4786 78.6094 58.3722 78.6094 58.2402V53.0118C78.6094 52.8809 78.7158 52.7734 78.8477 52.7734H101.67C101.802 52.7734 101.909 52.8798 101.909 53.0118V58.2402C101.909 58.3712 101.802 58.4786 101.67 58.4786ZM79.0861 58.0029H101.433V53.2501H79.0861V58.0029Z" fill="black"/>
<path d="M101.67 69.3379H78.8477C78.7158 69.3379 78.6094 69.2316 78.6094 69.0996V63.8712C78.6094 63.7402 78.7158 63.6328 78.8477 63.6328H101.67C101.802 63.6328 101.909 63.7392 101.909 63.8712V69.0996C101.909 69.2305 101.802 69.3379 101.67 69.3379ZM79.0861 68.8623H101.433V64.1095H79.0861V68.8623Z" fill="black"/>
<path d="M101.67 80.2051H78.8477C78.7158 80.2051 78.6094 80.0987 78.6094 79.9668V74.7384C78.6094 74.6074 78.7158 74.5 78.8477 74.5H101.67C101.802 74.5 101.909 74.6064 101.909 74.7384V79.9668C101.909 80.0977 101.802 80.2051 101.67 80.2051ZM79.0861 79.7294H101.433V74.9767H79.0861V79.7294Z" fill="black"/>
<path d="M101.67 91.0489H78.8477C78.7158 91.0489 78.6094 90.9425 78.6094 90.8105V85.5821C78.6094 85.4512 78.7158 85.3438 78.8477 85.3438H101.67C101.802 85.3438 101.909 85.4501 101.909 85.5821V90.8105C101.909 90.9415 101.802 91.0489 101.67 91.0489ZM79.0861 90.5732H101.433V85.8205H79.0861V90.5732Z" fill="black"/>
<path d="M101.666 96.4531H78.8438V101.682H101.666V96.4531Z" fill="white"/>
<path d="M101.67 112.783H78.8477C78.7158 112.783 78.6094 112.677 78.6094 112.545V107.316C78.6094 107.186 78.7158 107.078 78.8477 107.078H101.67C101.802 107.078 101.909 107.185 101.909 107.316V112.545C101.909 112.676 101.802 112.783 101.67 112.783ZM79.0861 112.308H101.433V107.555H79.0861V112.308Z" fill="black"/>
<path d="M101.67 123.627H78.8477C78.7158 123.627 78.6094 123.521 78.6094 123.389V118.16C78.6094 118.029 78.7158 117.922 78.8477 117.922H101.67C101.802 117.922 101.909 118.028 101.909 118.16V123.389C101.909 123.52 101.802 123.627 101.67 123.627ZM79.0861 123.151H101.433V118.399H79.0861V123.151Z" fill="black"/>
<path d="M67.1371 37.9609H35.1445V134.476H67.1371V37.9609Z" fill="white"/>
<path d="M67.1381 134.726H35.1446C35.0126 134.726 34.9062 134.619 34.9062 134.487V37.9727C34.9062 37.8418 35.0126 37.7344 35.1446 37.7344H67.1381C67.2701 37.7344 67.3765 37.8408 67.3765 37.9727V134.487C67.3765 134.618 67.2701 134.726 67.1381 134.726ZM35.383 134.25H66.8998V38.2111H35.383V134.25Z" fill="black"/>
<path d="M35.1698 134.476H20.9023V47.1698L35.1698 37.9609V134.476Z" fill="white"/>
<path d="M35.1659 134.725H20.8985C20.7665 134.725 20.6602 134.618 20.6602 134.486V47.1804C20.6602 47.0996 20.7011 47.0239 20.7696 46.9809L35.037 37.7721C35.1097 37.7251 35.2028 37.722 35.2795 37.7629C35.3562 37.8049 35.4033 37.8847 35.4033 37.9716V134.486C35.4033 134.617 35.2969 134.725 35.1649 134.725H35.1659ZM21.1369 134.249H34.9286V38.4084L21.1369 47.3103V134.249Z" fill="black"/>
<path d="M44.5106 56.4343H38.961C38.829 56.4343 38.7227 56.3279 38.7227 56.196V45.0977C38.7227 44.9668 38.829 44.8594 38.961 44.8594H44.5106C44.6426 44.8594 44.749 44.9658 44.749 45.0977V56.196C44.749 56.3269 44.6426 56.4343 44.5106 56.4343ZM39.1994 55.9586H44.2723V45.3361H39.1994V55.9586Z" fill="black"/>
<path d="M53.9169 56.4343H48.3673C48.2353 56.4343 48.1289 56.3279 48.1289 56.196V45.0977C48.1289 44.9668 48.2353 44.8594 48.3673 44.8594H53.9169C54.0489 44.8594 54.1553 44.9658 54.1553 45.0977V56.196C54.1553 56.3269 54.0489 56.4343 53.9169 56.4343ZM48.6056 55.9586H53.6785V45.3361H48.6056V55.9586Z" fill="black"/>
<path d="M63.3271 56.4343H57.7774C57.6455 56.4343 57.5391 56.3279 57.5391 56.196V45.0977C57.5391 44.9668 57.6455 44.8594 57.7774 44.8594H63.3271C63.459 44.8594 63.5654 44.9658 63.5654 45.0977V56.196C63.5654 56.3269 63.459 56.4343 63.3271 56.4343ZM58.0158 55.9586H63.0887V45.3361H58.0158V55.9586Z" fill="black"/>
<path d="M44.5106 74.739H38.961C38.829 74.739 38.7227 74.6326 38.7227 74.5007V63.4024C38.7227 63.2715 38.829 63.1641 38.961 63.1641H44.5106C44.6426 63.1641 44.749 63.2705 44.749 63.4024V74.5007C44.749 74.6316 44.6426 74.739 44.5106 74.739ZM39.1994 74.2633H44.2723V63.6408H39.1994V74.2633Z" fill="black"/>
<path d="M53.9169 74.739H48.3673C48.2353 74.739 48.1289 74.6326 48.1289 74.5007V63.4024C48.1289 63.2715 48.2353 63.1641 48.3673 63.1641H53.9169C54.0489 63.1641 54.1553 63.2705 54.1553 63.4024V74.5007C54.1553 74.6316 54.0489 74.739 53.9169 74.739ZM48.6056 74.2633H53.6785V63.6408H48.6056V74.2633Z" fill="black"/>
<path d="M63.3271 74.739H57.7774C57.6455 74.739 57.5391 74.6326 57.5391 74.5007V63.4024C57.5391 63.2715 57.6455 63.1641 57.7774 63.1641H63.3271C63.459 63.1641 63.5654 63.2705 63.5654 63.4024V74.5007C63.5654 74.6316 63.459 74.739 63.3271 74.739ZM58.0158 74.2633H63.0887V63.6408H58.0158V74.2633Z" fill="black"/>
<path d="M44.5106 93.0125H38.961C38.829 93.0125 38.7227 92.9061 38.7227 92.7741V81.6759C38.7227 81.5449 38.829 81.4375 38.961 81.4375H44.5106C44.6426 81.4375 44.749 81.5439 44.749 81.6759V92.7741C44.749 92.9051 44.6426 93.0125 44.5106 93.0125ZM39.1994 92.5368H44.2723V81.9142H39.1994V92.5368Z" fill="black"/>
<path d="M44.5106 111.302H38.961C38.829 111.302 38.7227 111.195 38.7227 111.063V99.9649C38.7227 99.834 38.829 99.7266 38.961 99.7266H44.5106C44.6426 99.7266 44.749 99.833 44.749 99.9649V111.063C44.749 111.194 44.6426 111.302 44.5106 111.302ZM39.1994 110.826H44.2723V100.203H39.1994V110.826Z" fill="black"/>
<path d="M53.9169 111.302H48.3673C48.2353 111.302 48.1289 111.195 48.1289 111.063V99.9649C48.1289 99.834 48.2353 99.7266 48.3673 99.7266H53.9169C54.0489 99.7266 54.1553 99.833 54.1553 99.9649V111.063C54.1553 111.194 54.0489 111.302 53.9169 111.302ZM48.6056 110.826H53.6785V100.203H48.6056V110.826Z" fill="black"/>
<path d="M63.327 99.9766H57.7773V111.075H63.327V99.9766Z" fill="white"/>
<path d="M154.533 104.44C148.158 98.5514 140.385 87.9913 149.058 83.8912C152.883 82.0836 155.916 79.3625 156.622 74.8338C157.369 70.0381 156.752 64.6368 162.577 63.6864C166.324 63.0757 170.835 64.4189 173.907 66.6899C182.926 73.3576 185.66 88.1836 180.71 98.2394C176.702 106.382 167.901 112.946 159.235 108.081C158.059 107.421 156.353 106.12 154.532 104.439L154.533 104.44Z" fill="white"/>
<path d="M165.33 109.989C163.21 109.989 161.129 109.421 159.111 108.289C157.864 107.589 156.133 106.249 154.362 104.613C149.358 99.9905 144.276 93.3064 145.027 88.4146C145.343 86.3502 146.663 84.7554 148.947 83.6761C153.339 81.6005 155.77 78.6963 156.378 74.7977C156.505 73.9814 156.594 73.1344 156.68 72.315C157.095 68.3591 157.524 64.2693 162.53 63.4519C166.151 62.8606 170.776 64.0851 174.04 66.4983C178.39 69.7135 181.49 74.9164 182.771 81.1463C184.009 87.1645 183.332 93.4333 180.914 98.3446C178.225 103.807 173.814 107.939 169.114 109.399C167.843 109.794 166.579 109.991 165.33 109.991V109.989ZM154.684 104.264C156.429 105.876 158.128 107.191 159.343 107.874C162.432 109.608 165.673 109.968 168.973 108.943C173.551 107.522 177.855 103.481 180.488 98.1328C185.54 87.8703 182.395 73.2663 173.757 66.8799C170.589 64.5383 166.109 63.3496 162.607 63.9204C157.96 64.6785 157.568 68.4113 157.154 72.3631C157.067 73.1886 156.978 74.0418 156.849 74.8693C156.215 78.9357 153.696 81.9565 149.151 84.1048C147.018 85.1124 145.788 86.5865 145.498 88.4851C144.776 93.1939 149.771 99.7225 154.685 104.262L154.684 104.264Z" fill="black"/>
<path d="M166.024 128.121C165.892 128.121 165.785 128.015 165.785 127.883V89.9805C165.785 89.8496 165.892 89.7422 166.024 89.7422C166.155 89.7422 166.262 89.8486 166.262 89.9805V127.883C166.262 128.014 166.155 128.121 166.024 128.121Z" fill="black"/>
<path d="M165.832 100.107C165.754 100.107 165.676 100.068 165.631 99.9958L160.502 91.857C160.431 91.7455 160.465 91.5992 160.576 91.5286C160.688 91.4591 160.834 91.4918 160.905 91.6033L166.034 99.7421C166.105 99.8536 166.071 99.9999 165.959 100.07C165.919 100.095 165.876 100.107 165.832 100.107Z" fill="black"/>
<path d="M171.633 86.0369C171.595 86.0369 171.555 86.0277 171.519 86.0083C171.403 85.9459 171.36 85.8017 171.424 85.6861L175.215 78.7104C175.278 78.5948 175.423 78.5518 175.537 78.6153C175.653 78.6777 175.696 78.8219 175.632 78.9375L171.841 85.9132C171.798 85.993 171.716 86.0369 171.632 86.0369H171.633Z" fill="black"/>
<path d="M173.64 97.1312C173.57 97.1312 173.499 97.0995 173.452 97.0392C173.371 96.9348 173.391 96.7855 173.495 96.7057L177.398 93.6828C177.501 93.602 177.652 93.6214 177.731 93.7247C177.812 93.8291 177.793 93.9784 177.688 94.0582L173.786 97.0811C173.743 97.1149 173.692 97.1312 173.64 97.1312Z" fill="black"/>
<path d="M175.007 137.077C177.325 133.985 179.627 130.654 181.813 127.086H3.08233C2.13608 130.654 1.47013 133.985 1.24609 137.077H175.007Z" fill="white"/>
<path d="M181.601 127.445H3.18757C3.05561 127.445 2.94922 127.339 2.94922 127.207C2.94922 127.075 3.05561 126.969 3.18757 126.969H181.601C181.733 126.969 181.839 127.075 181.839 127.207C181.839 127.339 181.733 127.445 181.601 127.445Z" fill="black"/>
<path d="M156.948 55.7795C172.308 55.7795 184.76 43.3278 184.76 27.9679C184.76 12.6079 172.308 0.15625 156.948 0.15625C141.588 0.15625 129.137 12.6079 129.137 27.9679C129.137 43.3278 141.588 55.7795 156.948 55.7795Z" fill="black"/>
<path d="M174.644 45.7174C184.438 35.9237 184.438 20.045 174.644 10.2514C164.851 0.457727 148.972 0.457728 139.178 10.2514C129.385 20.045 129.385 35.9237 139.178 45.7174C148.972 55.511 164.851 55.511 174.644 45.7174Z" fill="white"/>
<path d="M176.867 41.6347C176.821 41.6347 176.775 41.6214 176.734 41.5938C176.624 41.5201 176.597 41.3728 176.669 41.2634C177.387 40.2005 178.023 39.0732 178.558 37.9121C178.613 37.7924 178.753 37.7402 178.874 37.7955C178.992 37.8507 179.046 37.9919 178.99 38.1116C178.444 39.2962 177.797 40.446 177.064 41.5304C177.018 41.5989 176.943 41.6347 176.867 41.6347Z" fill="black"/>
<path d="M180.707 31.7631C180.696 31.7631 180.684 31.7631 180.672 31.761C180.542 31.7416 180.452 31.6209 180.472 31.491C180.644 30.334 180.731 29.1484 180.731 27.9679C180.731 18.9125 175.462 10.5067 167.31 6.55392C167.192 6.49664 167.142 6.35444 167.2 6.23578C167.257 6.11814 167.399 6.06801 167.518 6.1253C171.559 8.08532 174.976 11.1246 177.401 14.9157C179.891 18.8102 181.207 23.3236 181.207 27.9679C181.207 29.1709 181.118 30.38 180.943 31.5605C180.926 31.6782 180.824 31.7631 180.708 31.7631H180.707Z" fill="black"/>
<path d="M150.976 4.93892C150.87 4.93892 150.773 4.86731 150.746 4.7599C150.713 4.63305 150.79 4.50313 150.918 4.4704C154.607 3.52721 158.574 3.47095 162.29 4.3057C162.418 4.33434 162.499 4.46221 162.47 4.59009C162.442 4.71796 162.316 4.79877 162.186 4.77013C158.543 3.95175 154.653 4.00699 151.036 4.93176C151.017 4.93687 150.996 4.93892 150.977 4.93892H150.976Z" fill="black"/>
<path d="M134.957 18.5264C134.925 18.5264 134.893 18.5203 134.861 18.5059C134.74 18.4527 134.686 18.3126 134.739 18.1919C135.908 15.5383 137.532 13.1353 139.564 11.0484C139.656 10.9543 139.806 10.9523 139.9 11.0444C139.994 11.1364 139.996 11.2868 139.905 11.3809C137.913 13.4269 136.323 15.7828 135.176 18.3842C135.137 18.4732 135.049 18.5264 134.958 18.5264H134.957Z" fill="black"/>
<path d="M144.104 48.5175C144.062 48.5175 144.017 48.5053 143.978 48.4807C141.927 47.1815 140.084 45.5847 138.503 43.7361C138.417 43.6359 138.429 43.4865 138.528 43.4006C138.627 43.3157 138.779 43.327 138.864 43.4272C140.415 45.2399 142.221 46.8051 144.232 48.0787C144.344 48.1493 144.377 48.2955 144.306 48.4071C144.261 48.4787 144.183 48.5175 144.104 48.5175Z" fill="black"/>
<path d="M157.455 7.64976C158.122 7.37345 158.438 6.60869 158.162 5.94161C157.886 5.27454 157.121 4.95776 156.454 5.23407C155.787 5.51038 155.47 6.27515 155.746 6.94222C156.023 7.60929 156.787 7.92607 157.455 7.64976Z" fill="white"/>
<path d="M156.943 7.98782C156.091 7.98782 155.398 7.29425 155.398 6.44313C155.398 5.59201 156.092 4.89844 156.943 4.89844C157.794 4.89844 158.488 5.59201 158.488 6.44313C158.488 7.29425 157.794 7.98782 156.943 7.98782ZM156.943 5.37412C156.354 5.37412 155.874 5.8539 155.874 6.44313C155.874 7.03236 156.354 7.51214 156.943 7.51214C157.532 7.51214 158.012 7.03236 158.012 6.44313C158.012 5.8539 157.532 5.37412 156.943 5.37412Z" fill="black"/>
<path d="M157.457 50.6815C158.123 50.403 158.437 49.6372 158.159 48.971C157.88 48.3048 157.115 47.9906 156.448 48.2691C155.782 48.5477 155.468 49.3135 155.746 49.9796C156.025 50.6458 156.791 50.96 157.457 50.6815Z" fill="white"/>
<path d="M156.943 51.0347C156.091 51.0347 155.398 50.3411 155.398 49.49C155.398 48.6389 156.092 47.9453 156.943 47.9453C157.794 47.9453 158.488 48.6389 158.488 49.49C158.488 50.3411 157.794 51.0347 156.943 51.0347ZM156.943 48.421C156.354 48.421 155.874 48.9008 155.874 49.49C155.874 50.0792 156.354 50.559 156.943 50.559C157.532 50.559 158.012 50.0792 158.012 49.49C158.012 48.9008 157.532 48.421 156.943 48.421Z" fill="black"/>
<path d="M135.428 26.6562C136.151 26.6562 136.736 27.2414 136.736 27.9636C136.736 28.6858 136.151 29.271 135.428 29.271C134.706 29.271 134.121 28.6858 134.121 27.9636C134.121 27.2414 134.706 26.6562 135.428 26.6562Z" fill="white"/>
<path d="M135.431 29.5034C134.579 29.5034 133.887 28.8099 133.887 27.9588C133.887 27.1076 134.58 26.4141 135.431 26.4141C136.283 26.4141 136.976 27.1076 136.976 27.9588C136.976 28.8099 136.283 29.5034 135.431 29.5034ZM135.431 26.8887C134.842 26.8887 134.362 27.3685 134.362 27.9577C134.362 28.547 134.842 29.0267 135.431 29.0267C136.021 29.0267 136.5 28.547 136.5 27.9577C136.5 27.3685 136.021 26.8887 135.431 26.8887Z" fill="black"/>
<path d="M178.471 29.271C179.193 29.271 179.779 28.6856 179.779 27.9636C179.779 27.2416 179.193 26.6562 178.471 26.6562C177.749 26.6562 177.164 27.2416 177.164 27.9636C177.164 28.6856 177.749 29.271 178.471 29.271Z" fill="white"/>
<path d="M178.467 29.5034C177.614 29.5034 176.922 28.8099 176.922 27.9588C176.922 27.1076 177.614 26.4141 178.467 26.4141C179.319 26.4141 180.011 27.1076 180.011 27.9588C180.011 28.8099 179.318 29.5034 178.467 29.5034ZM178.467 26.8887C177.877 26.8887 177.398 27.3685 177.398 27.9577C177.398 28.547 177.877 29.0267 178.467 29.0267C179.056 29.0267 179.536 28.547 179.536 27.9577C179.536 27.3685 179.056 26.8887 178.467 26.8887Z" fill="black"/>
<path d="M146.787 8.98087C146.979 9.31333 146.864 9.73889 146.532 9.93121C146.199 10.1235 145.774 10.009 145.582 9.67649C145.389 9.34402 145.504 8.91847 145.836 8.72615C146.169 8.53383 146.594 8.6484 146.787 8.98087Z" fill="white"/>
<path d="M146.189 10.2659C145.866 10.2659 145.552 10.0981 145.379 9.79942C145.254 9.58357 145.222 9.33192 145.286 9.0905C145.351 8.84908 145.505 8.64857 145.721 8.52377C145.937 8.39897 146.188 8.36623 146.429 8.43068C146.669 8.49513 146.871 8.6496 146.996 8.86545C147.12 9.08129 147.153 9.33294 147.089 9.57334C147.024 9.81374 146.87 10.0153 146.654 10.1401C146.508 10.225 146.347 10.2649 146.188 10.2649L146.189 10.2659ZM146.187 8.87465C146.109 8.87465 146.03 8.89511 145.959 8.93603C145.853 8.99741 145.777 9.09561 145.746 9.21428C145.715 9.33192 145.731 9.4557 145.793 9.56209C145.918 9.78101 146.2 9.85671 146.418 9.72986C146.524 9.66848 146.6 9.57027 146.63 9.45161C146.662 9.33397 146.646 9.21019 146.584 9.1038C146.523 8.99741 146.425 8.92171 146.306 8.89102C146.267 8.88079 146.226 8.87567 146.187 8.87567V8.87465Z" fill="black"/>
<path d="M137.961 38.1324C138.294 37.9401 138.719 38.0546 138.912 38.3871C139.104 38.7196 138.989 39.1451 138.657 39.3375C138.324 39.5298 137.899 39.4152 137.707 39.0827C137.514 38.7503 137.629 38.3247 137.961 38.1324Z" fill="white"/>
<path d="M138.31 39.6553C138.229 39.6553 138.147 39.6451 138.066 39.6236C137.826 39.5591 137.624 39.4047 137.5 39.1888C137.243 38.7428 137.395 38.171 137.841 37.9142C138.287 37.6564 138.859 37.8098 139.117 38.2559C139.375 38.7019 139.221 39.2737 138.775 39.5305C138.631 39.6133 138.472 39.6563 138.31 39.6563V39.6553ZM138.308 38.263C138.23 38.263 138.151 38.2825 138.08 38.3244C137.861 38.4502 137.786 38.7315 137.912 38.9494C137.973 39.0548 138.072 39.1305 138.19 39.1622C138.308 39.1939 138.432 39.1776 138.538 39.1162C138.757 38.9904 138.832 38.709 138.706 38.4911C138.621 38.3449 138.467 38.262 138.309 38.262L138.308 38.263Z" fill="black"/>
<path d="M175.231 16.609C175.563 16.4166 175.989 16.5312 176.181 16.8637C176.374 17.1961 176.259 17.6217 175.926 17.814C175.594 18.0063 175.168 17.8918 174.976 17.5593C174.784 17.2268 174.898 16.8013 175.231 16.609Z" fill="white"/>
<path d="M175.588 18.1413C175.507 18.1413 175.425 18.131 175.344 18.1085C175.104 18.0441 174.902 17.8896 174.777 17.6738C174.52 17.2277 174.673 16.6559 175.119 16.3981C175.565 16.1413 176.137 16.2938 176.395 16.7398C176.52 16.9556 176.552 17.2073 176.488 17.4477C176.423 17.6881 176.269 17.8896 176.053 18.0144C175.909 18.0973 175.749 18.1402 175.588 18.1402V18.1413ZM175.356 16.8114C175.138 16.9372 175.063 17.2185 175.189 17.4364C175.25 17.5418 175.348 17.6175 175.467 17.6492C175.585 17.6809 175.708 17.6646 175.815 17.6032C176.034 17.4773 176.108 17.196 175.983 16.9781C175.857 16.7592 175.576 16.6845 175.358 16.8104L175.356 16.8114Z" fill="black"/>
<path d="M138.657 16.609C138.989 16.8013 139.104 17.2268 138.912 17.5593C138.719 17.8918 138.294 18.0063 137.961 17.814C137.629 17.6217 137.514 17.1961 137.707 16.8637C137.899 16.5312 138.324 16.4166 138.657 16.609Z" fill="white"/>
<path d="M138.307 18.1399C138.149 18.1399 137.989 18.1 137.842 18.0151C137.396 17.7583 137.242 17.1854 137.5 16.7404C137.625 16.5246 137.826 16.3701 138.067 16.3057C138.308 16.2412 138.559 16.274 138.775 16.3988C139.221 16.6566 139.374 17.2284 139.116 17.6744C138.944 17.9731 138.629 18.1409 138.306 18.1409L138.307 18.1399ZM138.31 16.7476C138.27 16.7476 138.231 16.7527 138.191 16.763C138.072 16.7947 137.974 16.8704 137.912 16.9757C137.787 17.1946 137.861 17.4749 138.08 17.6008C138.298 17.7266 138.579 17.6519 138.705 17.433C138.831 17.2141 138.756 16.9338 138.537 16.808C138.467 16.767 138.388 16.7466 138.309 16.7466L138.31 16.7476Z" fill="black"/>
<path d="M175.926 38.1324C176.259 38.3247 176.374 38.7503 176.181 39.0827C175.989 39.4152 175.563 39.5298 175.231 39.3375C174.898 39.1451 174.784 38.7196 174.976 38.3871C175.168 38.0546 175.594 37.9401 175.926 38.1324Z" fill="white"/>
<path d="M175.585 39.6565C175.426 39.6565 175.265 39.6166 175.119 39.5317C174.673 39.2739 174.52 38.7021 174.777 38.2561C174.902 38.0402 175.104 37.8858 175.344 37.8213C175.585 37.7569 175.836 37.7896 176.052 37.9144C176.268 38.0392 176.422 38.2407 176.487 38.4811C176.551 38.7215 176.519 38.9732 176.394 39.189C176.221 39.4877 175.907 39.6555 175.584 39.6555L175.585 39.6565ZM175.587 38.2653C175.547 38.2653 175.507 38.2704 175.468 38.2806C175.349 38.3123 175.251 38.388 175.19 38.4934C175.064 38.7123 175.139 38.9926 175.358 39.1184C175.576 39.2443 175.857 39.1696 175.983 38.9507C176.109 38.7318 176.034 38.4515 175.815 38.3256C175.744 38.2847 175.665 38.2643 175.587 38.2643V38.2653Z" fill="black"/>
<path d="M145.586 46.2465C145.778 45.914 146.203 45.7995 146.536 45.9918C146.868 46.1841 146.983 46.6096 146.791 46.9421C146.598 47.2746 146.173 47.3892 145.84 47.1968C145.508 47.0045 145.393 46.579 145.586 46.2465Z" fill="white"/>
<path d="M146.186 47.5465C146.028 47.5465 145.868 47.5066 145.721 47.4217C145.275 47.1639 145.121 46.592 145.379 46.146C145.637 45.7 146.209 45.5476 146.655 45.8044C146.871 45.9292 147.025 46.1307 147.089 46.3711C147.154 46.6115 147.121 46.8631 146.996 47.079C146.823 47.3777 146.509 47.5455 146.186 47.5455V47.5465ZM145.791 46.3844C145.665 46.6033 145.74 46.8836 145.959 47.0094C146.177 47.1352 146.458 47.0606 146.584 46.8417C146.645 46.7363 146.662 46.6125 146.63 46.4949C146.598 46.3772 146.523 46.278 146.417 46.2166C146.198 46.0908 145.918 46.1655 145.792 46.3844H145.791Z" fill="black"/>
<path d="M167.105 8.98087C167.297 8.6484 167.723 8.53383 168.055 8.72615C168.388 8.91847 168.502 9.34402 168.31 9.67649C168.118 10.009 167.692 10.1235 167.36 9.93121C167.027 9.73889 166.913 9.31333 167.105 8.98087Z" fill="white"/>
<path d="M167.702 10.2649C167.543 10.2649 167.384 10.225 167.237 10.1401C167.021 10.0153 166.866 9.81374 166.802 9.57334C166.737 9.33294 166.77 9.08129 166.895 8.86544C167.02 8.6496 167.221 8.49513 167.462 8.43068C167.702 8.36623 167.954 8.39897 168.169 8.52377C168.385 8.64857 168.54 8.84908 168.604 9.0905C168.669 9.3309 168.636 9.58255 168.511 9.79942C168.338 10.0981 168.024 10.2659 167.701 10.2659L167.702 10.2649ZM167.704 8.87363C167.664 8.87363 167.624 8.87874 167.585 8.88897C167.468 8.92069 167.369 8.99639 167.307 9.10175C167.246 9.20712 167.229 9.3309 167.261 9.44956C167.293 9.56721 167.369 9.66643 167.474 9.72781C167.692 9.85364 167.973 9.77896 168.099 9.56004C168.16 9.45366 168.177 9.3309 168.145 9.21223C168.113 9.09459 168.038 8.99536 167.932 8.93398C167.862 8.89307 167.783 8.87261 167.704 8.87261V8.87363Z" fill="black"/>
<path d="M167.105 46.5824C167.297 46.25 167.723 46.1354 168.055 46.3277C168.388 46.52 168.502 46.9456 168.31 47.2781C168.118 47.6105 167.692 47.7251 167.36 47.5328C167.027 47.3405 166.913 46.9149 167.105 46.5824Z" fill="white"/>
<path d="M167.702 47.8683C167.54 47.8683 167.381 47.8263 167.237 47.7424C167.021 47.6176 166.866 47.4171 166.802 47.1757C166.737 46.9353 166.77 46.6837 166.895 46.4668C167.153 46.0208 167.724 45.8673 168.169 46.1251C168.385 46.2499 168.54 46.4515 168.604 46.6919C168.669 46.9323 168.636 47.1839 168.511 47.3998C168.386 47.6156 168.185 47.7701 167.944 47.8345C167.864 47.856 167.783 47.8662 167.701 47.8662L167.702 47.8683ZM167.307 46.7052C167.246 46.8115 167.229 46.9343 167.261 47.053C167.293 47.1706 167.369 47.2698 167.474 47.3312C167.58 47.3926 167.703 47.409 167.821 47.3772C167.938 47.3455 168.038 47.2698 168.099 47.1645C168.16 47.0581 168.177 46.9353 168.145 46.8177C168.113 46.7 168.038 46.6008 167.932 46.5394C167.714 46.4126 167.433 46.4883 167.307 46.7072V46.7052Z" fill="black"/>
<path d="M164.744 31.0414C158.191 29.8905 156.488 28.8839 156.638 28.0379C156.786 27.1919 158.73 26.8257 165.283 27.9766C169.967 28.799 175.663 30.6066 178.53 31.5713C178.968 31.7186 178.885 32.1881 178.424 32.1769C175.399 32.1063 169.429 31.8649 164.745 31.0414H164.744Z" fill="white"/>
<path d="M178.437 32.4217C178.43 32.4217 178.423 32.4217 178.416 32.4217C175.299 32.3491 169.373 32.1036 164.701 31.2832C157.069 29.9431 156.256 28.827 156.401 28.0045C156.546 27.182 157.69 26.4097 165.322 27.7498C169.994 28.5702 175.649 30.3594 178.604 31.3537C178.965 31.4755 179.086 31.7568 179.047 31.9829C179.008 32.2038 178.805 32.4238 178.438 32.4238L178.437 32.4217ZM158.955 27.491C157.324 27.491 156.917 27.8112 156.869 28.0864C156.784 28.5712 157.698 29.5707 164.782 30.8146C169.424 31.6299 175.322 31.8734 178.426 31.946C178.527 31.946 178.574 31.9143 178.576 31.899C178.578 31.8836 178.547 31.8356 178.451 31.8039C175.508 30.8146 169.879 29.0336 165.238 28.2183C162.167 27.6792 160.202 27.491 158.954 27.491H158.955Z" fill="black"/>
<path d="M161.052 22.2681C159.828 26.3191 158.642 27.1897 157.599 26.8746C156.556 26.5595 156.05 25.1775 157.274 21.1265C158.148 18.2315 160.202 14.917 161.302 13.2619C161.47 13.0092 162.049 13.1841 162.049 13.4869C162.049 15.4746 161.926 19.3711 161.052 22.2671V22.2681Z" fill="white"/>
<path d="M157.985 27.1917C157.835 27.1917 157.685 27.1682 157.53 27.1222C156.853 26.9176 156.455 26.3549 156.35 25.4486C156.233 24.445 156.46 23.0149 157.046 21.0774C157.923 18.1701 159.965 14.8628 161.104 13.1504C161.24 12.9458 161.516 12.8701 161.806 12.958C162.098 13.046 162.285 13.2619 162.285 13.5074C162.285 15.5646 162.155 19.4488 161.278 22.3561C160.298 25.601 159.216 27.1917 157.983 27.1917H157.985ZM161.572 13.3979C161.533 13.3979 161.507 13.4061 161.501 13.4133C160.376 15.1042 158.362 18.3655 157.502 21.2145C156.944 23.063 156.715 24.4686 156.824 25.3933C156.906 26.1033 157.183 26.5196 157.669 26.6659C158.77 26.9984 159.832 25.5028 160.824 22.218C161.685 19.3701 161.813 15.538 161.812 13.5064C161.81 13.491 161.764 13.4409 161.67 13.4122C161.633 13.401 161.6 13.3969 161.573 13.3969L161.572 13.3979Z" fill="black"/>
<path d="M159.875 28.4444C160.23 26.9558 159.312 25.4607 157.823 25.105C156.335 24.7493 154.84 25.6676 154.484 27.1562C154.128 28.6448 155.047 30.1399 156.535 30.4957C158.024 30.8514 159.519 29.933 159.875 28.4444Z" fill="white"/>
<path d="M157.184 30.7984C155.525 30.7984 154.176 29.4481 154.176 27.7898C154.176 26.1316 155.525 24.7812 157.184 24.7812C158.844 24.7812 160.194 26.1316 160.194 27.7898C160.194 29.4481 158.844 30.7984 157.184 30.7984ZM157.184 25.2559C155.788 25.2559 154.651 26.3924 154.651 27.7888C154.651 29.1852 155.788 30.3217 157.184 30.3217C158.581 30.3217 159.717 29.1852 159.717 27.7888C159.717 26.3924 158.581 25.2559 157.184 25.2559Z" fill="black"/>
<path d="M36.8887 20.2193C36.6646 20.2193 36.4396 20.1773 36.2237 20.0935C35.7552 19.9114 35.3859 19.5533 35.1844 19.0858C34.7721 18.1314 35.1997 17.0122 36.1368 16.5918C36.5889 16.3893 37.0912 16.376 37.5516 16.555C38.0201 16.7371 38.3904 17.0951 38.5919 17.5626C39.0032 18.517 38.5766 19.6362 37.6395 20.0566C37.3991 20.1651 37.1444 20.2193 36.8887 20.2193ZM36.8876 16.9059C36.6984 16.9059 36.5102 16.9458 36.3322 17.0255C35.6314 17.3406 35.3123 18.1805 35.6212 18.8976C35.7726 19.2474 36.0478 19.5144 36.3966 19.6505C36.7383 19.7835 37.1107 19.7733 37.4452 19.6239C38.1459 19.3088 38.4651 18.469 38.1561 17.7519C38.0047 17.402 37.7296 17.135 37.3807 16.999C37.2211 16.9365 37.0544 16.9059 36.8887 16.9059H36.8876Z" fill="black"/>
<path d="M122.363 2.29862C122.231 2.29862 122.125 2.19224 122.125 2.06027V0.238353C122.125 0.107412 122.231 0 122.363 0C122.495 0 122.602 0.106389 122.602 0.238353V2.06129C122.602 2.19224 122.495 2.29965 122.363 2.29965V2.29862Z" fill="black"/>
<path d="M122.363 6.53402C122.231 6.53402 122.125 6.42763 122.125 6.29567V4.47273C122.125 4.34179 122.231 4.23438 122.363 4.23438C122.495 4.23438 122.602 4.34076 122.602 4.47273V6.29567C122.602 6.42661 122.495 6.53402 122.363 6.53402Z" fill="black"/>
<path d="M121.151 3.51577H119.328C119.196 3.51577 119.09 3.40938 119.09 3.27742C119.09 3.14545 119.196 3.03906 119.328 3.03906H121.151C121.283 3.03906 121.389 3.14545 121.389 3.27742C121.389 3.40938 121.283 3.51577 121.151 3.51577Z" fill="black"/>
<path d="M125.397 3.51577H123.574C123.442 3.51577 123.336 3.40938 123.336 3.27742C123.336 3.14545 123.442 3.03906 123.574 3.03906H125.397C125.529 3.03906 125.636 3.14545 125.636 3.27742C125.636 3.40938 125.529 3.51577 125.397 3.51577Z" fill="black"/>
<path d="M45.0001 10.0106C44.8681 10.0106 44.7617 9.9042 44.7617 9.77223V7.94929C44.7617 7.81835 44.8681 7.71094 45.0001 7.71094C45.132 7.71094 45.2384 7.81733 45.2384 7.94929V9.77223C45.2384 9.90317 45.132 10.0106 45.0001 10.0106Z" fill="black"/>
<path d="M45.0001 14.2684C44.8681 14.2684 44.7617 14.162 44.7617 14.03V12.2071C44.7617 12.0762 44.8681 11.9688 45.0001 11.9688C45.132 11.9688 45.2384 12.0751 45.2384 12.2071V14.03C45.2384 14.161 45.132 14.2684 45.0001 14.2684Z" fill="black"/>
<path d="M43.7879 11.2189H41.9649C41.833 11.2189 41.7266 11.1125 41.7266 10.9805C41.7266 10.8486 41.833 10.7422 41.9649 10.7422H43.7879C43.9198 10.7422 44.0262 10.8486 44.0262 10.9805C44.0262 11.1125 43.9198 11.2189 43.7879 11.2189Z" fill="black"/>
<path d="M48.034 11.2189H46.211C46.079 11.2189 45.9727 11.1125 45.9727 10.9805C45.9727 10.8486 46.079 10.7422 46.211 10.7422H48.034C48.1659 10.7422 48.2723 10.8486 48.2723 10.9805C48.2723 11.1125 48.1659 11.2189 48.034 11.2189Z" fill="black"/>
</g>
<defs>
<clipPath id="clip0_744_3009">
<rect width="184.757" height="137.077" fill="white"/>
</clipPath>
</defs>
</svg>
