<svg width="21" height="21" viewBox="0 0 21 21" fill="none" xmlns="http://www.w3.org/2000/svg">
<g clip-path="url(#clip0_1101_13099)">
<path d="M10.9638 1.66781L1.80547 0.276147C1.38047 0.209481 0.947135 0.326147 0.622135 0.601147C0.297135 0.884481 0.105469 1.29281 0.105469 1.71781V19.2761C0.105469 19.7345 0.480469 20.1095 0.938802 20.1095H3.64714V15.7345C3.64714 14.9261 4.29714 14.2761 5.10547 14.2761H7.1888C7.99714 14.2761 8.64713 14.9261 8.64713 15.7345V20.1095H12.1888V3.10948C12.1888 2.39281 11.6721 1.78448 10.9638 1.66781ZM4.6888 12.4011H3.4388C3.27304 12.4011 3.11407 12.3353 2.99686 12.2181C2.87965 12.1009 2.8138 11.9419 2.8138 11.7761C2.8138 11.6104 2.87965 11.4514 2.99686 11.3342C3.11407 11.217 3.27304 11.1511 3.4388 11.1511H4.6888C4.85456 11.1511 5.01353 11.217 5.13074 11.3342C5.24795 11.4514 5.3138 11.6104 5.3138 11.7761C5.3138 11.9419 5.24795 12.1009 5.13074 12.2181C5.01353 12.3353 4.85456 12.4011 4.6888 12.4011ZM4.6888 9.90115H3.4388C3.27304 9.90115 3.11407 9.8353 2.99686 9.71809C2.87965 9.60088 2.8138 9.44191 2.8138 9.27615C2.8138 9.11039 2.87965 8.95142 2.99686 8.83421C3.11407 8.717 3.27304 8.65115 3.4388 8.65115H4.6888C4.85456 8.65115 5.01353 8.717 5.13074 8.83421C5.24795 8.95142 5.3138 9.11039 5.3138 9.27615C5.3138 9.44191 5.24795 9.60088 5.13074 9.71809C5.01353 9.8353 4.85456 9.90115 4.6888 9.90115ZM4.6888 7.40115H3.4388C3.27304 7.40115 3.11407 7.3353 2.99686 7.21809C2.87965 7.10088 2.8138 6.94191 2.8138 6.77615C2.8138 6.61039 2.87965 6.45142 2.99686 6.33421C3.11407 6.217 3.27304 6.15115 3.4388 6.15115H4.6888C4.85456 6.15115 5.01353 6.217 5.13074 6.33421C5.24795 6.45142 5.3138 6.61039 5.3138 6.77615C5.3138 6.94191 5.24795 7.10088 5.13074 7.21809C5.01353 7.3353 4.85456 7.40115 4.6888 7.40115ZM4.6888 4.90115H3.4388C3.27304 4.90115 3.11407 4.8353 2.99686 4.71809C2.87965 4.60088 2.8138 4.44191 2.8138 4.27615C2.8138 4.11039 2.87965 3.95142 2.99686 3.83421C3.11407 3.717 3.27304 3.65115 3.4388 3.65115H4.6888C4.85456 3.65115 5.01353 3.717 5.13074 3.83421C5.24795 3.95142 5.3138 4.11039 5.3138 4.27615C5.3138 4.44191 5.24795 4.60088 5.13074 4.71809C5.01353 4.8353 4.85456 4.90115 4.6888 4.90115ZM8.85547 12.4011H7.60547C7.43971 12.4011 7.28074 12.3353 7.16353 12.2181C7.04632 12.1009 6.98047 11.9419 6.98047 11.7761C6.98047 11.6104 7.04632 11.4514 7.16353 11.3342C7.28074 11.217 7.43971 11.1511 7.60547 11.1511H8.85547C9.02123 11.1511 9.1802 11.217 9.29741 11.3342C9.41462 11.4514 9.48047 11.6104 9.48047 11.7761C9.48047 11.9419 9.41462 12.1009 9.29741 12.2181C9.1802 12.3353 9.02123 12.4011 8.85547 12.4011ZM8.85547 9.90115H7.60547C7.43971 9.90115 7.28074 9.8353 7.16353 9.71809C7.04632 9.60088 6.98047 9.44191 6.98047 9.27615C6.98047 9.11039 7.04632 8.95142 7.16353 8.83421C7.28074 8.717 7.43971 8.65115 7.60547 8.65115H8.85547C9.02123 8.65115 9.1802 8.717 9.29741 8.83421C9.41462 8.95142 9.48047 9.11039 9.48047 9.27615C9.48047 9.44191 9.41462 9.60088 9.29741 9.71809C9.1802 9.8353 9.02123 9.90115 8.85547 9.90115ZM8.85547 7.40115H7.60547C7.43971 7.40115 7.28074 7.3353 7.16353 7.21809C7.04632 7.10088 6.98047 6.94191 6.98047 6.77615C6.98047 6.61039 7.04632 6.45142 7.16353 6.33421C7.28074 6.217 7.43971 6.15115 7.60547 6.15115H8.85547C9.02123 6.15115 9.1802 6.217 9.29741 6.33421C9.41462 6.45142 9.48047 6.61039 9.48047 6.77615C9.48047 6.94191 9.41462 7.10088 9.29741 7.21809C9.1802 7.3353 9.02123 7.40115 8.85547 7.40115ZM8.85547 4.90115H7.60547C7.43971 4.90115 7.28074 4.8353 7.16353 4.71809C7.04632 4.60088 6.98047 4.44191 6.98047 4.27615C6.98047 4.11039 7.04632 3.95142 7.16353 3.83421C7.28074 3.717 7.43971 3.65115 7.60547 3.65115H8.85547C9.02123 3.65115 9.1802 3.717 9.29741 3.83421C9.41462 3.95142 9.48047 4.11039 9.48047 4.27615C9.48047 4.44191 9.41462 4.60088 9.29741 4.71809C9.1802 4.8353 9.02123 4.90115 8.85547 4.90115ZM18.9555 9.14448L13.0221 7.90198V20.1095H18.6471C19.4513 20.1095 20.1055 19.4553 20.1055 18.6511V10.5695C20.1055 9.88115 19.6363 9.29531 18.9555 9.14448ZM16.9805 17.6095H15.7305C15.5647 17.6095 15.4057 17.5436 15.2885 17.4264C15.1713 17.3092 15.1055 17.1502 15.1055 16.9845C15.1055 16.8187 15.1713 16.6597 15.2885 16.5425C15.4057 16.4253 15.5647 16.3595 15.7305 16.3595H16.9805C17.1462 16.3595 17.3052 16.4253 17.4224 16.5425C17.5396 16.6597 17.6055 16.8187 17.6055 16.9845C17.6055 17.1502 17.5396 17.3092 17.4224 17.4264C17.3052 17.5436 17.1462 17.6095 16.9805 17.6095ZM16.9805 15.1095H15.7305C15.5647 15.1095 15.4057 15.0436 15.2885 14.9264C15.1713 14.8092 15.1055 14.6502 15.1055 14.4845C15.1055 14.3187 15.1713 14.1597 15.2885 14.0425C15.4057 13.9253 15.5647 13.8595 15.7305 13.8595H16.9805C17.1462 13.8595 17.3052 13.9253 17.4224 14.0425C17.5396 14.1597 17.6055 14.3187 17.6055 14.4845C17.6055 14.6502 17.5396 14.8092 17.4224 14.9264C17.3052 15.0436 17.1462 15.1095 16.9805 15.1095ZM16.9805 12.6095H15.7305C15.5647 12.6095 15.4057 12.5436 15.2885 12.4264C15.1713 12.3092 15.1055 12.1502 15.1055 11.9845C15.1055 11.8187 15.1713 11.6598 15.2885 11.5425C15.4057 11.4253 15.5647 11.3595 15.7305 11.3595H16.9805C17.1462 11.3595 17.3052 11.4253 17.4224 11.5425C17.5396 11.6598 17.6055 11.8187 17.6055 11.9845C17.6055 12.1502 17.5396 12.3092 17.4224 12.4264C17.3052 12.5436 17.1462 12.6095 16.9805 12.6095Z" fill="white"/>
</g>
<defs>
<clipPath id="clip0_1101_13099">
<rect width="20" height="20" fill="white" transform="translate(0.105469 0.109375)"/>
</clipPath>
</defs>
</svg>
