<svg width="184" height="137" viewBox="0 0 184 137" fill="none" xmlns="http://www.w3.org/2000/svg">
<path d="M27.8567 106.737C34.2319 100.848 42.0045 90.2881 33.3317 86.1881C29.5068 84.3805 26.4737 81.6593 25.7678 77.1306C25.02 72.3349 25.6379 66.9336 19.812 65.9833C16.0659 65.3726 11.5546 66.7157 8.4826 68.9867C-0.536974 75.6565 -3.27139 90.4815 1.67879 100.537C5.68681 108.68 14.4875 115.244 23.1531 110.379C24.3295 109.719 26.0358 108.418 27.8567 106.737Z" fill="white"/>
<path d="M17.046 112.278C15.797 112.278 14.5336 112.081 13.262 111.686C8.5625 110.227 4.15041 106.094 1.46203 100.632C-0.95526 95.7223 -1.63145 89.4535 -0.393647 83.4354C0.887118 77.2055 3.98878 72.0036 8.33745 68.7874C11.6007 66.3742 16.2266 65.1497 19.8469 65.741C24.8534 66.5573 25.282 70.6482 25.6973 74.604C25.7833 75.4234 25.8723 76.2705 25.9991 77.0868C26.6078 80.9854 29.0384 83.8896 33.43 85.9652C35.7143 87.0455 37.0339 88.6393 37.35 90.7036C38.0999 95.5965 33.0198 102.28 28.0144 106.903C26.2426 108.54 24.5117 109.879 23.2657 110.579C21.2474 111.711 19.1656 112.279 17.046 112.279V112.278ZM17.9442 66.0683C14.8078 66.0683 11.2591 67.2192 8.62081 69.17C-0.0171917 75.5554 -3.16284 90.1594 1.88963 100.423C4.52175 105.771 8.82643 109.812 13.4042 111.233C16.7054 112.258 19.9451 111.898 23.0345 110.164C24.2498 109.481 25.948 108.166 27.6932 106.554C32.6086 102.014 37.6027 95.484 36.8815 90.7762C36.59 88.8776 35.3614 87.4035 33.2285 86.3959C28.6834 84.2476 26.1648 81.2268 25.5306 77.1605C25.4017 76.3318 25.3117 75.4787 25.2257 74.6542C24.8114 70.7024 24.4196 66.9696 19.7723 66.2116C19.1871 66.1164 18.5754 66.0694 17.9463 66.0694L17.9442 66.0683Z" fill="black"/>
<path d="M16.3594 130.402C16.2275 130.402 16.1211 130.296 16.1211 130.164V92.2618C16.1211 92.1309 16.2275 92.0234 16.3594 92.0234C16.4914 92.0234 16.5978 92.1298 16.5978 92.2618V130.164C16.5978 130.295 16.4914 130.402 16.3594 130.402Z" fill="black"/>
<path d="M16.5466 102.381C16.5036 102.381 16.4596 102.368 16.4197 102.344C16.3082 102.274 16.2755 102.127 16.3451 102.016L21.4743 93.8768C21.5448 93.7653 21.6911 93.7325 21.8026 93.8021C21.9141 93.8716 21.9469 94.019 21.8773 94.1305L16.7481 102.269C16.7031 102.341 16.6253 102.381 16.5466 102.381Z" fill="black"/>
<path d="M10.7485 88.3177C10.6646 88.3177 10.5828 88.2727 10.5388 88.194L6.74762 81.2183C6.68522 81.1027 6.72716 80.9585 6.84276 80.8961C6.95835 80.8337 7.10259 80.8756 7.16499 80.9912L10.9561 87.9669C11.0185 88.0825 10.9766 88.2267 10.861 88.2891C10.8252 88.3085 10.7863 88.3177 10.7475 88.3177H10.7485Z" fill="black"/>
<path d="M8.73801 99.4363C8.68686 99.4363 8.63572 99.4199 8.59275 99.3861L4.6901 96.3632C4.58576 96.2824 4.56734 96.1331 4.64714 96.0297C4.72795 95.9254 4.87731 95.907 4.98063 95.9878L8.88328 99.0107C8.98762 99.0915 9.00603 99.2409 8.92624 99.3442C8.87918 99.4045 8.8086 99.4363 8.73801 99.4363Z" fill="black"/>
<path d="M143.625 25.4453H111.633V131.942H143.625V25.4453Z" fill="white"/>
<path d="M143.63 132.183H111.637C111.505 132.183 111.398 132.077 111.398 131.945V25.4493C111.398 25.3184 111.505 25.2109 111.637 25.2109H143.63C143.762 25.2109 143.869 25.3173 143.869 25.4493V131.946C143.869 132.077 143.762 132.184 143.63 132.184V132.183ZM111.875 131.708H143.392V25.6866H111.875V131.708Z" fill="black"/>
<path d="M111.658 131.941H97.3906V34.6541L111.658 25.4453V131.941Z" fill="white"/>
<path d="M111.662 132.184H97.3946C97.2626 132.184 97.1562 132.077 97.1562 131.945V34.6574C97.1562 34.5766 97.1972 34.5009 97.2657 34.4579L111.533 25.2491C111.606 25.202 111.7 25.198 111.776 25.2399C111.852 25.2818 111.899 25.3616 111.899 25.4486V131.945C111.899 132.076 111.793 132.184 111.661 132.184H111.662ZM97.633 131.708H111.424V25.8864L97.633 34.7883V131.709V131.708Z" fill="black"/>
<path d="M120.991 124.039H115.441C115.31 124.039 115.203 123.932 115.203 123.8V32.5899C115.203 32.459 115.31 32.3516 115.441 32.3516H120.991C121.123 32.3516 121.229 32.458 121.229 32.5899V123.8C121.229 123.931 121.123 124.039 120.991 124.039ZM115.68 123.563H120.753V32.8272H115.68V123.562V123.563Z" fill="black"/>
<path d="M130.409 124.039H124.859C124.727 124.039 124.621 123.932 124.621 123.8V32.5899C124.621 32.459 124.727 32.3516 124.859 32.3516H130.409C130.541 32.3516 130.647 32.458 130.647 32.5899V123.8C130.647 123.931 130.541 124.039 130.409 124.039ZM125.098 123.563H130.171V32.8272H125.098V123.562V123.563Z" fill="black"/>
<path d="M139.815 124.039H134.266C134.134 124.039 134.027 123.932 134.027 123.8V32.5899C134.027 32.459 134.134 32.3516 134.266 32.3516H139.815C139.947 32.3516 140.054 32.458 140.054 32.5899V123.8C140.054 123.931 139.947 124.039 139.815 124.039ZM134.504 123.563H139.577V32.8272H134.504V123.562V123.563Z" fill="black"/>
<path d="M97.9679 0.898438H77.9688V75.9715H97.9679V0.898438Z" fill="white"/>
<path d="M97.9602 76.1982H77.961C77.829 76.1982 77.7227 76.0918 77.7227 75.9599V0.886791C77.7227 0.75585 77.829 0.648438 77.961 0.648438H97.9602C98.0921 0.648438 98.1985 0.754827 98.1985 0.886791V75.9599C98.1985 76.0908 98.0921 76.1982 97.9602 76.1982ZM78.1994 75.7225H97.7218V1.12514H78.1994V75.7225Z" fill="black"/>
<path d="M94.1278 10.0958H82.1641C82.0322 10.0958 81.9258 9.98937 81.9258 9.85741V4.71492C81.9258 4.58397 82.0322 4.47656 82.1641 4.47656H94.1278C94.2598 4.47656 94.3662 4.58295 94.3662 4.71492V9.85741C94.3662 9.98835 94.2598 10.0958 94.1278 10.0958ZM82.4035 9.62008H93.8905V4.95327H82.4035V9.62008Z" fill="black"/>
<path d="M77.9808 75.9715H69.0625V6.65472L77.9808 0.898438V75.9715Z" fill="white"/>
<path d="M77.977 76.1975H69.0587C68.9267 76.1975 68.8203 76.0911 68.8203 75.9591V6.64236C68.8203 6.56155 68.8612 6.48687 68.9298 6.44288L77.8481 0.686602C77.9207 0.639545 78.0138 0.635453 78.0905 0.677395C78.1672 0.719337 78.2143 0.799129 78.2143 0.886082V75.9591C78.2143 76.0901 78.1079 76.1975 77.9759 76.1975H77.977ZM69.296 75.7218H77.7386V1.32289L69.296 6.77228V75.7218Z" fill="black"/>
<path d="M106.633 13.3828H74.6406V133.481H106.633V13.3828Z" fill="white"/>
<path d="M106.63 133.731H74.6368C74.5048 133.731 74.3984 133.625 74.3984 133.493V13.3946C74.3984 13.2637 74.5048 13.1562 74.6368 13.1562H106.63C106.762 13.1562 106.869 13.2626 106.869 13.3946V133.493C106.869 133.624 106.762 133.731 106.63 133.731ZM74.8751 133.256H106.392V13.633H74.8751V133.256Z" fill="black"/>
<path d="M74.6648 133.481H60.3984V22.5916L74.6648 13.3828V133.481Z" fill="white"/>
<path d="M74.6581 133.731H60.3907C60.2587 133.731 60.1523 133.624 60.1523 133.492V22.6027C60.1523 22.5219 60.1933 22.4462 60.2618 22.4032L74.5292 13.1944C74.6019 13.1474 74.695 13.1433 74.7717 13.1852C74.8484 13.2271 74.8955 13.3069 74.8955 13.3939V133.492C74.8955 133.623 74.7891 133.731 74.6571 133.731H74.6581ZM60.629 133.255H74.4208V13.8307L60.629 22.7326V133.255Z" fill="black"/>
<path d="M101.67 24.9083H78.8477C78.7158 24.9083 78.6094 24.8019 78.6094 24.6699V19.4415C78.6094 19.3105 78.7158 19.2031 78.8477 19.2031H101.67C101.802 19.2031 101.909 19.3095 101.909 19.4415V24.6699C101.909 24.8008 101.802 24.9083 101.67 24.9083ZM79.0861 24.4326H101.433V19.6798H79.0861V24.4326Z" fill="black"/>
<path d="M101.67 35.7754H78.8477C78.7158 35.7754 78.6094 35.6691 78.6094 35.5371V30.3087C78.6094 30.1777 78.7158 30.0703 78.8477 30.0703H101.67C101.802 30.0703 101.909 30.1767 101.909 30.3087V35.5371C101.909 35.668 101.802 35.7754 101.67 35.7754ZM79.0861 35.2998H101.433V30.547H79.0861V35.2998Z" fill="black"/>
<path d="M101.67 46.6348H78.8477C78.7158 46.6348 78.6094 46.5284 78.6094 46.3965V41.168C78.6094 41.0371 78.7158 40.9297 78.8477 40.9297H101.67C101.802 40.9297 101.909 41.0361 101.909 41.168V46.3965C101.909 46.5274 101.802 46.6348 101.67 46.6348ZM79.0861 46.1591H101.433V41.4064H79.0861V46.1591Z" fill="black"/>
<path d="M101.67 57.4786H78.8477C78.7158 57.4786 78.6094 57.3722 78.6094 57.2402V52.0118C78.6094 51.8809 78.7158 51.7734 78.8477 51.7734H101.67C101.802 51.7734 101.909 51.8798 101.909 52.0118V57.2402C101.909 57.3712 101.802 57.4786 101.67 57.4786ZM79.0861 57.0029H101.433V52.2501H79.0861V57.0029Z" fill="black"/>
<path d="M101.67 68.3379H78.8477C78.7158 68.3379 78.6094 68.2316 78.6094 68.0996V62.8712C78.6094 62.7402 78.7158 62.6328 78.8477 62.6328H101.67C101.802 62.6328 101.909 62.7392 101.909 62.8712V68.0996C101.909 68.2305 101.802 68.3379 101.67 68.3379ZM79.0861 67.8623H101.433V63.1095H79.0861V67.8623Z" fill="black"/>
<path d="M101.67 79.2051H78.8477C78.7158 79.2051 78.6094 79.0987 78.6094 78.9668V73.7384C78.6094 73.6074 78.7158 73.5 78.8477 73.5H101.67C101.802 73.5 101.909 73.6064 101.909 73.7384V78.9668C101.909 79.0977 101.802 79.2051 101.67 79.2051ZM79.0861 78.7294H101.433V73.9767H79.0861V78.7294Z" fill="black"/>
<path d="M101.67 90.0489H78.8477C78.7158 90.0489 78.6094 89.9425 78.6094 89.8105V84.5821C78.6094 84.4512 78.7158 84.3438 78.8477 84.3438H101.67C101.802 84.3438 101.909 84.4501 101.909 84.5821V89.8105C101.909 89.9415 101.802 90.0489 101.67 90.0489ZM79.0861 89.5732H101.433V84.8205H79.0861V89.5732Z" fill="black"/>
<path d="M101.666 95.4531H78.8438V100.682H101.666V95.4531Z" fill="white"/>
<path d="M101.67 111.783H78.8477C78.7158 111.783 78.6094 111.677 78.6094 111.545V106.316C78.6094 106.186 78.7158 106.078 78.8477 106.078H101.67C101.802 106.078 101.909 106.185 101.909 106.316V111.545C101.909 111.676 101.802 111.783 101.67 111.783ZM79.0861 111.308H101.433V106.555H79.0861V111.308Z" fill="black"/>
<path d="M101.67 122.627H78.8477C78.7158 122.627 78.6094 122.521 78.6094 122.389V117.16C78.6094 117.029 78.7158 116.922 78.8477 116.922H101.67C101.802 116.922 101.909 117.028 101.909 117.16V122.389C101.909 122.52 101.802 122.627 101.67 122.627ZM79.0861 122.151H101.433V117.399H79.0861V122.151Z" fill="black"/>
<path d="M67.1371 36.9609H35.1445V133.476H67.1371V36.9609Z" fill="white"/>
<path d="M67.1381 133.726H35.1446C35.0126 133.726 34.9062 133.619 34.9062 133.487V36.9727C34.9062 36.8418 35.0126 36.7344 35.1446 36.7344H67.1381C67.2701 36.7344 67.3765 36.8408 67.3765 36.9727V133.487C67.3765 133.618 67.2701 133.726 67.1381 133.726ZM35.383 133.25H66.8998V37.2111H35.383V133.25Z" fill="black"/>
<path d="M35.1698 133.476H20.9023V46.1698L35.1698 36.9609V133.476Z" fill="white"/>
<path d="M35.1659 133.725H20.8985C20.7665 133.725 20.6602 133.618 20.6602 133.486V46.1804C20.6602 46.0996 20.7011 46.0239 20.7696 45.9809L35.037 36.7721C35.1097 36.7251 35.2028 36.722 35.2795 36.7629C35.3562 36.8049 35.4033 36.8847 35.4033 36.9716V133.486C35.4033 133.617 35.2969 133.725 35.1649 133.725H35.1659ZM21.1369 133.249H34.9286V37.4084L21.1369 46.3103V133.249Z" fill="black"/>
<path d="M44.5106 55.4343H38.961C38.829 55.4343 38.7227 55.3279 38.7227 55.196V44.0977C38.7227 43.9668 38.829 43.8594 38.961 43.8594H44.5106C44.6426 43.8594 44.749 43.9658 44.749 44.0977V55.196C44.749 55.3269 44.6426 55.4343 44.5106 55.4343ZM39.1994 54.9586H44.2723V44.3361H39.1994V54.9586Z" fill="black"/>
<path d="M53.9169 55.4343H48.3673C48.2353 55.4343 48.1289 55.3279 48.1289 55.196V44.0977C48.1289 43.9668 48.2353 43.8594 48.3673 43.8594H53.9169C54.0489 43.8594 54.1553 43.9658 54.1553 44.0977V55.196C54.1553 55.3269 54.0489 55.4343 53.9169 55.4343ZM48.6056 54.9586H53.6785V44.3361H48.6056V54.9586Z" fill="black"/>
<path d="M63.3271 55.4343H57.7774C57.6455 55.4343 57.5391 55.3279 57.5391 55.196V44.0977C57.5391 43.9668 57.6455 43.8594 57.7774 43.8594H63.3271C63.459 43.8594 63.5654 43.9658 63.5654 44.0977V55.196C63.5654 55.3269 63.459 55.4343 63.3271 55.4343ZM58.0158 54.9586H63.0887V44.3361H58.0158V54.9586Z" fill="black"/>
<path d="M44.5106 73.739H38.961C38.829 73.739 38.7227 73.6326 38.7227 73.5007V62.4024C38.7227 62.2715 38.829 62.1641 38.961 62.1641H44.5106C44.6426 62.1641 44.749 62.2705 44.749 62.4024V73.5007C44.749 73.6316 44.6426 73.739 44.5106 73.739ZM39.1994 73.2633H44.2723V62.6408H39.1994V73.2633Z" fill="black"/>
<path d="M53.9169 73.739H48.3673C48.2353 73.739 48.1289 73.6326 48.1289 73.5007V62.4024C48.1289 62.2715 48.2353 62.1641 48.3673 62.1641H53.9169C54.0489 62.1641 54.1553 62.2705 54.1553 62.4024V73.5007C54.1553 73.6316 54.0489 73.739 53.9169 73.739ZM48.6056 73.2633H53.6785V62.6408H48.6056V73.2633Z" fill="black"/>
<path d="M63.3271 73.739H57.7774C57.6455 73.739 57.5391 73.6326 57.5391 73.5007V62.4024C57.5391 62.2715 57.6455 62.1641 57.7774 62.1641H63.3271C63.459 62.1641 63.5654 62.2705 63.5654 62.4024V73.5007C63.5654 73.6316 63.459 73.739 63.3271 73.739ZM58.0158 73.2633H63.0887V62.6408H58.0158V73.2633Z" fill="black"/>
<path d="M44.5106 92.0125H38.961C38.829 92.0125 38.7227 91.9061 38.7227 91.7741V80.6759C38.7227 80.5449 38.829 80.4375 38.961 80.4375H44.5106C44.6426 80.4375 44.749 80.5439 44.749 80.6759V91.7741C44.749 91.9051 44.6426 92.0125 44.5106 92.0125ZM39.1994 91.5368H44.2723V80.9142H39.1994V91.5368Z" fill="black"/>
<path d="M44.5106 110.302H38.961C38.829 110.302 38.7227 110.195 38.7227 110.063V98.9649C38.7227 98.834 38.829 98.7266 38.961 98.7266H44.5106C44.6426 98.7266 44.749 98.833 44.749 98.9649V110.063C44.749 110.194 44.6426 110.302 44.5106 110.302ZM39.1994 109.826H44.2723V99.2033H39.1994V109.826Z" fill="black"/>
<path d="M53.9169 110.302H48.3673C48.2353 110.302 48.1289 110.195 48.1289 110.063V98.9649C48.1289 98.834 48.2353 98.7266 48.3673 98.7266H53.9169C54.0489 98.7266 54.1553 98.833 54.1553 98.9649V110.063C54.1553 110.194 54.0489 110.302 53.9169 110.302ZM48.6056 109.826H53.6785V99.2033H48.6056V109.826Z" fill="black"/>
<path d="M63.327 98.9766H57.7773V110.075H63.327V98.9766Z" fill="white"/>
<path d="M154.533 103.44C148.158 97.5514 140.385 86.9913 149.058 82.8912C152.883 81.0836 155.916 78.3625 156.622 73.8338C157.369 69.0381 156.752 63.6368 162.577 62.6864C166.324 62.0757 170.835 63.4189 173.907 65.6899C182.926 72.3576 185.66 87.1836 180.71 97.2394C176.702 105.382 167.901 111.946 159.235 107.081C158.059 106.421 156.353 105.12 154.532 103.439L154.533 103.44Z" fill="white"/>
<path d="M165.33 108.989C163.21 108.989 161.129 108.421 159.111 107.289C157.864 106.589 156.133 105.249 154.362 103.613C149.358 98.9905 144.276 92.3064 145.027 87.4146C145.343 85.3502 146.663 83.7554 148.947 82.6761C153.339 80.6005 155.77 77.6963 156.378 73.7977C156.505 72.9814 156.594 72.1344 156.68 71.315C157.095 67.3591 157.524 63.2693 162.53 62.4519C166.151 61.8606 170.776 63.0851 174.04 65.4983C178.39 68.7135 181.49 73.9164 182.771 80.1463C184.009 86.1645 183.332 92.4333 180.914 97.3446C178.225 102.807 173.814 106.939 169.114 108.399C167.843 108.794 166.579 108.991 165.33 108.991V108.989ZM154.684 103.264C156.429 104.876 158.128 106.191 159.343 106.874C162.432 108.608 165.673 108.968 168.973 107.943C173.551 106.522 177.855 102.481 180.488 97.1328C185.54 86.8703 182.395 72.2663 173.757 65.8799C170.589 63.5383 166.109 62.3496 162.607 62.9204C157.96 63.6785 157.568 67.4113 157.154 71.3631C157.067 72.1886 156.978 73.0418 156.849 73.8693C156.215 77.9357 153.696 80.9565 149.151 83.1048C147.018 84.1124 145.788 85.5865 145.498 87.4851C144.776 92.1939 149.771 98.7225 154.685 103.262L154.684 103.264Z" fill="black"/>
<path d="M166.024 127.121C165.892 127.121 165.785 127.015 165.785 126.883V88.9805C165.785 88.8496 165.892 88.7422 166.024 88.7422C166.155 88.7422 166.262 88.8486 166.262 88.9805V126.883C166.262 127.014 166.155 127.121 166.024 127.121Z" fill="black"/>
<path d="M165.832 99.1073C165.754 99.1073 165.676 99.0684 165.631 98.9958L160.502 90.857C160.431 90.7455 160.465 90.5992 160.576 90.5286C160.688 90.4591 160.834 90.4918 160.905 90.6033L166.034 98.7421C166.105 98.8536 166.071 98.9999 165.959 99.0705C165.919 99.095 165.876 99.1073 165.832 99.1073Z" fill="black"/>
<path d="M171.633 85.0369C171.595 85.0369 171.555 85.0277 171.519 85.0083C171.403 84.9459 171.36 84.8017 171.424 84.6861L175.215 77.7104C175.278 77.5948 175.423 77.5518 175.537 77.6153C175.653 77.6777 175.696 77.8219 175.632 77.9375L171.841 84.9132C171.798 84.993 171.716 85.0369 171.632 85.0369H171.633Z" fill="black"/>
<path d="M173.64 96.1312C173.57 96.1312 173.499 96.0995 173.452 96.0392C173.371 95.9348 173.391 95.7855 173.495 95.7057L177.398 92.6828C177.501 92.602 177.652 92.6214 177.731 92.7247C177.812 92.8291 177.793 92.9784 177.688 93.0582L173.786 96.0811C173.743 96.1149 173.692 96.1312 173.64 96.1312Z" fill="black"/>
<path d="M175.007 136.077C177.325 132.985 179.627 129.654 181.813 126.086H3.08233C2.13608 129.654 1.47013 132.985 1.24609 136.077H175.007Z" fill="white"/>
<path d="M181.601 126.445H3.18757C3.05561 126.445 2.94922 126.339 2.94922 126.207C2.94922 126.075 3.05561 125.969 3.18757 125.969H181.601C181.733 125.969 181.839 126.075 181.839 126.207C181.839 126.339 181.733 126.445 181.601 126.445Z" fill="black"/>
</svg>
