<svg width="12" height="12" viewBox="0 0 12 12" fill="none" xmlns="http://www.w3.org/2000/svg">
<g clip-path="url(#clip0_502_842)">
<path d="M10.2452 1.75477C7.90555 -0.584924 4.09736 -0.584924 1.75767 1.75477C0.624311 2.88857 0 4.39569 0 5.99855C0 7.60141 0.624311 9.10852 1.75767 10.2419C2.92775 11.412 4.46461 11.9968 6.00144 11.9968C7.53828 11.9968 9.07516 11.412 10.2452 10.2419C12.5849 7.90218 12.5849 4.09491 10.2452 1.75477ZM9.5879 9.58454C7.61035 11.5621 4.39253 11.5621 2.41498 9.58454C1.45736 8.62693 0.929728 7.35318 0.929728 5.99855C0.929728 4.64392 1.45736 3.37017 2.41498 2.41208C4.39253 0.434524 7.61035 0.434992 9.5879 2.41208C11.565 4.38964 11.565 7.60745 9.5879 9.58454Z" fill="#E02342"/>
<path d="M8.0029 7.28162L6.68685 5.96744L8.0029 4.65326C8.18419 4.47197 8.18419 4.17771 8.00337 3.99593C7.82161 3.8137 7.52735 3.81417 7.34559 3.99546L6.02862 5.31057L4.71166 3.99546C4.5299 3.81417 4.23564 3.8137 4.05388 3.99593C3.87259 4.17769 3.87259 4.47195 4.05435 4.65326L5.3704 5.96744L4.05435 7.28162C3.87259 7.46291 3.87259 7.75717 4.05388 7.93895C4.14454 8.03005 4.264 8.07515 4.38301 8.07515C4.50203 8.07515 4.62102 8.02958 4.71168 7.9394L6.02865 6.62428L7.34561 7.9394C7.43627 8.03005 7.55526 8.07515 7.67428 8.07515C7.7354 8.07521 7.79594 8.06321 7.85242 8.03984C7.90889 8.01646 7.96021 7.98218 8.00342 7.93895C8.18466 7.75717 8.18466 7.46291 8.0029 7.28162Z" fill="#E02342"/>
</g>
<defs>
<clipPath id="clip0_502_842">
<rect width="12" height="12" fill="white"/>
</clipPath>
</defs>
</svg>
