<svg width="35" height="35" viewBox="0 0 35 35" fill="none" xmlns="http://www.w3.org/2000/svg">
<g clip-path="url(#clip0_1101_13126)">
<path d="M29.8819 5.11808C23.0578 -1.70603 11.9506 -1.70603 5.12652 5.11808C1.82091 8.425 0 12.8208 0 17.4958C0 22.1708 1.82091 26.5665 5.12652 29.8721C8.53926 33.2849 13.0218 34.9905 17.5042 34.9905C21.9866 34.9905 26.4692 33.2849 29.8819 29.8721C36.706 23.048 36.706 11.9435 29.8819 5.11808ZM27.9647 27.9549C22.1968 33.7228 12.8116 33.7228 7.04368 27.9549C4.25063 25.1619 2.71171 21.4468 2.71171 17.4958C2.71171 13.5448 4.25063 9.82966 7.04368 7.03524C12.8116 1.26736 22.1968 1.26873 27.9647 7.03524C33.7312 12.8031 33.7312 22.1884 27.9647 27.9549Z" fill="#A8A8A8"/>
<path d="M23.3419 21.238L19.5034 17.405L23.3419 13.572C23.8706 13.0432 23.8706 12.185 23.3432 11.6548C22.8131 11.1233 21.9549 11.1247 21.4247 11.6534L17.5836 15.4892L13.7424 11.6534C13.2123 11.1247 12.354 11.1233 11.8239 11.6548C11.2951 12.1849 11.2951 13.0432 11.8253 13.572L15.6637 17.405L11.8253 21.238C11.2951 21.7668 11.2951 22.6251 11.8239 23.1553C12.0883 23.421 12.4367 23.5525 12.7839 23.5525C13.131 23.5525 13.4781 23.4196 13.7425 23.1566L17.5836 19.3208L21.4248 23.1566C21.6892 23.421 22.0363 23.5525 22.3834 23.5525C22.5617 23.5527 22.7382 23.5177 22.903 23.4495C23.0677 23.3813 23.2174 23.2814 23.3434 23.1553C23.872 22.6251 23.872 21.7668 23.3419 21.238Z" fill="#A8A8A8"/>
</g>
<defs>
<clipPath id="clip0_1101_13126">
<rect width="35" height="35" fill="white"/>
</clipPath>
</defs>
</svg>
