<svg width="20" height="20" viewBox="0 0 20 20" fill="none" xmlns="http://www.w3.org/2000/svg">
<path fill-rule="evenodd" clip-rule="evenodd" d="M10.0034 0.67569C12.4492 0.719888 14.7799 1.72252 16.494 3.46782C18.208 5.21312 19.1684 7.56158 19.1684 10.0078C19.1684 12.454 18.208 14.8025 16.494 16.5478C14.7799 18.2931 12.4492 19.2957 10.0034 19.3399C7.55755 19.2957 5.22683 18.2931 3.51278 16.5478C1.79874 14.8025 0.838379 12.454 0.838379 10.0078C0.838379 7.56158 1.79874 5.21312 3.51278 3.46782C5.22683 1.72252 7.55755 0.719888 10.0034 0.67569ZM8.06534 13.0393L5.77993 10.7518C5.59286 10.5641 5.48781 10.3099 5.48781 10.0449C5.48781 9.77986 5.59286 9.52565 5.77993 9.33793C5.96795 9.15104 6.22229 9.04614 6.48739 9.04614C6.7525 9.04614 7.00683 9.15104 7.19486 9.33793L8.8048 10.9499L12.8119 6.94281C12.9996 6.75574 13.2538 6.6507 13.5189 6.6507C13.7839 6.6507 14.0381 6.75574 14.2258 6.94281C14.4126 7.13066 14.5175 7.38483 14.5175 7.64977C14.5175 7.9147 14.4126 8.16887 14.2258 8.35672L9.51074 13.0718C9.41503 13.167 9.30106 13.2419 9.17569 13.292C9.05031 13.3421 8.91611 13.3664 8.78112 13.3634C8.64614 13.3603 8.51316 13.3301 8.39016 13.2744C8.26716 13.2187 8.15668 13.1387 8.06534 13.0393Z" fill="#00BA00"/>
</svg>
