<svg width="153" height="153" viewBox="0 0 153 153" fill="none" xmlns="http://www.w3.org/2000/svg">
<path d="M106.572 126.02C82.167 116.608 88.1412 59.622 89.6321 31.6673C91.1229 3.71343 77.1485 0.214844 77.1485 0.214844H0.183594C0.183594 0.214844 14.158 3.71343 12.6672 31.6673C11.1763 59.6211 5.20129 116.608 29.6067 126.02H106.572Z" fill="white"/>
<path d="M75.296 58.0299H22.6018C22.3043 58.0299 22.0625 57.7881 22.0625 57.4906V53.387C22.0625 53.0895 22.3043 52.8477 22.6018 52.8477H75.296C75.5935 52.8477 75.8353 53.0895 75.8353 53.387V57.4906C75.8353 57.7881 75.5935 58.0299 75.296 58.0299ZM22.6027 53.2158C22.5079 53.2158 22.4315 53.2931 22.4315 53.3878V57.4914C22.4315 57.5861 22.5088 57.6634 22.6027 57.6634H75.2968C75.3915 57.6634 75.4688 57.5861 75.4688 57.4914V53.3878C75.4688 53.2931 75.3915 53.2158 75.2968 53.2158H22.6027Z" fill="#010101"/>
<path d="M76.8233 43.2057H24.1292C23.8317 43.2057 23.5898 42.9638 23.5898 42.6663V38.5628C23.5898 38.2653 23.8317 38.0234 24.1292 38.0234H76.8233C77.1208 38.0234 77.3626 38.2653 77.3626 38.5628V42.6663C77.3626 42.9638 77.1208 43.2057 76.8233 43.2057ZM24.13 38.3916C24.0353 38.3916 23.958 38.4689 23.958 38.5636V42.6672C23.958 42.7619 24.0353 42.8392 24.13 42.8392H76.8241C76.9189 42.8392 76.9953 42.7619 76.9953 42.6672V38.5636C76.9953 38.4689 76.918 38.3916 76.8241 38.3916H24.13Z" fill="#010101"/>
<path d="M74.0883 20.9732H28.3831C28.0856 20.9732 27.8438 20.7314 27.8438 20.4339V14.055C27.8438 13.7575 28.0856 13.5156 28.3831 13.5156H74.0883C74.3858 13.5156 74.6277 13.7575 74.6277 14.055V20.4339C74.6277 20.7314 74.3858 20.9732 74.0883 20.9732ZM28.3831 13.8829C28.2883 13.8829 28.2119 13.9602 28.2119 14.055V20.4339C28.2119 20.5286 28.2892 20.6059 28.3831 20.6059H74.0883C74.1831 20.6059 74.2604 20.5286 74.2604 20.4339V14.055C74.2604 13.9602 74.1831 13.8829 74.0883 13.8829H28.3831Z" fill="#010101"/>
<path d="M74.4742 73.1658H21.6604C21.3629 73.1658 21.1211 72.924 21.1211 72.6265V68.5237C21.1211 68.2262 21.3629 67.9844 21.6604 67.9844H74.4742C74.7717 67.9844 75.0135 68.2262 75.0135 68.5237V72.6265C75.0135 72.924 74.7717 73.1658 74.4742 73.1658ZM21.6596 68.3517C21.5649 68.3517 21.4876 68.429 21.4876 68.5237V72.6265C21.4876 72.7212 21.5649 72.7985 21.6596 72.7985H74.4734C74.5681 72.7985 74.6454 72.7212 74.6454 72.6265V68.5237C74.6454 68.429 74.5681 68.3517 74.4734 68.3517H21.6596Z" fill="#010101"/>
<path d="M74.9814 87.6463H22.5033C22.2067 87.6463 21.9648 87.4044 21.9648 87.1078V83.0034C21.9648 82.7067 22.2067 82.4648 22.5033 82.4648H74.9814C75.2781 82.4648 75.5199 82.7067 75.5199 83.0034V87.1078C75.5199 87.4044 75.2781 87.6463 74.9814 87.6463ZM22.5033 82.8322C22.4094 82.8322 22.3322 82.9086 22.3322 83.0034V87.1078C22.3322 87.2017 22.4086 87.2789 22.5033 87.2789H74.9814C75.0753 87.2789 75.1526 87.2025 75.1526 87.1078V83.0034C75.1526 82.9094 75.0761 82.8322 74.9814 82.8322H22.5033Z" fill="#010101"/>
<path d="M81.0448 101.709H25.782C25.4795 101.709 25.2344 101.463 25.2344 101.161V97.075C25.2344 96.7733 25.4804 96.5273 25.782 96.5273H81.0448C81.3465 96.5273 81.5925 96.7733 81.5925 97.075V101.161C81.5925 101.464 81.3465 101.709 81.0448 101.709ZM25.782 96.8947C25.6823 96.8947 25.6017 96.9753 25.6017 97.075V101.161C25.6017 101.261 25.6823 101.341 25.782 101.341H81.0448C81.1445 101.341 81.2252 101.261 81.2252 101.161V97.075C81.2252 96.9753 81.1445 96.8947 81.0448 96.8947H25.782Z" fill="#010101"/>
<path d="M106.573 126.207H39.5977C39.4963 126.207 39.4141 126.125 39.4141 126.024C39.4141 125.922 39.4963 125.84 39.5977 125.84H105.65C101.264 123.888 97.6478 120.217 94.8938 114.911C92.3317 109.976 90.437 103.467 89.2611 95.566C87.0489 80.6941 87.6572 62.7275 88.4342 48.7364C88.4401 48.635 88.519 48.5577 88.6279 48.5627C88.7293 48.5685 88.8065 48.655 88.8007 48.7564C88.0254 62.73 87.4171 80.6725 89.6243 95.512C92.1489 112.486 97.7143 122.41 106.639 125.853C106.722 125.884 106.769 125.971 106.753 126.058C106.737 126.145 106.661 126.208 106.573 126.208V126.207Z" fill="#010101"/>
<path d="M11.2392 83.049C11.1436 83.049 11.0621 82.9743 11.0555 82.8779C10.0716 68.2012 11.0763 53.2345 11.8832 41.208C12.1101 37.8249 12.3245 34.6297 12.4832 31.6621C13.2502 17.2772 9.83639 9.53537 6.83807 5.5739C3.60707 1.30578 0.173294 0.406621 0.139222 0.39748C0.0494721 0.375042 -0.0095306 0.288615 0.00127266 0.196372C0.0129069 0.104129 0.091023 0.0351562 0.183266 0.0351562H77.1481C77.1631 0.0351562 77.1781 0.0368164 77.193 0.0409715C77.3326 0.0758743 80.6501 0.945122 83.9002 5.09856C83.9625 5.17834 83.9484 5.29385 83.8686 5.35618C83.7888 5.4185 83.6733 5.40437 83.611 5.3246C80.5678 1.43625 77.4074 0.482243 77.1241 0.402466H1.21456C2.50015 0.971714 4.84861 2.33708 7.13059 5.35119C10.1663 9.36169 13.6233 17.1857 12.8497 31.6812C12.6909 34.6513 12.4765 37.8474 12.2497 41.2321C11.4436 53.247 10.4397 68.2004 11.422 82.8521C11.4286 82.9535 11.3522 83.0407 11.2508 83.0474C11.2466 83.0474 11.2425 83.0474 11.2383 83.0474L11.2392 83.049Z" fill="#010101"/>
<path d="M143.032 130.665H48.4981C47.9895 130.665 47.5781 130.233 47.5781 129.7V65.9366C47.5781 63.7203 49.3017 61.9294 51.4158 61.9494L145.211 62.8228L145.205 128.202C145.205 129.562 144.232 130.665 143.033 130.665H143.032Z" fill="white"/>
<path d="M143.032 130.845H48.499C47.8898 130.845 47.3945 130.329 47.3945 129.696V65.9327C47.3945 64.7751 47.8366 63.6998 48.6402 62.9037C49.3931 62.1574 50.3837 61.7535 51.4167 61.7618L145.212 62.6352C145.313 62.6361 145.394 62.7183 145.394 62.8189L145.388 128.198C145.388 129.657 144.331 130.845 143.032 130.845ZM51.3809 62.1292C50.4543 62.1292 49.5743 62.4965 48.8987 63.1646C48.1657 63.8909 47.7618 64.874 47.7618 65.9327V129.696C47.7618 130.127 48.0926 130.477 48.4981 130.477H143.032C144.129 130.477 145.019 129.455 145.02 128.198L145.027 63.0009L51.4133 62.1292C51.4025 62.1292 51.3917 62.1292 51.3809 62.1292Z" fill="#010101"/>
<path d="M98.2015 71.2003L43.8237 70.9203C43.0633 70.9161 42.563 70.1034 42.8838 69.3945L58.8635 46.9769C59.2158 46.4833 59.7776 46.195 60.3726 46.2074C66.7748 46.3371 106.785 46.4418 106.785 46.4418L98.2015 71.2012V71.2003Z" fill="white"/>
<path d="M98.201 71.381H98.2002L43.8224 71.1009C43.411 71.0984 43.0296 70.8874 42.8044 70.535C42.5692 70.1685 42.5368 69.7131 42.7163 69.3151C42.7213 69.3043 42.7271 69.2943 42.7338 69.2843L58.7143 46.8667C59.1015 46.3233 59.7198 46.0066 60.3771 46.0199C66.7045 46.1479 106.386 46.2535 106.786 46.2543C106.845 46.2543 106.901 46.2834 106.936 46.3316C106.97 46.3798 106.979 46.4421 106.96 46.4978L98.3763 71.2572C98.3506 71.3311 98.2808 71.381 98.2027 71.381H98.201ZM43.0446 69.4821C42.9241 69.7622 42.9498 70.0796 43.1144 70.3356C43.2756 70.5865 43.534 70.7311 43.8249 70.7328L98.0714 71.012L106.528 46.6208C103.078 46.6116 66.4319 46.5094 60.3705 46.3872C59.8386 46.3764 59.3317 46.6357 59.0151 47.0795L43.0454 69.4821H43.0446Z" fill="#010101"/>
<path d="M62.0624 90.5625H68.6325C68.9557 90.5625 69.2183 90.8251 69.2183 91.1484V101.226C69.2183 101.549 68.9557 101.812 68.6325 101.812H62.0624C61.7392 101.812 61.4766 101.549 61.4766 101.226V91.1484C61.4766 90.8251 61.7392 90.5625 62.0624 90.5625Z" fill="white"/>
<path d="M68.6325 102H62.0625C61.6378 102 61.293 101.655 61.293 101.23V91.1523C61.293 90.7277 61.6387 90.3828 62.0625 90.3828H68.6325C69.0572 90.3828 69.4021 90.7277 69.4021 91.1523V101.23C69.4021 101.655 69.0572 102 68.6325 102ZM62.0625 90.7501C61.8406 90.7501 61.6603 90.9305 61.6603 91.1523V101.23C61.6603 101.452 61.8406 101.632 62.0625 101.632H68.6325C68.8544 101.632 69.0348 101.452 69.0348 101.23V91.1523C69.0348 90.9305 68.8544 90.7501 68.6325 90.7501H62.0625Z" fill="#010101"/>
<path d="M59.4915 102H53.0395C52.5824 102 52.2109 101.628 52.2109 101.171V91.2113C52.2109 90.7543 52.5824 90.3828 53.0395 90.3828H59.4915C59.9486 90.3828 60.32 90.7543 60.32 91.2113V101.171C60.32 101.628 59.9486 102 59.4915 102ZM53.0395 90.7501C52.7852 90.7501 52.5782 90.9571 52.5782 91.2113V101.171C52.5782 101.425 52.7852 101.632 53.0395 101.632H59.4915C59.7458 101.632 59.9527 101.425 59.9527 101.171V91.2113C59.9527 90.9571 59.7458 90.7501 59.4915 90.7501H53.0395Z" fill="#010101"/>
<path d="M68.7995 103.062H61.8954C61.6641 103.062 61.4766 103.25 61.4766 103.481V113.893C61.4766 114.125 61.6641 114.312 61.8954 114.312H68.7995C69.0308 114.312 69.2183 114.125 69.2183 113.893V103.481C69.2183 103.25 69.0308 103.062 68.7995 103.062Z" fill="white"/>
<path d="M59.4749 114.496H53.0561C52.5899 114.496 52.2109 114.117 52.2109 113.651V103.724C52.2109 103.258 52.5899 102.879 53.0561 102.879H59.4749C59.9411 102.879 60.32 103.258 60.32 103.724V113.651C60.32 114.117 59.9411 114.496 59.4749 114.496ZM53.0553 103.246C52.7918 103.246 52.5774 103.461 52.5774 103.724V113.651C52.5774 113.914 52.7918 114.128 53.0553 114.128H59.474C59.7375 114.128 59.9519 113.914 59.9519 113.651V103.724C59.9519 103.461 59.7375 103.246 59.474 103.246H53.0553Z" fill="#010101"/>
<path d="M75.6975 128.771L75.3086 63.6829L112.97 46.0586L148.951 63.9421L148.236 129.791C148.215 130.682 147.481 131.39 146.588 131.383L77.6953 130.783C76.5892 130.773 75.6983 129.875 75.6983 128.772L75.6975 128.771Z" fill="white"/>
<path d="M146.602 131.566C146.597 131.566 146.591 131.566 146.586 131.566L77.6929 130.966C76.4912 130.955 75.5139 129.972 75.5139 128.772L75.125 63.6844C75.125 63.6129 75.1657 63.5473 75.2305 63.5165L112.892 45.8922C112.943 45.869 113.002 45.869 113.052 45.8939L149.032 63.7775C149.095 63.809 149.135 63.8738 149.134 63.9437L148.419 129.793C148.395 130.775 147.582 131.566 146.602 131.566ZM75.4923 63.7991L75.8812 128.77C75.8812 129.77 76.6956 130.589 77.6962 130.598L146.589 131.198C147.384 131.204 148.033 130.571 148.052 129.786L148.766 64.055L112.968 46.2629L75.4923 63.7999V63.7991Z" fill="#010101"/>
<path d="M142.566 101.776H135.996C135.571 101.776 135.227 101.431 135.227 101.006V90.9453C135.227 90.5207 135.571 90.1758 135.996 90.1758H142.566C142.991 90.1758 143.336 90.5207 143.336 90.9453V101.006C143.336 101.431 142.99 101.776 142.566 101.776ZM135.995 90.5431C135.773 90.5431 135.593 90.7234 135.593 90.9453V101.006C135.593 101.228 135.773 101.409 135.995 101.409H142.565C142.787 101.409 142.968 101.228 142.968 101.006V90.9453C142.968 90.7234 142.787 90.5431 142.565 90.5431H135.995Z" fill="#010101"/>
<path d="M126.973 101.59H133.425C133.782 101.59 134.07 101.301 134.07 100.945V91.0027C134.07 90.6465 133.782 90.3578 133.425 90.3578H126.973C126.617 90.3578 126.329 90.6465 126.329 91.0027V100.945C126.329 101.301 126.617 101.59 126.973 101.59Z" fill="white"/>
<path d="M142.734 114.253H135.829C135.497 114.253 135.227 113.982 135.227 113.65V103.255C135.227 102.922 135.497 102.652 135.829 102.652H142.734C143.066 102.652 143.336 102.922 143.336 103.255V113.65C143.336 113.982 143.066 114.253 142.734 114.253ZM135.829 103.02C135.699 103.02 135.595 103.126 135.595 103.255V113.65C135.595 113.78 135.7 113.884 135.829 113.884H142.734C142.864 113.884 142.969 113.779 142.969 113.65V103.255C142.969 103.125 142.864 103.02 142.734 103.02H135.829Z" fill="#010101"/>
<path d="M126.99 114.074H133.409C133.774 114.074 134.07 113.778 134.07 113.413V103.504C134.07 103.138 133.774 102.842 133.409 102.842H126.99C126.625 102.842 126.329 103.138 126.329 103.504V113.413C126.329 113.778 126.625 114.074 126.99 114.074Z" fill="white"/>
<path d="M119.75 66.1054H113.18C112.755 66.1054 112.41 65.7606 112.41 65.3359V57.418C112.41 56.9933 112.755 56.6484 113.18 56.6484H119.75C120.174 56.6484 120.519 56.9933 120.519 57.418V65.3359C120.519 65.7606 120.174 66.1054 119.75 66.1054ZM113.18 57.0166C112.958 57.0166 112.777 57.1969 112.777 57.4188V65.3367C112.777 65.5586 112.958 65.739 113.18 65.739H119.75C119.972 65.739 120.152 65.5586 120.152 65.3367V57.4188C120.152 57.1969 119.972 57.0166 119.75 57.0166H113.18Z" fill="#010101"/>
<path d="M110.609 66.1046H104.157C103.7 66.1046 103.328 65.7331 103.328 65.2761V57.477C103.328 57.0199 103.7 56.6484 104.157 56.6484H110.609C111.066 56.6484 111.437 57.0199 111.437 57.477V65.2761C111.437 65.7331 111.066 66.1046 110.609 66.1046ZM104.157 57.0157C103.902 57.0157 103.695 57.2227 103.695 57.477V65.2761C103.695 65.5304 103.902 65.7373 104.157 65.7373H110.609C110.863 65.7373 111.07 65.5304 111.07 65.2761V57.477C111.07 57.2227 110.863 57.0157 110.609 57.0157H104.157Z" fill="#010101"/>
<path d="M119.918 76.207H113.013C112.68 76.207 112.41 75.9369 112.41 75.6045V67.3525C112.41 67.0201 112.68 66.75 113.013 66.75H119.918C120.25 66.75 120.52 67.0201 120.52 67.3525V75.6045C120.52 75.9369 120.25 76.207 119.918 76.207ZM113.013 67.1173C112.883 67.1173 112.778 67.2228 112.778 67.3517V75.6037C112.778 75.7333 112.884 75.838 113.013 75.838H119.918C120.047 75.838 120.153 75.7325 120.153 75.6037V67.3517C120.153 67.222 120.047 67.1173 119.918 67.1173H113.013Z" fill="#010101"/>
<path d="M110.592 76.207H104.173C103.707 76.207 103.328 75.8281 103.328 75.3619V67.5952C103.328 67.1289 103.707 66.75 104.173 66.75H110.592C111.058 66.75 111.437 67.1289 111.437 67.5952V75.3619C111.437 75.8281 111.058 76.207 110.592 76.207ZM104.173 67.1173C103.91 67.1173 103.695 67.3317 103.695 67.5952V75.3619C103.695 75.6253 103.91 75.8397 104.173 75.8397H110.592C110.856 75.8397 111.07 75.6253 111.07 75.3619V67.5952C111.07 67.3317 110.856 67.1173 110.592 67.1173H104.173Z" fill="#010101"/>
<path d="M96.363 101.757H89.793C89.3683 101.757 89.0234 101.413 89.0234 100.988V90.9101C89.0234 90.4855 89.3683 90.1406 89.793 90.1406H96.363C96.7877 90.1406 97.1325 90.4855 97.1325 90.9101V100.988C97.1325 101.413 96.7868 101.757 96.363 101.757ZM89.7921 90.5079C89.5702 90.5079 89.3899 90.6883 89.3899 90.9101V100.988C89.3899 101.21 89.5702 101.39 89.7921 101.39H96.3622C96.5841 101.39 96.7644 101.21 96.7644 100.988V90.9101C96.7644 90.6883 96.5841 90.5079 96.3622 90.5079H89.7921Z" fill="#010101"/>
<path d="M87.222 101.757H80.7699C80.3129 101.757 79.9414 101.386 79.9414 100.929V90.9692C79.9414 90.5121 80.3129 90.1406 80.7699 90.1406H87.222C87.679 90.1406 88.0505 90.5121 88.0505 90.9692V100.929C88.0505 101.386 87.679 101.757 87.222 101.757ZM80.7691 90.5079C80.5148 90.5079 80.3079 90.7149 80.3079 90.9692V100.929C80.3079 101.183 80.5148 101.39 80.7691 101.39H87.2211C87.4754 101.39 87.6824 101.183 87.6824 100.929V90.9692C87.6824 90.7149 87.4754 90.5079 87.2211 90.5079H80.7691Z" fill="#010101"/>
<path d="M96.5309 114.258H89.6259C89.2935 114.258 89.0234 113.988 89.0234 113.656V103.243C89.0234 102.911 89.2935 102.641 89.6259 102.641H96.5309C96.8633 102.641 97.1334 102.911 97.1334 103.243V113.656C97.1334 113.988 96.8633 114.258 96.5309 114.258ZM89.6259 103.009C89.4963 103.009 89.3916 103.114 89.3916 103.243V113.656C89.3916 113.785 89.4971 113.89 89.6259 113.89H96.5309C96.6605 113.89 96.7652 113.785 96.7652 113.656V103.243C96.7652 103.113 96.6597 103.009 96.5309 103.009H89.6259Z" fill="#010101"/>
<path d="M87.2062 114.257H80.7866C80.3204 114.257 79.9414 113.879 79.9414 113.412V103.486C79.9414 103.02 80.3204 102.641 80.7866 102.641H87.2062C87.6724 102.641 88.0513 103.02 88.0513 103.486V113.412C88.0513 113.879 87.6724 114.257 87.2062 114.257ZM80.7866 103.008C80.5231 103.008 80.3087 103.222 80.3087 103.486V113.412C80.3087 113.676 80.5231 113.89 80.7866 113.89H87.2062C87.4696 113.89 87.684 113.676 87.684 113.412V103.486C87.684 103.222 87.4696 103.008 87.2062 103.008H80.7866Z" fill="#010101"/>
<path d="M112.651 40.2169L151.785 62.0311C152.615 62.494 152.772 63.4339 152.124 64.058L150.629 66.0159C149.964 66.8859 148.805 67.1469 147.857 66.64L112.366 47.6736C112.129 47.5465 111.847 47.5456 111.609 47.6711L75.2449 66.8361C74.7654 67.0887 74.1828 66.9641 73.8371 66.5344L72.2981 64.6189C71.423 63.5295 71.7828 62.0735 73.1091 61.3405L111.324 40.2144C111.74 39.985 112.238 39.9858 112.652 40.2169H112.651Z" fill="white"/>
<path d="M74.7176 67.1484C74.3312 67.1484 73.9531 66.9739 73.6905 66.6465L72.1514 64.731C71.7168 64.1908 71.5473 63.541 71.6736 62.9011C71.8115 62.2014 72.301 61.5723 73.0165 61.1767L111.232 40.0506C111.704 39.7896 112.266 39.7904 112.738 40.053L151.873 61.8673C152.336 62.1258 152.636 62.5379 152.695 62.9983C152.751 63.4296 152.597 63.8476 152.26 64.1767L150.773 66.1238C150.057 67.062 148.793 67.3462 147.768 66.7986L112.277 47.8322C112.094 47.7342 111.877 47.7333 111.693 47.8297L75.3284 66.9947C75.1331 67.0977 74.9245 67.1468 74.7193 67.1468L74.7176 67.1484ZM111.982 40.2234C111.785 40.2234 111.589 40.2733 111.409 40.3722L73.1935 61.4983C72.5636 61.8465 72.1514 62.3701 72.0334 62.9717C71.9287 63.5028 72.0725 64.0463 72.4373 64.5008L73.9763 66.4163C74.2672 66.7786 74.7517 66.8834 75.1547 66.6706L111.519 47.5056C111.811 47.3519 112.158 47.3536 112.448 47.509L147.939 66.4753C148.803 66.9374 149.872 66.6964 150.478 65.9019L151.973 63.944C151.979 63.9366 151.985 63.9299 151.992 63.9233C152.249 63.6748 152.369 63.3632 152.328 63.0465C152.283 62.7025 152.051 62.39 151.691 62.1897L112.556 40.3755C112.376 40.2749 112.178 40.2242 111.98 40.2242L111.982 40.2234Z" fill="#010101"/>
<path d="M120.984 89.5938H102.564C101.955 89.5938 101.461 90.0875 101.461 90.6965V130.988C101.461 131.597 101.955 132.09 102.564 132.09H120.984C121.593 132.09 122.087 131.597 122.087 130.988V90.6965C122.087 90.0875 121.593 89.5938 120.984 89.5938Z" fill="white"/>
<path d="M120.988 132.274H102.568C101.858 132.274 101.281 131.697 101.281 130.988V90.6966C101.281 89.9869 101.859 89.4102 102.568 89.4102H120.988C121.698 89.4102 122.274 89.9869 122.274 90.6966V130.988C122.274 131.697 121.697 132.274 120.988 132.274ZM102.567 89.7775C102.06 89.7775 101.648 90.1897 101.648 90.6966V130.988C101.648 131.495 102.06 131.907 102.567 131.907H120.987C121.494 131.907 121.906 131.495 121.906 130.988V90.6966C121.906 90.1897 121.494 89.7775 120.987 89.7775H102.567Z" fill="#010101"/>
<path d="M121.364 130.529L103.4 130.592C102.957 130.592 102.598 130.233 102.598 129.791V91.5824C102.598 91.1403 102.957 90.7812 103.4 90.7812L120.74 90.802C121.057 90.802 121.311 91.0621 121.305 91.3787L121.365 130.529H121.364Z" fill="white"/>
<path d="M103.4 130.772C102.856 130.772 102.414 130.33 102.414 129.787V91.5785C102.414 91.035 102.856 90.5938 103.4 90.5938L120.741 90.6145C120.943 90.6145 121.134 90.6951 121.276 90.8397C121.417 90.9843 121.493 91.1763 121.488 91.3782L121.548 130.524C121.548 130.626 121.467 130.708 121.365 130.708L103.401 130.771L103.4 130.772ZM103.4 90.9611C103.059 90.9611 102.782 91.2378 102.782 91.5785V129.787C102.782 130.128 103.06 130.405 103.4 130.405L121.181 130.342L121.121 91.3749C121.124 91.2677 121.085 91.1705 121.013 91.0965C120.941 91.0226 120.844 90.9818 120.741 90.9818L103.4 90.9611H103.4Z" fill="#010101"/>
<path d="M124.657 128.305H98.989C98.7017 128.305 98.4688 128.538 98.4688 128.825V131.49C98.4688 131.777 98.7017 132.01 98.989 132.01H124.657C124.944 132.01 125.177 131.777 125.177 131.49V128.825C125.177 128.538 124.944 128.305 124.657 128.305Z" fill="white"/>
<path d="M124.654 132.197H98.986C98.5979 132.197 98.2812 131.881 98.2812 131.493V128.829C98.2812 128.441 98.597 128.125 98.986 128.125H124.654C125.042 128.125 125.358 128.441 125.358 128.829V131.493C125.358 131.881 125.043 132.197 124.654 132.197ZM98.986 128.491C98.8006 128.491 98.6494 128.643 98.6494 128.828V131.492C98.6494 131.678 98.8006 131.829 98.986 131.829H124.654C124.839 131.829 124.99 131.678 124.99 131.492V128.828C124.99 128.643 124.839 128.491 124.654 128.491H98.986Z" fill="#010101"/>
<path d="M143.517 83.3229H143.515L79.2093 82.7736C79.108 82.7727 79.0265 82.6896 79.0274 82.5882C79.0282 82.4877 79.1105 82.4062 79.211 82.4062H79.2127L143.519 82.9556C143.62 82.9564 143.701 83.0395 143.701 83.1409C143.7 83.2414 143.618 83.3229 143.517 83.3229Z" fill="#010101"/>
<path d="M35.3411 48.6019C42.9529 48.6019 49.1235 42.4361 49.1235 34.8303C49.1235 27.2244 42.9529 21.0586 35.3411 21.0586C27.7292 21.0586 21.5586 27.2244 21.5586 34.8303C21.5586 42.4361 27.7292 48.6019 35.3411 48.6019Z" fill="#010101"/>
<path d="M35.9283 47.7842C43.3143 47.7842 49.3019 41.8015 49.3019 34.4214C49.3019 27.0413 43.3143 21.0586 35.9283 21.0586C28.5423 21.0586 22.5547 27.0413 22.5547 34.4214C22.5547 41.8015 28.5423 47.7842 35.9283 47.7842Z" fill="white"/>
<path d="M35.9284 47.9679C28.4525 47.9679 22.3711 41.8907 22.3711 34.4215C22.3711 26.9522 28.4525 20.875 35.9284 20.875C43.4042 20.875 49.4856 26.9522 49.4856 34.4215C49.4856 41.8907 43.4042 47.9679 35.9284 47.9679ZM35.9284 21.2423C28.6553 21.2423 22.7384 27.1542 22.7384 34.4215C22.7384 41.6887 28.6553 47.6006 35.9284 47.6006C43.2014 47.6006 49.1183 41.6887 49.1183 34.4215C49.1183 27.1542 43.2014 21.2423 35.9284 21.2423Z" fill="#010101"/>
<path d="M35.93 45.6346C42.1282 45.6346 47.1529 40.614 47.1529 34.4208C47.1529 28.2276 42.1282 23.207 35.93 23.207C29.7317 23.207 24.707 28.2276 24.707 34.4208C24.707 40.614 29.7317 45.6346 35.93 45.6346Z" fill="white"/>
<path d="M45.3636 40.6781C45.3295 40.6781 45.2946 40.669 45.2639 40.6491C45.1783 40.5942 45.1542 40.4804 45.209 40.3948C45.7816 39.5089 46.2229 38.5474 46.5196 37.5386C46.5478 37.4413 46.65 37.3848 46.7481 37.4139C46.8453 37.443 46.901 37.5444 46.8727 37.6424C46.5653 38.6854 46.1099 39.6784 45.5182 40.5942C45.4833 40.6482 45.4243 40.6781 45.3636 40.6781Z" fill="#010101"/>
<path d="M46.0337 29.7109C45.9656 29.7109 45.9 29.6727 45.8684 29.607C44.0044 25.771 40.1967 23.3877 35.9319 23.3877C32.4283 23.3877 29.0976 25.0755 27.0233 27.9026C26.9635 27.984 26.848 28.0023 26.7666 27.9417C26.6851 27.8818 26.6668 27.7663 26.7267 27.6849C28.8707 24.7638 32.3111 23.0195 35.9319 23.0195C40.2723 23.0195 44.3027 25.5417 46.1991 29.4458C46.2432 29.5372 46.2058 29.6469 46.1144 29.6918C46.0886 29.7043 46.0612 29.7101 46.0337 29.7101V29.7109Z" fill="#010101"/>
<path d="M35.93 45.817C29.64 45.817 24.5234 40.7037 24.5234 34.4187C24.5234 32.4666 25.0262 30.5403 25.9769 28.8476C26.0268 28.7586 26.1381 28.7279 26.227 28.7777C26.3151 28.8276 26.3467 28.9398 26.2968 29.0279C25.3769 30.6658 24.8908 32.5298 24.8908 34.4187C24.8908 40.5009 29.8428 45.4488 35.93 45.4488C36.0314 45.4488 36.1137 45.5311 36.1137 45.6325C36.1137 45.7339 36.0314 45.8161 35.93 45.8161V45.817Z" fill="#010101"/>
<path d="M34.8993 42.3351V40.4919C33.5979 40.4337 32.3356 40.0847 31.5977 39.6575L32.1802 37.3872C32.9963 37.8334 34.1422 38.2406 35.4046 38.2406C36.5115 38.2406 37.2694 37.8135 37.2694 37.0373C37.2694 36.2612 36.6478 35.834 35.2109 35.3487C33.1325 34.6498 31.7148 33.68 31.7148 31.7978C31.7148 30.09 32.919 28.7512 34.9974 28.3432V26.5H36.9004V28.2077C38.2018 28.2659 39.076 28.5377 39.7167 28.8485L39.1533 31.0415C38.648 30.828 37.7547 30.3817 36.3569 30.3817C35.0946 30.3817 34.6866 30.9252 34.6866 31.4687C34.6866 32.1094 35.3663 32.5166 37.0167 33.1374C39.3278 33.9526 40.2602 35.0196 40.2602 36.7664C40.2602 38.5132 39.0369 39.9683 36.8032 40.3564V42.3359H34.9001L34.8993 42.3351Z" fill="#010101"/>
<path d="M103.622 148.038C103.525 148.038 103.445 147.963 103.438 147.866C103.431 147.764 103.509 147.677 103.61 147.67C105.385 147.559 109.726 146.184 114.589 143.774C117.742 142.211 123.495 139.011 126.591 135.139C126.654 135.06 126.77 135.047 126.849 135.11C126.928 135.173 126.942 135.289 126.878 135.369C121.527 142.063 107.638 147.786 103.633 148.037C103.629 148.037 103.626 148.037 103.622 148.037V148.038Z" fill="#010101"/>
<path d="M110.328 149.258C110.248 149.258 110.174 149.205 110.151 149.124C110.124 149.026 110.181 148.924 110.279 148.898C115.079 147.571 119.495 145.226 123.402 141.926C123.48 141.861 123.596 141.871 123.661 141.948C123.727 142.025 123.717 142.141 123.64 142.207C119.691 145.541 115.229 147.911 110.377 149.252C110.361 149.256 110.344 149.258 110.328 149.258Z" fill="#010101"/>
<path d="M140.077 42.7774C140.012 42.7774 139.95 42.7433 139.917 42.6835C134.876 33.6811 127.426 25.5462 118.375 19.1582C118.292 19.1 118.272 18.9853 118.331 18.9022C118.39 18.8191 118.504 18.7992 118.587 18.8582C127.683 25.277 135.169 33.4542 140.237 42.504C140.287 42.5929 140.256 42.7043 140.167 42.7541C140.138 42.7699 140.108 42.7774 140.077 42.7774Z" fill="#010101"/>
<path d="M121.184 29.2455C120.843 29.2455 120.446 29.1691 120.091 28.9081C119.824 28.712 119.679 28.3389 119.525 27.9433C119.368 27.537 119.204 27.1156 118.911 26.8838C118.681 26.7009 118.27 26.6777 117.834 26.6519C117.307 26.6212 116.763 26.5896 116.397 26.2688C116.113 26.0203 116.061 25.5425 116.01 25.0805C115.969 24.699 115.925 24.3043 115.761 24.1439C115.548 23.937 115.122 23.9237 114.746 23.912C114.462 23.9029 114.216 23.8954 114.041 23.8098C113.949 23.765 113.912 23.6553 113.956 23.5638C114.001 23.4724 114.111 23.435 114.202 23.4799C114.306 23.5306 114.535 23.5381 114.757 23.5447C115.178 23.558 115.702 23.5738 116.017 23.8813C116.276 24.1339 116.327 24.5951 116.375 25.0414C116.418 25.4336 116.462 25.8392 116.638 25.9937C116.909 26.2314 117.391 26.2588 117.855 26.2863C118.328 26.3137 118.817 26.3419 119.139 26.5971C119.51 26.8912 119.7 27.3799 119.867 27.8112C120.001 28.1552 120.127 28.4802 120.307 28.6131C120.983 29.1101 121.893 28.7577 121.902 28.7544C121.996 28.717 122.103 28.7627 122.141 28.8574C122.178 28.9522 122.132 29.0585 122.038 29.0959C122.012 29.1059 121.647 29.2472 121.183 29.2472L121.184 29.2455Z" fill="#010101"/>
<path d="M127.805 34.1198C127.805 34.1198 127.802 34.1198 127.801 34.1198C127.699 34.1173 127.619 34.0334 127.621 33.932L127.649 32.7811C127.651 32.6813 127.733 32.6016 127.832 32.6016C127.834 32.6016 127.835 32.6016 127.836 32.6016C127.938 32.6041 128.018 32.688 128.016 32.7894L127.988 33.9403C127.986 34.0401 127.904 34.1198 127.805 34.1198Z" fill="#010101"/>
<path d="M127.707 38.1511C127.707 38.1511 127.705 38.1511 127.703 38.1511C127.602 38.1486 127.521 38.0647 127.523 37.9633L127.551 36.8123C127.553 36.7126 127.636 36.6328 127.735 36.6328C127.736 36.6328 127.737 36.6328 127.739 36.6328C127.84 36.6353 127.921 36.7192 127.918 36.8206L127.891 37.9716C127.888 38.0713 127.806 38.1511 127.707 38.1511Z" fill="#010101"/>
<path d="M126.328 35.5326C126.328 35.5326 126.325 35.5326 126.324 35.5326L125.173 35.5118C125.071 35.5102 124.991 35.4263 124.992 35.3249C124.994 35.2243 125.076 35.1445 125.176 35.1445C125.177 35.1445 125.178 35.1445 125.179 35.1445L126.331 35.1653C126.432 35.167 126.513 35.2509 126.511 35.3523C126.51 35.4528 126.427 35.5326 126.328 35.5326Z" fill="#010101"/>
<path d="M130.363 35.6068C130.363 35.6068 130.36 35.6068 130.359 35.6068L129.208 35.5861C129.106 35.5844 129.026 35.5005 129.027 35.3991C129.029 35.2985 129.111 35.2188 129.211 35.2188C129.212 35.2188 129.214 35.2188 129.214 35.2188L130.366 35.2395C130.468 35.2412 130.548 35.3251 130.546 35.4265C130.545 35.5271 130.463 35.6068 130.363 35.6068Z" fill="#010101"/>
<path d="M78.4216 10.6137L82.7312 8.31178C86.2381 6.43866 89.4824 4.12011 92.3843 1.41182L92.5339 0.0622432C92.5339 0.0622432 94.0323 0.0331581 94.3522 0.00573449C94.7602 -0.0299994 95.1841 0.1013 95.5123 0.398805C98.9635 3.52095 102.845 6.12786 107.033 8.1356L109.996 9.55581C110.684 9.88573 110.963 10.4957 110.805 11.389L107.822 27.4535C106.401 31.9651 100.08 38.1362 96.5095 41.3564C95.8597 41.9423 95.0461 42.2431 94.2217 42.2631C93.8561 42.2722 92.3445 42.3653 92.3445 42.3653C92.3445 42.3653 91.9921 41.7371 91.5467 41.319C88.0306 38.0182 81.8329 31.646 80.3861 26.5252L77.7019 12.3273C77.5108 11.65 77.8091 10.9403 78.4216 10.6129V10.6137Z" fill="#010101"/>
<path d="M76.7503 10.7498L81.0268 8.46537C84.5062 6.60638 87.7256 4.30612 90.6051 1.61943L91.6863 0.611407C92.2489 0.0870331 93.1281 0.0878666 93.709 0.613902C97.1328 3.71194 100.985 6.29807 105.14 8.29086L108.081 9.70027C108.764 10.0277 109.107 10.8064 108.883 11.5194L105.923 27.4583C104.513 31.935 98.174 38.1153 94.6314 41.3114C93.2594 42.5488 91.1477 42.5056 89.7749 41.2167C86.2863 37.9416 80.1367 31.6192 78.7007 26.5376L76.0373 12.4501C75.8478 11.7787 76.1437 11.0739 76.7512 10.749L76.7503 10.7498Z" fill="white"/>
<path d="M79.5373 12.5484L83.0774 10.657C85.9585 9.11798 88.6236 7.21328 91.0078 4.98864L91.9028 4.15347C92.3682 3.71885 93.0962 3.71968 93.5782 4.15596C96.4136 6.72132 99.6022 8.86286 103.043 10.5124L105.477 11.6792C106.043 11.9501 106.327 12.595 106.141 13.1858L103.69 26.3832C102.522 30.0896 97.2737 35.207 94.3402 37.853C93.2042 38.8776 91.4566 38.8419 90.3189 37.774C87.4303 35.0624 82.3386 29.8278 81.1503 25.6204L78.9456 13.957C78.7885 13.4011 79.0337 12.8169 79.5364 12.5484H79.5373Z" fill="white"/>
<path d="M92.3893 38.7756C91.6007 38.7756 90.8079 38.4856 90.193 37.9081C87.2636 35.1582 82.1711 29.9112 80.9728 25.6705L78.7639 13.9913C78.5861 13.3639 78.8662 12.6974 79.4487 12.3866L82.9888 10.4952C85.8542 8.96447 88.5093 7.06725 90.8802 4.85508L91.7752 4.0199C92.3062 3.52462 93.1514 3.52462 93.699 4.0199C96.5228 6.57529 99.6932 8.70353 103.12 10.3465L105.554 11.5132C106.197 11.8215 106.523 12.557 106.317 13.2293L103.869 26.4159C103.867 26.4234 103.866 26.4308 103.864 26.4375C102.688 30.1696 97.4685 35.277 94.4619 37.9887C93.8794 38.5139 93.1364 38.7748 92.3885 38.7748L92.3893 38.7756ZM79.6232 12.7107C79.1944 12.9401 78.9883 13.432 79.1221 13.9074L81.331 25.5865C82.501 29.7258 87.5437 34.9164 90.4447 37.6405C91.5043 38.6352 93.1613 38.6684 94.2167 37.7169C97.1926 35.0327 102.354 29.9876 103.511 26.3386L105.959 13.152C105.961 13.1445 105.962 13.137 105.964 13.1304C106.122 12.6284 105.878 12.0758 105.396 11.8448L102.962 10.678C99.5029 9.02015 96.3034 6.87113 93.453 4.29248C93.0458 3.9235 92.4193 3.92184 92.027 4.28832L91.132 5.1235C88.7378 7.35728 86.0561 9.27361 83.1625 10.8193L79.6224 12.7107H79.6232Z" fill="#010101"/>
<path d="M92.2745 42.3903C91.3322 42.3903 90.3831 42.043 89.6477 41.3524C89.0028 40.7324 88.3771 40.0768 87.7721 39.4435L87.551 39.2117C86.474 38.0856 81.5087 32.2527 80.7483 31.1308C79.7635 29.6774 78.812 28.1192 78.5195 26.5735C78.5145 26.5461 75.8561 12.4861 75.8561 12.4861C75.645 11.7423 75.9757 10.9562 76.6638 10.5889L80.9403 8.30438C84.4039 6.45453 87.6133 4.16009 90.4795 1.48587L91.5607 0.477841C92.1873 -0.107197 93.1853 -0.107197 93.8327 0.477841C97.2465 3.56591 101.078 6.13958 105.22 8.12488L108.16 9.53429C108.92 9.89828 109.305 10.7692 109.061 11.5636L106.104 27.4926C106.102 27.5001 106.1 27.5076 106.099 27.5142C104.681 32.0134 98.3825 38.1754 94.7543 41.4488C94.0579 42.077 93.1695 42.3887 92.2754 42.3887L92.2745 42.3903ZM78.8802 26.5054C79.1602 27.9846 80.0901 29.5037 81.0524 30.9247C81.8062 32.0383 86.7449 37.8372 87.8161 38.9574L88.038 39.1892C88.6405 39.82 89.2638 40.4723 89.9011 41.0856C91.1934 42.2989 93.2169 42.3396 94.5066 41.1762C98.1041 37.9311 104.346 31.8297 105.744 27.4153L108.701 11.4872C108.703 11.4797 108.705 11.4722 108.706 11.4656C108.903 10.8415 108.599 10.1542 108.001 9.86753L105.061 8.45812C100.886 6.45703 97.0255 3.86425 93.5859 0.752076C93.0798 0.294185 92.3003 0.291692 91.8117 0.747922L90.7305 1.75595C87.841 4.45178 84.6051 6.7645 81.1131 8.62931L76.8367 10.9138C76.3023 11.1988 76.0464 11.8113 76.2134 12.403C78.5477 24.7478 78.8411 26.2993 78.8777 26.5062H78.8802V26.5054Z" fill="#010101"/>
<path d="M100.191 21.0576C99.9205 25.0681 96.4435 28.0374 92.4247 27.6883C88.4059 27.3401 85.3677 23.8058 85.6378 19.7953C85.9079 15.7848 89.3849 12.8156 93.4037 13.1646C97.4225 13.5128 100.461 17.0471 100.191 21.0576Z" fill="white"/>
<path d="M93.0731 27.9049C92.8537 27.9049 92.6335 27.8958 92.4125 27.8758C88.3014 27.5193 85.1818 23.8911 85.4585 19.7875C85.5923 17.803 86.4914 16.0022 87.9906 14.7183C89.4964 13.4277 91.4252 12.8128 93.4238 12.9856C97.5349 13.3421 100.655 16.9704 100.378 21.0739C100.244 23.0584 99.3448 24.8592 97.8465 26.1432C96.5077 27.2908 94.8332 27.9041 93.0739 27.9041L93.0731 27.9049ZM92.7631 13.3247C91.0911 13.3247 89.5014 13.9072 88.2291 14.9975C86.8056 16.2166 85.9521 17.9269 85.825 19.8125C85.5615 23.7174 88.5308 27.1703 92.444 27.5102C94.3429 27.6747 96.1761 27.0905 97.6072 25.8648C99.0307 24.6457 99.8842 22.9354 100.011 21.0498C100.275 17.1449 97.3055 13.692 93.3922 13.3521C93.182 13.3338 92.9726 13.3247 92.764 13.3247H92.7631Z" fill="#010101"/>
<path d="M96.5957 15.548C95.4048 17.9131 94.0885 21.5422 92.7547 25.6258C92.704 25.7812 92.4896 25.7962 92.414 25.6491L88.9254 18.9128C88.8772 18.8206 88.9943 18.7342 89.0691 18.8073L91.8929 21.3635L96.4502 15.4541C96.515 15.3743 96.643 15.4566 96.5965 15.5489L96.5957 15.548Z" fill="#010101"/>
<path d="M17.418 147.631L21.4684 146.836C20.6797 145.824 20.4745 144.68 20.6614 142.597L18.1401 142.457L17.418 147.631Z" fill="white"/>
<path d="M17.4221 147.819C17.3755 147.819 17.3298 147.801 17.2958 147.768C17.2525 147.727 17.2318 147.669 17.2401 147.61L17.9622 142.436C17.9755 142.341 18.0561 142.272 18.1542 142.278L20.6755 142.417C20.7254 142.42 20.7719 142.443 20.8043 142.48C20.8367 142.518 20.8525 142.568 20.8484 142.617C20.6622 144.684 20.8642 145.76 21.6171 146.726C21.6561 146.777 21.6669 146.843 21.6445 146.903C21.622 146.963 21.5705 147.007 21.5074 147.019L17.457 147.815C17.4453 147.817 17.4337 147.818 17.4212 147.818L17.4221 147.819ZM18.303 142.654L17.6398 147.405L21.1542 146.715C20.5076 145.763 20.3165 144.644 20.4661 142.774L18.303 142.654Z" fill="#010101"/>
<path d="M17.2774 145.488C17.0805 146.098 16.6484 147.822 16.4556 148.863C16.3342 149.515 16.7265 150.154 17.3572 150.352C19.1398 150.912 23.4461 151.069 27.0245 151.375C27.2696 151.396 27.7267 151.295 27.9511 150.711C28.7198 148.707 24.8846 147.933 21.2032 145.678C21.2032 145.678 20.973 145.85 20.6356 146.007C20.0713 146.271 19.1755 146.189 18.6536 145.846L17.8176 145.298C17.619 145.167 17.3514 145.261 17.2774 145.488Z" fill="white"/>
<path d="M27.0856 151.565C27.059 151.565 27.0333 151.564 27.0084 151.562C26.0926 151.484 25.117 151.414 24.1729 151.347C21.3317 151.145 18.6483 150.953 17.302 150.53C16.5791 150.304 16.1378 149.573 16.2749 148.833C16.4677 147.795 16.899 146.069 17.1026 145.436C17.1558 145.273 17.2779 145.146 17.4392 145.09C17.6004 145.033 17.7749 145.054 17.9187 145.148L18.7547 145.696C19.2325 146.01 20.0577 146.078 20.558 145.844C20.8721 145.698 21.0907 145.536 21.0932 145.534C21.1538 145.49 21.2344 145.486 21.2992 145.525C22.4361 146.222 23.5954 146.779 24.6183 147.271C26.9061 148.372 28.7136 149.242 28.1227 150.781C27.8992 151.364 27.4421 151.565 27.0865 151.565H27.0856ZM17.6195 145.426C17.5995 145.426 17.5804 145.429 17.5613 145.436C17.5098 145.454 17.4699 145.494 17.4525 145.548C17.253 146.165 16.8217 147.901 16.6356 148.899C16.5317 149.458 16.8649 150.008 17.4109 150.18C18.7164 150.59 21.5028 150.788 24.1978 150.98C25.1435 151.047 26.1208 151.117 27.0391 151.195C27.1264 151.203 27.5626 151.21 27.7787 150.648C28.2258 149.482 26.8779 148.766 24.458 147.602C23.4574 147.121 22.328 146.577 21.2087 145.901C21.1048 145.969 20.9303 146.076 20.7125 146.178C20.1026 146.463 19.1328 146.385 18.5527 146.004L17.7167 145.455C17.6876 145.436 17.6536 145.426 17.6203 145.426L17.6195 145.426Z" fill="#010101"/>
<path d="M16.3266 149.333C16.3225 149.351 16.3192 149.363 16.3183 149.369C16.197 150.022 16.7239 150.301 17.3114 150.606C19.0881 151.527 26.5831 151.398 26.5831 151.398C26.5831 151.398 27.5745 151.469 27.8728 150.888C27.9169 150.802 27.9676 150.748 27.9825 150.64C27.9991 150.524 28.0166 150.104 28.0166 150.104C24.2712 150.502 21.8363 150.32 18.4798 149.526C18.061 149.427 16.8169 149.018 16.4579 148.812C16.4579 148.812 16.4156 148.962 16.3266 149.334V149.333Z" fill="white"/>
<path d="M25.5722 151.589C23.4581 151.589 18.6482 151.504 17.2313 150.769C16.6521 150.468 15.9955 150.128 16.1418 149.337C16.1435 149.329 16.1468 149.313 16.1518 149.292C16.2415 148.914 16.2847 148.762 16.2847 148.762C16.3005 148.708 16.3396 148.663 16.3919 148.643C16.4443 148.621 16.5033 148.625 16.5523 148.653C16.8897 148.846 18.118 149.251 18.526 149.347C21.9747 150.163 24.3656 150.309 28.0013 149.922C28.0545 149.917 28.1077 149.935 28.1467 149.971C28.1858 150.008 28.2065 150.06 28.2049 150.114C28.2032 150.158 28.1866 150.546 28.1692 150.668C28.1525 150.783 28.1077 150.859 28.0719 150.92C28.0619 150.937 28.0511 150.955 28.0412 150.974C27.6905 151.657 26.6193 151.587 26.5744 151.584C26.5129 151.584 26.1398 151.591 25.573 151.591L25.5722 151.589ZM16.5831 149.076C16.564 149.152 16.5399 149.252 16.5099 149.376L16.5033 149.404C16.4111 149.902 16.7842 150.123 17.4008 150.443C19.116 151.333 26.5096 151.215 26.5844 151.214C26.8437 151.23 27.516 151.191 27.7146 150.803C27.7287 150.777 27.7428 150.752 27.757 150.728C27.7869 150.678 27.8002 150.654 27.806 150.614C27.8135 150.562 27.8218 150.431 27.8284 150.308C24.2642 150.671 21.8692 150.514 18.4429 149.703C18.0723 149.615 17.0958 149.3 16.5839 149.075L16.5831 149.076Z" fill="#010101"/>
<path d="M21.5124 147.574C21.4542 147.574 21.3969 147.547 21.3612 147.495C21.303 147.412 21.3238 147.297 21.4069 147.239L22.5262 146.459C22.6102 146.401 22.724 146.421 22.7822 146.505C22.8404 146.588 22.8196 146.702 22.7365 146.76L21.6171 147.541C21.5847 147.563 21.5481 147.574 21.5124 147.574Z" fill="#010101"/>
<path d="M22.9344 148.224C22.8763 148.224 22.8181 148.196 22.7823 148.144C22.725 148.06 22.7458 147.946 22.8297 147.888L23.8087 147.216C23.8926 147.159 24.0073 147.179 24.0646 147.263C24.122 147.347 24.1012 147.461 24.0172 147.519L23.0383 148.192C23.0067 148.213 22.9702 148.224 22.9344 148.224Z" fill="#010101"/>
<path d="M31.5273 146.947L34.3736 147.848L35.8586 146.289C34.2423 145.454 34.7284 143.748 34.775 142.66L31.903 142.539L31.5273 146.947Z" fill="white"/>
<path d="M34.3742 148.032C34.3559 148.032 34.3368 148.029 34.3185 148.023L31.4723 147.122C31.39 147.097 31.3377 147.017 31.3443 146.931L31.7199 142.524C31.7282 142.426 31.8122 142.351 31.9111 142.356L34.7831 142.477C34.8321 142.479 34.8778 142.5 34.9111 142.536C34.9443 142.572 34.9617 142.619 34.9593 142.668C34.9518 142.845 34.9327 143.035 34.9135 143.235C34.8105 144.287 34.6933 145.48 35.944 146.125C35.9955 146.152 36.0313 146.201 36.0412 146.258C36.0504 146.316 36.0329 146.374 35.993 146.415L34.508 147.974C34.4731 148.012 34.4249 148.032 34.375 148.032H34.3742ZM31.7241 146.817L34.3202 147.639L35.5642 146.333C34.3177 145.549 34.4498 144.2 34.5479 143.2C34.5604 143.074 34.572 142.952 34.5811 142.837L32.0723 142.731L31.7241 146.817Z" fill="#010101"/>
<path d="M31.1134 146.049C31.0012 146.727 30.8151 147.986 30.7744 149.118C30.7486 149.829 31.2638 150.442 31.9627 150.549C33.9372 150.854 38.4222 151.247 42.2574 150.993C42.52 150.976 42.9879 150.795 43.1333 150.141C43.6311 147.894 39.6488 147.277 35.3973 145.484L34.6311 146.195C34.2239 146.572 33.6314 146.668 33.1278 146.437L31.6544 145.76C31.4234 145.654 31.155 145.797 31.1134 146.049V146.049Z" fill="white"/>
<path d="M39.5833 151.255C36.531 151.255 33.521 150.973 31.9346 150.728C31.1401 150.605 30.5626 149.908 30.5908 149.108C30.6324 147.959 30.8227 146.676 30.9324 146.015C30.9615 145.838 31.0695 145.687 31.2282 145.603C31.3853 145.52 31.5698 145.515 31.7318 145.589L33.2052 146.266C33.6432 146.467 34.1534 146.385 34.5074 146.056L35.2736 145.346C35.3268 145.297 35.4041 145.283 35.4697 145.311C36.5293 145.758 37.5955 146.139 38.5354 146.476C41.4331 147.514 43.7218 148.333 43.3137 150.177C43.16 150.871 42.6556 151.148 42.2708 151.173C41.3958 151.231 40.4874 151.256 39.5841 151.256L39.5833 151.255ZM31.2947 146.074C31.1867 146.727 30.9989 147.991 30.9581 149.12C30.9365 149.734 31.3803 150.269 31.9911 150.364C34.0304 150.679 38.444 151.057 42.2459 150.806C42.3398 150.8 42.8126 150.736 42.9539 150.096C43.2921 148.569 41.2445 147.836 38.4107 146.822C37.4983 146.495 36.4678 146.126 35.4348 145.695L34.7559 146.325C34.293 146.754 33.6232 146.862 33.0507 146.598L31.5773 145.922C31.5199 145.895 31.4551 145.898 31.3994 145.927C31.3429 145.957 31.3047 146.01 31.2939 146.074H31.2947Z" fill="#010101"/>
<path d="M30.7818 148.945C30.7818 148.945 30.7769 149.06 30.7744 149.116C30.7486 149.826 31.2638 150.439 31.9627 150.547C33.9372 150.852 38.4222 151.244 42.2574 150.99C42.52 150.973 42.9879 150.793 43.1333 150.138C43.1782 149.937 43.1624 149.573 43.1624 149.573L42.8906 149.579C39.0189 149.675 35.1455 149.485 31.3021 149.01L30.7818 148.946V148.945Z" fill="white"/>
<path d="M39.5833 151.257C36.531 151.257 33.521 150.974 31.9346 150.729C31.1401 150.606 30.5626 149.91 30.5908 149.109L30.5983 148.937C30.6008 148.886 30.6241 148.839 30.6631 148.805C30.7022 148.772 30.7537 148.757 30.8044 148.763L31.3255 148.827C35.1473 149.299 39.0365 149.49 42.8874 149.395L43.1592 149.388C43.2564 149.385 43.3428 149.464 43.347 149.564C43.3487 149.604 43.3619 149.959 43.3137 150.177C43.16 150.871 42.6556 151.148 42.2708 151.173C41.3958 151.231 40.4874 151.256 39.5841 151.256L39.5833 151.257ZM30.9581 149.153C30.9515 149.754 31.3911 150.273 31.9919 150.366C34.0313 150.682 38.4448 151.059 42.2467 150.808C42.3406 150.802 42.8135 150.738 42.9547 150.098C42.9739 150.011 42.9805 149.876 42.9822 149.761L42.8966 149.763C39.0282 149.858 35.1207 149.667 31.2806 149.193L30.9581 149.153Z" fill="#010101"/>
<path d="M36.3554 148.184C36.3081 148.184 36.2607 148.166 36.225 148.129C36.1535 148.057 36.1543 147.941 36.2266 147.869L37.631 146.479C37.7033 146.407 37.8197 146.408 37.8912 146.481C37.9626 146.553 37.9618 146.669 37.8895 146.741L36.4851 148.131C36.4493 148.167 36.4028 148.184 36.3554 148.184Z" fill="#010101"/>
<path d="M37.9572 148.641C37.9148 148.641 37.8724 148.626 37.8375 148.597C37.7603 148.53 37.7519 148.415 37.8176 148.338L39.0716 146.877C39.1381 146.799 39.2544 146.791 39.3309 146.857C39.4082 146.923 39.4165 147.039 39.3508 147.116L38.0968 148.577C38.0602 148.619 38.0087 148.641 37.9572 148.641Z" fill="#010101"/>
<path d="M26.9779 113.469C27.4101 114.735 29.058 123.281 29.52 126.628C29.9405 129.673 30.8231 140.903 30.9477 143.085C30.9585 143.273 31.1148 143.42 31.3034 143.42H35.4253C35.6081 143.42 35.7618 143.282 35.7801 143.1C36.0078 140.836 37.9374 128.141 37.7255 122.011C37.4945 115.315 34.4895 107.351 33.912 105.158C33.3344 102.965 32.6181 97.7734 32.6181 97.7734L18.7334 99.9283C18.7334 99.9283 16.9849 111.174 16.2312 117.971C15.8996 120.962 15.8547 130.68 16.4323 135.875C16.8063 139.24 17.157 141.387 17.2932 142.555C17.3564 143.097 17.816 143.505 18.3619 143.505H21.4126C21.6079 143.505 21.7666 143.349 21.7691 143.155C21.7866 141.753 22.3849 137.315 23.2799 132.747C24.3203 127.437 25.4755 119.126 26.053 115.778C26.2442 114.671 26.4095 113.401 26.5458 112.195C26.5458 112.195 26.545 112.203 26.9771 113.47L26.9779 113.469Z" fill="#010101"/>
<path d="M26.6372 113.308C26.6305 113.308 26.623 113.308 26.6164 113.307C26.5158 113.295 26.4427 113.205 26.4543 113.103C26.5507 112.252 26.6255 111.476 26.6804 110.894C26.7859 109.766 27.3701 108.731 28.2834 108.056C28.3649 107.995 28.4804 108.013 28.5402 108.094C28.6009 108.175 28.5834 108.291 28.502 108.351C27.6734 108.964 27.1424 109.904 27.0469 110.929C26.992 111.512 26.9164 112.291 26.82 113.145C26.8092 113.239 26.7294 113.308 26.6372 113.308Z" fill="white"/>
<path d="M18.2384 106.575C18.1387 106.575 18.0572 106.495 18.0547 106.395C18.0523 106.294 18.1329 106.21 18.2342 106.207C20.0076 106.166 20.8337 104.404 21.1063 103.649C21.1403 103.553 21.2459 103.504 21.3414 103.538C21.437 103.573 21.486 103.678 21.452 103.773C21.1536 104.6 20.2437 106.528 18.2426 106.575C18.2409 106.575 18.2401 106.575 18.2384 106.575Z" fill="white"/>
<path d="M33.4502 106.289C33.4435 106.289 33.4361 106.289 33.4294 106.288C31.169 106.032 31.2339 103.441 31.2347 103.415C31.238 103.314 31.3236 103.236 31.425 103.238C31.5264 103.242 31.6053 103.326 31.602 103.428C31.5995 103.521 31.5497 105.705 33.471 105.923C33.5715 105.934 33.6447 106.025 33.633 106.126C33.6222 106.22 33.5433 106.289 33.451 106.289H33.4502Z" fill="white"/>
<path d="M24.5647 71.9313L24.8863 65.4219L29.5907 67.8734L29.4935 71.9886C29.4486 72.906 28.7381 75.1681 28.7381 75.1681C27.7633 75.867 26.3356 73.9648 25.3575 73.27L25.1306 73.1088C24.7517 72.8396 24.5381 72.395 24.5647 71.9313Z" fill="white"/>
<path d="M28.2635 75.5036C27.5604 75.5036 26.7876 74.7881 26.0879 74.1408C25.7845 73.8599 25.4978 73.5939 25.2469 73.4161L25.02 73.2549C24.587 72.9474 24.3469 72.448 24.3776 71.9178L24.6992 65.4092C24.7026 65.3469 24.7375 65.2904 24.7915 65.2588C24.8455 65.2272 24.912 65.2264 24.9677 65.2555L29.6721 67.707C29.7344 67.7394 29.7726 67.8042 29.7709 67.874L29.6737 71.9892C29.628 72.9241 28.9391 75.1255 28.91 75.2194C28.8984 75.2576 28.8743 75.2901 28.8419 75.3133C28.6574 75.4463 28.4638 75.5036 28.2643 75.5036H28.2635ZM25.0524 65.715L24.7449 71.9377C24.7449 71.9377 24.7449 71.9385 24.7449 71.9394C24.7217 72.3424 24.9045 72.7222 25.2336 72.9566L25.4604 73.1178C25.7305 73.3097 26.0255 73.5831 26.338 73.8723C27.1117 74.5878 27.9851 75.3964 28.5784 75.0482C28.6923 74.6792 29.2674 72.777 29.3064 71.9776L29.4011 67.9812L25.0533 65.7159L25.0524 65.715Z" fill="#010101"/>
<path d="M31.8488 58.0389C30.5865 57.9525 32.1605 59.2605 27.5051 57.8544C25.6511 57.2943 26.5685 59.4608 26.0874 59.317C24.3098 58.7852 24.3713 58.801 23.4979 59.0187C22.9204 59.1625 22.5331 60.2137 22.6328 61.0032C22.7641 62.0453 23.6259 62.3245 24.3672 64.5317C24.8874 66.0824 24.7453 67.0189 25.3661 67.2516C25.9935 67.4868 26.468 66.6516 27.1727 66.8569C28.0852 67.122 27.8865 68.6934 28.7699 69.3566C29.3267 69.7746 30.6314 69.9798 32.7372 68.9909C33.0788 68.8305 33.2574 68.4499 33.161 68.086C33.0372 67.6198 32.8785 67.0306 32.679 66.4812C31.7292 63.861 30.8009 63.2611 31.1475 62.5888C31.6777 61.5591 33.643 62.1749 33.9796 61.3281C34.3286 60.4489 33.5765 58.1578 31.8488 58.0389Z" fill="#010101"/>
<path d="M27.3906 62.4783L27.7446 63.1522C27.9117 63.4697 28.0554 63.7979 28.1768 64.1353C28.4045 64.7677 28.8374 65.8389 29.0734 66.4439C29.833 68.3893 32.2538 66.2885 32.2538 66.2885L32.4266 65.7575L32.7507 65.6303C32.813 65.6054 32.8712 65.568 32.9136 65.5156C33.0183 65.3843 33.0208 65.209 32.9344 65.0785C32.4607 64.3663 31.4734 62.7683 31.1286 61.3398C31.1286 61.3398 29.0768 60.7888 27.3915 62.4783H27.3906Z" fill="white"/>
<path d="M27.5702 62.5094C27.6541 62.6357 27.7322 62.757 27.8045 62.8809C27.8411 62.9423 27.8752 63.0055 27.9092 63.0695L28.0281 63.3013C28.1818 63.6097 28.3123 63.9421 28.4261 64.2554C28.6613 64.8861 28.9123 65.5152 29.1599 66.1459L29.2522 66.3828C29.2813 66.4542 29.312 66.524 29.3486 66.5889C29.4217 66.7193 29.5123 66.8332 29.622 66.9154C29.8397 67.085 30.1397 67.1166 30.4414 67.0576C30.7439 66.9986 31.043 66.8672 31.3264 66.7085C31.6089 66.5498 31.8857 66.3578 32.1308 66.1534L32.076 66.2357L32.2513 65.7055V65.7038C32.2696 65.6506 32.3103 65.6108 32.3585 65.5925C32.4591 65.5534 32.5646 65.526 32.6693 65.4969C32.7599 65.4753 32.8064 65.452 32.8438 65.3839C32.8762 65.3207 32.8713 65.2426 32.8389 65.1811C32.8272 65.1578 32.7857 65.0988 32.7582 65.0573L32.6685 64.921C32.4317 64.5554 32.2056 64.1831 31.9887 63.8049C31.5624 63.0446 31.1785 62.2518 30.9483 61.3883L31.0779 61.5213C30.7812 61.4557 30.4422 61.4332 30.1214 61.4498C29.7973 61.4656 29.4749 61.5213 29.1657 61.616C28.8558 61.7099 28.5599 61.8454 28.2832 62.0141C28.1461 62.0997 28.0098 62.1886 27.8843 62.2908C27.8187 62.339 27.7588 62.3947 27.6965 62.4462C27.6574 62.4795 27.6599 62.4803 27.6375 62.4911C27.6201 62.4986 27.5976 62.5036 27.5694 62.5102L27.5702 62.5094ZM27.207 62.4545C27.2403 62.403 27.2793 62.349 27.3234 62.2983C27.3633 62.2509 27.4239 62.1911 27.4505 62.1695C27.5178 62.1113 27.5818 62.0507 27.6525 61.9975C27.7887 61.8845 27.9367 61.7847 28.0863 61.6892C28.3904 61.5055 28.717 61.3576 29.0577 61.2562C29.3984 61.1532 29.7508 61.0942 30.1048 61.0784C30.4621 61.0651 30.8078 61.0809 31.1735 61.1681C31.24 61.1839 31.2882 61.2354 31.3031 61.2978V61.3019C31.4959 62.1188 31.8483 62.9074 32.2438 63.6653C32.4433 64.0451 32.6594 64.4166 32.8904 64.7781L32.9768 64.9135C33.0076 64.9634 33.0308 64.9908 33.0699 65.0631C33.1364 65.1936 33.1389 65.3523 33.0823 65.4869C33.0557 65.5542 33.015 65.6166 32.9602 65.6722C32.9087 65.7246 32.8355 65.7662 32.7848 65.7903C32.6884 65.8401 32.592 65.8908 32.4915 65.9315L32.5987 65.8177L32.4283 66.3495V66.352C32.4175 66.3844 32.3976 66.4119 32.3735 66.4326C32.0992 66.6628 31.8167 66.8581 31.5101 67.0335C31.2042 67.2055 30.8768 67.3542 30.5128 67.4282C30.3317 67.4631 30.1389 67.4772 29.9436 67.4481C29.7491 67.4199 29.5538 67.3426 29.3934 67.2204C29.2314 67.0999 29.1084 66.942 29.0153 66.7775C28.9688 66.6952 28.9306 66.6096 28.8957 66.524L28.8026 66.288C28.5533 65.659 28.2982 65.0307 28.0597 64.3925C27.9466 64.0675 27.832 63.7684 27.6874 63.4675L27.4464 62.9839C27.3608 62.8077 27.2818 62.6291 27.2087 62.4554L27.207 62.4545Z" fill="#010101"/>
<path d="M27.8774 64.8278C27.8774 64.8278 27.0289 63.2057 26.3716 63.7475C25.7142 64.2893 26.694 66.0511 27.8774 64.8278Z" fill="white"/>
<path d="M31.0866 65.2146C31.055 65.2146 31.0218 65.213 30.9886 65.2096C30.8431 65.1947 30.701 65.0858 30.5897 64.9013C30.3828 64.5598 30.2697 63.9282 30.5714 63.1778C30.6246 63.0448 30.7426 62.9335 30.8938 62.872C31.0783 62.7972 31.2877 62.8038 31.4847 62.8903C31.7531 63.0083 31.8952 63.2991 31.9176 63.7786C31.9459 64.3844 31.842 64.79 31.6002 65.0202C31.4656 65.1482 31.2894 65.2146 31.0866 65.2146ZM31.1622 63.1886C31.1049 63.1886 31.0609 63.2019 31.0326 63.2127C30.9628 63.241 30.9246 63.2858 30.9129 63.3149C30.6204 64.0421 30.8091 64.5241 30.8739 64.6545C30.9445 64.7966 31.0143 64.8398 31.0285 64.844C31.1639 64.8573 31.2686 64.8282 31.3476 64.7534C31.4556 64.6504 31.5794 64.4011 31.5503 63.7961C31.5354 63.4745 31.4631 63.2825 31.3368 63.2268C31.2711 63.1977 31.2113 63.1878 31.1622 63.1878V63.1886Z" fill="#010101"/>
<path d="M27.109 63.6426C27.0168 63.6426 26.9378 63.5736 26.927 63.4797C26.9154 63.3792 26.9877 63.2877 27.0882 63.2761L31.0414 62.8215C31.1436 62.8099 31.2334 62.8822 31.245 62.9828C31.2566 63.0833 31.1843 63.1747 31.0838 63.1864L27.1306 63.6409C27.1231 63.6409 27.1165 63.6418 27.1098 63.6418L27.109 63.6426Z" fill="#010101"/>
<path d="M32.8131 64.8255C32.7433 64.8255 32.676 64.7848 32.6453 64.7166C32.6062 64.6302 32.6395 64.5305 32.7192 64.4831C32.8248 64.3668 33.05 63.6621 32.7699 63.1701C32.7201 63.082 32.6611 63.0612 32.6212 63.0529C32.4176 63.0122 32.1134 63.2033 32.022 63.2732C31.9414 63.3346 31.8267 63.3197 31.7644 63.2391C31.7029 63.1585 31.7179 63.043 31.7985 62.9815C31.8475 62.9432 32.2938 62.6117 32.6943 62.6923C32.863 62.7263 32.9993 62.8286 33.0907 62.9881C33.4065 63.5432 33.2345 64.1881 33.1746 64.3726C33.1206 64.5371 33.0275 64.7465 32.8896 64.8089C32.8655 64.8197 32.8397 64.8247 32.814 64.8247L32.8131 64.8255Z" fill="#010101"/>
<path d="M33.7258 79.1641C33.7258 79.1641 35.0297 84.4369 36.272 85.9252C37.5144 87.4136 39.9983 89.1504 42.9169 89.3989C42.9169 89.3989 44.5681 89.2925 43.5293 92.2834C43.3606 92.7679 42.9285 93.1136 42.4174 93.1659C40.1803 93.3944 33.9186 93.5565 31.4904 88.6543C28.5095 82.6377 33.7258 79.1641 33.7258 79.1641Z" fill="white"/>
<path d="M40.6057 93.4427C37.6614 93.4427 33.301 92.7106 31.3315 88.7367C28.3141 82.6453 33.5761 79.047 33.6301 79.0112C33.6799 78.978 33.7423 78.9713 33.7988 78.993C33.8545 79.0146 33.896 79.0619 33.911 79.1201C33.9243 79.1724 35.219 84.3688 36.4198 85.8073C37.6007 87.2225 40.0131 88.9627 42.9284 89.2145C43.0173 89.2128 43.4752 89.2253 43.7843 89.6317C44.179 90.151 44.1541 91.0635 43.7095 92.3433C43.5176 92.8951 43.0206 93.289 42.4431 93.348C41.9503 93.3979 41.3195 93.4411 40.6065 93.4411L40.6057 93.4427ZM33.6209 79.4724C32.6728 80.2013 29.0994 83.4015 31.6614 88.5738C34.0049 93.3048 39.955 93.2341 42.4048 92.984C42.8411 92.9391 43.2159 92.6408 43.3613 92.2236C43.8616 90.7835 43.7079 90.1403 43.491 89.8552C43.2741 89.5702 42.9392 89.5818 42.9342 89.5826C42.925 89.5826 42.9159 89.5826 42.9068 89.5826C39.8744 89.325 37.3647 87.5151 36.1364 86.0433C35.0287 84.7154 33.9052 80.5735 33.6201 79.4724H33.6209Z" fill="#010101"/>
<path d="M24.189 71.3329C24.189 71.3329 23.4294 71.7617 22.0557 72.9284C20.6821 74.0943 18.5945 74.16 17.3804 77.0494C15.2663 82.0804 15.8838 92.887 17.8533 98.3568C18.2497 99.4571 18.0245 102.012 18.0245 102.012L29.0413 101.924L30.523 97.6845L31.3407 101.838L34.2468 101.8C34.2468 101.8 32.4742 92.5538 33.7291 86.3029C34.2485 83.7151 35.4019 79.4278 32.485 75.5885C31.8202 74.7143 30.4989 73.1786 29.9097 72.252L29.1942 72.9666C29.0529 72.9999 28.9009 74.1126 28.7346 74.1409C26.9812 74.445 26.4834 73.6456 25.261 72.3533L24.1881 71.332L24.189 71.3329Z" fill="white"/>
<path d="M18.0242 102.198C17.9727 102.198 17.9236 102.177 17.8896 102.139C17.8547 102.101 17.8372 102.05 17.8414 101.999C17.8439 101.974 18.0583 99.4708 17.6801 98.4221C15.699 92.9199 15.0475 82.1283 17.2106 76.9809C18.0749 74.925 19.3829 74.2477 20.5364 73.651C21.0458 73.3876 21.5269 73.1383 21.9366 72.7909C23.3078 71.6267 24.0665 71.1937 24.0981 71.1763C24.1687 71.1364 24.2568 71.1472 24.315 71.2028L25.3878 72.2242C25.525 72.3688 25.6471 72.5009 25.7626 72.6264C26.7308 73.6735 27.2219 74.2053 28.6504 73.9726C28.6978 73.8796 28.7643 73.6294 28.8058 73.474C28.9105 73.0818 28.9671 72.889 29.0875 72.8175L29.779 72.1261C29.8188 72.0871 29.8737 72.0671 29.9294 72.0738C29.9851 72.0796 30.0341 72.1103 30.064 72.1577C30.4479 72.761 31.1551 73.6361 31.7784 74.4089C32.1 74.807 32.4033 75.1826 32.6302 75.4818C35.405 79.1341 34.5698 83.1521 34.0172 85.8113C33.9789 85.9958 33.9415 86.1737 33.9075 86.344C32.6742 92.4878 34.4077 101.678 34.426 101.77C34.436 101.823 34.4219 101.879 34.3878 101.921C34.3537 101.963 34.3022 101.988 34.2474 101.988L31.3413 102.026C31.2474 102.025 31.1759 101.965 31.1584 101.878L30.4712 98.388L29.213 101.988C29.1873 102.061 29.1183 102.11 29.041 102.111L18.0242 102.2H18.0225L18.0242 102.198ZM24.1638 71.5652C23.9045 71.7281 23.2156 72.1868 22.1743 73.0702C21.733 73.4449 21.2336 73.7034 20.7051 73.9768C19.5533 74.5726 18.3616 75.1893 17.5488 77.123C15.4763 82.056 16.0779 92.8891 18.025 98.2974C18.3682 99.2514 18.2668 101.195 18.222 101.829L28.9089 101.743L30.3474 97.6259C30.3748 97.5478 30.4496 97.4971 30.5344 97.503C30.6175 97.5088 30.6856 97.5694 30.7014 97.6509L31.4892 101.654L34.0255 101.621C33.7712 100.189 32.4058 91.9534 33.5468 86.2684C33.5809 86.0972 33.6183 85.9185 33.6565 85.7332C34.1958 83.1396 35.0102 79.2205 32.3368 75.7012C32.1133 75.407 31.8108 75.033 31.4917 74.6366C30.9241 73.9336 30.2875 73.1458 29.8787 72.5424L29.3227 73.0984C29.3152 73.1059 29.3069 73.1125 29.2978 73.1192C29.2596 73.1915 29.1997 73.415 29.159 73.5671C29.0285 74.0549 28.9579 74.2909 28.7634 74.3242C27.0981 74.6134 26.4582 73.9211 25.4901 72.874C25.3746 72.7494 25.2541 72.6181 25.1244 72.4818L24.1604 71.5643L24.1638 71.5652Z" fill="#010101"/>
<path d="M43.3258 90.397C43.074 90.7677 42.2978 91.7499 43.2227 92.3516C43.4629 92.5078 44.9097 92.7023 45.2903 92.8868C45.8537 93.1593 46.2734 93.7386 47.1443 94.0643C48.7598 94.6685 49.7637 94.2662 50.618 93.3829C51.4723 92.4987 49.0797 89.5535 47.3712 89.7006C45.6626 89.8477 43.6914 89.8577 43.3249 90.3979L43.3258 90.397Z" fill="white"/>
<path d="M48.5535 94.5379C48.1023 94.5379 47.6161 94.4373 47.0835 94.2379C46.5408 94.0351 46.1677 93.7409 45.8378 93.4808C45.6259 93.3138 45.4248 93.1559 45.2137 93.0537C45.0441 92.9714 44.5813 92.875 44.1724 92.7902C43.6156 92.6747 43.2674 92.5991 43.1262 92.5069C42.8444 92.3232 42.6741 92.0897 42.6201 91.8121C42.5112 91.2537 42.9093 90.6811 43.1237 90.3728L43.1777 90.2947C43.5225 89.7861 44.8306 89.6963 46.3455 89.5933C46.6846 89.57 47.027 89.5468 47.3602 89.5177C48.6732 89.4055 50.2222 90.9013 50.7566 92.024C51.0624 92.6656 51.0616 93.1941 50.7549 93.5107C50.0884 94.1996 49.3804 94.537 48.5552 94.537L48.5535 94.5379ZM47.499 89.8792C47.4624 89.8792 47.4258 89.8808 47.3893 89.8842C47.0544 89.9132 46.7095 89.9365 46.368 89.9598C45.1289 90.0445 43.7237 90.1409 43.4793 90.5008L43.4228 90.5822C43.24 90.8457 42.8993 91.3351 42.9782 91.7407C43.0131 91.9193 43.1262 92.0689 43.3239 92.1977C43.4153 92.2567 43.8948 92.3564 44.2447 92.4296C44.7159 92.5276 45.1605 92.6199 45.3716 92.7221C45.6192 92.8418 45.8353 93.0121 46.063 93.1916C46.3862 93.4467 46.7211 93.7102 47.2098 93.893C48.5793 94.4049 49.5591 94.2146 50.4865 93.2556C50.676 93.0595 50.6519 92.6689 50.42 92.1828C49.8973 91.085 48.5344 89.88 47.4965 89.88L47.499 89.8792Z" fill="#010101"/>
<path d="M44.7039 90.8876C44.5784 90.6566 44.6507 90.3881 44.8227 90.1895C45.2366 89.7109 46.0975 88.8092 46.705 88.8616C47.4197 88.9222 48.333 89.72 48.0546 91.082C47.8767 91.9521 47.0972 91.5258 46.9925 91.1809C46.8812 90.8128 46.7183 90.4081 46.5305 90.576C46.3244 90.7596 45.1734 91.7518 44.7031 90.8884L44.7039 90.8876Z" fill="white"/>
<path d="M47.5836 91.7751C47.2378 91.7751 46.8971 91.4934 46.8174 91.2308C46.7243 90.9225 46.6536 90.7945 46.6162 90.7422C46.3204 90.9998 45.6639 91.5001 45.1104 91.4045C44.8703 91.363 44.6742 91.2134 44.5429 90.9724C44.3899 90.6907 44.444 90.3441 44.6841 90.0657C45.2584 89.4009 46.0769 88.6198 46.721 88.6746C47.1614 88.712 47.6027 88.9729 47.901 89.3718C48.1486 89.7026 48.4071 90.2735 48.2351 91.1145C48.1179 91.6887 47.7614 91.7668 47.6135 91.7735C47.6035 91.7735 47.5935 91.7735 47.5844 91.7735L47.5836 91.7751ZM46.6187 90.3491C46.6445 90.3491 46.6711 90.3524 46.6977 90.3599C46.8838 90.4123 47.0201 90.6333 47.1689 91.1236C47.2038 91.2391 47.4157 91.417 47.596 91.407C47.7331 91.4004 47.827 91.2774 47.8752 91.0414C48.0198 90.3333 47.8088 89.8621 47.6068 89.5921C47.3741 89.2804 47.0226 89.0693 46.6902 89.0411C46.3196 89.0095 45.6747 89.4824 44.9625 90.3059C44.8545 90.4306 44.773 90.625 44.8661 90.7962C44.9442 90.9391 45.044 91.0189 45.1736 91.0414C45.5193 91.1004 46.0379 90.7671 46.4093 90.4347C46.4725 90.3782 46.5456 90.3491 46.6196 90.3491H46.6187Z" fill="#010101"/>
<path d="M30.5486 84.0279C28.7104 79.4074 26.7367 75.0836 24.4414 71.457C26.1034 72.6396 27.5178 74.3024 29.5522 72.9205C30.0998 76.2171 30.9259 80.1852 30.5486 84.0279Z" fill="white"/>
<path d="M30.5521 84.2075C30.4782 84.2075 30.41 84.1626 30.3818 84.092C28.2502 78.7352 26.3147 74.7505 24.2904 71.5519C24.243 71.478 24.2555 71.3807 24.3195 71.3201C24.3826 71.2594 24.4807 71.2527 24.5522 71.3034C24.8222 71.4954 25.0865 71.7007 25.3425 71.8993C26.6912 72.9464 27.8555 73.8497 29.4535 72.7644C29.505 72.7295 29.5715 72.7228 29.6288 72.7477C29.6862 72.7727 29.7277 72.825 29.7377 72.8865C29.8034 73.2829 29.874 73.6901 29.9446 74.1048C30.4715 77.1671 31.069 80.6374 30.7349 84.0421C30.7266 84.1269 30.6618 84.1942 30.5779 84.2058C30.5696 84.2067 30.5604 84.2075 30.5521 84.2075ZM25.1156 72.1893C26.8749 75.107 28.5843 78.6571 30.43 83.2252C30.607 80.1206 30.0651 76.971 29.5831 74.168C29.5275 73.8472 29.4734 73.5306 29.4211 73.2206C27.7183 74.2103 26.397 73.1849 25.1172 72.191C25.1172 72.191 25.1172 72.191 25.1164 72.191L25.1156 72.1893Z" fill="#010101"/>
<path d="M24.5061 70.8059C25.8357 71.7948 27.7894 72.6582 29.1448 72.8153C28.7235 74.0519 29.0426 74.194 28.072 75.2668C25.6196 73.8366 25.141 72.4629 24.1338 71.1823C23.941 70.938 24.2568 70.6197 24.5061 70.8059Z" fill="white"/>
<path d="M28.0723 75.4507C28.0407 75.4507 28.0083 75.4424 27.9801 75.4258C26.0671 74.3097 25.3399 73.2385 24.636 72.2014C24.4233 71.8881 24.2222 71.5914 23.9895 71.2964C23.8466 71.1152 23.8599 70.8726 24.0211 70.7072C24.184 70.5394 24.4291 70.5194 24.6169 70.659C25.9524 71.6521 27.8654 72.4823 29.1668 72.6335C29.2224 72.6402 29.2715 72.6709 29.3014 72.7183C29.3313 72.7657 29.338 72.823 29.3197 72.8753C29.1892 73.2584 29.1327 73.5285 29.0828 73.767C28.9748 74.2823 28.9042 74.6222 28.2086 75.3908C28.1729 75.4307 28.123 75.4515 28.0723 75.4515V75.4507ZM24.346 70.9341C24.3186 70.9341 24.2978 70.9499 24.2854 70.9632C24.2629 70.9864 24.2438 71.0238 24.2795 71.0687C24.5197 71.3737 24.7341 71.6895 24.941 71.9945C25.605 72.9734 26.2914 73.9848 28.0366 75.031C28.5718 74.4186 28.6274 74.1526 28.7238 73.6906C28.7645 73.497 28.8128 73.2651 28.9042 72.9659C27.5587 72.7474 25.7064 71.9247 24.3984 70.9524C24.3793 70.9383 24.3618 70.9333 24.3469 70.9333L24.346 70.9341Z" fill="#010101"/>
<path d="M29.0438 73.1735C29.6405 72.4588 29.7926 71.6702 29.6056 70.8242C30.6535 71.4699 31.1745 72.5336 31.3931 73.8375C30.6709 73.1369 29.7834 73.1336 29.043 73.1735H29.0438Z" fill="white"/>
<path d="M31.3938 74.0208C31.3473 74.0208 31.3008 74.0033 31.2659 73.9693C30.606 73.3294 29.8116 73.3161 29.0537 73.3568C28.9839 73.361 28.9124 73.3211 28.8792 73.2554C28.8459 73.1898 28.8551 73.1117 28.9025 73.0551C29.4385 72.4128 29.6097 71.6964 29.426 70.8637C29.4102 70.7914 29.4393 70.7167 29.4991 70.6743C29.5598 70.6319 29.6396 70.6294 29.7019 70.6676C30.7116 71.2892 31.324 72.3164 31.575 73.8064C31.5883 73.8845 31.5493 73.9626 31.4794 73.9992C31.4529 74.0133 31.4229 74.02 31.3938 74.02V74.0208ZM29.48 72.9762C30.0202 72.9762 30.5886 73.0518 31.113 73.3826C30.8803 72.4319 30.4648 71.7197 29.8531 71.2236C29.9072 71.8585 29.7617 72.4452 29.4177 72.9762C29.4385 72.9762 29.4592 72.9762 29.48 72.9762Z" fill="#010101"/>
<path d="M17.1043 121.725L3.61189 121.605C2.80165 121.597 2.20248 120.857 2.37284 120.074L4.5069 110.25C4.6864 109.424 5.4285 108.836 6.28279 108.844L17.8564 108.946L17.1052 121.725H17.1043Z" fill="white"/>
<path d="M17.1084 121.909H17.1068L3.61435 121.79C3.16976 121.785 2.75591 121.585 2.48001 121.239C2.20827 120.899 2.10522 120.46 2.19663 120.035L4.33069 110.211C4.52764 109.304 5.34869 108.65 6.28774 108.66L17.8614 108.762C17.912 108.762 17.9594 108.784 17.9943 108.821C18.0284 108.857 18.0467 108.907 18.0433 108.957L17.2913 121.736C17.2855 121.833 17.2048 121.908 17.1076 121.908L17.1084 121.909ZM6.27029 109.028C5.5124 109.028 4.85008 109.557 4.69052 110.29L2.55647 120.114C2.48749 120.43 2.56477 120.757 2.76754 121.011C2.97447 121.269 3.28444 121.42 3.61768 121.423L16.9356 121.541L17.6661 109.131L6.28525 109.03C6.28027 109.03 6.27528 109.03 6.27112 109.03L6.27029 109.028Z" fill="#010101"/>
<path d="M18.8359 121.739L16.2174 121.716C15.4071 121.708 14.808 120.968 14.9783 120.185L17.3293 109.364C17.3824 109.118 17.6035 108.943 17.8578 108.945L18.5309 108.951C18.8101 108.954 19.0403 109.167 19.0611 109.443L19.8838 120.634C19.9279 121.234 19.4442 121.744 18.8351 121.739H18.8359Z" fill="white"/>
<path d="M18.8453 121.923C18.8453 121.923 18.8378 121.923 18.8345 121.923L16.2159 121.9C15.7713 121.896 15.3575 121.696 15.0816 121.35C14.8098 121.009 14.7068 120.571 14.7982 120.146L17.1491 109.325C17.2206 108.998 17.5156 108.762 17.853 108.762H17.8597L18.5328 108.768C18.9051 108.771 19.2176 109.062 19.2442 109.43L20.0669 120.62C20.0918 120.955 19.973 121.289 19.7428 121.535C19.5117 121.782 19.1843 121.923 18.8444 121.923H18.8453ZM17.853 109.13C17.6877 109.13 17.5431 109.245 17.509 109.404L15.158 120.225C15.0891 120.541 15.1663 120.867 15.3691 121.121C15.576 121.38 15.886 121.53 16.2192 121.534L18.8378 121.557C19.0755 121.562 19.3115 121.46 19.4752 121.285C19.6381 121.111 19.7187 120.885 19.7012 120.649L18.8785 109.458C18.8652 109.279 18.7123 109.138 18.5303 109.137L17.8572 109.131H17.8539L17.853 109.13Z" fill="#010101"/>
<path d="M15.3432 114.271C15.3432 114.271 15.3383 114.271 15.3358 114.271L4.77184 114.177C4.67046 114.177 4.58902 114.094 4.58985 113.992C4.58985 113.891 4.67129 113.811 4.77517 113.81L15.3391 113.904C15.3391 113.904 15.3424 113.904 15.3441 113.904C15.5709 113.904 15.7671 113.753 15.8219 113.535L16.7876 109.655C16.8117 109.556 16.9114 109.496 17.0103 109.521C17.1092 109.546 17.169 109.646 17.1441 109.744L16.1784 113.624C16.0829 114.006 15.7405 114.272 15.3441 114.272L15.3432 114.271Z" fill="#010101"/>
<path d="M11.2577 114.052L10.9511 115.231C10.9012 115.43 10.72 115.57 10.5123 115.567L8.41978 115.549C8.19208 115.547 8.0292 115.33 8.09152 115.114L8.40731 114.027L11.2569 114.052H11.2577Z" fill="white"/>
<path d="M10.5205 115.755H10.5146L8.42213 115.737C8.25427 115.735 8.10136 115.658 8.00164 115.524C7.90358 115.392 7.87366 115.225 7.91937 115.067L8.23515 113.98C8.25759 113.901 8.3274 113.847 8.41299 113.848L11.2626 113.873C11.3191 113.873 11.3723 113.9 11.4072 113.945C11.4421 113.99 11.4537 114.048 11.4387 114.103L11.1321 115.281C11.0623 115.56 10.8113 115.756 10.5196 115.756L10.5205 115.755ZM8.54928 114.216L8.27172 115.169C8.25344 115.233 8.2792 115.281 8.29665 115.304C8.32657 115.344 8.37393 115.368 8.42546 115.368L10.518 115.387C10.6401 115.384 10.7473 115.307 10.7764 115.189L11.0241 114.237L8.54928 114.215V114.216Z" fill="#010101"/>
<path d="M14.3128 120.893H14.3112L3.08825 120.793C2.98687 120.792 2.90543 120.709 2.90626 120.608C2.90709 120.506 2.98188 120.426 3.09157 120.426L14.3145 120.525C14.4159 120.526 14.4973 120.609 14.4965 120.711C14.4957 120.811 14.4134 120.893 14.3128 120.893Z" fill="#010101"/>
<path d="M8.95256 108.422L8.07666 108.414C7.83982 108.412 7.64619 108.6 7.64453 108.834L9.37804 108.849C9.3797 108.614 9.19023 108.423 8.95339 108.421L8.95256 108.422Z" fill="#010101"/>
<path d="M15.976 108.484L15.1001 108.477C14.8633 108.474 14.6696 108.663 14.668 108.897L16.4015 108.912C16.4031 108.678 16.2137 108.487 15.9768 108.484H15.976Z" fill="#010101"/>
<path d="M15.7459 108.456L15.8946 107.627C16.0002 107.04 15.603 106.559 15.0088 106.554L9.7559 106.508C9.16089 106.503 8.59414 106.974 8.4886 107.562L8.33984 108.39L8.821 108.506L8.92488 107.831C9.00715 107.374 9.38111 106.925 9.84399 106.929L14.7703 106.973C15.2332 106.977 15.5415 107.351 15.46 107.808L15.3445 108.453L15.7467 108.457L15.7459 108.456Z" fill="#010101"/>
<path d="M14.7405 106.207L9.91312 106.164C9.71866 106.162 9.53251 106.329 9.49844 106.536L9.42365 106.986C9.38874 107.193 9.51838 107.362 9.71367 107.364L14.5411 107.406C14.7355 107.408 14.9217 107.242 14.9557 107.034L15.0305 106.585C15.0654 106.378 14.9358 106.208 14.7405 106.206V106.207Z" fill="white"/>
<path d="M14.5401 107.596H14.5351L9.70775 107.553C9.56398 107.551 9.436 107.492 9.34625 107.385C9.25152 107.272 9.21246 107.117 9.23822 106.96L9.31301 106.51C9.36287 106.213 9.62464 105.988 9.91052 105.984L14.7379 106.027C14.8817 106.028 15.0096 106.087 15.0994 106.195C15.1941 106.308 15.2332 106.462 15.2066 106.619L15.1318 107.068C15.0828 107.364 14.8227 107.594 14.5385 107.594L14.5401 107.596ZM9.90719 106.353C9.80331 106.353 9.69611 106.455 9.67617 106.572L9.60138 107.021C9.59307 107.072 9.60304 107.12 9.62797 107.149C9.64791 107.174 9.67617 107.185 9.71107 107.186L14.5385 107.229C14.6349 107.229 14.7512 107.128 14.7703 107.011L14.8451 106.562C14.8534 106.51 14.8443 106.464 14.8185 106.434C14.7986 106.41 14.7703 106.398 14.7354 106.397L9.90802 106.355H9.90636L9.90719 106.353Z" fill="#010101"/>
<path d="M16.1997 120.909C16.1349 120.909 16.0717 120.875 16.0385 120.814C15.9895 120.725 16.0219 120.614 16.1108 120.565L17.8343 119.613L17.9224 109.709C17.9232 109.608 17.9972 109.527 18.1077 109.527C18.2091 109.528 18.2906 109.611 18.2897 109.713L18.2008 119.725C18.2008 119.791 18.1642 119.852 18.1061 119.884L16.2886 120.887C16.2604 120.903 16.2296 120.911 16.1997 120.911V120.909Z" fill="#010101"/>
<path d="M11.2902 102.615C11.2902 102.615 11.1805 103.367 10.6503 104.047C10.1193 104.728 9.43785 106.212 9.67884 107.257C9.85585 108.025 12.0689 108.393 12.4287 108.233C12.9098 108.02 12.4121 105.942 13.0802 106.088C14.306 106.357 14.1082 105.372 13.863 104.563C13.6179 103.755 13.1999 102.344 13.1999 102.344L11.2902 102.615Z" fill="white"/>
<path d="M12.1324 108.453C11.613 108.453 10.762 108.281 10.1869 107.994C9.7922 107.796 9.56118 107.563 9.49968 107.298C9.24539 106.194 9.9343 104.667 10.5052 103.934C11.0005 103.3 11.1077 102.597 11.1085 102.589C11.1202 102.508 11.1842 102.445 11.2648 102.434L13.1744 102.162C13.2642 102.149 13.3506 102.204 13.3764 102.292C13.3764 102.292 13.7936 103.702 14.0387 104.51C14.2265 105.129 14.3562 105.751 14.037 106.097C13.8384 106.311 13.5035 106.369 13.0407 106.268C13.0099 106.261 13.0024 106.268 12.9999 106.27C12.8894 106.355 12.8736 106.846 12.8636 107.171C12.8445 107.754 12.8287 108.257 12.5038 108.401C12.4249 108.436 12.2952 108.453 12.1332 108.453H12.1324ZM11.4459 102.779C11.3878 103.038 11.2182 103.618 10.7952 104.161C10.2842 104.816 9.63347 106.241 9.85785 107.215C9.89192 107.363 10.0673 107.523 10.3515 107.665C11.0678 108.023 12.1764 108.144 12.3542 108.065C12.4681 108.014 12.4864 107.436 12.4955 107.159C12.513 106.629 12.5271 106.171 12.7739 105.979C12.8404 105.926 12.9551 105.872 13.1196 105.908C13.344 105.957 13.639 105.986 13.7678 105.847C13.988 105.608 13.7703 104.888 13.688 104.617C13.4919 103.969 13.1844 102.935 13.0697 102.548L11.4468 102.779H11.4459Z" fill="#010101"/>
<path d="M22.1414 75.0739C22.8818 75.5568 23.4287 76.2889 23.6647 77.1398C24.0727 78.6099 24.1159 80.9792 21.6445 83.4498C17.5982 87.4935 14.6697 88.8697 14.4104 102.921L10.375 102.967C10.375 102.967 9.13345 93.7752 10.7606 89.2162C12.2174 85.1326 15.8099 75.7155 19.5303 74.4581C20.1254 74.257 21.617 74.7316 22.1431 75.0748L22.1414 75.0739Z" fill="white"/>
<path d="M10.3728 103.148C10.2806 103.148 10.2033 103.08 10.1908 102.989C10.1401 102.612 8.96176 93.7005 10.5856 89.1515C12.782 82.9953 16.106 75.4173 19.4692 74.2804C20.1523 74.0494 21.6971 74.5622 22.2415 74.917C23.0268 75.4289 23.5952 76.2001 23.8412 77.0876C24.2791 78.6674 24.2766 81.0749 21.7736 83.5762C21.3897 83.9602 21.0157 84.3192 20.6542 84.6674C17.2711 87.9225 14.8263 90.2751 14.5928 102.921C14.5911 103.02 14.5105 103.1 14.4108 103.101L10.3753 103.147H10.3728V103.148ZM19.8814 74.5912C19.765 74.5912 19.6645 74.6029 19.5864 74.6295C17.0351 75.4921 14.0426 80.5563 10.9313 89.2754C9.45539 93.4122 10.3811 101.534 10.5349 102.779L14.2288 102.737C14.4847 90.0939 16.9686 87.7047 20.3991 84.4039C20.7589 84.0574 21.132 83.6992 21.5135 83.3178C23.891 80.9411 23.8993 78.6724 23.4872 77.1874C23.2644 76.3862 22.7509 75.6899 22.0403 75.2261C21.6041 74.9419 20.5138 74.5912 19.8822 74.5912H19.8814Z" fill="#010101"/>
<path d="M70.6508 95.8471C70.6508 98.6185 64.7447 99.0648 60.8938 99.0648C57.0428 99.0648 56.6797 97.7883 56.6797 95.0177C56.6797 92.2471 59.8018 90 63.6528 90C67.5037 90 70.6508 93.0764 70.6508 95.8471Z" fill="white"/>
<path d="M60.8899 99.2485C56.926 99.2485 56.4922 97.8939 56.4922 95.0178C56.4922 92.1416 59.7024 89.8164 63.6489 89.8164C67.5954 89.8164 70.8314 93.0582 70.8314 95.8471C70.8314 98.636 65.4256 99.2485 60.8908 99.2485H60.8899ZM63.6489 90.1837C59.9052 90.1837 56.8603 92.3518 56.8603 95.0178C56.8603 97.6837 57.2251 98.8812 60.8908 98.8812C64.5564 98.8812 70.4641 98.4873 70.4641 95.8479C70.4641 93.2086 67.4874 90.1845 63.6498 90.1845L63.6489 90.1837Z" fill="#010101"/>
<path d="M62.0536 141.324L62.8198 146.749H60.3135L58.6797 140.855L62.0536 141.324Z" fill="white"/>
<path d="M62.8238 146.929H60.3175C60.2352 146.929 60.1621 146.874 60.1405 146.795L58.5067 140.901C58.4901 140.841 58.505 140.777 58.5457 140.731C58.5864 140.684 58.6479 140.661 58.7094 140.67L62.0834 141.138C62.1648 141.149 62.2288 141.213 62.2404 141.294L63.0058 146.72C63.0133 146.772 62.9975 146.826 62.9626 146.866C62.9277 146.906 62.877 146.929 62.8238 146.929ZM60.4571 146.561H62.6119L61.8956 141.483L58.9363 141.072L60.4579 146.561H60.4571Z" fill="#010101"/>
<path d="M51.7332 151.167H63.1739C63.7697 151.167 64.2268 150.567 64.1403 149.897C63.9434 148.377 63.596 145.912 63.296 144.906C62.8481 143.404 61.4005 145.798 61.4005 145.798L59.8032 144.27C59.8032 144.27 53.013 147.496 51.282 150.137C51.0036 150.563 51.2662 151.167 51.7332 151.167Z" fill="white"/>
<path d="M63.1754 151.351H51.7348C51.468 151.351 51.2287 151.201 51.0924 150.95C50.9362 150.66 50.9503 150.311 51.129 150.037C52.8683 147.383 59.4458 144.237 59.725 144.104C59.794 144.071 59.8754 144.084 59.9311 144.137L61.3663 145.51C61.6596 145.064 62.3336 144.158 62.9078 144.232C63.1696 144.265 63.3599 144.474 63.4729 144.854C63.7804 145.886 64.1377 148.442 64.3239 149.874C64.3762 150.277 64.2599 150.673 64.0048 150.964C63.7854 151.214 63.4904 151.352 63.1754 151.352V151.351ZM59.7699 144.491C58.8757 144.926 52.9988 147.856 51.4373 150.239C51.3334 150.397 51.3251 150.608 51.4165 150.777C51.4506 150.839 51.5486 150.985 51.7348 150.985H63.1754C63.3832 150.985 63.5801 150.891 63.7289 150.722C63.9142 150.511 63.9981 150.22 63.9599 149.922C63.7754 148.501 63.4222 145.968 63.1214 144.96C63.0749 144.804 62.9918 144.614 62.8621 144.597C62.5339 144.555 61.9006 145.33 61.5591 145.895C61.53 145.942 61.481 145.974 61.4261 145.982C61.3713 145.989 61.3156 145.971 61.2749 145.933L59.7699 144.493V144.491Z" fill="#010101"/>
<path d="M63.1128 150.367H52.4258C52.3245 150.367 52.2422 150.285 52.2422 150.184C52.2422 150.082 52.3245 150 52.4258 150H63.1128C63.2141 150 63.2964 150.082 63.2964 150.184C63.2964 150.285 63.2141 150.367 63.1128 150.367Z" fill="#010101"/>
<path d="M75.9804 137.316C76.2164 137.922 78.8882 144.127 78.8882 144.127L76.8779 146.645L75.4885 145.022L72.7461 137.923L75.9813 137.317L75.9804 137.316Z" fill="white"/>
<path d="M76.878 146.831C76.824 146.831 76.7733 146.808 76.7384 146.767L75.3489 145.145C75.3356 145.129 75.3248 145.111 75.3174 145.092L72.575 137.992C72.5551 137.942 72.5592 137.884 72.5858 137.837C72.6124 137.79 72.6589 137.756 72.7121 137.746L75.9473 137.14C76.0345 137.124 76.1201 137.171 76.1525 137.254C76.3852 137.849 79.0312 143.997 79.0578 144.059C79.0844 144.121 79.0752 144.193 79.0329 144.246L77.0226 146.763C76.9885 146.806 76.937 146.831 76.8822 146.832C76.8813 146.832 76.8797 146.832 76.8788 146.832L76.878 146.831ZM75.6481 144.93L76.873 146.36L78.6755 144.103C78.3373 143.318 76.2847 138.545 75.8667 137.529L72.9972 138.066L75.6489 144.931L75.6481 144.93Z" fill="#010101"/>
<path d="M80.4047 143.688C80.7612 144.033 80.8784 144.555 80.7064 145.019C80.1214 146.599 78.5383 150.102 75.717 151.132C73.4707 151.952 71.9342 151.956 71.0765 151.833C70.6693 151.775 70.4599 151.315 70.6768 150.966C71.6167 149.451 73.8314 145.709 74.0333 143.779C74.2901 141.324 77.2111 144.253 77.2111 144.253L78.7842 142.117L80.4064 143.687L80.4047 143.688Z" fill="white"/>
<path d="M71.9464 152.075C71.599 152.075 71.3007 152.051 71.0505 152.015C70.7996 151.98 70.586 151.821 70.478 151.59C70.3691 151.356 70.3849 151.087 70.5204 150.868C71.4553 149.361 73.6525 145.65 73.8503 143.759C73.9126 143.164 74.132 142.795 74.5034 142.665C75.361 142.361 76.7139 143.529 77.1876 143.974L78.6361 142.008C78.6677 141.966 78.7159 141.938 78.7691 141.934C78.8222 141.93 78.8738 141.948 78.912 141.985L80.5341 143.555C80.9413 143.949 81.0776 144.549 80.8798 145.082C80.3181 146.598 78.6968 150.239 75.7807 151.304C74.1436 151.901 72.8705 152.074 71.9472 152.074L71.9464 152.075ZM74.8209 142.98C74.7511 142.98 74.6854 142.99 74.6256 143.011C74.4004 143.091 74.2616 143.356 74.2159 143.797C74.0106 145.764 71.7818 149.532 70.8328 151.062C70.763 151.175 70.7547 151.314 70.8112 151.434C70.8669 151.554 70.9733 151.633 71.1029 151.651C71.9755 151.775 73.4721 151.756 75.6544 150.959C78.4267 149.947 79.9907 146.423 80.535 144.955C80.6821 144.559 80.5815 144.112 80.2782 143.819L78.8073 142.395L77.3588 144.362C77.3272 144.405 77.2782 144.432 77.2242 144.436C77.171 144.44 77.1187 144.42 77.0804 144.382C76.6624 143.964 75.5198 142.98 74.8209 142.98Z" fill="#010101"/>
<path d="M72.3201 150.912C72.2312 150.912 72.1523 150.847 72.139 150.755C72.1232 150.655 72.1922 150.561 72.2927 150.546C78.2295 149.631 79.6605 144.597 79.6747 144.546C79.7012 144.448 79.8026 144.391 79.8999 144.416C79.9979 144.443 80.0561 144.543 80.0295 144.642C80.0154 144.695 78.5287 149.957 72.3484 150.909C72.3392 150.911 72.3293 150.912 72.3201 150.912Z" fill="#010101"/>
<path d="M75.1904 147.551C75.163 147.551 75.1347 147.544 75.1081 147.531L73.1129 146.524C73.0223 146.478 72.9857 146.367 73.0314 146.277C73.0771 146.186 73.1876 146.15 73.2782 146.195L75.2735 147.203C75.3641 147.248 75.4007 147.359 75.3549 147.449C75.3225 147.513 75.2577 147.551 75.1904 147.551Z" fill="#010101"/>
<path d="M58.6846 148.073C58.6239 148.073 58.5649 148.043 58.53 147.989L57.1622 145.873C57.1073 145.788 57.1314 145.674 57.217 145.619C57.3026 145.564 57.4165 145.588 57.4713 145.674L58.8392 147.79C58.894 147.875 58.8699 147.989 58.7843 148.044C58.7536 148.064 58.7187 148.073 58.6846 148.073Z" fill="#010101"/>
<path d="M64.3552 93.3242C64.3552 93.3242 69.8483 97.7752 71.1297 102.368C72.1942 106.185 74.1903 128.456 74.1903 128.456C74.1903 128.456 77.3848 137.343 77.5443 139.927C77.5443 139.927 75.0097 141.734 73.0635 141.457L68.6233 130.701C68.6233 130.701 67.6436 129.402 67.1657 127.892C66.6879 126.382 62.6525 112.183 62.6525 112.183C62.6525 112.183 62.3259 133.182 62.9641 142.118C62.9641 142.118 60.0688 142.561 58.3403 142.186C58.3403 142.186 57.6788 134.895 56.8918 133.112C56.1049 131.328 55.9378 128.533 56.1888 125.856C56.4406 123.179 53.7955 107.99 54.481 94.5882L64.3544 93.3259L64.3552 93.3242Z" fill="#010101"/>
<path d="M68.5818 100.911H68.5809C66.6546 100.899 65.2353 100.412 64.3635 99.4631C63.3904 98.4035 63.476 97.167 63.4801 97.1146C63.4885 97.0133 63.5757 96.9376 63.6779 96.9459C63.7793 96.9542 63.8541 97.0423 63.8466 97.1429C63.8458 97.1545 63.7727 98.2797 64.6386 99.2188C65.4397 100.086 66.766 100.532 68.5826 100.543C68.684 100.543 68.7663 100.626 68.7654 100.727C68.7654 100.828 68.6823 100.91 68.5818 100.91V100.911Z" fill="white"/>
<path d="M72.7443 133.674C72.7385 133.674 72.7327 133.674 72.726 133.673C72.6446 133.665 70.7091 133.453 69.1393 131.397C69.0778 131.316 69.0928 131.201 69.1742 131.139C69.2548 131.078 69.3704 131.093 69.4319 131.174C70.8994 133.097 72.7443 133.306 72.7626 133.307C72.8631 133.317 72.9371 133.408 72.9271 133.508C72.918 133.603 72.8382 133.674 72.7443 133.674Z" fill="white"/>
<path d="M63.6596 117.443C63.5782 117.443 63.5034 117.388 63.4818 117.306L60.9705 107.693L58.5987 106.456C58.509 106.41 58.4741 106.298 58.5206 106.208C58.5672 106.119 58.6785 106.083 58.7683 106.13L61.2123 107.405C61.2588 107.429 61.2921 107.472 61.3054 107.521L63.8375 117.213C63.8632 117.311 63.8042 117.411 63.7062 117.437C63.6904 117.441 63.6746 117.443 63.6596 117.443Z" fill="white"/>
<path d="M72.6925 78.5076C72.3202 77.0093 71.7468 76.1558 71.1235 75.6971C70.8991 75.3622 70.3789 75.1228 69.6925 74.9733C68.5997 74.7356 65.1044 74.4223 63.3169 74.542C60.9809 74.699 59.4385 75.3755 57.3161 75.8541C56.3189 76.0785 55.2153 77.0541 54.8505 78.0081C52.6624 83.733 53.1627 93.8299 53.2541 95.3698C53.2616 95.492 53.3438 95.595 53.4618 95.6299C54.4964 95.9374 59.4568 97.2205 63.651 95.015C68.3604 92.5377 70.6241 96.2789 70.6241 96.2789C70.772 94.2961 70.6573 90.6255 69.9318 88.5995C70.447 87.9762 70.8551 87.3297 71.1601 86.7031C73.6215 81.6522 72.6925 78.5068 72.6925 78.5068V78.5076Z" fill="white"/>
<path d="M70.623 96.4653C70.5598 96.4653 70.5 96.4329 70.4659 96.3773C70.377 96.231 68.2305 92.8163 63.7363 95.1806C59.4624 97.4285 54.384 96.0989 53.4101 95.8097C53.2189 95.7532 53.0826 95.582 53.071 95.3842C52.9572 93.472 52.5009 83.6452 54.679 77.9461C55.0671 76.9306 56.2322 75.9134 57.276 75.6782C57.9657 75.5228 58.5989 75.345 59.2122 75.1721C60.4987 74.8106 61.7144 74.4691 63.305 74.3619C65.0485 74.2447 68.5861 74.548 69.7313 74.7973C70.4942 74.9635 71.0077 75.2237 71.257 75.571C71.9867 76.1203 72.5285 77.0934 72.87 78.463C72.9224 78.645 73.7684 81.7746 71.3252 86.7881C71.0102 87.4338 70.6113 88.0571 70.1393 88.6405C70.8399 90.7031 70.9529 94.3379 70.8066 96.2967C70.8008 96.3764 70.7443 96.4429 70.6662 96.4612C70.652 96.4645 70.6371 96.4662 70.623 96.4662V96.4653ZM64.2233 74.7026C63.8942 74.7026 63.5909 74.7109 63.3291 74.7284C61.7768 74.8322 60.5793 75.1688 59.3111 75.5253C58.6937 75.699 58.0555 75.8785 57.3566 76.0356C56.4341 76.2433 55.3654 77.1782 55.0222 78.0757C52.825 83.8239 53.3685 94.1975 53.4383 95.3609C53.4408 95.4058 53.4707 95.4424 53.5148 95.4557C54.4654 95.7382 59.4192 97.0354 63.5659 94.854C67.3903 92.8421 69.6814 94.8498 70.4701 95.7739C70.5648 93.7438 70.416 90.4986 69.7587 88.6637C69.7371 88.6031 69.7487 88.5349 69.7903 88.4851C70.2731 87.9009 70.6786 87.2751 70.9953 86.6253C73.3911 81.7081 72.5252 78.5918 72.5169 78.561C72.5169 78.5585 72.5152 78.5561 72.5144 78.5536C72.1911 77.2522 71.6867 76.3414 71.0152 75.8469C70.9978 75.8345 70.9836 75.8187 70.972 75.8012C70.7867 75.5253 70.3313 75.3018 69.654 75.1547C68.6992 74.9469 66.054 74.7018 64.2241 74.7018L64.2233 74.7026Z" fill="#010101"/>
<path d="M60.0426 92.1717C58.2493 92.1717 56.2581 91.9341 54.08 91.3806C53.982 91.3557 53.9221 91.256 53.9471 91.1571C53.972 91.0582 54.0717 90.9992 54.1706 91.0241C62.3046 93.09 67.7553 90.6992 69.9508 88.0241C70.0157 87.946 70.1312 87.9344 70.2093 87.9984C70.2874 88.0624 70.299 88.1787 70.2351 88.2568C68.5655 90.2911 65.0852 92.1709 60.0434 92.1709L60.0426 92.1717Z" fill="#010101"/>
<path d="M54.2263 88.3208C54.1307 88.3208 54.0501 88.2468 54.0435 88.1496C54.036 88.0482 54.1125 87.9601 54.2138 87.9534C56.5673 87.7872 62.224 86.9728 62.7767 86.6088C64.1985 85.6723 64.6174 84.7 65.7891 80.9471C66.9957 77.082 68.6844 75.9735 68.7558 75.9286C68.765 75.9203 69.3068 75.5081 69.9883 75.312C70.0871 75.2837 70.1877 75.3402 70.216 75.4375C70.2442 75.5347 70.1877 75.6369 70.0905 75.6652C69.4755 75.8422 68.9719 76.2253 68.9669 76.2294C68.9378 76.2494 67.3016 77.338 66.1406 81.0568C64.9564 84.8504 64.4911 85.9216 62.9794 86.9163C62.3138 87.3543 56.5673 88.1554 54.2404 88.3199C54.2363 88.3199 54.2313 88.3199 54.2271 88.3199L54.2263 88.3208Z" fill="#010101"/>
<path d="M53.3061 88.6463C53.0676 88.628 51.4138 88.5416 51.1745 88.5516C48.7105 88.6521 47.6767 89.6203 46.7593 90.8884C45.8418 92.1565 47.1183 93.5435 48.236 93.266C49.3529 92.9884 51.2244 92.2845 53.9385 90.6441C54.2476 90.4571 54.7637 90.3757 54.7338 90.0142C54.6822 89.3884 54.57 88.7444 53.3052 88.6455L53.3061 88.6463Z" fill="white"/>
<path d="M47.9461 93.4846C47.4167 93.4846 46.8749 93.1945 46.5483 92.7109C46.1453 92.1134 46.1685 91.3921 46.6106 90.7804C47.6361 89.3635 48.7555 88.466 51.1671 88.368C51.4239 88.358 53.0884 88.4453 53.3203 88.4635C54.6856 88.5699 54.8577 89.2804 54.9175 90.0001C54.9499 90.394 54.5726 90.5569 54.2967 90.6757C54.1995 90.7181 54.1081 90.7572 54.0341 90.802C51.2145 92.5056 49.3488 93.1796 48.281 93.4455C48.1713 93.4729 48.0591 93.4854 47.9469 93.4854L47.9461 93.4846ZM51.2261 88.7345C51.2078 88.7345 51.1937 88.7345 51.1829 88.7345C48.9101 88.8267 47.8946 89.6336 46.909 90.9948C46.407 91.6887 46.7029 92.2813 46.8533 92.504C47.1649 92.9652 47.7151 93.2053 48.1921 93.0865C49.2358 92.8272 51.0641 92.1657 53.8438 90.4854C53.9394 90.4281 54.0466 90.3815 54.1513 90.3367C54.4413 90.2112 54.5602 90.1414 54.551 90.0292C54.5061 89.484 54.4588 88.9198 53.292 88.8292C53.0402 88.8093 51.5627 88.7345 51.2261 88.7345Z" fill="#010101"/>
<path d="M51.2602 91.2846C51.6691 91.2937 51.9466 91.7184 51.7779 92.0932C51.7613 92.1298 51.743 92.168 51.7206 92.207C51.33 92.9192 50.012 94.1217 49.1328 94.2688C48.2536 94.4159 47.7267 92.6026 48.1563 92.0591C48.7472 91.312 50.5131 91.2672 51.2594 91.2838L51.2602 91.2846Z" fill="white"/>
<path d="M49.0277 94.4649C48.6945 94.4649 48.387 94.2522 48.1518 93.8541C47.8111 93.2782 47.6732 92.3757 48.0106 91.9494C48.6305 91.1649 50.3133 91.0835 51.2623 91.1043C51.5191 91.1101 51.7543 91.2439 51.8923 91.4616C52.0277 91.6768 52.0468 91.9419 51.9438 92.1713C51.9255 92.212 51.9047 92.2544 51.8806 92.2985C51.4767 93.0347 50.128 94.2912 49.1624 94.4533C49.1175 94.4608 49.0726 94.4649 49.0286 94.4649H49.0277ZM51.0479 91.4691C50.3391 91.4691 48.7975 91.5447 48.2981 92.1763C48.0928 92.4364 48.1768 93.1743 48.4676 93.6663C48.574 93.8466 48.7975 94.1417 49.1 94.091C49.9219 93.953 51.1942 92.7829 51.5565 92.1214C51.5756 92.0865 51.5923 92.0533 51.6072 92.0209C51.6604 91.9021 51.6504 91.7699 51.5798 91.6577C51.5083 91.5439 51.3853 91.4741 51.2524 91.4716C51.1967 91.4699 51.1269 91.4691 51.0471 91.4691H51.0479Z" fill="#010101"/>
<path d="M62.682 71.8405C63.203 72.3483 63.8562 72.4472 64.172 72.4946C64.8318 72.5943 67.6515 72.7488 69.5504 70.6248C71.4094 68.5447 71.5988 65.1591 70.5376 64.4686C69.7756 63.9724 68.5656 64.9938 67.4171 64.2242C66.9086 63.8835 67.0291 63.6043 66.4889 63.2428C65.5789 62.6337 64.4088 62.8697 63.513 63.0625C61.8776 63.4148 61.9316 63.8669 60.4931 64.2267C58.4446 64.7395 57.2795 64.088 56.8782 64.747C56.5582 65.2722 56.9671 66.2303 57.5197 66.7863C58.6632 67.9364 60.0809 66.9649 60.961 68.0262C61.5069 68.6852 61.4288 69.5885 62.2424 71.2214C62.3072 71.3519 62.4335 71.5979 62.682 71.8397V71.8405Z" fill="#010101"/>
<path d="M61.0824 73.4333C61.1439 73.2231 61.2079 72.9896 61.2694 72.7461C60.8074 72.9364 60.3229 72.9671 60.0362 72.8101C59.683 72.6164 59.6182 72.2342 59.4761 71.7771C59.4162 71.586 59.3622 71.3633 59.1628 71.1688C59.0572 71.0658 58.9376 70.9976 58.8237 70.9519C58.6833 70.8954 58.6093 70.7417 58.6476 70.5962L58.6841 70.509C58.9741 69.8259 59.1271 69.0921 59.1354 68.35L59.1511 66.8849C59.9514 66.5675 60.2431 66.6215 60.352 66.7478C60.3919 66.7943 60.4517 66.8251 60.4484 67.0511C60.4351 68.1397 61.414 68.0276 62.2334 67.8273C63.0528 67.627 62.7653 69.1453 62.7653 69.1453C62.7653 69.1453 63.2738 68.4888 63.8389 69.0589C64.2445 69.4677 63.4558 70.1367 62.9763 70.4832L63.3004 73.6303C63.386 74.4588 64.1655 74.4505 64.9475 74.7372L67.0566 75.2641C67.0566 75.2641 61.5403 77.7164 58.1406 75.9829L59.9622 75.3596C60.5855 75.0239 60.9187 73.9893 61.0816 73.4317L61.0824 73.4333Z" fill="white"/>
<path d="M61.1171 76.789C60.0476 76.789 58.9814 76.6154 58.0573 76.1442C57.9917 76.1109 57.9518 76.0411 57.9576 75.9672C57.9626 75.8932 58.0116 75.83 58.0814 75.8059L59.888 75.1885C60.4739 74.8602 60.798 73.7458 60.9052 73.3777C60.9393 73.2589 60.9734 73.1409 61.0049 73.0237C60.5953 73.1284 60.2097 73.1109 59.947 72.9672C59.5764 72.7644 59.4692 72.3996 59.3554 72.0132C59.3379 71.9533 59.3196 71.8918 59.2997 71.8287L59.2831 71.7755C59.2307 71.6035 59.1817 71.4414 59.0338 71.2977C58.9573 71.2229 58.8634 71.163 58.7545 71.1198C58.5302 71.0292 58.4072 70.7832 58.4687 70.5464C58.4712 70.5381 58.4737 70.529 58.4778 70.5206L58.5144 70.4342C58.7961 69.7694 58.9432 69.0672 58.9507 68.345L58.9665 66.8799C58.9673 66.8052 59.013 66.7387 59.0828 66.7113C59.8473 66.4079 60.2811 66.3813 60.4905 66.6257C60.5828 66.7237 60.6343 66.8234 60.6318 67.0503C60.6285 67.3304 60.695 67.5207 60.8362 67.6329C61.1329 67.8689 61.7504 67.7525 62.1891 67.6453C62.4709 67.5763 62.6487 67.6736 62.7476 67.7666C62.9745 67.9819 63.0085 68.3999 62.9952 68.7273C63.0866 68.6816 63.1922 68.6475 63.3085 68.6409C63.5445 68.6268 63.7664 68.7223 63.9692 68.9267C64.0897 69.0481 64.1462 69.2002 64.1329 69.3672C64.1046 69.7079 63.7814 70.111 63.1697 70.5663L63.4839 73.6087C63.5354 74.1065 63.8628 74.222 64.4861 74.3982C64.6531 74.4456 64.8251 74.4946 65.0013 74.5586L67.1013 75.0838C67.1778 75.1029 67.2334 75.1677 67.2401 75.2458C67.2467 75.3239 67.2035 75.3979 67.1321 75.4295C66.965 75.5034 64.0282 76.789 61.118 76.789H61.1171ZM58.6407 76.0037C61.3157 77.0525 65.0936 75.8209 66.4622 75.3023L64.9033 74.9126C64.8966 74.9109 64.8908 74.9093 64.885 74.9068C64.7179 74.8461 64.5501 74.7979 64.3864 74.7514C63.8022 74.586 63.1972 74.4148 63.1182 73.6453L62.7933 70.4982C62.7866 70.4326 62.8157 70.3686 62.8689 70.3303C63.4124 69.9381 63.7481 69.5658 63.7664 69.3356C63.7714 69.2766 63.7531 69.2301 63.7082 69.1844C63.5828 69.0572 63.4573 68.9991 63.3326 69.0065C63.0975 69.0198 62.9113 69.2525 62.9096 69.2542C62.8565 69.3207 62.7659 69.3431 62.6886 69.3082C62.6113 69.2733 62.5681 69.1902 62.5839 69.1071C62.6495 68.7581 62.6653 68.1946 62.4941 68.0326C62.475 68.0143 62.4235 67.9653 62.2764 68.0018C61.7188 68.1381 61.0249 68.252 60.6069 67.9196C60.3742 67.7351 60.2587 67.4401 60.2637 67.0445C60.2653 66.9215 60.2479 66.9032 60.2329 66.8874L60.2113 66.8642C60.2063 66.8583 60.0825 66.727 59.3329 67.0079L59.3188 68.3484C59.3105 69.1179 59.1534 69.8675 58.8526 70.5772L58.8219 70.6486C58.8127 70.7035 58.841 70.7567 58.8908 70.7774C59.0446 70.8389 59.1784 70.9254 59.2897 71.0334C59.505 71.2428 59.5773 71.4788 59.6346 71.6675L59.6504 71.7182C59.6712 71.783 59.6894 71.847 59.7077 71.9084C59.8116 72.26 59.8864 72.5143 60.1232 72.6439C60.3534 72.7702 60.7856 72.7411 61.1986 72.5716C61.2626 72.545 61.3365 72.5575 61.3889 72.6023C61.4412 72.6481 61.4637 72.7187 61.447 72.786C61.3897 73.012 61.3257 73.2456 61.2576 73.4791C61.0515 74.1854 60.7025 75.1652 60.0493 75.5176C60.0401 75.5226 60.031 75.5267 60.0218 75.53L58.6407 76.0021V76.0037Z" fill="#010101"/>
<path d="M61.1253 72.9303C61.0488 72.9303 60.9782 72.8829 60.9516 72.8065C60.9184 72.7109 60.969 72.6062 61.0654 72.573C61.8499 72.302 62.199 71.1361 62.2023 71.1245C62.2305 71.0273 62.3327 70.9708 62.4308 70.9998C62.528 71.0281 62.5837 71.1303 62.5555 71.2275C62.5397 71.2832 62.1474 72.5871 61.1859 72.9203C61.166 72.927 61.1461 72.9303 61.1261 72.9303H61.1253Z" fill="#010101"/>
</svg>
