<svg width="20" height="22" viewBox="0 0 20 22" fill="none" xmlns="http://www.w3.org/2000/svg">
<path d="M15.3555 16.8594C15.3555 15.6189 14.346 14.6094 13.1055 14.6094H7.10547C5.86497 14.6094 4.85547 15.6189 4.85547 16.8594V19.8594H7.99347C8.30397 20.7301 9.12897 21.3594 10.1055 21.3594C11.082 21.3594 11.907 20.7301 12.2175 19.8594H15.3555V16.8594ZM10.11 19.8639C9.90469 19.8639 9.70782 19.7823 9.56267 19.6372C9.41752 19.492 9.33597 19.2952 9.33597 19.0899C9.33597 18.8846 9.41752 18.6877 9.56267 18.5426C9.70782 18.3974 9.90469 18.3159 10.11 18.3159C10.3152 18.3159 10.5121 18.3974 10.6573 18.5426C10.8024 18.6877 10.884 18.8846 10.884 19.0899C10.884 19.2952 10.8024 19.492 10.6573 19.6372C10.5121 19.7823 10.3152 19.8639 10.11 19.8639Z" fill="white"/>
<path d="M9.73047 10.8594C11.1802 10.8594 12.3555 9.68412 12.3555 8.23438C12.3555 6.78463 11.1802 5.60938 9.73047 5.60938C8.28072 5.60938 7.10547 6.78463 7.10547 8.23438C7.10547 9.68412 8.28072 10.8594 9.73047 10.8594Z" fill="white"/>
<path d="M19.1055 0.359375H2.60547C1.36497 0.359375 0.355469 1.36888 0.355469 2.60938V17.6094C0.355469 18.8499 1.36497 19.8594 2.60547 19.8594H3.35547V16.8594C3.35547 14.7916 5.03772 13.1094 7.10547 13.1094H13.1055C15.1732 13.1094 16.8555 14.7916 16.8555 16.8594V19.8594H17.6055C18.846 19.8594 19.8555 18.8499 19.8555 17.6094V1.10938C19.8555 0.910463 19.7765 0.719697 19.6358 0.579045C19.4951 0.438393 19.3044 0.359375 19.1055 0.359375ZM9.73047 12.3594C7.45572 12.3594 5.60547 10.5091 5.60547 8.23438C5.60547 5.95963 7.45572 4.10938 9.73047 4.10938C12.0052 4.10938 13.8555 5.95963 13.8555 8.23438C13.8555 10.5091 12.0052 12.3594 9.73047 12.3594Z" fill="white"/>
</svg>
