<svg width="14" height="14" viewBox="0 0 14 14" fill="none" xmlns="http://www.w3.org/2000/svg">
<path d="M7.00044 0C3.13415 0 0 3.13415 0 7.00044C0 10.8667 3.13415 14.0009 7.00044 14.0009C10.8667 14.0009 14.0009 10.8667 14.0009 7.00044C14.0009 3.13415 10.8667 0 7.00044 0ZM2.55787 9.75878C2.4873 9.64525 2.42118 9.52902 2.35967 9.41034C2.00729 8.73409 1.79862 7.97257 1.77379 7.16421C1.68259 4.20598 4.08995 1.7444 7.04934 1.77149C7.90063 1.77912 8.70308 1.99061 9.41125 2.35879C9.52983 2.42051 9.64596 2.48682 9.75938 2.55757C9.81076 2.58948 9.81924 2.66091 9.77661 2.70354L2.70411 9.77601C2.66148 9.81864 2.59005 9.81016 2.55787 9.75878ZM7.00044 12.2297C6.13107 12.2297 5.31139 12.0173 4.59054 11.6421C4.47183 11.5804 4.35551 11.5141 4.24183 11.4436C4.19015 11.4114 4.1817 11.34 4.22433 11.2973L11.2973 4.22433C11.3399 4.1817 11.4114 4.19017 11.4436 4.24183C11.5141 4.35552 11.5803 4.47184 11.6421 4.59054C12.0174 5.31224 12.2297 6.13107 12.2297 7.00044C12.2297 9.88837 9.88922 12.2297 7.00044 12.2297Z" fill="#E94444"/>
<path d="M11.0038 1.25781C12.5418 2.54168 13.5202 4.47328 13.5202 6.63358C13.5202 10.4999 10.386 13.634 6.51971 13.634C5.03086 13.634 3.65013 13.169 2.51562 12.3764C3.73004 13.3909 5.29371 14.0011 6.99971 14.0011C10.866 14.0011 14.0001 10.8669 14.0001 7.00064C14.0001 4.62349 12.8154 2.52303 11.0038 1.25781Z" fill="#D83131"/>
</svg>
