<svg width="56" height="49" viewBox="0 0 56 49" fill="none" xmlns="http://www.w3.org/2000/svg">
<path d="M37.3701 4.58984C37.7636 4.58984 38.085 4.90786 38.085 5.30078C38.0847 5.69351 37.7635 6.01074 37.3701 6.01074C34.0357 6.0109 31.0434 8.22669 30.0938 11.3975C29.9895 11.747 29.6395 11.9534 29.2861 11.8906L29.2803 11.8975L29.2061 11.876C28.8287 11.7641 28.6125 11.3689 28.7256 10.9922L28.8359 10.6494C30.0468 7.13388 33.4018 4.59 37.3701 4.58984Z" fill="#483EA8" stroke="#F9FFF9" stroke-width="0.241664"/>
<path d="M45.6756 34.1861H42.1166C41.789 34.1861 41.5234 33.9221 41.5234 33.5966C41.5234 33.2712 41.789 33.0072 42.1166 33.0072H45.6756C50.5816 33.0072 54.5734 29.0406 54.5734 24.1656C54.5734 19.2905 50.5816 15.3239 45.6756 15.3239H45.59C45.418 15.3239 45.2545 15.2498 45.1418 15.1206C45.0291 14.9913 44.9782 14.8199 45.0028 14.6507C45.0558 14.2836 45.0824 13.9147 45.0824 13.5556C45.0824 9.33059 41.6228 5.89282 37.371 5.89282C35.7169 5.89282 34.1394 6.40647 32.8089 7.37862C32.5166 7.59209 32.1013 7.49735 31.9323 7.17779C28.1643 0.0480905 18.3228 -0.909355 13.2204 5.29286C11.071 7.90576 10.2265 11.3047 10.9032 14.6175C10.9778 14.9833 10.696 15.3244 10.3219 15.3244H10.0842C5.17817 15.3244 1.18643 19.2909 1.18643 24.166C1.18643 29.0411 5.17817 33.0076 10.0842 33.0076H13.6433C13.9708 33.0076 14.2364 33.2716 14.2364 33.5971C14.2364 33.9225 13.9708 34.1865 13.6433 34.1865H10.0842C4.52389 34.1865 0 29.6912 0 24.166C0 18.7957 4.27344 14.3985 9.61854 14.156C9.11645 10.7191 10.0766 7.25229 12.3018 4.5468C17.7646 -2.09409 28.2337 -1.34974 32.6592 6.05534C34.071 5.17581 35.6865 4.7144 37.3708 4.7144C42.5222 4.7144 46.6042 9.07125 46.247 14.1615C51.5428 14.4566 55.7595 18.8307 55.7595 24.1655C55.7595 29.6912 51.2357 34.1861 45.6754 34.1861L45.6756 34.1861Z" fill="#483EA8"/>
<path d="M27.7988 18.4102C36.0419 18.4103 42.749 25.0746 42.749 33.2676C42.749 41.4604 36.0419 48.1248 27.7988 48.125C19.5557 48.125 12.8477 41.4606 12.8477 33.2676C12.8477 25.0746 19.5556 18.4102 27.7988 18.4102ZM27.7988 19.8311C20.342 19.8311 14.2764 25.8598 14.2764 33.2676C14.2764 40.6754 20.3422 46.7041 27.7988 46.7041C35.2554 46.7039 41.3212 40.6752 41.3213 33.2676C41.3213 25.8598 35.2554 19.8312 27.7988 19.8311Z" fill="#483EA8" stroke="#F9FFF9" stroke-width="0.241664"/>
<path d="M28.0674 27.4258C28.373 27.4259 28.6221 27.6729 28.6221 27.9785V39.1982C28.6221 39.5042 28.373 39.7508 28.0674 39.751C27.7616 39.751 27.5117 39.504 27.5117 39.1982V27.9785C27.5117 27.6728 27.7616 27.4258 28.0674 27.4258Z" fill="#483EA8" stroke="#483EA8" stroke-width="0.241664"/>
<path d="M27.6768 27.5879C27.8933 27.3724 28.2442 27.3725 28.4609 27.5879L31.9355 31.04C32.1524 31.2558 32.1523 31.6055 31.9355 31.8213C31.8271 31.9295 31.6843 31.9834 31.543 31.9834C31.4014 31.9834 31.2587 31.9289 31.1504 31.8213L28.0684 28.7588L24.9863 31.8203L24.9873 31.8213C24.7708 32.0369 24.4189 32.0367 24.2021 31.8213C23.9852 31.6055 23.9851 31.2558 24.2021 31.04L27.6768 27.5879Z" fill="#483EA8" stroke="#483EA8" stroke-width="0.241664"/>
</svg>
