<svg width="18" height="18" viewBox="0 0 18 18" fill="none" xmlns="http://www.w3.org/2000/svg">
<path d="M16.2906 6.32713C16.0676 6.10261 15.9419 5.7994 15.9406 5.48297V4.4188C15.9397 3.77128 15.6821 3.15053 15.2242 2.69267C14.7664 2.2348 14.1456 1.97718 13.4981 1.9763H12.4356C12.1197 1.97531 11.8168 1.85021 11.5923 1.62797L10.6839 0.7188C10.2256 0.261624 9.60462 0.00488281 8.95725 0.00488281C8.30988 0.00488281 7.68893 0.261624 7.23058 0.7188L6.32308 1.62797C6.09856 1.85095 5.79535 1.97666 5.47892 1.97797H4.41475C3.76752 1.97885 3.14702 2.23624 2.6892 2.69374C2.23138 3.15125 1.97357 3.77157 1.97225 4.4188V5.48297C1.97126 5.79889 1.84616 6.10177 1.62392 6.3263L0.713917 7.23463C0.256741 7.69298 0 8.31393 0 8.9613C0 9.60867 0.256741 10.2296 0.713917 10.688L1.62392 11.5955C1.8469 11.82 1.97261 12.1232 1.97392 12.4396V13.5038C1.9748 14.1513 2.23242 14.7721 2.69028 15.2299C3.14815 15.6878 3.7689 15.9454 4.41642 15.9463H5.47892C5.79496 15.9475 6.09785 16.0729 6.32225 16.2955L7.23058 17.2046C7.68882 17.662 8.30981 17.9189 8.95725 17.9189C9.60469 17.9189 10.2257 17.662 10.6839 17.2046L11.5914 16.2963C11.8159 16.0733 12.1192 15.9476 12.4356 15.9463H13.4998C14.1473 15.9454 14.768 15.6878 15.2259 15.2299C15.6838 14.7721 15.9414 14.1513 15.9423 13.5038V12.4396C15.9434 12.1234 16.0692 11.8204 16.2922 11.5963L17.2006 10.688C17.6578 10.2296 17.9145 9.60867 17.9145 8.9613C17.9145 8.31393 17.6578 7.69298 17.2006 7.23463L16.2906 6.32713Z" fill="#D7FFCC"/>
<path d="M8.12373 11.2508C8.04164 11.2511 7.96033 11.2349 7.88451 11.2035C7.8087 11.172 7.73988 11.1258 7.68207 11.0675L6.0154 9.40085C5.905 9.28237 5.8449 9.12566 5.84775 8.96375C5.85061 8.80183 5.9162 8.64734 6.03072 8.53283C6.14523 8.41832 6.29971 8.35273 6.46163 8.34987C6.62355 8.34701 6.78025 8.40712 6.89873 8.51752L8.12373 9.74168L11.0154 6.85085C11.1339 6.74045 11.2906 6.68035 11.4525 6.6832C11.6144 6.68606 11.7689 6.75165 11.8834 6.86616C11.9979 6.98068 12.0635 7.13516 12.0664 7.29708C12.0692 7.459 12.0091 7.6157 11.8987 7.73418L8.5654 11.0675C8.50758 11.1258 8.43877 11.172 8.36295 11.2035C8.28714 11.2349 8.20582 11.2511 8.12373 11.2508Z" fill="#55B938"/>
<path d="M8.95725 17.9148C8.6366 17.9152 8.31902 17.8524 8.02272 17.7298C7.72641 17.6073 7.45722 17.4274 7.23059 17.2006L6.32142 16.2906C6.21104 16.1796 6.07974 16.0916 5.93513 16.0316C5.79052 15.9717 5.63546 15.941 5.47892 15.9414H4.41392C3.76655 15.9408 3.14589 15.6833 2.68813 15.2255C2.23037 14.7678 1.97291 14.1471 1.97225 13.4998V12.4356C1.97274 12.2791 1.9422 12.1241 1.88241 11.9795C1.82262 11.8349 1.73477 11.7035 1.62392 11.5931L0.713917 10.6839C0.256741 10.2256 0 9.60462 0 8.95725C0 8.30988 0.256741 7.68893 0.713917 7.23058L1.62392 6.32142C1.73492 6.21104 1.82293 6.07974 1.88286 5.93513C1.94279 5.79052 1.97346 5.63546 1.97308 5.47892V4.41392C1.97375 3.76655 2.2312 3.14589 2.68896 2.68813C3.14672 2.23037 3.76738 1.97291 4.41475 1.97225H5.47892C5.6354 1.97273 5.79042 1.9422 5.93503 1.88241C6.07964 1.82262 6.21097 1.73477 6.32142 1.62392L7.23059 0.713917C7.68893 0.256741 8.30988 0 8.95725 0C9.60462 0 10.2256 0.256741 10.6839 0.713917L11.5931 1.62392C11.7035 1.73492 11.8348 1.82293 11.9794 1.88286C12.124 1.94279 12.279 1.97346 12.4356 1.97308H13.5006C14.148 1.97375 14.7686 2.2312 15.2264 2.68896C15.6841 3.14672 15.9416 3.76738 15.9423 4.41475V5.47892C15.9418 5.6354 15.9723 5.79042 16.0321 5.93503C16.0919 6.07964 16.1797 6.21097 16.2906 6.32142L17.1998 7.23058C17.6569 7.68893 17.9137 8.30988 17.9137 8.95725C17.9137 9.60462 17.6569 10.2256 17.1998 10.6839L16.2906 11.5931C16.1796 11.7035 16.0916 11.8348 16.0316 11.9794C15.9717 12.124 15.941 12.279 15.9414 12.4356V13.5006C15.9408 14.148 15.6833 14.7686 15.2255 15.2264C14.7678 15.6841 14.1471 15.9416 13.4998 15.9423H12.4356C12.279 15.9419 12.124 15.9725 11.9794 16.0325C11.8348 16.0924 11.7035 16.1804 11.5931 16.2914L10.6839 17.2006C10.4573 17.4274 10.1881 17.6073 9.89179 17.7298C9.59548 17.8524 9.2779 17.9152 8.95725 17.9148ZM4.41392 3.22225C4.09794 3.22247 3.79496 3.34809 3.57153 3.57153C3.34809 3.79496 3.22247 4.09794 3.22225 4.41392V5.47892C3.22341 5.80006 3.16072 6.11824 3.03783 6.41494C2.91494 6.71165 2.7343 6.98097 2.50642 7.20725L1.59808 8.11558C1.37479 8.33945 1.24939 8.64273 1.24939 8.95892C1.24939 9.27511 1.37479 9.57839 1.59808 9.80225L2.50642 10.7106C2.7341 10.9367 2.91463 11.2057 3.03751 11.5021C3.16039 11.7985 3.22319 12.1164 3.22225 12.4373V13.5023C3.22247 13.8182 3.34809 14.1212 3.57153 14.3446C3.79496 14.5681 4.09794 14.6937 4.41392 14.6939H5.47892C5.79976 14.6932 6.11756 14.756 6.41394 14.8789C6.71032 15.0018 6.97939 15.1822 7.20558 15.4098L8.11392 16.3181C8.33778 16.5414 8.64106 16.6668 8.95725 16.6668C9.27344 16.6668 9.57672 16.5414 9.80058 16.3181L10.7089 15.4098C10.9351 15.1822 11.2042 15.0018 11.5006 14.8789C11.7969 14.756 12.1147 14.6932 12.4356 14.6939H13.5006C13.8166 14.6937 14.1195 14.5681 14.343 14.3446C14.5664 14.1212 14.692 13.8182 14.6923 13.5023V12.4356C14.6913 12.1147 14.7541 11.7969 14.877 11.5005C14.9999 11.2041 15.1804 10.935 15.4081 10.7089L16.3164 9.80058C16.5397 9.57672 16.6651 9.27344 16.6651 8.95725C16.6651 8.64106 16.5397 8.33778 16.3164 8.11392L15.4081 7.20725C15.1805 6.98106 15.0001 6.71198 14.8772 6.4156C14.7544 6.11923 14.6915 5.80142 14.6923 5.48058V4.41392C14.692 4.09794 14.5664 3.79496 14.343 3.57153C14.1195 3.34809 13.8166 3.22247 13.5006 3.22225H12.4356C12.1144 3.22341 11.7963 3.16072 11.4996 3.03783C11.2029 2.91494 10.9335 2.7343 10.7073 2.50642L9.79892 1.59808C9.57506 1.37479 9.27177 1.24939 8.95558 1.24939C8.6394 1.24939 8.33611 1.37479 8.11225 1.59808L7.20725 2.50642C6.98117 2.7341 6.71212 2.91463 6.41571 3.03751C6.11931 3.16039 5.80145 3.22319 5.48058 3.22225H4.41392Z" fill="#55B938"/>
</svg>
