<svg width="139" height="37" viewBox="0 0 139 37" fill="none" xmlns="http://www.w3.org/2000/svg">
<rect width="139" height="36.83" rx="2.60117" fill="white"/>
<g clip-path="url(#clip0_721_27537)">
<mask id="mask0_721_27537" style="mask-type:luminance" maskUnits="userSpaceOnUse" x="26" y="9" width="86" height="18">
<path d="M111.108 9.98438H26.9766V26.3829H111.108V9.98438Z" fill="white"/>
</mask>
<g mask="url(#mask0_721_27537)">
<path d="M40.4492 10.4766H51.8819V13.5361H47.8553V24.9368C47.8553 25.6302 47.2917 26.1918 46.5958 26.1918H44.4758V13.5341H40.4492V10.4766Z" fill="#11117F"/>
<path d="M64.4747 10.7266H75.9073V13.7861H71.8808V25.1868C71.8808 25.8802 71.3172 26.4438 70.6193 26.4438H68.4992V13.7841H64.4727V10.7266H64.4747Z" fill="#11117F"/>
<path d="M78.3711 10.7266H88.2248V13.7861H81.7527V16.6226H87.4476V19.6821H81.7527V25.1868C81.7527 25.8802 81.1891 26.4438 80.4912 26.4438H78.3711V10.7266Z" fill="#11117F"/>
<path d="M108.881 10.7266H111.109V26.3797H107.72L99.7725 16.157V25.1276C99.7725 25.8183 99.1802 26.3797 98.4468 26.3797H96.2188V10.7266H99.5373L107.556 21.0139V11.9766C107.556 11.286 108.148 10.7266 108.879 10.7266H108.881Z" fill="#11117F"/>
<path d="M90.6895 10.7266H92.4128C93.3264 10.7266 94.0691 11.4666 94.0691 12.377V26.4418H90.6875V10.7266H90.6895Z" fill="#11117F"/>
<path d="M29.1551 24.8156C28.0768 23.8992 27.4847 22.6137 27.3789 20.9614H29.8042C30.2722 20.9614 30.6994 21.2188 30.9192 21.6324C31.0657 21.9102 31.2284 22.1636 31.4319 22.3522C31.9874 22.8631 32.7788 23.0132 33.5093 23.0132C34.2926 23.0132 34.903 22.8713 35.3424 22.5854C35.7799 22.2995 35.9976 21.9082 35.9976 21.4135C35.9976 20.9188 35.7677 20.5052 35.3079 20.2193C34.848 19.9333 34.0606 19.6941 32.9436 19.4975C31.2101 19.1974 29.8856 18.6824 28.9741 17.9525C28.0605 17.2246 27.6048 16.1764 27.6048 14.8078C27.6048 13.8306 27.8489 12.979 28.3393 12.2491C28.8296 11.5212 29.5112 10.9616 30.3861 10.5703C31.261 10.179 32.2559 9.98438 33.3709 9.98438C35.0291 9.98438 36.3821 10.4325 37.4321 11.3266C38.4799 12.2207 39.0719 13.4271 39.2082 14.9437H35.7921C35.7026 14.3435 35.4442 13.8914 35.023 13.5913C34.5998 13.2913 34.0281 13.1412 33.3038 13.1412C32.5794 13.1412 32.0362 13.2811 31.6293 13.5589C31.2223 13.8366 31.0189 14.2158 31.0189 14.6963C31.0189 15.1768 31.2345 15.5458 31.6638 15.8013C32.0932 16.0568 32.8663 16.2737 33.9833 16.4542C35.7636 16.7542 37.1228 17.2875 38.0668 18.0539C39.0089 18.8203 39.4809 19.8949 39.4809 21.2776C39.4809 22.2853 39.2245 23.1592 38.7118 23.9032C38.1991 24.6473 37.491 25.215 36.5856 25.6044C35.6802 25.9956 34.6547 26.1903 33.5093 26.1903C31.6842 26.1903 30.2335 25.7321 29.1551 24.8156Z" fill="#11117F"/>
<path d="M58.1662 9.98438L50.2148 26.1822L60.4694 14.6801L58.1662 9.98438Z" fill="#3772FF"/>
<path d="M66.1177 26.1838C60.9538 25.8208 57.4705 19.9452 60.4675 14.6797L66.1177 26.1838Z" fill="#38A3A5"/>
</g>
</g>
<defs>
<clipPath id="clip0_721_27537">
<rect width="84.1316" height="16.3985" fill="white" transform="translate(27 10)"/>
</clipPath>
</defs>
</svg>
