<svg width="155" height="21" viewBox="0 0 155 21" fill="none" xmlns="http://www.w3.org/2000/svg">
<mask id="mask0_1394_23627" style="mask-type:luminance" maskUnits="userSpaceOnUse" x="23" y="0" width="109" height="21">
<path d="M131.072 0H23.3333V21H131.072V0Z" fill="white"/>
</mask>
<g mask="url(#mask0_1394_23627)">
<path d="M40.5839 0.620605H55.2245V4.53863H50.0681V19.1384C50.0681 20.0264 49.3464 20.7456 48.4552 20.7456H45.7403V4.53603H40.5839V0.620605Z" fill="white"/>
<path d="M71.3552 0.954102H85.9957V4.87213H80.8394V19.4719C80.8394 20.3599 80.1177 21.0817 79.2239 21.0817H76.509V4.86954H71.3525V0.954102H71.3552Z" fill="white"/>
<path d="M89.1528 0.954102H101.772V4.87213H93.4833V8.50455H100.776V12.4226H93.4833V19.4719C93.4833 20.3599 92.7616 21.0817 91.8679 21.0817H89.1528V0.954102Z" fill="white"/>
<path d="M128.22 0.954102H131.073V20.9995H126.733L116.555 7.90833V19.3961C116.555 20.2806 115.797 20.9995 114.857 20.9995H112.004V0.954102H116.254L126.523 14.1281V2.55495C126.523 1.67047 127.28 0.954102 128.217 0.954102H128.22Z" fill="white"/>
<path d="M104.926 0.954102H107.133C108.303 0.954102 109.254 1.9018 109.254 3.0676V21.0791H104.923V0.954102H104.926Z" fill="white"/>
<path d="M26.125 18.9925C24.744 17.8189 23.9858 16.1727 23.8503 14.0567H26.9562C27.5554 14.0567 28.1026 14.3864 28.384 14.916C28.5716 15.2718 28.7801 15.5963 29.0406 15.8378C29.7519 16.4921 30.7655 16.6842 31.7009 16.6842C32.704 16.6842 33.4857 16.5025 34.0484 16.1364C34.6087 15.7703 34.8874 15.2691 34.8874 14.6356C34.8874 14.0021 34.5931 13.4725 34.0042 13.1063C33.4153 12.7402 32.407 12.4338 30.9765 12.182C28.7566 11.7977 27.0604 11.1383 25.8931 10.2035C24.7232 9.2714 24.1396 7.92903 24.1396 6.17644C24.1396 4.92495 24.4522 3.83445 25.0802 2.89974C25.7081 1.96761 26.581 1.251 27.7014 0.749883C28.8217 0.24877 30.0959 -0.000488281 31.5237 -0.000488281C33.6472 -0.000488281 35.3799 0.573325 36.7244 1.71835C38.0663 2.86339 38.8244 4.40827 38.999 6.3504H34.6244C34.5097 5.58186 34.1787 5.00285 33.6394 4.61858C33.0975 4.23431 32.3653 4.04217 31.4377 4.04217C30.5101 4.04217 29.8145 4.22132 29.2934 4.57703C28.7722 4.93274 28.5117 5.41828 28.5117 6.03364C28.5117 6.649 28.7879 7.12154 29.3376 7.4487C29.8874 7.77585 30.8775 8.05366 32.308 8.28475C34.5878 8.66902 36.3284 9.35188 37.5373 10.3334C38.7437 11.3148 39.3482 12.6909 39.3482 14.4617C39.3482 15.7521 39.0199 16.8712 38.3633 17.824C37.7067 18.7769 36.7999 19.5039 35.6404 20.0025C34.4811 20.5036 33.1678 20.7529 31.7009 20.7529C29.3637 20.7529 27.5059 20.166 26.125 18.9925Z" fill="white"/>
<path d="M63.277 -0.000488281L53.0945 20.7425L66.2265 6.01286L63.277 -0.000488281Z" fill="#3772FF"/>
<path d="M73.4611 20.7449C66.8482 20.2801 62.3875 12.7557 66.2255 6.0127L73.4611 20.7449Z" fill="#38A3A5"/>
</g>
</svg>
