<svg width="112" height="22" viewBox="0 0 112 22" fill="none" xmlns="http://www.w3.org/2000/svg">
<g clip-path="url(#clip0_1311_33601)">
<mask id="mask0_1311_33601" style="mask-type:luminance" maskUnits="userSpaceOnUse" x="0" y="-1" width="112" height="23">
<path d="M112 -0.00244141H0V21.8281H112V-0.00244141Z" fill="white"/>
</mask>
<g mask="url(#mask0_1311_33601)">
<path d="M17.9326 0.642456H33.1523V4.71543H27.7919V19.8926C27.7919 20.8157 27.0417 21.5634 26.1153 21.5634H23.293V4.71273H17.9326V0.642456Z" fill="#11117F"/>
<path d="M49.9217 0.989746H65.1413V5.06273H59.781V20.2399C59.781 21.163 59.0307 21.9133 58.1016 21.9133H55.2793V5.06003H49.9189V0.989746H49.9217Z" fill="#11117F"/>
<path d="M68.4219 0.989746H81.5396V5.06273H72.9236V8.8388H80.505V12.9118H72.9236V20.2399C72.9236 21.163 72.1733 21.9133 71.2443 21.9133H68.4219V0.989746Z" fill="#11117F"/>
<path d="M109.035 0.989746H112.001V21.8279H107.489L96.9086 8.219V20.1611C96.9086 21.0805 96.1202 21.8279 95.1438 21.8279H92.1777V0.989746H96.5955L107.27 14.6847V2.6539C107.27 1.73444 108.058 0.989746 109.032 0.989746H109.035Z" fill="#11117F"/>
<path d="M84.8201 0.989746H87.1142C88.3304 0.989746 89.3191 1.97492 89.3191 3.18683V21.9106H84.8174V0.989746H84.8201Z" fill="#11117F"/>
<path d="M2.90269 19.7411C1.46713 18.5212 0.678933 16.8099 0.538086 14.6102H3.76674C4.38972 14.6102 4.95852 14.9529 5.25106 15.5035C5.44607 15.8733 5.66276 16.2107 5.93362 16.4617C6.67307 17.1419 7.72671 17.3416 8.6991 17.3416C9.74191 17.3416 10.5545 17.1527 11.1395 16.7721C11.7219 16.3916 12.0117 15.8706 12.0117 15.212C12.0117 14.5535 11.7057 14.0029 11.0936 13.6222C10.4813 13.2416 9.43313 12.9232 7.94612 12.6614C5.63838 12.2619 3.87508 11.5763 2.66163 10.6046C1.44547 9.63564 0.838741 8.24019 0.838741 6.41828C0.838741 5.1173 1.16377 3.98368 1.81654 3.012C2.46932 2.043 3.3767 1.29805 4.5414 0.777117C5.7061 0.256186 7.0306 -0.00292969 8.51492 -0.00292969C10.7224 -0.00292969 12.5236 0.593577 13.9213 1.78389C15.3162 2.97421 16.1044 4.58018 16.2859 6.59912H11.7382C11.619 5.80019 11.2749 5.19828 10.7143 4.79881C10.1509 4.39934 9.38979 4.1996 8.42553 4.1996C7.46127 4.1996 6.73807 4.38584 6.19636 4.75563C5.65464 5.1254 5.38378 5.63014 5.38378 6.26983C5.38378 6.90953 5.67089 7.40077 6.2424 7.74086C6.81392 8.08095 7.84318 8.36975 9.33021 8.60997C11.7002 9.00944 13.5096 9.71931 14.7663 10.7396C16.0204 11.7599 16.6488 13.1904 16.6488 15.0312C16.6488 16.3727 16.3076 17.536 15.625 18.5265C14.9425 19.5171 13.9998 20.2729 12.7945 20.7911C11.5892 21.312 10.224 21.5712 8.6991 21.5712C6.26949 21.5712 4.33825 20.9611 2.90269 19.7411Z" fill="#11117F"/>
<path d="M41.5228 -0.00292969L30.9375 21.5604L44.5889 6.24824L41.5228 -0.00292969Z" fill="#3772FF"/>
<path d="M52.1113 21.5629C45.2369 21.0797 40.5997 13.2577 44.5895 6.24805L52.1113 21.5629Z" fill="#38A3A5"/>
</g>
</g>
<defs>
<clipPath id="clip0_1311_33601">
<rect width="112" height="21.8305" fill="white"/>
</clipPath>
</defs>
</svg>
